<svg width="600" height="600" viewBox="0 0 600 600" fill="none" xmlns="http://www.w3.org/2000/svg">
<g id="line 1">
<g clip-path="url(#clip0)">
<path id="Vector" d="M8.68015 485.858C6.51647 485.858 4.30972 485.173 2.43081 483.738C-2.07761 480.148 -3.01707 473.556 0.492197 468.871L147.794 271.179L290.002 362.308L430.929 199.5L510.172 228.252L584.5 261C584.5 261 584.5 278.181 584.5 285.091C584.5 292 589.692 609.008 584.5 606.485H439.686H305.617H16.9611V481.696C14.8737 484.428 11.7794 485.858 8.68015 485.858Z" fill="#C13531"/>
<path id="Vector_2" d="M588.417 600H0V10.622C0 4.73 4.746 0 10.57 0C16.415 0 21.167 4.73 21.167 10.621V578.84H588.417C594.244 578.84 598.982 583.591 598.982 589.438C598.982 595.271 594.244 600 588.417 600Z" fill="#293C54"/>
</g>
</g>
<defs>
<clipPath id="clip0">
<rect width="600" height="600" fill="white"/>
</clipPath>
</defs>
</svg>
