<svg id="Gradient" height="512" viewBox="0 0 512 512" width="512" xmlns="http://www.w3.org/2000/svg" xmlns:xlink="http://www.w3.org/1999/xlink"><linearGradient id="linear-gradient" gradientUnits="userSpaceOnUse" x1="256" x2="256" y1="424" y2="96"><stop offset="0" stop-color="#12c2e9"/><stop offset=".5" stop-color="#c471ed"/><stop offset="1" stop-color="#f64f59"/></linearGradient><path d="m472 96h-432a24.027 24.027 0 0 0 -24 24v160a24.027 24.027 0 0 0 24 24h432a24.027 24.027 0 0 0 24-24v-160a24.027 24.027 0 0 0 -24-24zm-432 16h432a8.008 8.008 0 0 1 8 8v120h-448v-120a8.008 8.008 0 0 1 8-8zm-8 168v-24h40v32h-32a8.008 8.008 0 0 1 -8-8zm56 8v-32h328v32zm384 0h-40v-32h48v24a8.008 8.008 0 0 1 -8 8zm-8-16a8 8 0 1 1 -8-8 8 8 0 0 1 8 8zm-80-48h72a8 8 0 0 0 8-8v-32a8 8 0 0 0 -8-8h-72a8 8 0 0 0 -8 8v32a8 8 0 0 0 8 8zm8-32h56v16h-56zm-185.531 162.707c-3.758 5.164-6.469 8.893-6.469 17.293s2.711 12.129 6.469 17.293c4.25 5.84 9.531 13.107 9.531 26.707a8 8 0 0 1 -16 0c0-8.4-2.711-12.129-6.469-17.293-4.25-5.84-9.531-13.107-9.531-26.707s5.281-20.867 9.531-26.707c3.758-5.164 6.469-8.893 6.469-17.293a8 8 0 0 1 16 0c0 13.6-5.281 20.867-9.531 26.707zm40 0c-3.758 5.164-6.469 8.893-6.469 17.293s2.711 12.129 6.469 17.293c4.25 5.84 9.531 13.107 9.531 26.707a8 8 0 0 1 -16 0c0-8.4-2.711-12.129-6.469-17.293-4.25-5.84-9.531-13.107-9.531-26.707s5.281-20.867 9.531-26.707c3.758-5.164 6.469-8.893 6.469-17.293a8 8 0 0 1 16 0c0 13.6-5.281 20.867-9.531 26.707zm-80 0c-3.758 5.164-6.469 8.893-6.469 17.293s2.711 12.129 6.469 17.293c4.25 5.84 9.531 13.107 9.531 26.707a8 8 0 0 1 -16 0c0-8.4-2.711-12.129-6.469-17.293-4.25-5.84-9.531-13.107-9.531-26.707s5.281-20.867 9.531-26.707c3.758-5.164 6.469-8.893 6.469-17.293a8 8 0 0 1 16 0c0 13.6-5.281 20.867-9.531 26.707zm160 0c-3.758 5.164-6.469 8.893-6.469 17.293s2.711 12.129 6.469 17.293c4.25 5.84 9.531 13.107 9.531 26.707a8 8 0 0 1 -16 0c0-8.4-2.711-12.129-6.469-17.293-4.25-5.84-9.531-13.107-9.531-26.707s5.281-20.867 9.531-26.707c3.758-5.164 6.469-8.893 6.469-17.293a8 8 0 0 1 16 0c0 13.6-5.281 20.867-9.531 26.707zm40 0c-3.758 5.164-6.469 8.893-6.469 17.293s2.711 12.129 6.469 17.293c4.25 5.84 9.531 13.107 9.531 26.707a8 8 0 0 1 -16 0c0-8.4-2.711-12.129-6.469-17.293-4.25-5.84-9.531-13.107-9.531-26.707s5.281-20.867 9.531-26.707c3.758-5.164 6.469-8.893 6.469-17.293a8 8 0 0 1 16 0c0 13.6-5.281 20.867-9.531 26.707zm-80 0c-3.758 5.164-6.469 8.893-6.469 17.293s2.711 12.129 6.469 17.293c4.25 5.84 9.531 13.107 9.531 26.707a8 8 0 0 1 -16 0c0-8.4-2.711-12.129-6.469-17.293-4.25-5.84-9.531-13.107-9.531-26.707s5.281-20.867 9.531-26.707c3.758-5.164 6.469-8.893 6.469-17.293a8 8 0 0 1 16 0c0 13.6-5.281 20.867-9.531 26.707z" fill="url(#linear-gradient)"/></svg>