<svg height="512" viewBox="0 0 128 128" width="512" xmlns="http://www.w3.org/2000/svg"><g><rect fill="#0d70b2" height="39.003" rx="4" width="124.5" x="1.75" y="21.006"/><path d="m11.75 60.009v-5.492a6 6 0 0 1 6-6h92.5a6 6 0 0 1 6 6v5.492z" fill="#1689fc"/><path d="m41.125 31.006h45.75v8.503h-45.75z" fill="#00ddc1"/><g fill="#e1e4fb"><path d="m101.375 37.008h-6.25a1.75 1.75 0 0 1 0-3.5h6.25a1.75 1.75 0 0 1 0 3.5z"/><path d="m116.25 37.008h-6.25a1.75 1.75 0 0 1 0-3.5h6.25a1.75 1.75 0 0 1 0 3.5z"/><path d="m64 91.493a1.749 1.749 0 0 1 -1.75-1.75v-19.733a1.75 1.75 0 1 1 3.5 0v19.733a1.749 1.749 0 0 1 -1.75 1.75z"/><path d="m86.875 108.743h-1.375a10.011 10.011 0 0 1 -10-10v-28.733a1.75 1.75 0 1 1 3.5 0v28.733a6.508 6.508 0 0 0 6.5 6.5h1.375a6.508 6.508 0 0 0 6.5-6.5v-2.75a6.508 6.508 0 0 0 -6.5-6.5 1.75 1.75 0 0 1 0-3.5 10.011 10.011 0 0 1 10 10v2.75a10.011 10.011 0 0 1 -10 10z"/><path d="m42.5 108.743h-1.375a10.011 10.011 0 0 1 -10-10v-2.75a10.011 10.011 0 0 1 10-10 1.75 1.75 0 0 1 0 3.5 6.508 6.508 0 0 0 -6.5 6.5v2.75a6.508 6.508 0 0 0 6.5 6.5h1.375a6.508 6.508 0 0 0 6.5-6.5v-28.733a1.75 1.75 0 0 1 3.5 0v28.733a10.011 10.011 0 0 1 -10 10z"/></g></g></svg>