<svg height="512" viewBox="0 0 59 52" width="512" xmlns="http://www.w3.org/2000/svg"><g id="Page-1" fill="none" fill-rule="evenodd"><g id="003---AC-Unit" fill-rule="nonzero"><g fill="#3b97d3"><path id="Shape" d="m42 46c-.5522847 0-1-.4477153-1-1v-14c0-.5522847.4477153-1 1-1s1 .4477153 1 1v14c0 .5522847-.4477153 1-1 1z"/><path id="Shape" d="m33 52c-1.6583223-.0000583-3.1446385-1.0233581-3.7364605-2.5724803-.5918219-1.5491222-.1664042-3.302775 1.0694605-4.4085197.4121505-.3621698 1.0391465-.3246171 1.4051229.0841571.3659763.4087742.3342398 1.0360915-.0711229 1.4058429-.6851838.6125714-.8646743 1.6132737-.435101 2.4257928.4295733.8125192 1.3576182 1.2276752 2.2496648 1.0063758.8920466-.2212995 1.5184408-1.0220818 1.5184362-1.9411686v-17c0-.5522847.4477153-1 1-1s1 .4477153 1 1v17c0 2.209139-1.790861 4-4 4z"/><path id="Shape" d="m51 52c-2.209139 0-4-1.790861-4-4v-17c0-.5522847.4477153-1 1-1s1 .4477153 1 1v17c-.0000046.9190868.6263896 1.7198691 1.5184362 1.9411686.8920466.2212994 1.8200915-.1938566 2.2496648-1.0063758.4295733-.8125191.2500828-1.8132214-.435101-2.4257928-.4053627-.3697514-.4370992-.9970687-.0711229-1.4058429.3659764-.4087742.9929724-.4463269 1.4051229-.0841571 1.2358647 1.1057447 1.6612824 2.8593975 1.0694605 4.4085197-.591822 1.5491222-2.0781382 2.572422-3.7364605 2.5724803z"/></g><path id="Shape" d="m59 3v17c0 1.6568542-1.3431458 3-3 3h-4l-22.73-3-18.27-7.14v-9.86c0-1.65685425 1.3431458-3 3-3h42c1.6568542 0 3 1.34314575 3 3z" fill="#ecf0f1"/><path id="Shape" d="m52 0v5c0 1.65685425-1.3431458 3-3 3h-28c-1.6568542 0-3-1.34314575-3-3v-5z" fill="#bdc3c7"/><path id="Shape" d="m53 0v5c0 2.209139-1.790861 4-4 4h-28c-2.209139 0-4-1.790861-4-4v-5h2v5c.0032948 1.10320187.8967981 1.9967052 2 2h28c1.1032019-.0032948 1.9967052-.89679813 2-2v-5z" fill="#95a5a5"/><path id="Shape" d="m52 23v2c0 .5522847-.4477153 1-1 1h-20.04c-.1313525-2.097236-.7074409-4.1425205-1.69-6h19.73c1.6568542 0 3 1.3431458 3 3z" fill="#bdc3c7"/><path id="Shape" d="m55 13h-3c-.5522847 0-1-.4477153-1-1s.4477153-1 1-1h3c.5522847 0 1 .4477153 1 1s-.4477153 1-1 1z" fill="#df4d60"/><path id="Shape" d="m55 17h-3c-.5522847 0-1-.4477153-1-1s.4477153-1 1-1h3c.5522847 0 1 .4477153 1 1s-.4477153 1-1 1z" fill="#4fba6f"/><path id="Shape" d="m31 27c.0010861 7.6284905-5.7235162 14.0428165-13.3030324 14.9058365-7.5795161.86302-14.59958688-4.10017-16.31348758-11.5336357-1.71390069-7.4334658 2.42431013-14.9693705 9.61651998-17.5122008 1.6049403-.5715685 3.2963223-.8624862 5-.86 5.5644074.0002668 10.6718923 3.0793835 13.27 8 .9825591 1.8574795 1.5586475 3.902764 1.69 6 .03.33.04.66.04 1z" fill="#9fc9d3"/><path id="Shape" d="m16 43c-7.79037864-.0028374-14.44638083-5.6161807-15.76374944-13.2943671-1.3173686-7.6781865 3.08685587-15.1891648 10.43074944-17.7886329 7.485337-2.6485666 15.780654.5930221 19.487 7.615 1.0486935 1.9808971 1.6623721 4.1628657 1.8 6.4.031.334.042.694.042 1.065-.0088123 8.8318279-7.1641768 15.9903237-15.996 16.003zm0-30c-1.5890667-.0030841-3.1667937.2675381-4.664.8-6.71334108 2.3719988-10.57709093 9.4049464-8.97863801 16.3432658 1.59845292 6.9383193 8.14992051 11.5718047 15.22439551 10.7673607s12.4183794-6.7905614 12.4182425-13.9106265c0-.309-.008-.609-.036-.909-.1189583-1.9649789-.6566415-3.8818179-1.577-5.622-2.4217561-4.5966468-7.19142-7.4726152-12.387-7.469z" fill="#3b97d3"/><path id="Shape" d="m24.741 28.162-3.229.865-3.512-2.027 3.512-2.027 3.229.865c.084364.0232732.1714847.0350462.259.035.5019729.0002301.9263288-.3717159.991892-.8693888.0655632-.497673-.247986-.9668303-.732892-1.0966112l-2.659-.714.714-2.665c.1398151-.5324122-.1769484-1.0777088-.7087028-1.2200053-.5317543-.1422966-1.0785222.1719204-1.2232972.7030053l-.865 3.23-3.517 2.027v-4.055l2.364-2.364c.3789722-.3923789.3735524-1.0160848-.0121814-1.4018186s-1.0094397-.3911536-1.4018186-.0121814l-1.95 1.95-1.95-1.95c-.3923789-.3789722-1.0160848-.3735524-1.4018186.0121814s-.3911536 1.0094397-.0121814 1.4018186l2.364 2.364v4.055l-3.512-2.027-.865-3.23c-.144775-.5310849-.6915429-.8453019-1.22329723-.7030053-.53175434.1422965-.84851786.6875931-.70870277 1.2200053l.709 2.665-2.664.714c-.48585399.1300043-.79955522.6006311-.73261895 1.0991035.06693628.4984724.49368007.8696701.99661895.8668965.0875153.0000462.17463598-.0117268.259-.035l3.229-.865 3.512 2.027-3.512 2.027-3.229-.865c-.3486122-.1036823-.72603054-.0099144-.98558469.2448642-.25955414.2547786-.36031391.6303908-.26312256.9808681.09719136.3504773.37700731.6205514.73070725.7052677l2.664.714-.714 2.665c-.06956524.256888-.03385886.5309094.09921336.7613927s.35253131.3984129.60978664.4666073c.0846917.0233384.17215152.0351119.26.035.4524951-.0005181.8482565-.3048238.965-.742l.865-3.23 3.51-2.031v4.055l-2.364 2.364c-.2599566.2510745-.3642126.6228779-.2726972.9725073.0915155.3496295.3645604.6226744.7141899.7141899.3496294.0915154.7214328-.0127406.9725073-.2726972l1.95-1.95 1.95 1.95c.2510745.2599566.6228779.3642126.9725073.2726972.3496295-.0915155.6226744-.3645604.7141899-.7141899.0915154-.3496294-.0127406-.7214328-.2726972-.9725073l-2.364-2.364v-4.055l3.512 2.027.865 3.23c.1167435.4371762.5125049.7414819.965.742.0878485.0001119.1753083-.0116616.26-.035.5330514-.1429996.8494732-.6908077.707-1.224l-.709-2.665 2.664-.714c.3536999-.0847163.6335159-.3547904.7307072-.7052677.0971914-.3504773-.0035684-.7260895-.2631225-.9808681-.2595542-.2547786-.6369725-.3485465-.9855847-.2448642z" fill="#fff"/></g></g></svg>