<?xml version="1.0" encoding="iso-8859-1"?>
<!-- Generator: Adobe Illustrator 19.0.0, SVG Export Plug-In . SVG Version: 6.00 Build 0)  -->
<svg version="1.1" id="Capa_1" xmlns="http://www.w3.org/2000/svg" xmlns:xlink="http://www.w3.org/1999/xlink" x="0px" y="0px"
	 viewBox="0 0 512 512" style="enable-background:new 0 0 512 512;" xml:space="preserve">
<path style="fill:#A17852;" d="M256,480.621c-106.972,0-194-87.028-194-194s87.028-194,194-194s194,87.028,194,194
	S362.972,480.621,256,480.621z"/>
<path style="fill:#5A422D;" d="M256,92.621v388c106.972,0,194-87.028,194-194S362.972,92.621,256,92.621z"/>
<path style="fill:#006EF5;" d="M512,286.621h-30c0-18.045-2.131-36-6.334-53.366l29.158-7.057
	C509.586,245.871,512,266.201,512,286.621z M463.854,197.731c-7.37-17.208-16.899-33.495-28.324-48.408l23.816-18.243
	c12.938,16.892,23.733,35.342,32.084,54.84L463.854,197.731z M410.367,121.554c-13.722-12.839-28.999-23.936-45.408-32.984
	l14.486-26.27c18.583,10.247,35.883,22.813,51.418,37.349L410.367,121.554z M330.765,73.277
	c-17.657-6.188-36.105-10.154-54.831-11.789l2.609-29.887c21.217,1.853,42.125,6.349,62.144,13.364L330.765,73.277z"/>
<path style="fill:#0088FF;" d="M30,286.621H0c0-21.335,2.633-42.549,7.826-63.051l29.082,7.366
	C32.324,249.032,30,267.767,30,286.621z M49.108,195.522l-27.449-12.105c8.563-19.416,19.561-37.759,32.687-54.519l23.619,18.498
	C66.374,162.194,56.666,178.386,49.108,195.522z M103.424,119.895L83.164,97.77c15.688-14.366,33.117-26.742,51.802-36.784
	l14.203,26.425C132.671,96.278,117.28,107.207,103.424,119.895z M183.491,72.499l-9.619-28.416
	c20.086-6.799,41.04-11.074,62.279-12.704l2.295,29.912C219.699,62.73,201.21,66.501,183.491,72.499z"/>
<g>
	<path style="fill:#FFDB2D;" d="M296,192.621h-80v-120h80V192.621z"/>
	<path style="fill:#FFDB2D;" d="M130.101,329.621l31.8-85.2h18.96l31.681,85.2H187.82l-5.16-16.68h-22.68l-5.04,16.68H130.101z
		 M171.381,268.781l-7.92,28.56h15.479L171.381,268.781z"/>
	<path style="fill:#FFDB2D;" d="M304.1,244.421l-61.92,85.2H217.1l61.8-85.2H304.1z"/>
</g>
<path style="fill:#FF9A00;" d="M306.978,286.301c0-5.2,0.919-10.32,2.761-15.36c1.839-5.04,4.539-9.559,8.1-13.56
	c3.559-3.999,7.879-7.239,12.96-9.72c5.079-2.479,10.86-3.72,17.34-3.72c7.6,0,14.239,1.701,19.92,5.1
	c5.68,3.401,9.88,7.901,12.601,13.5l-17.88,12.72c-0.721-2.08-1.662-3.799-2.82-5.16c-1.161-1.359-2.421-2.44-3.78-3.24
	c-1.361-0.799-2.801-1.359-4.32-1.68c-1.521-0.319-2.921-0.48-4.199-0.48c-2.961,0-5.502,0.66-7.62,1.98
	c-2.121,1.32-3.882,3.041-5.28,5.16c-1.4,2.121-2.421,4.52-3.06,7.2c-0.642,2.681-0.96,5.34-0.96,7.98
	c0,2.961,0.378,5.801,1.14,8.52c0.76,2.721,1.879,5.121,3.36,7.2c1.479,2.081,3.279,3.741,5.399,4.98
	c2.119,1.241,4.54,1.86,7.26,1.86c1.359,0,2.761-0.18,4.2-0.54c1.44-0.36,2.82-0.96,4.141-1.8c1.319-0.84,2.52-1.92,3.6-3.24
	c1.08-1.32,1.938-2.94,2.58-4.86l19.08,11.4c-1.2,3.12-3.021,5.921-5.46,8.4c-2.441,2.481-5.22,4.56-8.34,6.24
	s-6.441,2.96-9.96,3.84c-3.521,0.879-6.96,1.32-10.32,1.32c-5.921,0-11.36-1.26-16.32-3.78c-4.961-2.52-9.221-5.859-12.779-10.02
	c-3.561-4.159-6.342-8.88-8.341-14.16C307.978,297.101,306.978,291.742,306.978,286.301z"/>
<path style="fill:#990011;" d="M512,286.621h-30c0-18.045-2.131-36-6.334-53.366l29.158-7.057
	C509.586,245.871,512,266.201,512,286.621z M463.854,197.731c-7.37-17.208-16.899-33.495-28.324-48.408l23.816-18.243
	c12.938,16.892,23.733,35.342,32.084,54.84L463.854,197.731z"/>
<g>
	<rect x="256" y="72.62" style="fill:#FF9A00;" width="40" height="120"/>
	<polygon style="fill:#FF9A00;" points="256,310.604 304.1,244.421 278.899,244.421 256,275.991 	"/>
</g>
<g>
</g>
<g>
</g>
<g>
</g>
<g>
</g>
<g>
</g>
<g>
</g>
<g>
</g>
<g>
</g>
<g>
</g>
<g>
</g>
<g>
</g>
<g>
</g>
<g>
</g>
<g>
</g>
<g>
</g>
</svg>
