<svg height="512" viewBox="0 0 512 512" width="512" xmlns="http://www.w3.org/2000/svg"><g id="flat"><path d="m360 432h-48a8 8 0 0 1 0-16h43.4l55.419-94.337a8.616 8.616 0 0 1 11.413-3.043 8.231 8.231 0 0 1 2.79 11.159l-58.112 98.252a8 8 0 0 1 -6.91 3.969z" fill="#e82f3e"/><path d="m304 456h-96a16 16 0 0 1 -16-16v-72h128v72a16 16 0 0 1 -16 16z" fill="#d32b39"/><circle cx="256" cy="272" fill="#e82f3e" r="120"/><path d="m256 208a16 16 0 0 1 16 16v16a0 0 0 0 1 0 0h-32a0 0 0 0 1 0 0v-16a16 16 0 0 1 16-16z" fill="#ea9d2d"/><path d="m304 312h-96l4.686-4.686a38.628 38.628 0 0 0 11.314-27.314v-16a32 32 0 0 1 32-32 32 32 0 0 1 32 32v16a38.628 38.628 0 0 0 11.314 27.314z" fill="#fbb540"/><path d="m240 312h32a0 0 0 0 1 0 0v8a16 16 0 0 1 -16 16 16 16 0 0 1 -16-16v-8a0 0 0 0 1 0 0z" fill="#ea9d2d"/><g fill="#d32b39"><path d="m338 312a8 8 0 0 1 -7.45-10.912 79.583 79.583 0 0 0 5.125-21.809 8 8 0 1 1 15.935 1.438 95.549 95.549 0 0 1 -6.156 26.191 8 8 0 0 1 -7.454 5.092z"/><path d="m340.684 256a8 8 0 0 1 -7.7-5.824 80.3 80.3 0 0 0 -30.984-43.635 8 8 0 1 1 9.213-13.082 96.355 96.355 0 0 1 37.17 52.363 8.007 8.007 0 0 1 -7.7 10.18z"/><circle cx="424" cy="312" r="24"/></g><path d="m480 320a8 8 0 0 1 -8-8 48.758 48.758 0 0 0 -.486-6.866 8 8 0 0 1 15.838-2.268 64.7 64.7 0 0 1 .648 9.134 8 8 0 0 1 -8 8z" fill="#8feaff"/><path d="m469.97 288a7.992 7.992 0 0 1 -6.569-3.424 48.076 48.076 0 0 0 -39.401-20.576 8 8 0 0 1 0-16 64.09 64.09 0 0 1 52.524 27.423 8 8 0 0 1 -6.554 12.577z" fill="#8feaff"/><path d="m232 432h-8a8 8 0 0 1 0-16h8a8 8 0 0 1 0 16z" fill="#e82f3e"/><path d="m288 432h-8a8 8 0 0 1 0-16h8a8 8 0 0 1 0 16z" fill="#e82f3e"/><path d="m39.993 150.839a8 8 0 0 1 -7.086-11.7 233.075 233.075 0 0 1 94.147-96.189 8 8 0 0 1 7.7 14.024 217.065 217.065 0 0 0 -87.662 89.563 8 8 0 0 1 -7.099 4.302z" fill="#02a437"/><path d="m71.3 170.514a8 8 0 0 1 -7.086-11.7 200.887 200.887 0 0 1 81.148-82.914 8 8 0 1 1 7.7 14.024 184.881 184.881 0 0 0 -74.662 76.288 8 8 0 0 1 -7.1 4.302z" fill="#02a437"/><path d="m103.292 192a8 8 0 0 1 -7.086-11.7 168.736 168.736 0 0 1 68.167-69.647 8 8 0 0 1 7.7 14.024 152.741 152.741 0 0 0 -61.681 63.023 8 8 0 0 1 -7.1 4.3z" fill="#02a437"/></g></svg>