<svg id="Capa_1" enable-background="new 0 0 512 512" height="512" viewBox="0 0 512 512" width="512" xmlns="http://www.w3.org/2000/svg"><g><g><path d="m41.632 30.953h428.737v473.435h-428.737z" fill="#80b4fb"/></g><path d="m41.632 30.953h43.132v473.435h-43.132z" fill="#61a2f9"/><path d="m257.015 427.261h-64.599c-2.214 0-4.008 1.795-4.008 4.009v73.119h68.607z" fill="#bed8fb"/><path d="m226.72 427.261h-34.304c-2.214 0-4.008 1.794-4.008 4.008v73.119h34.303v-73.119c0-2.214 1.795-4.008 4.009-4.008z" fill="#9dc6fb"/><g fill="#8b818e"><path d="m119.612 74.663h-35.195c-2.357 0-4.268 1.911-4.268 4.268v25.274c0 2.357 1.911 4.268 4.268 4.268h35.195c2.357 0 4.268-1.911 4.268-4.268v-25.274c0-2.357-1.91-4.268-4.268-4.268z"/><path d="m119.612 352.574h-35.195c-2.357 0-4.268 1.911-4.268 4.268v25.274c0 2.357 1.911 4.268 4.268 4.268h35.195c2.357 0 4.268-1.911 4.268-4.268v-25.274c0-2.357-1.91-4.268-4.268-4.268z"/><path d="m119.612 283.097h-35.195c-2.357 0-4.268 1.911-4.268 4.268v25.274c0 2.357 1.911 4.268 4.268 4.268h35.195c2.357 0 4.268-1.911 4.268-4.268v-25.274c0-2.357-1.91-4.268-4.268-4.268z"/><path d="m119.612 213.619h-35.195c-2.357 0-4.268 1.911-4.268 4.268v25.274c0 2.357 1.911 4.268 4.268 4.268h35.195c2.357 0 4.268-1.911 4.268-4.268v-25.274c0-2.357-1.91-4.268-4.268-4.268z"/><path d="m119.612 144.141h-35.195c-2.357 0-4.268 1.911-4.268 4.268v25.274c0 2.357 1.911 4.268 4.268 4.268h35.195c2.357 0 4.268-1.911 4.268-4.268v-25.274c0-2.357-1.91-4.268-4.268-4.268z"/></g><path d="m102.015 104.206v-25.275c0-2.357 1.911-4.268 4.268-4.268h-21.866c-2.357 0-4.268 1.911-4.268 4.268v25.274c0 2.357 1.911 4.268 4.268 4.268h21.865c-2.356.001-4.267-1.91-4.267-4.267z" fill="#7b6c79"/><path d="m102.015 382.117v-25.275c0-2.357 1.911-4.268 4.268-4.268h-21.866c-2.357 0-4.268 1.911-4.268 4.268v25.275c0 2.357 1.911 4.268 4.268 4.268h21.865c-2.356 0-4.267-1.911-4.267-4.268z" fill="#7b6c79"/><path d="m102.015 312.639v-25.275c0-2.357 1.911-4.268 4.268-4.268h-21.866c-2.357 0-4.268 1.911-4.268 4.268v25.275c0 2.357 1.911 4.268 4.268 4.268h21.865c-2.356 0-4.267-1.911-4.267-4.268z" fill="#7b6c79"/><path d="m102.015 243.161v-25.274c0-2.357 1.911-4.268 4.268-4.268h-21.866c-2.357 0-4.268 1.911-4.268 4.268v25.274c0 2.357 1.911 4.268 4.268 4.268h21.865c-2.356.001-4.267-1.91-4.267-4.268z" fill="#7b6c79"/><path d="m102.015 173.684v-25.275c0-2.357 1.911-4.268 4.268-4.268h-21.866c-2.357 0-4.268 1.911-4.268 4.268v25.275c0 2.357 1.911 4.268 4.268 4.268h21.865c-2.356 0-4.267-1.911-4.267-4.268z" fill="#7b6c79"/><path d="m319.584 427.261h-63.584v77.128h67.592v-73.119c0-2.215-1.795-4.009-4.008-4.009z" fill="#ddeafb"/><g><path d="m479.857 512h-447.714c-4.204 0-7.611-3.408-7.611-7.612s3.408-7.611 7.611-7.611h447.714c4.204 0 7.612 3.408 7.612 7.611 0 4.204-3.408 7.612-7.612 7.612z" fill="#ddeafb"/></g><path d="m476.605 0h-441.21c-3.945 0-7.143 3.198-7.143 7.143v19.525c0 3.945 3.198 7.143 7.143 7.143h441.209c3.945 0 7.143-3.198 7.143-7.143v-19.525c0-3.945-3.198-7.143-7.142-7.143z" fill="#bed8fb"/><path d="m71.384 26.668v-19.525c0-3.945 3.198-7.143 7.143-7.143h-43.132c-3.945 0-7.143 3.198-7.143 7.143v19.525c0 3.945 3.198 7.143 7.143 7.143h43.132c-3.945 0-7.143-3.198-7.143-7.143z" fill="#9dc6fb"/><path d="m196.605 74.663h-35.195c-2.357 0-4.268 1.911-4.268 4.268v25.274c0 2.357 1.911 4.268 4.268 4.268h35.195c2.357 0 4.268-1.911 4.268-4.268v-25.274c0-2.357-1.911-4.268-4.268-4.268z" fill="#8b818e"/><path d="m196.605 352.574h-35.195c-2.357 0-4.268 1.911-4.268 4.268v25.274c0 2.357 1.911 4.268 4.268 4.268h35.195c2.357 0 4.268-1.911 4.268-4.268v-25.274c0-2.357-1.911-4.268-4.268-4.268z" fill="#8b818e"/><path d="m196.605 283.097h-35.195c-2.357 0-4.268 1.911-4.268 4.268v25.274c0 2.357 1.911 4.268 4.268 4.268h35.195c2.357 0 4.268-1.911 4.268-4.268v-25.274c0-2.357-1.911-4.268-4.268-4.268z" fill="#8b818e"/><path d="m196.605 213.619h-35.195c-2.357 0-4.268 1.911-4.268 4.268v25.274c0 2.357 1.911 4.268 4.268 4.268h35.195c2.357 0 4.268-1.911 4.268-4.268v-25.274c0-2.357-1.911-4.268-4.268-4.268z" fill="#8b818e"/><path d="m196.605 144.141h-35.195c-2.357 0-4.268 1.911-4.268 4.268v25.274c0 2.357 1.911 4.268 4.268 4.268h35.195c2.357 0 4.268-1.911 4.268-4.268v-25.274c0-2.357-1.911-4.268-4.268-4.268z" fill="#8b818e"/><path d="m179.007 104.206v-25.275c0-2.357 1.911-4.268 4.268-4.268h-21.865c-2.357 0-4.268 1.911-4.268 4.268v25.274c0 2.357 1.911 4.268 4.268 4.268h21.865c-2.357.001-4.268-1.91-4.268-4.267z" fill="#7b6c79"/><path d="m179.007 382.117v-25.275c0-2.357 1.911-4.268 4.268-4.268h-21.865c-2.357 0-4.268 1.911-4.268 4.268v25.275c0 2.357 1.911 4.268 4.268 4.268h21.865c-2.357 0-4.268-1.911-4.268-4.268z" fill="#7b6c79"/><path d="m179.007 312.639v-25.275c0-2.357 1.911-4.268 4.268-4.268h-21.865c-2.357 0-4.268 1.911-4.268 4.268v25.275c0 2.357 1.911 4.268 4.268 4.268h21.865c-2.357 0-4.268-1.911-4.268-4.268z" fill="#7b6c79"/><path d="m179.007 243.161v-25.274c0-2.357 1.911-4.268 4.268-4.268h-21.865c-2.357 0-4.268 1.911-4.268 4.268v25.274c0 2.357 1.911 4.268 4.268 4.268h21.865c-2.357.001-4.268-1.91-4.268-4.268z" fill="#7b6c79"/><path d="m179.007 173.684v-25.275c0-2.357 1.911-4.268 4.268-4.268h-21.865c-2.357 0-4.268 1.911-4.268 4.268v25.275c0 2.357 1.911 4.268 4.268 4.268h21.865c-2.357 0-4.268-1.911-4.268-4.268z" fill="#7b6c79"/><path d="m273.598 74.663h-35.195c-2.357 0-4.268 1.911-4.268 4.268v25.274c0 2.357 1.911 4.268 4.268 4.268h35.195c2.357 0 4.268-1.911 4.268-4.268v-25.274c0-2.357-1.911-4.268-4.268-4.268z" fill="#8b818e"/><path d="m273.598 352.574h-35.195c-2.357 0-4.268 1.911-4.268 4.268v25.274c0 2.357 1.911 4.268 4.268 4.268h35.195c2.357 0 4.268-1.911 4.268-4.268v-25.274c0-2.357-1.911-4.268-4.268-4.268z" fill="#8b818e"/><path d="m273.598 283.097h-35.195c-2.357 0-4.268 1.911-4.268 4.268v25.274c0 2.357 1.911 4.268 4.268 4.268h35.195c2.357 0 4.268-1.911 4.268-4.268v-25.274c0-2.357-1.911-4.268-4.268-4.268z" fill="#8b818e"/><path d="m273.598 213.619h-35.195c-2.357 0-4.268 1.911-4.268 4.268v25.274c0 2.357 1.911 4.268 4.268 4.268h35.195c2.357 0 4.268-1.911 4.268-4.268v-25.274c0-2.357-1.911-4.268-4.268-4.268z" fill="#8b818e"/><path d="m273.598 144.141h-35.195c-2.357 0-4.268 1.911-4.268 4.268v25.274c0 2.357 1.911 4.268 4.268 4.268h35.195c2.357 0 4.268-1.911 4.268-4.268v-25.274c0-2.357-1.911-4.268-4.268-4.268z" fill="#8b818e"/><path d="m256 104.206v-25.275c0-2.357 1.911-4.268 4.268-4.268h-21.865c-2.357 0-4.268 1.911-4.268 4.268v25.274c0 2.357 1.911 4.268 4.268 4.268h21.865c-2.357.001-4.268-1.91-4.268-4.267z" fill="#7b6c79"/><path d="m256 382.117v-25.275c0-2.357 1.911-4.268 4.268-4.268h-21.865c-2.357 0-4.268 1.911-4.268 4.268v25.275c0 2.357 1.911 4.268 4.268 4.268h21.865c-2.357 0-4.268-1.911-4.268-4.268z" fill="#7b6c79"/><path d="m256 312.639v-25.275c0-2.357 1.911-4.268 4.268-4.268h-21.865c-2.357 0-4.268 1.911-4.268 4.268v25.275c0 2.357 1.911 4.268 4.268 4.268h21.865c-2.357 0-4.268-1.911-4.268-4.268z" fill="#7b6c79"/><path d="m256 243.161v-25.274c0-2.357 1.911-4.268 4.268-4.268h-21.865c-2.357 0-4.268 1.911-4.268 4.268v25.274c0 2.357 1.911 4.268 4.268 4.268h21.865c-2.357.001-4.268-1.91-4.268-4.268z" fill="#7b6c79"/><path d="m256 173.684v-25.275c0-2.357 1.911-4.268 4.268-4.268h-21.865c-2.357 0-4.268 1.911-4.268 4.268v25.275c0 2.357 1.911 4.268 4.268 4.268h21.865c-2.357 0-4.268-1.911-4.268-4.268z" fill="#7b6c79"/><path d="m350.59 74.663h-35.195c-2.357 0-4.268 1.911-4.268 4.268v25.274c0 2.357 1.911 4.268 4.268 4.268h35.195c2.357 0 4.268-1.911 4.268-4.268v-25.274c0-2.357-1.911-4.268-4.268-4.268z" fill="#8b818e"/><path d="m350.59 352.574h-35.195c-2.357 0-4.268 1.911-4.268 4.268v25.274c0 2.357 1.911 4.268 4.268 4.268h35.195c2.357 0 4.268-1.911 4.268-4.268v-25.274c0-2.357-1.911-4.268-4.268-4.268z" fill="#8b818e"/><path d="m350.59 283.097h-35.195c-2.357 0-4.268 1.911-4.268 4.268v25.274c0 2.357 1.911 4.268 4.268 4.268h35.195c2.357 0 4.268-1.911 4.268-4.268v-25.274c0-2.357-1.911-4.268-4.268-4.268z" fill="#8b818e"/><path d="m350.59 213.619h-35.195c-2.357 0-4.268 1.911-4.268 4.268v25.274c0 2.357 1.911 4.268 4.268 4.268h35.195c2.357 0 4.268-1.911 4.268-4.268v-25.274c0-2.357-1.911-4.268-4.268-4.268z" fill="#8b818e"/><path d="m350.59 144.141h-35.195c-2.357 0-4.268 1.911-4.268 4.268v25.274c0 2.357 1.911 4.268 4.268 4.268h35.195c2.357 0 4.268-1.911 4.268-4.268v-25.274c0-2.357-1.911-4.268-4.268-4.268z" fill="#8b818e"/><path d="m332.993 104.206v-25.275c0-2.357 1.911-4.268 4.268-4.268h-21.865c-2.357 0-4.268 1.911-4.268 4.268v25.274c0 2.357 1.911 4.268 4.268 4.268h21.865c-2.358.001-4.268-1.91-4.268-4.267z" fill="#7b6c79"/><path d="m332.993 382.117v-25.275c0-2.357 1.911-4.268 4.268-4.268h-21.865c-2.357 0-4.268 1.911-4.268 4.268v25.275c0 2.357 1.911 4.268 4.268 4.268h21.865c-2.358 0-4.268-1.911-4.268-4.268z" fill="#7b6c79"/><path d="m332.993 312.639v-25.275c0-2.357 1.911-4.268 4.268-4.268h-21.865c-2.357 0-4.268 1.911-4.268 4.268v25.275c0 2.357 1.911 4.268 4.268 4.268h21.865c-2.358 0-4.268-1.911-4.268-4.268z" fill="#7b6c79"/><path d="m332.993 243.161v-25.274c0-2.357 1.911-4.268 4.268-4.268h-21.865c-2.357 0-4.268 1.911-4.268 4.268v25.274c0 2.357 1.911 4.268 4.268 4.268h21.865c-2.358.001-4.268-1.91-4.268-4.268z" fill="#7b6c79"/><path d="m332.993 173.684v-25.275c0-2.357 1.911-4.268 4.268-4.268h-21.865c-2.357 0-4.268 1.911-4.268 4.268v25.275c0 2.357 1.911 4.268 4.268 4.268h21.865c-2.358 0-4.268-1.911-4.268-4.268z" fill="#7b6c79"/><path d="m427.583 74.663h-35.195c-2.357 0-4.268 1.911-4.268 4.268v25.274c0 2.357 1.911 4.268 4.268 4.268h35.195c2.357 0 4.268-1.911 4.268-4.268v-25.274c0-2.357-1.911-4.268-4.268-4.268z" fill="#8b818e"/><path d="m427.583 352.574h-35.195c-2.357 0-4.268 1.911-4.268 4.268v25.274c0 2.357 1.911 4.268 4.268 4.268h35.195c2.357 0 4.268-1.911 4.268-4.268v-25.274c0-2.357-1.911-4.268-4.268-4.268z" fill="#8b818e"/><path d="m427.583 283.097h-35.195c-2.357 0-4.268 1.911-4.268 4.268v25.274c0 2.357 1.911 4.268 4.268 4.268h35.195c2.357 0 4.268-1.911 4.268-4.268v-25.274c0-2.357-1.911-4.268-4.268-4.268z" fill="#8b818e"/><path d="m427.583 213.619h-35.195c-2.357 0-4.268 1.911-4.268 4.268v25.274c0 2.357 1.911 4.268 4.268 4.268h35.195c2.357 0 4.268-1.911 4.268-4.268v-25.274c0-2.357-1.911-4.268-4.268-4.268z" fill="#8b818e"/><path d="m427.583 144.141h-35.195c-2.357 0-4.268 1.911-4.268 4.268v25.274c0 2.357 1.911 4.268 4.268 4.268h35.195c2.357 0 4.268-1.911 4.268-4.268v-25.274c0-2.357-1.911-4.268-4.268-4.268z" fill="#8b818e"/><path d="m409.985 104.206v-25.275c0-2.357 1.911-4.268 4.268-4.268h-21.865c-2.357 0-4.268 1.911-4.268 4.268v25.274c0 2.357 1.911 4.268 4.268 4.268h21.865c-2.357.001-4.268-1.91-4.268-4.267z" fill="#7b6c79"/><path d="m409.985 382.117v-25.275c0-2.357 1.911-4.268 4.268-4.268h-21.865c-2.357 0-4.268 1.911-4.268 4.268v25.275c0 2.357 1.911 4.268 4.268 4.268h21.865c-2.357 0-4.268-1.911-4.268-4.268z" fill="#7b6c79"/><path d="m409.985 312.639v-25.275c0-2.357 1.911-4.268 4.268-4.268h-21.865c-2.357 0-4.268 1.911-4.268 4.268v25.275c0 2.357 1.911 4.268 4.268 4.268h21.865c-2.357 0-4.268-1.911-4.268-4.268z" fill="#7b6c79"/><path d="m409.985 243.161v-25.274c0-2.357 1.911-4.268 4.268-4.268h-21.865c-2.357 0-4.268 1.911-4.268 4.268v25.274c0 2.357 1.911 4.268 4.268 4.268h21.865c-2.357.001-4.268-1.91-4.268-4.268z" fill="#7b6c79"/><path d="m409.985 173.684v-25.275c0-2.357 1.911-4.268 4.268-4.268h-21.865c-2.357 0-4.268 1.911-4.268 4.268v25.275c0 2.357 1.911 4.268 4.268 4.268h21.865c-2.357 0-4.268-1.911-4.268-4.268z" fill="#7b6c79"/></g></svg>