<svg id="Capa_1" enable-background="new 0 0 512 512" height="512" viewBox="0 0 512 512" width="512" xmlns="http://www.w3.org/2000/svg"><g><path d="m467.979 184.649h-124.735v319.74h131.944v-312.532c0-3.981-3.228-7.208-7.209-7.208z" fill="#e49542"/><path d="m415.027 184.649h-71.783v319.74h64.574v-312.532c0-3.981 3.228-7.208 7.209-7.208z" fill="#df751c"/><path d="m427.828 225.645h-35.195c-2.357 0-4.268 1.911-4.268 4.268v25.274c0 2.357 1.911 4.268 4.268 4.268h35.195c2.357 0 4.268-1.911 4.268-4.268v-25.274c0-2.357-1.911-4.268-4.268-4.268z" fill="#785252"/><path d="m410.23 255.188v-25.275c0-2.357 1.911-4.268 4.268-4.268h-21.866c-2.357 0-4.268 1.911-4.268 4.268v25.275c0 2.357 1.911 4.268 4.268 4.268h21.866c-2.357 0-4.268-1.911-4.268-4.268z" fill="#523838"/><path d="m336.141 0h-289.743c-5.044 0-9.133 4.089-9.133 9.133v495.256h308.008v-495.256c.001-5.044-4.088-9.133-9.132-9.133z" fill="#fff5f5"/><path d="m110.972 0h-64.574c-5.044 0-9.133 4.089-9.133 9.133v495.256h64.574v-495.256c0-5.044 4.089-9.133 9.133-9.133z" fill="#eee1dd"/><path d="m192.284 402.342h-85.142c-2.929 0-5.303 2.374-5.303 5.304v96.743h90.445z" fill="#bed8fb"/><g fill="#9dc6fb"><path d="m151.35 402.341h-44.208c-2.929 0-5.303 2.374-5.303 5.304v96.743h44.208v-96.743c0-2.929 2.374-5.304 5.303-5.304z"/><path d="m208.867 49.466h-35.195c-2.357 0-4.268 1.911-4.268 4.268v25.274c0 2.357 1.911 4.268 4.268 4.268h35.195c2.357 0 4.268-1.911 4.268-4.268v-25.274c0-2.357-1.911-4.268-4.268-4.268z"/><path d="m285.859 49.466h-35.195c-2.357 0-4.268 1.911-4.268 4.268v25.274c0 2.357 1.911 4.268 4.268 4.268h35.195c2.357 0 4.268-1.911 4.268-4.268v-25.274c0-2.357-1.91-4.268-4.268-4.268z"/><path d="m131.874 49.466h-35.195c-2.357 0-4.268 1.911-4.268 4.268v25.274c0 2.357 1.911 4.268 4.268 4.268h35.195c2.357 0 4.268-1.911 4.268-4.268v-25.274c0-2.357-1.91-4.268-4.268-4.268z"/></g><path d="m191.269 79.008v-25.274c0-2.357 1.911-4.268 4.268-4.268h-21.865c-2.357 0-4.268 1.911-4.268 4.268v25.275c0 2.357 1.911 4.268 4.268 4.268h21.865c-2.357-.001-4.268-1.912-4.268-4.269z" fill="#80b4fb"/><path d="m268.262 79.008v-25.274c0-2.357 1.911-4.268 4.268-4.268h-21.865c-2.357 0-4.268 1.911-4.268 4.268v25.275c0 2.357 1.911 4.268 4.268 4.268h21.865c-2.357-.001-4.268-1.912-4.268-4.269z" fill="#80b4fb"/><path d="m114.277 79.008v-25.274c0-2.357 1.911-4.268 4.268-4.268h-21.866c-2.357 0-4.268 1.911-4.268 4.268v25.275c0 2.357 1.911 4.268 4.268 4.268h21.865c-2.356-.001-4.267-1.912-4.267-4.269z" fill="#80b4fb"/><path d="m275.396 402.342h-84.127v102.047h89.43v-96.743c0-2.93-2.374-5.304-5.303-5.304z" fill="#ddeafb"/><g><path d="m480.545 512h-449.09c-4.204 0-7.611-3.408-7.611-7.612s3.408-7.611 7.611-7.611h449.09c4.204 0 7.611 3.408 7.611 7.611.001 4.204-3.407 7.612-7.611 7.612z" fill="#ccf49f"/></g><path d="m208.867 118.943h-35.195c-2.357 0-4.268 1.911-4.268 4.268v25.274c0 2.357 1.911 4.268 4.268 4.268h35.195c2.357 0 4.268-1.911 4.268-4.268v-25.274c0-2.357-1.911-4.268-4.268-4.268z" fill="#9dc6fb"/><path d="m285.859 118.943h-35.195c-2.357 0-4.268 1.911-4.268 4.268v25.274c0 2.357 1.911 4.268 4.268 4.268h35.195c2.357 0 4.268-1.911 4.268-4.268v-25.274c0-2.357-1.91-4.268-4.268-4.268z" fill="#9dc6fb"/><path d="m131.874 118.943h-35.195c-2.357 0-4.268 1.911-4.268 4.268v25.274c0 2.357 1.911 4.268 4.268 4.268h35.195c2.357 0 4.268-1.911 4.268-4.268v-25.274c0-2.357-1.91-4.268-4.268-4.268z" fill="#9dc6fb"/><path d="m191.269 148.486v-25.275c0-2.357 1.911-4.268 4.268-4.268h-21.865c-2.357 0-4.268 1.911-4.268 4.268v25.275c0 2.357 1.911 4.268 4.268 4.268h21.865c-2.357 0-4.268-1.911-4.268-4.268z" fill="#80b4fb"/><path d="m268.262 148.486v-25.275c0-2.357 1.911-4.268 4.268-4.268h-21.865c-2.357 0-4.268 1.911-4.268 4.268v25.275c0 2.357 1.911 4.268 4.268 4.268h21.865c-2.357 0-4.268-1.911-4.268-4.268z" fill="#80b4fb"/><path d="m114.277 148.486v-25.275c0-2.357 1.911-4.268 4.268-4.268h-21.866c-2.357 0-4.268 1.911-4.268 4.268v25.275c0 2.357 1.911 4.268 4.268 4.268h21.865c-2.356 0-4.267-1.911-4.267-4.268z" fill="#80b4fb"/><path d="m208.867 188.421h-35.195c-2.357 0-4.268 1.911-4.268 4.268v25.274c0 2.357 1.911 4.268 4.268 4.268h35.195c2.357 0 4.268-1.911 4.268-4.268v-25.274c0-2.357-1.911-4.268-4.268-4.268z" fill="#9dc6fb"/><path d="m285.859 188.421h-35.195c-2.357 0-4.268 1.911-4.268 4.268v25.274c0 2.357 1.911 4.268 4.268 4.268h35.195c2.357 0 4.268-1.911 4.268-4.268v-25.274c0-2.357-1.91-4.268-4.268-4.268z" fill="#9dc6fb"/><path d="m131.874 188.421h-35.195c-2.357 0-4.268 1.911-4.268 4.268v25.274c0 2.357 1.911 4.268 4.268 4.268h35.195c2.357 0 4.268-1.911 4.268-4.268v-25.274c0-2.357-1.91-4.268-4.268-4.268z" fill="#9dc6fb"/><path d="m191.269 217.964v-25.275c0-2.357 1.911-4.268 4.268-4.268h-21.865c-2.357 0-4.268 1.911-4.268 4.268v25.275c0 2.357 1.911 4.268 4.268 4.268h21.865c-2.357 0-4.268-1.911-4.268-4.268z" fill="#80b4fb"/><path d="m268.262 217.964v-25.275c0-2.357 1.911-4.268 4.268-4.268h-21.865c-2.357 0-4.268 1.911-4.268 4.268v25.275c0 2.357 1.911 4.268 4.268 4.268h21.865c-2.357 0-4.268-1.911-4.268-4.268z" fill="#80b4fb"/><path d="m114.277 217.964v-25.275c0-2.357 1.911-4.268 4.268-4.268h-21.866c-2.357 0-4.268 1.911-4.268 4.268v25.275c0 2.357 1.911 4.268 4.268 4.268h21.865c-2.356 0-4.267-1.911-4.267-4.268z" fill="#80b4fb"/><path d="m208.867 257.899h-35.195c-2.357 0-4.268 1.911-4.268 4.268v25.274c0 2.357 1.911 4.268 4.268 4.268h35.195c2.357 0 4.268-1.911 4.268-4.268v-25.274c0-2.357-1.911-4.268-4.268-4.268z" fill="#9dc6fb"/><path d="m285.859 257.899h-35.195c-2.357 0-4.268 1.911-4.268 4.268v25.274c0 2.357 1.911 4.268 4.268 4.268h35.195c2.357 0 4.268-1.911 4.268-4.268v-25.274c0-2.357-1.91-4.268-4.268-4.268z" fill="#9dc6fb"/><path d="m131.874 257.899h-35.195c-2.357 0-4.268 1.911-4.268 4.268v25.274c0 2.357 1.911 4.268 4.268 4.268h35.195c2.357 0 4.268-1.911 4.268-4.268v-25.274c0-2.357-1.91-4.268-4.268-4.268z" fill="#9dc6fb"/><path d="m191.269 287.442v-25.275c0-2.357 1.911-4.268 4.268-4.268h-21.865c-2.357 0-4.268 1.911-4.268 4.268v25.275c0 2.357 1.911 4.268 4.268 4.268h21.865c-2.357 0-4.268-1.911-4.268-4.268z" fill="#80b4fb"/><path d="m268.262 287.442v-25.275c0-2.357 1.911-4.268 4.268-4.268h-21.865c-2.357 0-4.268 1.911-4.268 4.268v25.275c0 2.357 1.911 4.268 4.268 4.268h21.865c-2.357 0-4.268-1.911-4.268-4.268z" fill="#80b4fb"/><path d="m114.277 287.442v-25.275c0-2.357 1.911-4.268 4.268-4.268h-21.866c-2.357 0-4.268 1.911-4.268 4.268v25.275c0 2.357 1.911 4.268 4.268 4.268h21.865c-2.356 0-4.267-1.911-4.267-4.268z" fill="#80b4fb"/><path d="m208.867 327.613h-35.195c-2.357 0-4.268 1.911-4.268 4.268v25.274c0 2.357 1.911 4.268 4.268 4.268h35.195c2.357 0 4.268-1.911 4.268-4.268v-25.274c0-2.357-1.911-4.268-4.268-4.268z" fill="#9dc6fb"/><path d="m285.859 327.613h-35.195c-2.357 0-4.268 1.911-4.268 4.268v25.274c0 2.357 1.911 4.268 4.268 4.268h35.195c2.357 0 4.268-1.911 4.268-4.268v-25.274c0-2.357-1.91-4.268-4.268-4.268z" fill="#9dc6fb"/><path d="m131.874 327.613h-35.195c-2.357 0-4.268 1.911-4.268 4.268v25.274c0 2.357 1.911 4.268 4.268 4.268h35.195c2.357 0 4.268-1.911 4.268-4.268v-25.274c0-2.357-1.91-4.268-4.268-4.268z" fill="#9dc6fb"/><path d="m191.269 357.156v-25.275c0-2.357 1.911-4.268 4.268-4.268h-21.865c-2.357 0-4.268 1.911-4.268 4.268v25.275c0 2.357 1.911 4.268 4.268 4.268h21.865c-2.357 0-4.268-1.911-4.268-4.268z" fill="#80b4fb"/><path d="m268.262 357.156v-25.275c0-2.357 1.911-4.268 4.268-4.268h-21.865c-2.357 0-4.268 1.911-4.268 4.268v25.275c0 2.357 1.911 4.268 4.268 4.268h21.865c-2.357 0-4.268-1.911-4.268-4.268z" fill="#80b4fb"/><path d="m114.277 357.156v-25.275c0-2.357 1.911-4.268 4.268-4.268h-21.866c-2.357 0-4.268 1.911-4.268 4.268v25.275c0 2.357 1.911 4.268 4.268 4.268h21.865c-2.356 0-4.267-1.911-4.267-4.268z" fill="#80b4fb"/><path d="m427.828 295.123h-35.195c-2.357 0-4.268 1.911-4.268 4.268v25.274c0 2.357 1.911 4.268 4.268 4.268h35.195c2.357 0 4.268-1.911 4.268-4.268v-25.274c0-2.357-1.911-4.268-4.268-4.268z" fill="#785252"/><path d="m410.23 324.666v-25.275c0-2.357 1.911-4.268 4.268-4.268h-21.866c-2.357 0-4.268 1.911-4.268 4.268v25.275c0 2.357 1.911 4.268 4.268 4.268h21.866c-2.357 0-4.268-1.911-4.268-4.268z" fill="#523838"/><path d="m427.828 364.601h-35.195c-2.357 0-4.268 1.911-4.268 4.268v25.274c0 2.357 1.911 4.268 4.268 4.268h35.195c2.357 0 4.268-1.911 4.268-4.268v-25.274c0-2.357-1.911-4.268-4.268-4.268z" fill="#785252"/><path d="m410.23 394.143v-25.275c0-2.357 1.911-4.268 4.268-4.268h-21.866c-2.357 0-4.268 1.911-4.268 4.268v25.275c0 2.357 1.911 4.268 4.268 4.268h21.866c-2.357 0-4.268-1.911-4.268-4.268z" fill="#523838"/><path d="m427.828 434.079h-35.195c-2.357 0-4.268 1.911-4.268 4.268v25.274c0 2.357 1.911 4.268 4.268 4.268h35.195c2.357 0 4.268-1.911 4.268-4.268v-25.274c0-2.357-1.911-4.268-4.268-4.268z" fill="#785252"/><path d="m410.23 463.621v-25.275c0-2.357 1.911-4.268 4.268-4.268h-21.866c-2.357 0-4.268 1.911-4.268 4.268v25.275c0 2.357 1.911 4.268 4.268 4.268h21.866c-2.357 0-4.268-1.911-4.268-4.268z" fill="#523838"/></g></svg>