<?xml version="1.0" encoding="iso-8859-1"?>
<!-- Generator: Adobe Illustrator 19.0.0, SVG Export Plug-In . SVG Version: 6.00 Build 0)  -->
<svg version="1.1" id="Layer_1" xmlns="http://www.w3.org/2000/svg" xmlns:xlink="http://www.w3.org/1999/xlink" x="0px" y="0px"
	 viewBox="0 0 512 512" style="enable-background:new 0 0 512 512;" xml:space="preserve">
<path style="fill:#C7AC91;" d="M462.287,196.291H305.379v296.63h167.219v-286.32C472.598,200.907,467.982,196.291,462.287,196.291z"
	/>
<path style="fill:#AF9177;" d="M462.29,196.291h-29.96c5.693,0,10.308,4.617,10.308,10.313v286.318h29.96V206.604
	C472.598,200.908,467.983,196.291,462.29,196.291z"/>
<path style="fill:#4DC9FF;" d="M290.378,3.037H54.403c-8.284,0-15,6.716-15,15v474.884h265.976V18.037
	C305.379,9.752,298.663,3.037,290.378,3.037z"/>
<path style="fill:#00BDFF;" d="M290.382,3.037h-29.786c8.283,0,14.997,6.717,14.997,15.004v474.881h29.786V18.04
	C305.379,9.754,298.664,3.037,290.382,3.037z"/>
<g>
	<path style="fill:#AEFFFF;" d="M109.753,95.741H74.647c-3.535,0-6.4-2.865-6.4-6.4v-47.39c0-3.535,2.865-6.4,6.4-6.4h35.106
		c3.535,0,6.4,2.865,6.4,6.4v47.39C116.153,92.876,113.288,95.741,109.753,95.741z"/>
	<path style="fill:#AEFFFF;" d="M190.824,95.741h-35.106c-3.535,0-6.4-2.865-6.4-6.4v-47.39c0-3.535,2.865-6.4,6.4-6.4h35.106
		c3.535,0,6.4,2.865,6.4,6.4v47.39C197.224,92.876,194.359,95.741,190.824,95.741z"/>
	<path style="fill:#AEFFFF;" d="M271.895,95.741h-35.106c-3.535,0-6.4-2.865-6.4-6.4v-47.39c0-3.535,2.865-6.4,6.4-6.4h35.106
		c3.535,0,6.4,2.865,6.4,6.4v47.39C278.295,92.876,275.43,95.741,271.895,95.741z"/>
	<path style="fill:#AEFFFF;" d="M109.753,210.89H74.647c-3.535,0-6.4-2.865-6.4-6.4v-47.391c0-3.535,2.865-6.4,6.4-6.4h35.106
		c3.535,0,6.4,2.865,6.4,6.4v47.391C116.153,208.024,113.288,210.89,109.753,210.89z"/>
	<path style="fill:#AEFFFF;" d="M190.824,210.89h-35.106c-3.535,0-6.4-2.865-6.4-6.4v-47.391c0-3.535,2.865-6.4,6.4-6.4h35.106
		c3.535,0,6.4,2.865,6.4,6.4v47.391C197.224,208.024,194.359,210.89,190.824,210.89z"/>
	<path style="fill:#AEFFFF;" d="M271.895,210.89h-35.106c-3.535,0-6.4-2.865-6.4-6.4v-47.391c0-3.535,2.865-6.4,6.4-6.4h35.106
		c3.535,0,6.4,2.865,6.4,6.4v47.391C278.295,208.024,275.43,210.89,271.895,210.89z"/>
	<path style="fill:#AEFFFF;" d="M109.753,326.036H74.647c-3.535,0-6.4-2.865-6.4-6.4v-47.391c0-3.535,2.865-6.4,6.4-6.4h35.106
		c3.535,0,6.4,2.865,6.4,6.4v47.391C116.153,323.172,113.288,326.036,109.753,326.036z"/>
	<path style="fill:#AEFFFF;" d="M190.824,326.036h-35.106c-3.535,0-6.4-2.865-6.4-6.4v-47.391c0-3.535,2.865-6.4,6.4-6.4h35.106
		c3.535,0,6.4,2.865,6.4,6.4v47.391C197.224,323.172,194.359,326.036,190.824,326.036z"/>
	<path style="fill:#AEFFFF;" d="M271.895,326.036h-35.106c-3.535,0-6.4-2.865-6.4-6.4v-47.391c0-3.535,2.865-6.4,6.4-6.4h35.106
		c3.535,0,6.4,2.865,6.4,6.4v47.391C278.295,323.172,275.43,326.036,271.895,326.036z"/>
</g>
<rect x="149.32" y="381" style="fill:#84F1F7;" width="47.906" height="102.92"/>
<g>
	<path style="fill:#AEFFFF;" d="M109.753,441.185H74.647c-3.535,0-6.4-2.865-6.4-6.4v-47.391c0-3.535,2.865-6.4,6.4-6.4h35.106
		c3.535,0,6.4,2.865,6.4,6.4v47.391C116.153,438.32,113.288,441.185,109.753,441.185z"/>
	<path style="fill:#AEFFFF;" d="M271.895,441.185h-35.106c-3.535,0-6.4-2.865-6.4-6.4v-47.391c0-3.535,2.865-6.4,6.4-6.4h35.106
		c3.535,0,6.4,2.865,6.4,6.4v47.391C278.295,438.32,275.43,441.185,271.895,441.185z"/>
</g>
<g>
	<path style="fill:#84F1F7;" d="M373.409,258.956h-40.124c-2.149,0-3.891-1.742-3.891-3.891V229.23c0-2.149,1.742-3.891,3.891-3.891
		h40.124c2.149,0,3.891,1.742,3.891,3.891v25.835C377.3,257.214,375.558,258.956,373.409,258.956z"/>
	<path style="fill:#84F1F7;" d="M444.691,258.956h-40.124c-2.149,0-3.891-1.742-3.891-3.891V229.23c0-2.149,1.742-3.891,3.891-3.891
		h40.124c2.149,0,3.891,1.742,3.891,3.891v25.835C448.582,257.214,446.84,258.956,444.691,258.956z"/>
	<path style="fill:#84F1F7;" d="M373.409,333.943h-40.124c-2.149,0-3.891-1.742-3.891-3.891v-25.835
		c0-2.149,1.742-3.891,3.891-3.891h40.124c2.149,0,3.891,1.742,3.891,3.891v25.835C377.3,332.201,375.558,333.943,373.409,333.943z"
		/>
	<path style="fill:#84F1F7;" d="M444.691,333.943h-40.124c-2.149,0-3.891-1.742-3.891-3.891v-25.835
		c0-2.149,1.742-3.891,3.891-3.891h40.124c2.149,0,3.891,1.742,3.891,3.891v25.835C448.582,332.201,446.84,333.943,444.691,333.943z
		"/>
	<path style="fill:#84F1F7;" d="M373.409,397.803h-40.124c-2.149,0-3.891-1.742-3.891-3.891v-25.835
		c0-2.149,1.742-3.891,3.891-3.891h40.124c2.149,0,3.891,1.742,3.891,3.891v25.835C377.3,396.061,375.558,397.803,373.409,397.803z"
		/>
	<path style="fill:#84F1F7;" d="M444.691,397.803h-40.124c-2.149,0-3.891-1.742-3.891-3.891v-25.835
		c0-2.149,1.742-3.891,3.891-3.891h40.124c2.149,0,3.891,1.742,3.891,3.891v25.835C448.582,396.061,446.84,397.803,444.691,397.803z
		"/>
	<path style="fill:#84F1F7;" d="M444.691,458.917h-40.124c-2.149,0-3.891-1.742-3.891-3.891v-25.835
		c0-2.149,1.742-3.891,3.891-3.891h40.124c2.149,0,3.891,1.742,3.891,3.891v25.835C448.582,457.174,446.84,458.917,444.691,458.917z
		"/>
	<path style="fill:#84F1F7;" d="M336.546,492.921v-63.73c0-2.149,1.742-3.891,3.891-3.891h30.003c2.149,0,3.891,1.742,3.891,3.891
		v63.73H336.546z"/>
</g>
<path style="fill:#FF395A;" d="M410.996,163.666h-48.03c-2.872,0-5.201,2.329-5.201,5.201v27.424h58.432v-27.424
	C416.197,165.995,413.869,163.666,410.996,163.666z"/>
<g>
	<path style="fill:#84F1F7;" d="M271.897,35.551h-23.561v60.191h23.561c3.534,0,6.399-2.866,6.399-6.401V41.952
		C278.295,38.417,275.431,35.551,271.897,35.551z"/>
	<path style="fill:#84F1F7;" d="M271.897,150.699h-23.561v60.191h23.561c3.534,0,6.399-2.866,6.399-6.401V157.1
		C278.295,153.565,275.431,150.699,271.897,150.699z"/>
	<path style="fill:#84F1F7;" d="M271.897,265.846h-23.561v60.191h23.561c3.534,0,6.399-2.866,6.399-6.401v-47.388
		C278.295,268.713,275.431,265.846,271.897,265.846z"/>
	<path style="fill:#84F1F7;" d="M190.826,265.846h-23.561v60.191h23.561c3.534,0,6.399-2.866,6.399-6.401v-47.388
		C197.224,268.713,194.36,265.846,190.826,265.846z"/>
	<path style="fill:#84F1F7;" d="M109.755,265.846H86.194v60.191h23.561c3.534,0,6.399-2.866,6.399-6.401v-47.388
		C116.153,268.713,113.289,265.846,109.755,265.846z"/>
	<path style="fill:#84F1F7;" d="M109.755,150.699H86.194v60.191h23.561c3.534,0,6.399-2.866,6.399-6.401V157.1
		C116.153,153.565,113.289,150.699,109.755,150.699z"/>
	<path style="fill:#84F1F7;" d="M109.755,35.551H86.194v60.191h23.561c3.534,0,6.399-2.866,6.399-6.401V41.952
		C116.153,38.417,113.289,35.551,109.755,35.551z"/>
	<path style="fill:#84F1F7;" d="M190.826,150.699h-23.561v60.191h23.561c3.534,0,6.399-2.866,6.399-6.401V157.1
		C197.224,153.565,194.36,150.699,190.826,150.699z"/>
	<path style="fill:#84F1F7;" d="M190.826,35.551h-23.561v60.191h23.561c3.534,0,6.399-2.866,6.399-6.401V41.952
		C197.224,38.417,194.36,35.551,190.826,35.551z"/>
	<path style="fill:#84F1F7;" d="M109.755,380.995H86.194v60.191h23.561c3.534,0,6.399-2.866,6.399-6.401v-47.388
		C116.153,383.861,113.289,380.995,109.755,380.995z"/>
	<path style="fill:#84F1F7;" d="M271.897,380.995h-23.561v60.191h23.561c3.534,0,6.399-2.866,6.399-6.401v-47.388
		C278.295,383.861,275.431,380.995,271.897,380.995z"/>
</g>
<path style="fill:#808080;" d="M499.476,483.915H12.524C5.607,483.915,0,489.523,0,496.44l0,0c0,6.917,5.607,12.524,12.524,12.524
	h486.952c6.917,0,12.524-5.607,12.524-12.524l0,0C512,489.523,506.393,483.915,499.476,483.915z"/>
<path style="fill:#666666;" d="M499.476,483.915h-17.165v25.048h17.165c6.917,0,12.524-5.607,12.524-12.524l0,0
	C512,489.523,506.393,483.915,499.476,483.915z"/>
<g>
</g>
<g>
</g>
<g>
</g>
<g>
</g>
<g>
</g>
<g>
</g>
<g>
</g>
<g>
</g>
<g>
</g>
<g>
</g>
<g>
</g>
<g>
</g>
<g>
</g>
<g>
</g>
<g>
</g>
</svg>
