<svg id="Capa_1" enable-background="new 0 0 497 497" height="512" viewBox="0 0 497 497" width="512" xmlns="http://www.w3.org/2000/svg"><g><path d="m392 30h-30v30h30c8.284 0 15-6.716 15-15s-6.716-15-15-15z" fill="#8f8f8b"/><path d="m362 30h-212v30h212c8.284 0 15-6.716 15-15s-6.716-15-15-15z" fill="#adaca7"/><path d="m437 150 60-30v-22.5c0-4.142-3.358-7.5-7.5-7.5h-22.5z" fill="#0f4c81"/><path d="m467 240-467-120v-75c0-24.853 20.147-45 45-45h110.393c1.989 0 3.897.79 5.303 2.197l85.607 85.607c1.407 1.406 3.314 2.196 5.303 2.196h215.394z" fill="#2d6aab"/><path d="m497 330v159.5c0 4.142-3.358 7.5-7.5 7.5h-22.5l-60-197z" fill="#0f4c81"/><path d="m467 300v197h-30l-60-197z" fill="#2d6aab"/><path d="m437 300v197h-30l-60-197z" fill="#cbc9c2"/><path d="m0 330v159.5c0 4.142 3.358 7.5 7.5 7.5h52.5l60-197z" fill="#2d6aab"/><path d="m60 300h347v197h-347z" fill="#f0ede5"/><path d="m497 120v210h-30l-60-105 60-105z" fill="#8f8f8b"/><path d="m467 120v30l-30 75 30 75v30h-467v-210z" fill="#adaca7"/><path d="m302 437h-30v30h30c8.284 0 15-6.716 15-15s-6.716-15-15-15z" fill="#adaca7"/><path d="m287 452c0-8.284-6.716-15-15-15h-77c-8.284 0-15 6.716-15 15s6.716 15 15 15h77c8.284 0 15-6.716 15-15z" fill="#cbc9c2"/><path d="m467 150v150h-30l-60-75 60-75z" fill="#404242"/><path d="m30 150h407v150h-407z" fill="#565959"/><path d="m317 240v30h-30l-30-60z" fill="#61ab49"/><path d="m287 210v60h-107v-30z" fill="#7ac243"/><path d="m317 180v60h-30l-30-30 30-30z" fill="#a4d43b"/><path d="m180 180h107v60h-107z" fill="#cce332"/><g fill="#cbc9c2"><circle cx="75" cy="195" r="15"/><circle cx="75" cy="255" r="15"/><circle cx="135" cy="195" r="15"/><circle cx="135" cy="255" r="15"/><circle cx="362" cy="195" r="15"/><circle cx="362" cy="255" r="15"/><circle cx="422" cy="195" r="15"/></g><circle cx="422" cy="255" fill="#ff5a47" r="15"/></g></svg>