<svg id="Layer_2" height="512" viewBox="0 0 128 128" width="512" xmlns="http://www.w3.org/2000/svg" data-name="Layer 2"><path d="m1.75 59.313h11.031v51.375h-11.031z" fill="#06daf7"/><path d="m42.75 44.312h62.461a0 0 0 0 1 0 0v10.5a6 6 0 0 1 -6 6h-50.461a6 6 0 0 1 -6-6v-10.5a0 0 0 0 1 0 0z" fill="#d6eafc"/><path d="m105.211 44.312h-68.9a4 4 0 0 1 -4-4v-15a8 8 0 0 1 8-8h85.939v13.5z" fill="#38454f"/><path d="m117.439 36.466-12.228 7.846v8.875h8.089a8.873 8.873 0 0 0 4.142-16.721z" fill="#f9ce00"/><path d="m66.167 37.229h-20.834a1.75 1.75 0 0 1 0-3.5h20.834a1.75 1.75 0 0 1 0 3.5z" fill="#283238"/><path d="m63.53 91h-37.9v-12h37.9a4 4 0 0 0 4-4v-14.188h12v14.188a16.018 16.018 0 0 1 -16 16z" fill="#38454f"/><path d="m25.625 95.87-6.422 6.005h-6.422v-33.75h6.422l6.422 6.005z" fill="#d6eafc"/><path d="m79.53 37.229h-5.03a1.75 1.75 0 0 1 0-3.5h5.03a1.75 1.75 0 0 1 0 3.5z" fill="#283238"/></svg>