<?xml version="1.0" encoding="UTF-8"?>
<!DOCTYPE svg PUBLIC "-//W3C//DTD SVG 1.1//EN" "http://www.w3.org/Graphics/SVG/1.1/DTD/svg11.dtd">
<!-- Creator: CorelDRAW X7 -->
<svg xmlns="http://www.w3.org/2000/svg" xml:space="preserve" width="100%" height="100%" version="1.1" style="shape-rendering:geometricPrecision; text-rendering:geometricPrecision; image-rendering:optimizeQuality; fill-rule:evenodd; clip-rule:evenodd"
viewBox="0 0 2646 2646"
 xmlns:xlink="http://www.w3.org/1999/xlink">
 <defs>
  <style type="text/css">
   <![CDATA[
    .fil4 {fill:#E63A2E}
    .fil0 {fill:#12496E}
    .fil3 {fill:#2A5B7D}
    .fil2 {fill:#7DBE41}
    .fil1 {fill:#FF9031}
    .fil5 {fill:#FF9B46}
   ]]>
  </style>
 </defs>
 <g id="Layer_x0020_1">
  <metadata id="CorelCorpID_0Corel-Layer"/>
  <g id="_863467432">
   <g>
    <path class="fil0" d="M866 1779c-1,80 -21,59 -67,114 -250,302 -11,718 355,685 294,-27 463,-349 317,-617 -34,-61 -70,-75 -98,-112 -20,-27 -20,-268 -17,-559l-160 159c1,114 2,224 6,327 7,213 15,123 112,231 136,151 19,382 -152,414 -190,35 -369,-153 -297,-339 58,-152 132,-100 146,-198 10,-65 8,-169 7,-256l-152 151zm206 163c-36,31 -182,70 -170,232 20,265 406,251 420,-1 7,-136 -71,-184 -171,-224 -5,-131 -5,-289 -4,-450l-75 75 0 368zm-15 96c-151,66 -59,330 114,238 154,-82 40,-306 -114,-238z"/>
    <path class="fil1" d="M1950 874l0 0c0,33 -27,61 -61,61l-178 0 122 -122 56 0c34,0 61,27 61,61z"/>
    <path class="fil1" d="M1774 1124l0 0c0,34 -27,61 -60,61l-176 0c-21,0 -40,-10 -50,-27l94 -94 132 0c33,0 60,27 60,60z"/>
    <path class="fil2" d="M1950 1375l0 0c0,34 -27,61 -61,61l-351 0c-34,0 -61,-27 -61,-61l0 0c0,-33 27,-61 61,-61l351 0c34,0 61,28 61,61z"/>
    <path class="fil2" d="M1774 1626l0 0c0,33 -27,60 -60,60l-176 0c-34,0 -61,-27 -61,-60l0 0c0,-34 27,-61 61,-61l176 0c33,0 60,27 60,61z"/>
   </g>
   <g>
    <path class="fil3" d="M1073 69c-271,47 -207,356 -207,634l1 1052c0,9 0,17 -1,24l152 -151c-1,-27 -1,-51 -1,-73l1 -1029c0,-54 -1,-107 0,-161 2,-101 5,-97 44,-126 51,-36 103,-13 124,26 20,37 13,105 14,150 4,323 -5,696 -4,1034l160 -159c4,-444 16,-1003 -23,-1084 -17,-36 -72,-90 -102,-108 -45,-27 -102,-38 -158,-29zm74 1430c1,-160 3,-323 3,-464 0,-61 28,-271 -38,-276 -62,-6 -39,145 -39,254l-1 561 75 -75z"/>
    <path class="fil4" d="M1950 373l0 0c0,33 -27,60 -61,60l-351 0c-34,0 -61,-27 -61,-60l0 0c0,-34 27,-61 61,-61l351 0c34,0 61,27 61,61z"/>
    <path class="fil4" d="M1774 623l0 0c0,34 -27,61 -60,61l-176 0c-34,0 -61,-27 -61,-61l0 0c0,-33 27,-60 61,-60l176 0c33,0 60,27 60,60z"/>
    <path class="fil5" d="M1711 935l-173 0c-34,0 -61,-28 -61,-61l0 0c0,-34 27,-61 61,-61l295 0 -122 122z"/>
    <path class="fil5" d="M1488 1158c-7,-9 -11,-21 -11,-34l0 0c0,-33 27,-60 61,-60l44 0 -94 94z"/>
   </g>
  </g>
 </g>
</svg>
