<?xml version="1.0" encoding="UTF-8"?>
<!DOCTYPE svg PUBLIC "-//W3C//DTD SVG 1.1//EN" "http://www.w3.org/Graphics/SVG/1.1/DTD/svg11.dtd">
<!-- Creator: CorelDRAW X7 -->
<svg xmlns="http://www.w3.org/2000/svg" xml:space="preserve" width="100%" height="100%" version="1.1" style="shape-rendering:geometricPrecision; text-rendering:geometricPrecision; image-rendering:optimizeQuality; fill-rule:evenodd; clip-rule:evenodd"
viewBox="0 0 2646 2646"
 xmlns:xlink="http://www.w3.org/1999/xlink">
 <defs>
  <style type="text/css">
   <![CDATA[
    .fil2 {fill:#12496E}
    .fil4 {fill:#24A148}
    .fil0 {fill:#2A5B7D}
    .fil1 {fill:#3AAA5A}
    .fil3 {fill:#7DBE41}
   ]]>
  </style>
 </defs>
 <g id="Layer_x0020_1">
  <metadata id="CorelCorpID_0Corel-Layer"/>
  <g id="_905053424">
   <g>
    <path class="fil0" d="M532 2112c585,7 1847,-1 1895,-14 167,-45 151,-202 151,-391l0 -1100c0,-184 5,-342 -163,-378l-361 362c195,90 332,279 361,481 56,376 -220,671 -528,715 -305,44 -559,-128 -667,-363l-688 688zm1347 298c69,21 231,21 295,-2l14 -142 -315 0 6 144zm-1414 -1c54,19 245,37 283,-11 36,-29 23,-78 23,-132l-313 0 7 143z"/>
    <path class="fil1" d="M1756 1056c-160,59 -57,283 87,214 128,-61 57,-267 -87,-214zm-194 166c-9,-85 -2,-94 15,-154l-128 128c32,16 70,24 113,26zm172 -287c79,-11 104,2 173,17l62 -260c-6,1 -13,2 -20,3l-212 213c-1,9 -2,18 -3,27zm273 345l256 58c-14,-149 -93,-224 -240,-234 11,92 1,95 -16,176zm-389 356c132,-11 245,-98 231,-241 -73,13 -107,1 -169,-19l-62 260z"/>
   </g>
   <g>
    <path class="fil2" d="M215 235c-167,56 -147,206 -147,397l0 1100c0,189 -8,343 180,372 24,4 132,7 287,8l688 -688c-25,-54 -42,-111 -50,-170 -53,-382 219,-663 539,-711 126,-19 243,1 344,48l362 -362c-4,0 -8,-1 -13,-2 -112,-19 -2147,-6 -2190,8z"/>
    <path class="fil3" d="M561 1873c38,0 119,5 151,-4 40,-10 76,-51 55,-108 -34,-91 -410,-44 -429,-32 -27,16 -45,59 -25,103 30,63 166,41 248,41zm200 -1394c-67,-29 -384,-37 -429,-2 -26,22 -41,74 -10,112 40,46 206,27 275,27 122,1 201,0 164,-137zm-411 930c-80,37 -63,148 63,150 55,1 275,7 310,-6 68,-26 95,-150 -64,-152 -55,0 -276,-7 -309,8zm19 -633c-98,28 -90,147 32,154 45,3 286,4 317,-5 84,-22 82,-149 -47,-154 -56,-2 -263,-5 -302,5zm-7 314c-89,26 -83,149 39,154 50,1 280,4 316,-4 81,-20 89,-151 -46,-154 -58,-2 -270,-7 -309,4z"/>
    <path class="fil4" d="M1579 1068c2,-5 3,-11 5,-17l-257 -61c5,99 49,170 124,206l128 -128zm373 -373c-124,21 -196,88 -213,213l213 -213z"/>
   </g>
  </g>
 </g>
</svg>
