<svg id="Capa_1" enable-background="new 0 0 512 512" height="512" viewBox="0 0 512 512" width="512" xmlns="http://www.w3.org/2000/svg"><g><g><path d="m406 160c0 43.03-18.16 81.76-47.22 109.07-25.79 24.25-42.78 56.33-42.78 91.73v9.2h-120v-2.57c0-36.98-14.97-72.54-42.07-97.69-28.75-26.68-47.02-64.45-47.9-106.55-1.77-84.75 65.61-153.19 149.97-153.19 82.84 0 150 67.16 150 150z" fill="#fff2a0"/><path d="m256 220c-33.14 0-60-26.86-60-60 0-60 60-90 60-90s60 30 60 90c0 33.14-26.86 60-60 60z" fill="#d8ec84"/><path d="m196 370v36c0 16.57 13.43 30 30 30v36c0 16.57 13.43 30 30 30s30-13.43 30-30v-36c16.57 0 30-13.43 30-30v-36z" fill="#eefaff"/></g><g><path d="m256 512c22.056 0 40-17.944 40-40v-27.266c17.233-4.452 30-20.13 30-38.734v-45.2c0-30.425 14.074-60.414 39.629-84.442 32.482-30.528 50.371-71.851 50.371-116.358 0-23.589-5.018-46.311-14.912-67.533-2.334-5.005-8.279-7.17-13.289-4.838-5.006 2.334-7.172 8.283-4.838 13.289 8.652 18.557 13.039 38.436 13.039 59.082 0 38.929-15.65 75.076-44.07 101.785-29.399 27.643-45.678 62.493-45.918 98.215h-100.202c-1.905-37.318-18.094-72.548-45.077-97.59-28.031-26.014-43.908-61.325-44.705-99.429-1.652-79.121 61.069-142.981 139.972-142.981 24.971 0 49.478 6.652 70.872 19.237 4.762 2.801 10.89 1.211 13.689-3.549 2.801-4.761 1.212-10.89-3.549-13.689-24.465-14.392-52.479-21.999-81.012-21.999-90.015 0-161.856 72.957-159.968 163.399.911 43.569 19.058 83.938 51.096 113.671 24.704 22.926 38.872 55.861 38.872 90.36v38.57c0 18.604 12.767 34.282 30 38.734v27.266c0 22.056 17.944 40 40 40zm0-20c-11.028 0-20-8.972-20-20v-26h40v26c0 11.028-8.972 20-20 20zm-50-86v-26h100v26c0 11.028-8.972 20-20 20h-60c-11.028 0-20-8.972-20-20z"/><path d="m256 260c5.522 0 10-4.478 10-10v-20.726c33.876-4.869 60-34.073 60-69.274 0-65.428-62.853-97.606-65.528-98.944-2.814-1.408-6.129-1.408-8.943 0-2.676 1.338-65.529 33.516-65.529 98.944 0 35.202 26.123 64.406 60 69.274v20.726c0 5.522 4.478 10 10 10zm-50-100c0-43.817 36.973-70.455 49.999-78.478 13.045 8.035 50.001 34.67 50.001 78.478 0 24.146-17.205 44.348-40 48.994v-48.994c0-5.522-4.478-10-10-10s-10 4.478-10 10v48.994c-22.795-4.646-40-24.848-40-48.994z"/><path d="m49.24 198.423-28.19 10.26c-5.19 1.89-7.866 7.628-5.977 12.817 1.879 5.164 7.599 7.874 12.817 5.978l28.19-10.26c5.19-1.89 7.866-7.628 5.977-12.817-1.889-5.19-7.629-7.866-12.817-5.978z"/><path d="m490.95 63.317c5.189-1.89 7.866-7.628 5.978-12.817-1.89-5.189-7.625-7.866-12.817-5.978l-28.19 10.26c-5.189 1.89-7.866 7.628-5.978 12.817 1.88 5.164 7.599 7.874 12.817 5.978z"/><path d="m56.08 54.782-28.19-10.26c-5.191-1.885-10.928.788-12.817 5.978-1.889 5.189.787 10.928 5.977 12.817l28.19 10.26c5.231 1.901 10.942-.826 12.817-5.978 1.889-5.189-.787-10.927-5.977-12.817z"/><path d="m449.942 204.4c-1.889 5.189.788 10.928 5.978 12.817l28.19 10.26c5.23 1.9 10.941-.825 12.817-5.978 1.889-5.189-.788-10.928-5.978-12.817l-28.19-10.26c-5.188-1.885-10.927.789-12.817 5.978z"/><path d="m10 146h30c5.523 0 10-4.478 10-10s-4.477-10-10-10h-30c-5.523 0-10 4.478-10 10s4.477 10 10 10z"/><path d="m502 126h-30c-5.522 0-10 4.478-10 10s4.478 10 10 10h30c5.522 0 10-4.478 10-10s-4.478-10-10-10z"/><circle cx="366" cy="60" r="10"/></g></g></svg>