<svg width="1559" height="705" viewBox="0 0 1559 705" fill="none" xmlns="http://www.w3.org/2000/svg">
<g clip-path="url(#clip0)">
<path d="M504.86 272.857L132.238 273.272C128.031 273.276 124.62 276.889 124.625 281.345C124.629 285.801 128.047 289.407 132.254 289.402L504.916 289.029L504.917 330.201L16.2244 330.703L16.2231 289.531L96.6063 289.442C100.813 289.437 104.224 285.824 104.22 281.368C104.215 276.912 100.801 273.307 96.5902 273.311L16.207 273.401C7.78131 273.41 0.931462 280.67 0.940327 289.59L0.981201 330.72C0.989844 339.418 7.52516 346.508 15.67 346.842L15.6976 374.596C15.7058 382.863 22.0704 389.584 29.8821 389.575L52.9014 389.549L48.4557 567.875C48.3223 573.153 50.1693 578.143 53.6511 581.924C57.1369 585.706 61.8054 587.784 66.7927 587.778C75.3927 587.769 82.7309 581.569 84.6433 572.697L101.8 493.092L419.7 492.738L437.019 572.305C438.949 581.173 446.299 587.356 454.896 587.346C459.887 587.341 464.547 585.252 468.025 581.463C471.5 577.674 473.337 572.68 473.193 567.402L468.393 389.087L491.416 389.061C499.228 389.053 505.575 382.318 505.567 374.051L505.539 346.297C513.683 345.944 520.205 338.84 520.196 330.142L520.155 289.012C520.15 280.092 513.286 272.848 504.86 272.857V272.857ZM69.7808 569.113C69.4614 570.606 68.2265 571.646 66.7806 571.648C65.6437 571.649 64.9063 571.034 64.5692 570.665C64.2282 570.297 63.6649 569.497 63.6954 568.298L68.1525 389.532L108.499 389.487L69.7808 569.113ZM105.278 476.958L110.128 454.459L411.299 454.124L416.194 476.612L105.278 476.958ZM457.089 570.229C456.753 570.598 456.016 571.215 454.883 571.216C453.434 571.218 452.201 570.18 451.874 568.688L412.804 389.149L453.15 389.104L457.962 567.863C457.991 569.058 457.429 569.859 457.089 570.229ZM490.327 372.932L327.195 373.114C322.984 373.119 319.577 376.732 319.582 381.187C319.586 385.643 323 389.249 327.211 389.244L397.164 389.166L407.794 437.998L113.606 438.325L124.134 389.47L291.135 389.284C295.346 389.279 298.753 385.667 298.749 381.211C298.745 376.755 295.33 373.149 291.119 373.154L30.9396 373.444L30.9132 346.859L490.3 346.348L490.327 372.932Z" fill="black"/>
</g>
<g clip-path="url(#clip1)">
<path d="M139.294 37.2197L139.47 214.269L397.734 213.982L397.558 36.9323L139.294 37.2197ZM373.913 179.96L163.223 180.195L163.105 61.0267L373.794 60.7923L373.913 179.96Z" fill="black"/>
<path d="M302.601 231.112L302.618 248.136L234.654 248.212L234.637 231.188L115.699 231.32L115.706 238.13C115.725 256.857 131.032 272.161 149.722 272.14L387.597 271.876C406.287 271.855 421.564 256.516 421.545 237.79L421.539 230.98L302.601 231.112Z" fill="black"/>
</g>
<g clip-path="url(#clip2)">
<path d="M1543.29 271.702L1170.67 272.116C1166.46 272.121 1163.05 275.734 1163.06 280.19C1163.06 284.646 1166.48 288.251 1170.69 288.246L1543.35 287.874L1543.35 329.046L1054.66 329.548L1054.65 288.375L1135.04 288.286C1139.24 288.281 1142.66 284.668 1142.65 280.212C1142.65 275.757 1139.23 272.151 1135.02 272.156L1054.64 272.245C1046.21 272.255 1039.36 279.514 1039.37 288.434L1039.41 329.565C1039.42 338.263 1045.96 345.352 1054.1 345.687L1054.13 373.441C1054.14 381.707 1060.5 388.428 1068.31 388.419L1091.33 388.394L1086.89 566.719C1086.75 571.997 1088.6 576.987 1092.08 580.769C1095.57 584.55 1100.24 586.628 1105.22 586.623C1113.82 586.613 1121.16 580.414 1123.07 571.542L1140.23 491.936L1458.13 491.583L1475.45 571.149C1477.38 580.017 1484.73 586.2 1493.33 586.191C1498.32 586.185 1502.98 584.097 1506.46 580.308C1509.93 576.519 1511.77 571.524 1511.62 566.247L1506.82 387.931L1529.85 387.906C1537.66 387.897 1544.01 381.162 1544 372.896L1543.97 345.142C1552.11 344.789 1558.64 337.685 1558.63 328.987L1558.59 287.857C1558.58 278.936 1551.72 271.692 1543.29 271.702V271.702ZM1108.21 567.957C1107.89 569.45 1106.66 570.491 1105.21 570.493C1104.08 570.494 1103.34 569.878 1103 569.51C1102.66 569.141 1102.1 568.341 1102.13 567.143L1106.58 388.377L1146.93 388.332L1108.21 567.957ZM1143.71 475.802L1148.56 453.304L1449.73 452.968L1454.63 475.456L1143.71 475.802ZM1495.52 569.073C1495.18 569.442 1494.45 570.059 1493.31 570.061C1491.86 570.062 1490.63 569.024 1490.31 567.532L1451.23 387.993L1491.58 387.948L1496.39 566.708C1496.42 567.903 1495.86 568.704 1495.52 569.073ZM1528.76 371.777L1365.63 371.958C1361.42 371.963 1358.01 375.576 1358.01 380.032C1358.02 384.488 1361.43 388.093 1365.64 388.089L1435.6 388.011L1446.22 436.842L1152.04 437.169L1162.57 388.314L1329.57 388.129C1333.78 388.124 1337.18 384.511 1337.18 380.055C1337.18 375.599 1333.76 371.994 1329.55 371.998L1069.37 372.288L1069.34 345.703L1528.73 345.192L1528.76 371.777Z" fill="black"/>
</g>
<g clip-path="url(#clip3)">
<path d="M1177.72 36.0641L1177.9 213.114L1436.16 212.827L1435.99 35.7768L1177.72 36.0641ZM1412.34 178.805L1201.65 179.039L1201.54 59.8712L1412.23 59.6367L1412.34 178.805Z" fill="black"/>
<path d="M1341.03 229.957L1341.05 246.981L1273.08 247.056L1273.07 230.032L1154.13 230.165L1154.14 236.975C1154.16 255.701 1169.46 271.006 1188.15 270.985L1426.03 270.72C1444.72 270.699 1460 255.361 1459.98 236.634L1459.97 229.824L1341.03 229.957Z" fill="black"/>
</g>
<g clip-path="url(#clip4)">
<path d="M1024.08 272.279L651.454 272.694C647.247 272.699 643.836 276.312 643.84 280.768C643.845 285.223 647.263 288.829 651.47 288.824L1024.13 288.451L1024.13 329.624L535.44 330.125L535.439 288.953L615.822 288.864C620.029 288.859 623.44 285.246 623.435 280.79C623.431 276.334 620.017 272.729 615.806 272.734L535.423 272.823C526.997 272.832 520.147 280.092 520.156 289.012L520.197 330.142C520.205 338.84 526.741 345.93 534.886 346.265L534.913 374.019C534.921 382.285 541.286 389.006 549.098 388.997L572.117 388.972L567.671 567.297C567.538 572.575 569.385 577.565 572.867 581.347C576.353 585.128 581.021 587.206 586.008 587.2C594.608 587.191 601.947 580.991 603.859 572.119L621.016 492.514L938.916 492.16L956.235 571.727C958.165 580.595 965.515 586.778 974.111 586.769C979.102 586.763 983.763 584.675 987.241 580.885C990.715 577.096 992.552 572.102 992.409 566.824L987.608 388.509L1010.63 388.484C1018.44 388.475 1024.79 381.74 1024.78 373.474L1024.75 345.719C1032.9 345.367 1039.42 338.263 1039.41 329.565L1039.37 288.434C1039.37 279.514 1032.5 272.27 1024.08 272.279V272.279ZM588.996 568.535C588.677 570.028 587.442 571.069 585.996 571.07C584.859 571.072 584.122 570.456 583.785 570.088C583.444 569.719 582.881 568.919 582.911 567.72L587.368 388.955L627.714 388.91L588.996 568.535ZM624.493 476.38L629.344 453.881L930.515 453.546L935.41 476.034L624.493 476.38ZM976.305 569.651C975.968 570.02 975.232 570.637 974.099 570.638C972.649 570.64 971.416 569.602 971.09 568.11L932.019 388.571L972.365 388.526L977.178 567.286C977.207 568.48 976.645 569.282 976.305 569.651ZM1009.54 372.355L846.411 372.536C842.2 372.541 838.793 376.154 838.797 380.61C838.802 385.066 842.216 388.671 846.427 388.666L916.38 388.588L927.009 437.42L632.821 437.747L643.35 388.892L810.351 388.706C814.562 388.702 817.969 385.089 817.965 380.633C817.96 376.177 814.546 372.572 810.335 372.576L550.155 372.866L550.129 346.281L1009.52 345.77L1009.54 372.355Z" fill="black"/>
</g>
<g clip-path="url(#clip5)">
<path d="M658.51 36.6419L658.685 213.692L916.95 213.404L916.774 36.3545L658.51 36.6419ZM893.128 179.383L682.439 179.617L682.321 60.449L893.01 60.2145L893.128 179.383Z" fill="black"/>
<path d="M821.817 230.535L821.834 247.558L753.869 247.634L753.853 230.61L634.915 230.743L634.922 237.552C634.94 256.279 650.248 271.583 668.938 271.563L906.813 271.298C925.503 271.277 940.78 255.938 940.761 237.212L940.754 230.402L821.817 230.535Z" fill="black"/>
</g>
<defs>
<clipPath id="clip0">
<rect width="519.216" height="549.429" transform="matrix(0.999999 -0.00111278 0.000993767 1 0.806946 155.378)" fill="white"/>
</clipPath>
<clipPath id="clip1">
<rect width="305.84" height="306.433" transform="matrix(0.999999 -0.00111278 0.000993767 1 115.471 1.49585)" fill="white"/>
</clipPath>
<clipPath id="clip2">
<rect width="519.216" height="549.429" transform="matrix(0.999999 -0.00111278 0.000993767 1 1039.24 154.222)" fill="white"/>
</clipPath>
<clipPath id="clip3">
<rect width="305.84" height="306.433" transform="matrix(0.999999 -0.00111278 0.000993767 1 1153.9 0.340332)" fill="white"/>
</clipPath>
<clipPath id="clip4">
<rect width="519.216" height="549.429" transform="matrix(0.999999 -0.00111278 0.000993767 1 520.023 154.8)" fill="white"/>
</clipPath>
<clipPath id="clip5">
<rect width="305.84" height="306.433" transform="matrix(0.999999 -0.00111278 0.000993767 1 634.687 0.918091)" fill="white"/>
</clipPath>
</defs>
</svg>
