<svg id="color" enable-background="new 0 0 24 24" height="512" viewBox="0 0 24 24" width="512" xmlns="http://www.w3.org/2000/svg"><path d="m21.25 24h-16.75c-1.517 0-2.75-1.233-2.75-2.75v-18.5c0-1.517 1.233-2.75 2.75-2.75h16.75c1.517 0 2.75 1.233 2.75 2.75v18.5c0 1.517-1.233 2.75-2.75 2.75z" fill="#03a9f4"/><path d="m13 0h-8.5c-1.517 0-2.75 1.233-2.75 2.75v18.5c0 1.517 1.233 2.75 2.75 2.75h8.5z" fill="#0393d4"/><path d="m4.25 9h-3.5c-.414 0-.75-.336-.75-.75v-2.5c0-.414.336-.75.75-.75h3.5c.414 0 .75.336.75.75v2.5c0 .414-.336.75-.75.75z" fill="#1976d2"/><path d="m4.25 19h-3.5c-.414 0-.75-.336-.75-.75v-2.5c0-.414.336-.75.75-.75h3.5c.414 0 .75.336.75.75v2.5c0 .414-.336.75-.75.75z" fill="#1976d2"/><path d="m19.5 17c-.827 0-1.5.673-1.5 1.5s.673 1.5 1.5 1.5 1.5-.673 1.5-1.5-.673-1.5-1.5-1.5z" fill="#f5f5f5"/><path d="m14.5 12c-.827 0-1.5.673-1.5 1.5s.673 1.5 1.5 1.5 1.5-.673 1.5-1.5-.673-1.5-1.5-1.5z" fill="#f5f5f5"/><path d="m14.5 17c-.827 0-1.5.673-1.5 1.5s.673 1.5 1.5 1.5 1.5-.673 1.5-1.5-.673-1.5-1.5-1.5z" fill="#f5f5f5"/><path d="m9.5 12c-.827 0-1.5.673-1.5 1.5s.673 1.5 1.5 1.5 1.5-.673 1.5-1.5-.673-1.5-1.5-1.5z" fill="#f5f5f5"/><path d="m9.5 17c-.827 0-1.5.673-1.5 1.5s.673 1.5 1.5 1.5 1.5-.673 1.5-1.5-.673-1.5-1.5-1.5z" fill="#f5f5f5"/><path d="m5 17h-5v1.25c0 .414.336.75.75.75h3.5c.414 0 .75-.336.75-.75z" fill="#1667b7"/><path d="m5 7h-5v1.25c0 .414.336.75.75.75h3.5c.414 0 .75-.336.75-.75z" fill="#1667b7"/><path d="m20.25 10h-11.5c-.414 0-.75-.336-.75-.75v-3c0-.414.336-.75.75-.75h11.5c.414 0 .75.336.75.75v3c0 .414-.336.75-.75.75z" fill="#f5f5f5"/><path d="m21 7.75h-13v1.5c0 .414.336.75.75.75h11.5c.414 0 .75-.336.75-.75z" fill="#d5d5d5"/><path d="m19.5 15c.827 0 1.5-.673 1.5-1.5s-.673-1.5-1.5-1.5-1.5.673-1.5 1.5.673 1.5 1.5 1.5z" fill="#f5f5f5"/><g fill="#d5d5d5"><path d="m21 13.5h-3c0 .827.673 1.5 1.5 1.5s1.5-.673 1.5-1.5z"/><path d="m16 13.5h-3c0 .827.673 1.5 1.5 1.5s1.5-.673 1.5-1.5z"/><path d="m11 13.5h-3c0 .827.673 1.5 1.5 1.5s1.5-.673 1.5-1.5z"/><path d="m21 18.5h-3c0 .827.673 1.5 1.5 1.5s1.5-.673 1.5-1.5z"/><path d="m16 18.5h-3c0 .827.673 1.5 1.5 1.5s1.5-.673 1.5-1.5z"/><path d="m11 18.5h-3c0 .827.673 1.5 1.5 1.5s1.5-.673 1.5-1.5z"/></g></svg>