<svg id="Layer_3" enable-background="new 0 0 64 64" height="512" viewBox="0 0 64 64" width="512" xmlns="http://www.w3.org/2000/svg"><g><g><path d="m4 55h56c1.105 0 2-.895 2-2v-39c0-1.105-.895-2-2-2h-54-2c-1.105 0-2 .895-2 2v39c0 1.105.895 2 2 2z" fill="#f8cf6a"/></g><g><path d="m4 55h56c1.105 0 2-.895 2-2v-9h-60v9c0 1.105.895 2 2 2z" fill="#536d26"/></g><g><circle cx="49" cy="55" fill="#d5cec2" r="7"/></g><g><circle cx="49" cy="55" fill="#625d51" r="3"/></g><g><circle cx="15" cy="55" fill="#d5cec2" r="7"/></g><g><circle cx="15" cy="55" fill="#625d51" r="3"/></g><g><path d="m10 18h44v26h-44z" fill="#b4e05d"/></g><g><path d="m10 44h19.476c6.142-5.449 10.017-13.397 10.017-22.254 0-1.27-.089-2.518-.243-3.746-13.037 0-29.25 0-29.25 0z" fill="#c8ec6c"/></g><g><path d="m54 20h2c1.105 0 2 .895 2 2v4c0 1.105-.895 2-2 2h-2" fill="#536d26"/></g><g><path d="m54 32h2c1.105 0 2 .895 2 2v4c0 1.105-.895 2-2 2h-2" fill="#536d26"/></g><g><path d="m36 22h14v6h-14z" fill="#536d26"/></g><g><path d="m18 32h10v8h-10z" fill="#536d26"/></g><g><circle cx="19" cy="15" fill="#ecfa97" r="13"/></g><g><path d="m6 15c0 3.708 1.56 7.044 4.05 9.413 8.485-1.452 14.95-8.824 14.95-17.723 0-1.154-.119-2.279-.327-3.373-1.716-.835-3.636-1.317-5.673-1.317-7.18 0-13 5.82-13 13z" fill="#f0fec5"/></g><g><path d="m21 6-7 10h4l-2 8 8-11h-4z" fill="#f5ba5b"/></g><g><path d="m8 56h-4c-1.654 0-3-1.346-3-3v-39c0-1.654 1.346-3 3-3h2v2h-2c-.552 0-1 .449-1 1v39c0 .552.448 1 1 1h4z"/></g><g><path d="m60 56h-4v-2h4c.552 0 1-.448 1-1v-39c0-.551-.448-1-1-1h-28v-2h28c1.654 0 3 1.346 3 3v39c0 1.654-1.346 3-3 3z"/></g><g><path d="m15 63c-4.411 0-8-3.589-8-8s3.589-8 8-8 8 3.589 8 8-3.589 8-8 8zm0-14c-3.309 0-6 2.691-6 6s2.691 6 6 6 6-2.691 6-6-2.691-6-6-6z"/></g><g><path d="m49 63c-4.411 0-8-3.589-8-8s3.589-8 8-8 8 3.589 8 8-3.589 8-8 8zm0-14c-3.309 0-6 2.691-6 6s2.691 6 6 6 6-2.691 6-6-2.691-6-6-6z"/></g><g><path d="m22 54h20v2h-20z"/></g><g><path d="m2 43h60v2h-60z"/></g><g><path d="m49 59c-2.206 0-4-1.794-4-4s1.794-4 4-4 4 1.794 4 4-1.794 4-4 4zm0-6c-1.103 0-2 .897-2 2s.897 2 2 2 2-.897 2-2-.897-2-2-2z"/></g><g><path d="m15 59c-2.206 0-4-1.794-4-4s1.794-4 4-4 4 1.794 4 4-1.794 4-4 4zm0-6c-1.103 0-2 .897-2 2s.897 2 2 2 2-.897 2-2-.897-2-2-2z"/></g><g><path d="m55 44h-2v-25h-21v-2h22c.553 0 1 .448 1 1z"/></g><g><path d="m9 24h2v20h-2z"/></g><g><path d="m31 18h2v26h-2z"/></g><g><path d="m28 41h-10c-.553 0-1-.447-1-1v-8c0-.552.447-1 1-1h10c.553 0 1 .448 1 1v8c0 .553-.447 1-1 1zm-9-2h8v-6h-8z"/></g><g><path d="m22 32h2v8h-2z"/></g><g><path d="m18 35h10v2h-10z"/></g><g><path d="m50 29h-14c-.553 0-1-.448-1-1v-6c0-.552.447-1 1-1h14c.553 0 1 .448 1 1v6c0 .552-.447 1-1 1zm-13-2h12v-4h-12z"/></g><g><path d="m56 29h-2v-2h2c.552 0 1-.449 1-1v-4c0-.551-.448-1-1-1h-2v-2h2c1.654 0 3 1.346 3 3v4c0 1.654-1.346 3-3 3z"/></g><g><path d="m56 41h-2v-2h2c.552 0 1-.448 1-1v-4c0-.552-.448-1-1-1h-2v-2h2c1.654 0 3 1.346 3 3v4c0 1.654-1.346 3-3 3z"/></g><g><path d="m16 25c-.143 0-.287-.03-.423-.094-.434-.203-.663-.685-.547-1.149l1.689-6.757h-2.719c-.373 0-.715-.208-.887-.538-.173-.331-.146-.73.067-1.035l7-10c.266-.379.761-.525 1.187-.357.431.17.688.613.623 1.072l-.837 5.858h2.847c.376 0 .721.211.891.546.171.335.14.738-.082 1.042l-8 11c-.194.266-.497.412-.809.412zm-.079-10h2.079c.308 0 .599.142.788.385s.257.559.182.858l-.751 3.007 3.817-5.25h-2.036c-.29 0-.565-.126-.756-.345-.189-.219-.275-.51-.234-.797l.408-2.854z"/></g><g><path d="m19 29c-7.72 0-14-6.28-14-14s6.28-14 14-14 14 6.28 14 14-6.28 14-14 14zm0-26c-6.617 0-12 5.383-12 12s5.383 12 12 12 12-5.383 12-12-5.383-12-12-12z"/></g></g></svg>