<svg height="512" viewBox="0 0 128 128" width="512" xmlns="http://www.w3.org/2000/svg"><g><path d="m12.25 1.747h103.5v124.5h-103.5z" fill="#0d70b2"/><path d="m20.25 28.381h61.744v97.866h-61.744z" fill="#e1e4fb"/><path d="m20.25 9.874h87.5v10.501h-87.5z" fill="#fedb41"/><path d="m49.372 28.381h3.5v97.866h-3.5z" fill="#c5c9f7"/><path d="m90 28.381h17.75v17.75h-17.75z" fill="#17ace8"/><path d="m90 54.138h17.75v17.75h-17.75z" fill="#17ace8"/><g fill="#e1e4fb"><path d="m96.565 41.006h4.62a1.75 1.75 0 0 0 1.515-2.625l-2.309-4a1.751 1.751 0 0 0 -3.032 0l-2.309 4a1.75 1.75 0 0 0 1.515 2.625z"/><path d="m101.185 59.263h-4.62a1.75 1.75 0 0 0 -1.515 2.625l2.309 4a1.751 1.751 0 0 0 3.032 0l2.309-4a1.75 1.75 0 0 0 -1.515-2.625z"/></g><path d="m90 79.894h17.75v7.987h-17.75z" fill="#00ddc1"/></g></svg>