<svg width="511" height="511" viewBox="0 0 511 511" fill="none" xmlns="http://www.w3.org/2000/svg">
<g clip-path="url(#clip0)">
<ellipse cx="218.5" cy="231.5" rx="55.5" ry="53.5" fill="#1873DD"/>
<ellipse cx="292.5" cy="201.5" rx="55.5" ry="53.5" fill="#1873DD"/>
<ellipse cx="341" cy="190" rx="48" ry="42" fill="#1873DD"/>
<ellipse cx="273.5" cy="284.5" rx="55.5" ry="53.5" fill="#1873DD"/>
<ellipse cx="236.5" cy="337.5" rx="55.5" ry="53.5" fill="#1873DD"/>
<ellipse cx="255.5" cy="370.5" rx="55.5" ry="53.5" fill="#1873DD"/>
<ellipse cx="237.5" cy="405.5" rx="55.5" ry="53.5" fill="#1873DD"/>
<ellipse cx="255.5" cy="212.5" rx="55.5" ry="53.5" fill="#1873DD"/>
<ellipse cx="181" cy="204" rx="37" ry="27" fill="#1873DD"/>
<path d="M492.014 0H20.9589C9.93363 0 0.997986 8.93564 0.997986 19.9609C0.997986 75.5475 24.8264 128.616 66.374 165.547L153.793 243.247C168.951 256.72 177.645 276.081 177.645 296.365V491.016C177.645 506.922 195.422 516.458 208.674 507.62L326.439 429.114C331.991 425.41 335.328 419.18 335.328 412.505V296.365C335.328 276.081 344.022 256.72 359.18 243.247L446.595 165.547C488.143 128.616 511.971 75.5475 511.971 19.9609C511.971 8.93564 503.035 0 492.014 0V0ZM420.073 135.707L332.658 213.411C308.985 234.455 295.406 264.689 295.406 296.362V401.823L217.563 453.718V296.365C217.563 264.689 203.984 234.455 180.311 213.411L92.8963 135.711C64.8808 110.803 46.9978 76.6742 42.2103 39.918H470.759C465.971 76.6742 448.092 110.803 420.073 135.707V135.707Z" fill="black"/>
</g>
<defs>
<clipPath id="clip0">
<rect width="511" height="511" fill="white"/>
</clipPath>
</defs>
</svg>
