<svg height="512" viewBox="0 0 128 128" width="512" xmlns="http://www.w3.org/2000/svg"><g><path d="m29.405 27.25h9v36.75h-9z" fill="#eaeaf0"/><path d="m89.595 27.25h9v36.75h-9z" fill="#eaeaf0" transform="matrix(-1 0 0 -1 188.19 91.25)"/><path d="m12.5 20.404h103v10.096h-103z" fill="#d93922"/><g fill="#eaeaf0"><path d="m24.192 103.557h-11.692a7.759 7.759 0 0 1 -7.75-7.75v-21.307a1.751 1.751 0 0 1 .731-1.423l8.846-6.335a1.75 1.75 0 0 1 2.038 2.846l-8.115 5.812v20.407a4.255 4.255 0 0 0 4.25 4.25h11.692a1.75 1.75 0 0 1 0 3.5z"/><path d="m12.5 82.664h-6a1.75 1.75 0 0 1 0-3.5h4.25v-8.964a1.75 1.75 0 0 1 3.5 0v10.714a1.75 1.75 0 0 1 -1.75 1.75z"/></g><path d="m23.405 60.998h30v51.502h-30z" fill="#fdd82e"/><path d="m18.905 109.5h39v8.375h-39z" fill="#ff9800"/><path d="m32.405 63.998h12v18h-12z" fill="#f7502f" transform="matrix(0 1 -1 0 111.403 34.593)"/><path d="m47.405 92.748h-18a1.75 1.75 0 0 1 0-3.5h18a1.75 1.75 0 1 1 0 3.5z" fill="#eaeaf0"/><g fill="#eaeaf0"><path d="m115.5 103.557h-11.692a1.75 1.75 0 0 1 0-3.5h11.692a4.255 4.255 0 0 0 4.25-4.25v-20.407l-8.115-5.811a1.75 1.75 0 0 1 2.038-2.846l8.846 6.335a1.751 1.751 0 0 1 .731 1.423v21.306a7.759 7.759 0 0 1 -7.75 7.75z"/><path d="m121.5 82.664h-6a1.75 1.75 0 0 1 -1.75-1.75v-10.714a1.75 1.75 0 0 1 3.5 0v8.962h4.25a1.75 1.75 0 0 1 0 3.5z"/></g><path d="m74.595 60.998h30v51.502h-30z" fill="#fdd82e" transform="matrix(-1 0 0 -1 179.19 173.498)"/><path d="m70.095 109.5h39v8.375h-39z" fill="#ff9800" transform="matrix(-1 0 0 -1 179.19 227.375)"/><path d="m83.595 63.998h12v18h-12z" fill="#f7502f" transform="matrix(0 1 -1 0 162.593 -16.597)"/><path d="m98.6 92.748h-18a1.75 1.75 0 0 1 0-3.5h18a1.75 1.75 0 0 1 0 3.5z" fill="#eaeaf0"/><path d="m6.5 115.5h115v6h-115z" fill="#f7502f"/><path d="m6.5 15.5h115v9h-115z" fill="#f7502f"/><circle cx="64" cy="20.404" fill="#eaeaf0" r="13.904"/><path d="m70 22.789a6 6 0 0 1 -12 0c0-4.6 6-10.77 6-10.77s6 6.17 6 10.77z" fill="#fdd82e"/></g></svg>