<svg id="Flat" enable-background="new 0 0 512 512" height="512" viewBox="0 0 512 512" width="512" xmlns="http://www.w3.org/2000/svg"><path d="m168 40h176v128h-176z" fill="#6a9c72"/><path d="m200 136h112c35.3 0 64 28.7 64 64v192c0 17.7-14.3 32-32 32h-176c-17.7 0-32-14.3-32-32v-192c0-35.3 28.7-64 64-64z" fill="#cfdb8c"/><g fill="#88c791"><path d="m216 24h80v32h-80z"/><path d="m176 424h160c8.8 0 16 7.2 16 16v16h-192v-16c0-8.8 7.2-16 16-16z"/><path d="m224 104h64v32h-64z"/></g><circle cx="256" cy="80" fill="#cfdb8c" r="24"/><path d="m152 24h32v128h-32z" fill="#88c791"/><path d="m328 24h32v128h-32z" fill="#88c791"/><path d="m212.2 352s-17-60.6 17-98.5 76.4-45.5 76.4-45.5 25.5 53.1 8.5 90.9-101.9 53.1-101.9 53.1z" fill="#88c791"/><path d="m212.2 360c-4.4 0-8-3.6-8-8 0-1.3.3-2.6.9-3.7 26.1-49.1 60.4-73.8 61.9-74.8 3.6-2.5 8.6-1.7 11.1 2 2.5 3.6 1.7 8.5-1.9 11.1-.4.3-32.9 23.7-57 69.2-1.3 2.6-4 4.2-7 4.2z" fill="#6a9c72"/><path d="m160 456h192v16c0 8.8-7.2 16-16 16h-160c-8.8 0-16-7.2-16-16z" fill="#6a9c72"/></svg>