<svg id="filled_outline" height="512" viewBox="0 0 512 512" width="512" xmlns="http://www.w3.org/2000/svg" data-name="filled outline"><path d="m120 384h32v56h-32z" fill="#ffcc4d"/><path d="m400 360h-280a32 32 0 0 1 -32-32v-248h-32v248a64 64 0 0 0 64 64h280z" fill="#ffd873"/><g fill="#8098ab"><path d="m88 280h112v48h-112z"/><path d="m344 280h80v80h-80z"/><path d="m408 144h-304l16-32h272z"/></g><path d="m88 144h336v136h-336z" fill="#ffc431"/><circle cx="368" cy="200" fill="#ffb401" r="24"/><path d="m120 176h64v72h-64z" fill="#ffb401"/><path d="m312 112-8-32h-64l-8 32z" fill="#718799"/><path d="m208 112-8-32h-40l-8 32z" fill="#718799"/><path d="m424 72h32v264h-32z" fill="#ffd873"/><path d="m232 280h112v80h-112z" fill="#ffb401"/><circle cx="432" cy="384" fill="#e0edff" r="56"/><circle cx="432" cy="384" fill="#bdd1f2" r="16"/><path d="m68 176h-12l-32 32v56h32v-48h12a20 20 0 0 0 20-20 20 20 0 0 0 -20-20z" fill="#ffe28f"/><path d="m24 264h32v176h-32z" fill="#ffcc4d"/><path d="m368 232a32 32 0 1 0 -32-32 32.03635 32.03635 0 0 0 32 32zm0-48a16 16 0 1 1 -16 16 16.01833 16.01833 0 0 1 16-16z"/><circle cx="384" cy="248" r="8"/><circle cx="352" cy="248" r="8"/><path d="m288 176h24v16h-24z"/><path d="m288 208h24v16h-24z"/><path d="m288 240h24v16h-24z"/><path d="m248 176h24v16h-24z"/><path d="m248 208h24v16h-24z"/><path d="m248 240h24v16h-24z"/><path d="m120 256h64a8.00008 8.00008 0 0 0 8-8v-72a8.00008 8.00008 0 0 0 -8-8h-64a8.00008 8.00008 0 0 0 -8 8v72a8.00008 8.00008 0 0 0 8 8zm8-72h48v56h-48z"/><path d="m144 200h16v24h-16z"/><path d="m464 328.61011v-256.61011a8.00008 8.00008 0 0 0 -8-8h-32a8.00008 8.00008 0 0 0 -8 8v64h-3.05566l-13.78907-27.57812a7.99967 7.99967 0 0 0 -7.15527-4.42188h-73.75366l-6.48511-25.94043a8.00005 8.00005 0 0 0 -7.76123-6.05957h-64a8.00005 8.00005 0 0 0 -7.76123 6.05957l-6.48511 25.94043h-11.50732l-6.48511-25.94043a8.00005 8.00005 0 0 0 -7.76123-6.05957h-40a8.00005 8.00005 0 0 0 -7.76123 6.05957l-6.48511 25.94043h-25.75366a7.99967 7.99967 0 0 0 -7.15527 4.42188l-13.78907 27.57812h-3.05566v-56a8.00008 8.00008 0 0 0 -8-8h-32a8.00008 8.00008 0 0 0 -8 8v92.686l-29.65674 29.65677a8.00076 8.00076 0 0 0 -2.34326 5.65723v232a8.00008 8.00008 0 0 0 8 8h32a8.00008 8.00008 0 0 0 8-8v-66.81494a71.955 71.955 0 0 0 48 26.35986v40.45508a8.00008 8.00008 0 0 0 8 8h32a8.00008 8.00008 0 0 0 8-8v-40h210.02527a63.999 63.999 0 1 0 93.97473-71.38989zm-32-248.61011h16v242.02539a63.884 63.884 0 0 0 -16-2.02539zm-55.38989 272h-24.61011v-64h64v34.02539a64.24343 64.24343 0 0 0 -39.38989 29.97461zm-256.61011 0a24.038 24.038 0 0 1 -22.62378-16h102.62378a8.00008 8.00008 0 0 0 8-8v-40h16v64zm-24-64h96v32h-96zm144 0h96v64h-96zm6.24609-200h51.50782l3.99987 16h-59.50756zm-80 0h27.50782l3.99987 16h-35.50756zm-41.30175 32h262.11132l8 16h-278.11132zm291.05566 32v120h-320v-120zm-336-64v82.707a27.83231 27.83231 0 0 0 -12-2.707h-4v-80zm-48 123.31348 27.31348-27.31348h8.68652a12 12 0 0 1 0 24h-12a8.00008 8.00008 0 0 0 -8 8v40h-16zm16 116.68652v32h-16v-88h16zm-16 104v-56h16v56zm112 0h-16v-32h16zm-24-48a56.06322 56.06322 0 0 1 -56-56v-104h4a27.83231 27.83231 0 0 0 12-2.707v106.707a40.04552 40.04552 0 0 0 40 40h250.02527a63.89479 63.89479 0 0 0 -2.02527 16zm312 48a48 48 0 1 1 48-48 48.05405 48.05405 0 0 1 -48 48z"/><path d="m432 360a24 24 0 1 0 24 24 24.02718 24.02718 0 0 0 -24-24zm0 32a8 8 0 1 1 8-8 8.00917 8.00917 0 0 1 -8 8z"/></svg>