<?xml version="1.0" encoding="iso-8859-1"?>
<!-- Generator: Adobe Illustrator 19.0.0, SVG Export Plug-In . SVG Version: 6.00 Build 0)  -->
<svg version="1.1" id="Capa_1" xmlns="http://www.w3.org/2000/svg" xmlns:xlink="http://www.w3.org/1999/xlink" x="0px" y="0px"
	 viewBox="0 0 512 512" style="enable-background:new 0 0 512 512;" xml:space="preserve">
<g>
	<path style="fill:#BDC3C7;" d="M326.621,88.276H167.724c-9.71,0-17.655-19.774-17.655-44.138S158.014,0,167.724,0h158.897
		c-9.71,0-17.655,19.774-17.655,44.138S316.91,88.276,326.621,88.276z"/>
	<path style="fill:#95A5A5;" d="M420.987,49.876c-4.857,5.726-11.311,9.875-18.537,11.917h-59.674
		c-2.737,15.537-8.916,26.483-16.155,26.483c-9.71,0-17.655-19.774-17.655-44.138S316.91,0,326.621,0
		c7.239,0,13.418,10.946,16.155,26.483h88.717C434.847,29.926,430.08,40.43,420.987,49.876z"/>
	<g>
		<path style="fill:#B19046;" d="M220.69,97.103c-0.014,4.869-3.958,8.813-8.828,8.828c-3.167,0.012-6.256-0.976-8.828-2.825
			c-4.892-3.814-8.572-8.966-10.593-14.83c-5.013-14.162-7.406-29.119-7.062-44.138c-0.344-15.019,2.049-29.976,7.062-44.138h20.215
			c-3.001,2.472-9.622,17.655-9.622,44.138s6.621,41.666,9.623,44.138c0.243,0.017,0.482,0.077,0.705,0.177
			c0.181-0.014,0.363,0.016,0.53,0.088c0.097-0.012,0.194,0.02,0.265,0.088h0.177c0.308,0.079,0.605,0.198,0.883,0.353h0.088
			c0.459,0.201,0.902,0.437,1.324,0.706C219.161,91.304,220.692,94.1,220.69,97.103z"/>
		<path style="fill:#B19046;" d="M211.862,132.414c-2.341,0.001-4.587-0.929-6.243-2.585c-1.656-1.656-2.585-3.901-2.585-6.243
			V97.103c0-4.875,3.952-8.828,8.828-8.828c4.875,0,8.828,3.952,8.828,8.828v26.483c0.001,2.341-0.929,4.587-2.585,6.243
			C216.449,131.485,214.203,132.414,211.862,132.414z"/>
		<path style="fill:#B19046;" d="M291.31,97.103c-0.014,4.869-3.958,8.813-8.828,8.828c-3.167,0.012-6.256-0.976-8.828-2.825
			c-4.892-3.814-8.572-8.966-10.593-14.83c-5.013-14.162-7.406-29.119-7.062-44.138c-0.344-15.019,2.049-29.976,7.062-44.138h20.215
			c-3.001,2.472-9.622,17.655-9.622,44.138s6.621,41.666,9.623,44.138c0.243,0.017,0.482,0.077,0.705,0.177
			c0.67,0.082,1.324,0.261,1.943,0.53c0.459,0.201,0.902,0.437,1.324,0.706C289.782,91.304,291.313,94.1,291.31,97.103z"/>
		<path style="fill:#B19046;" d="M282.483,132.414c-2.341,0.001-4.587-0.929-6.243-2.585c-1.656-1.656-2.585-3.901-2.585-6.243
			V97.103c0-4.875,3.952-8.828,8.828-8.828s8.828,3.952,8.828,8.828v26.483c0.001,2.341-0.929,4.587-2.585,6.243
			C287.07,131.485,284.824,132.414,282.483,132.414z"/>
	</g>
	<path style="fill:#BDC3C7;" d="M400.861,61.793c0.496,0.088,1.004,0.088,1.501,0"/>
	<path style="fill:#E4C05C;" d="M17.655,123.586h476.69c9.751,0,17.655,7.904,17.655,17.655v317.793
		c0,9.751-7.905,17.655-17.655,17.655H17.655C7.904,476.69,0,468.785,0,459.034V141.241C0,131.491,7.904,123.586,17.655,123.586z"/>
	<g>
		<rect x="88.276" y="158.897" style="fill:#B19046;" width="335.448" height="282.483"/>
		<path style="fill:#B19046;" d="M512,141.241v317.793c-0.029,9.739-7.916,17.627-17.655,17.655H476.69V123.586h17.655
			C504.084,123.615,511.972,131.503,512,141.241z"/>
	</g>
	<path style="fill:#2C2F38;" d="M17.655,476.69c19.501,0,35.31,15.809,35.31,35.31h397.241c0-19.501,15.809-35.31,35.31-35.31
		H17.655z"/>
	<path style="fill:#46B29D;" d="M158.897,194.207h44.138c9.751,0,17.655,7.904,17.655,17.655v35.31
		c0,9.751-7.904,17.655-17.655,17.655h-44.138c-9.751,0-17.655-7.904-17.655-17.655v-35.31
		C141.241,202.111,149.146,194.207,158.897,194.207z"/>
	<g>
		<path style="fill:#2C2F38;" d="M370.759,379.586H291.31c-4.875,0-8.828-3.952-8.828-8.828s3.952-8.828,8.828-8.828h79.448
			c4.875,0,8.828,3.952,8.828,8.828S375.634,379.586,370.759,379.586z"/>
		<path style="fill:#2C2F38;" d="M370.759,414.897H291.31c-4.875,0-8.828-3.952-8.828-8.828s3.952-8.828,8.828-8.828h79.448
			c4.875,0,8.828,3.952,8.828,8.828S375.634,414.897,370.759,414.897z"/>
		<path style="fill:#2C2F38;" d="M370.759,344.276H291.31c-4.875,0-8.828-3.952-8.828-8.828s3.952-8.828,8.828-8.828h79.448
			c4.875,0,8.828,3.952,8.828,8.828S375.634,344.276,370.759,344.276z"/>
	</g>
	<rect x="247.172" y="158.897" style="fill:#F3D55B;" width="17.655" height="282.483"/>
	<g>
		<path style="fill:#E6E7E8;" d="M414.897,194.207h17.655c4.875,0,8.828,3.952,8.828,8.828v26.483c0,4.875-3.952,8.828-8.828,8.828
			h-17.655c-4.875,0-8.828-3.952-8.828-8.828v-26.483C406.069,198.159,410.021,194.207,414.897,194.207z"/>
		<path style="fill:#E6E7E8;" d="M414.897,361.931h17.655c4.875,0,8.828,3.952,8.828,8.828v26.483c0,4.875-3.952,8.828-8.828,8.828
			h-17.655c-4.875,0-8.828-3.952-8.828-8.828v-26.483C406.069,365.883,410.021,361.931,414.897,361.931z"/>
		<path style="fill:#E6E7E8;" d="M79.448,194.207h17.655c4.875,0,8.828,3.952,8.828,8.828v26.483c0,4.875-3.952,8.828-8.828,8.828
			H79.448c-4.875,0-8.828-3.952-8.828-8.828v-26.483C70.621,198.159,74.573,194.207,79.448,194.207z"/>
		<path style="fill:#E6E7E8;" d="M79.448,361.931h17.655c4.875,0,8.828,3.952,8.828,8.828v26.483c0,4.875-3.952,8.828-8.828,8.828
			H79.448c-4.875,0-8.828-3.952-8.828-8.828v-26.483C70.621,365.883,74.573,361.931,79.448,361.931z"/>
	</g>
	<path style="fill:#B19046;" d="M35.31,123.586V476.69H17.655C7.916,476.661,0.029,468.773,0,459.034V141.241
		c0.028-9.739,7.916-17.627,17.655-17.655H35.31z"/>
</g>
<g>
</g>
<g>
</g>
<g>
</g>
<g>
</g>
<g>
</g>
<g>
</g>
<g>
</g>
<g>
</g>
<g>
</g>
<g>
</g>
<g>
</g>
<g>
</g>
<g>
</g>
<g>
</g>
<g>
</g>
</svg>
