<svg id="Capa_1" enable-background="new 0 0 512 512" height="512" viewBox="0 0 512 512" width="512" xmlns="http://www.w3.org/2000/svg"><g><path d="m392.173 223.478c0-75.132-60.966-136.039-136.171-136.039-75.19-.001-136.018 60.635-136.174 135.751-.096 46.149 22.813 86.955 57.91 111.62 21.256 14.939 33.744 39.417 33.744 65.38v.313h89.036v-.311c0-26.26 13.022-50.626 34.428-65.866 34.638-24.661 57.227-65.117 57.227-110.848z" fill="#fedf30"/><path d="m256.001 87.439c-5.153 0-10.235.294-15.238.849 68.046 7.556 120.964 65.195 120.964 135.19 0 45.731-22.589 86.187-57.227 110.849-21.406 15.241-34.428 39.607-34.428 65.866v.311h30.446v-.311c0-26.26 13.022-50.625 34.428-65.866 34.638-24.662 57.227-65.118 57.227-110.849 0-75.132-60.966-136.038-136.172-136.039z" fill="#fac600"/><path d="m276.624 512h-41.248c-4.819 0-8.725-3.906-8.725-8.725v-24.287h58.698v24.287c0 4.819-3.906 8.725-8.725 8.725z" fill="#baafb9"/><path d="m254.903 478.988v24.287c0 4.819-3.906 8.725-8.725 8.725h30.446c4.819 0 8.725-3.906 8.725-8.725v-24.287z" fill="#aa9ea9"/><g><path d="m251.194 317.548-43.712-43.697c-27.902-27.893-27.902-73.125 0-101.018l43.712-43.697c2.655-2.654 6.958-2.654 9.613 0l43.712 43.697c27.902 27.893 27.902 73.125 0 101.018l-43.712 43.697c-2.655 2.654-6.959 2.654-9.613 0z" fill="#22b37f"/><path d="m270.422 244.22-6.811 6.809v-9.062l17.573-17.567c2.973-2.972 2.974-7.791.002-10.764-2.972-2.974-7.791-2.974-10.764-.002l-6.811 6.808v-17.492c0-4.204-3.408-7.611-7.612-7.611s-7.611 3.408-7.611 7.611v27.687l-6.811-6.809c-2.972-2.971-7.792-2.971-10.764.002s-2.971 7.792.002 10.764l17.573 17.567v9.063l-6.811-6.809c-2.972-2.971-7.792-2.971-10.764.002s-2.971 7.792.002 10.764l17.573 17.567v30.545 6.244 80.965c0 4.204 3.408 7.611 7.611 7.611s7.612-3.408 7.612-7.611v-80.965-6.244-40.741l17.573-17.567c2.973-2.972 2.974-7.791.002-10.764-2.972-2.972-7.791-2.973-10.764-.001z" fill="#02905d"/></g><g><path d="m256 51.631c-4.204 0-7.611-3.408-7.611-7.611v-36.409c0-4.203 3.407-7.611 7.611-7.611s7.612 3.408 7.612 7.611v36.409c0 4.203-3.408 7.611-7.612 7.611z" fill="#fedf30"/></g><g><path d="m166.346 75.658c-2.63 0-5.189-1.365-6.599-3.807l-18.204-31.531c-2.102-3.641-.855-8.296 2.786-10.397 3.64-2.103 8.296-.855 10.397 2.786l18.204 31.531c2.102 3.641.855 8.296-2.786 10.397-1.198.692-2.507 1.021-3.798 1.021z" fill="#fedf30"/></g><g><path d="m100.695 141.294c-1.291 0-2.6-.329-3.799-1.021l-31.531-18.204c-3.641-2.102-4.888-6.757-2.786-10.397 2.102-3.641 6.757-4.889 10.397-2.786l31.531 18.204c3.641 2.102 4.888 6.757 2.786 10.397-1.409 2.441-3.967 3.807-6.598 3.807z" fill="#fedf30"/></g><g><path d="m76.677 230.954h-36.408c-4.204 0-7.611-3.408-7.611-7.611 0-4.204 3.408-7.611 7.611-7.611h36.408c4.204 0 7.611 3.408 7.611 7.611.001 4.203-3.407 7.611-7.611 7.611z" fill="#fedf30"/></g><g><path d="m471.731 230.954h-36.408c-4.204 0-7.612-3.408-7.612-7.611 0-4.204 3.408-7.611 7.612-7.611h36.408c4.204 0 7.611 3.408 7.611 7.611s-3.407 7.611-7.611 7.611z" fill="#fedf30"/></g><g><path d="m411.305 141.294c-2.63 0-5.189-1.365-6.599-3.807-2.102-3.641-.855-8.296 2.786-10.397l31.531-18.204c3.641-2.102 8.296-.855 10.397 2.786 2.102 3.641.855 8.296-2.786 10.397l-31.531 18.204c-1.198.692-2.507 1.021-3.798 1.021z" fill="#fedf30"/></g><g><path d="m345.654 75.658c-1.291 0-2.6-.329-3.799-1.021-3.641-2.102-4.888-6.757-2.786-10.397l18.204-31.531c2.102-3.64 6.757-4.889 10.397-2.786 3.641 2.102 4.888 6.757 2.786 10.397l-18.203 31.53c-1.41 2.442-3.969 3.808-6.599 3.808z" fill="#fedf30"/></g><path d="m300.518 439.746h-89.036c-7.231 0-13.094-5.856-13.094-13.081v-13.081c0-7.224 5.862-13.081 13.094-13.081h89.036c7.231 0 13.093 5.856 13.093 13.081v13.081c.001 7.224-5.862 13.081-13.093 13.081z" fill="#baafb9"/><path d="m300.531 400.503h-17.365c0 13.265-10.754 24.019-24.019 24.019h-60.758v2.129c0 7.231 5.862 13.094 13.094 13.094h89.036c7.231 0 13.093-5.862 13.093-13.093v-13.068c0-7.224-5.857-13.081-13.081-13.081z" fill="#aa9ea9"/><path d="m300.518 478.988h-89.036c-7.231 0-13.094-5.857-13.094-13.081v-13.081c0-7.224 5.862-13.081 13.094-13.081h89.036c7.231 0 13.093 5.857 13.093 13.081v13.081c.001 7.224-5.862 13.081-13.093 13.081z" fill="#baafb9"/><path d="m300.531 439.746h-17.365c0 13.265-10.754 24.019-24.019 24.019h-60.758v2.129c0 7.231 5.862 13.094 13.094 13.094h89.036c7.231 0 13.093-5.862 13.093-13.093v-13.068c0-7.225-5.857-13.081-13.081-13.081z" fill="#aa9ea9"/></g></svg>