<svg width="512" height="783" viewBox="0 0 512 783" fill="none" xmlns="http://www.w3.org/2000/svg">
<g clip-path="url(#clip0)">
<rect x="153" y="226" width="208" height="246" fill="#3787E4"/>
<path d="M388.905 549.156C388.904 548.16 388.705 547.175 388.319 546.257L360.5 480.1L369.518 467.976C369.54 467.946 369.555 467.914 369.577 467.884C369.945 467.375 370.25 466.82 370.482 466.226C370.507 466.163 370.529 466.1 370.551 466.036C370.641 465.787 370.717 465.532 370.781 465.272C370.794 465.22 370.81 465.168 370.821 465.116C370.887 464.815 370.936 464.508 370.965 464.195C370.971 464.133 370.97 464.071 370.974 464.009C370.985 463.84 371 463.672 371 463.501L371 305.501C371 301.358 367.642 298.001 363.5 298.001C359.358 298.001 356 301.358 356 305.501L356 456L332 456L332 230L349.428 230L356 248.774L356 275.5C356 279.643 359.358 283 363.5 283C367.642 283 371 279.643 371 275.5L371 247.5C371 246.656 370.857 245.818 370.579 245.022L361.828 220.022C360.775 217.013 357.936 215 354.749 215L351 215L351 206.746C351 194.204 340.796 184 328.254 184L308.756 184L304.078 158.346C302.667 150.612 295.938 145 288.078 145L220.923 145C213.063 145 206.334 150.612 204.923 158.346L200.244 184L180.746 184C168.204 184 158 194.204 158 206.746L158 215L156.25 215C153.063 215 150.224 217.014 149.171 220.022L140.421 245.022C140.143 245.818 140 246.656 140 247.5L140 463.5C140 463.672 140.014 463.839 140.026 464.008C140.03 464.07 140.03 464.132 140.035 464.194C140.064 464.507 140.113 464.814 140.179 465.115C140.191 465.167 140.206 465.219 140.219 465.271C140.282 465.531 140.359 465.786 140.449 466.035C140.472 466.098 140.494 466.162 140.518 466.225C140.75 466.819 141.055 467.374 141.423 467.883C141.444 467.913 141.46 467.945 141.482 467.975L150.5 480.1L122.681 546.257C122.295 547.175 122.096 548.16 122.095 549.156L122 642.591C122 647.302 124.313 651.715 128.188 654.395C130.621 656.078 133.475 656.943 136.354 656.943C138.061 656.943 139.777 656.638 141.419 656.019L154.216 651.19C159.769 649.093 163.5 643.698 163.499 637.832L164.195 562.112L181.279 521.483L187.24 529.497C187.086 530.293 187 531.113 187 531.953L187 547.049C187 554.191 192.81 560.001 199.952 560.001L235 560.001L235 642.684C235 650.579 241.422 657.001 249.317 657.001L261.683 657.001C269.578 657.001 276 650.578 276 642.684L276 560L311.048 560C318.19 560 324 554.189 324 547.048L324 531.952C324 531.112 323.913 530.292 323.76 529.496L329.721 521.482L346.805 562.111L347.501 637.761C347.501 643.697 351.232 649.093 356.786 651.189L369.583 656.019C371.224 656.638 372.939 656.942 374.647 656.942C377.525 656.942 380.38 656.077 382.813 654.394C386.688 651.714 389.001 647.301 389.001 642.582L388.905 549.156ZM219.679 161.037C219.788 160.436 220.311 160 220.922 160L288.077 160C288.688 160 289.211 160.437 289.32 161.037L293.509 184L215.491 184L219.679 161.037ZM173 206.746C173 202.475 176.475 199 180.746 199L328.254 199C332.525 199 336 202.475 336 206.746L336 215L173 215L173 206.746ZM288 419.375L288 400.281L317 400.281L317 419.375L288 419.375ZM317 434.375L317 456L288 456L288 434.375L317 434.375ZM288 385.281L288 366.187L317 366.187L317 385.281L288 385.281ZM288 351.188L288 332.094L317 332.094L317 351.188L288 351.188ZM288 317.094L288 298L317 298L317 317.094L288 317.094ZM288 283L288 263.906L317 263.906L317 283L288 283ZM288 248.906L288 230L317 230L317 248.906L288 248.906ZM155 248.774L161.571 230L193.813 230L189.385 243.157C188.513 244.383 188 245.881 188 247.5L188 389.729C188 393.872 191.358 397.229 195.5 397.229C199.642 397.229 203 393.872 203 389.729L203 249.728L209.64 230L273 230L273 456L203 456L203 420.532C203 416.389 199.642 413.032 195.5 413.032C191.358 413.032 188 416.389 188 420.532L188 456L155 456L155 248.774ZM149.796 557.658C149.418 558.557 149.219 559.521 149.21 560.496L148.504 637.312L137.001 641.653L137.093 550.68L160.895 494.076L170.885 507.506L149.796 557.658ZM261 642L250 642L250 560L261 560L261 642ZM309 545L202 545L202 534L309 534L309 545ZM312.872 519L198.127 519L162.425 471L348.574 471L312.872 519ZM362.496 637.313L361.79 560.497C361.781 559.522 361.582 558.559 361.204 557.659L340.115 507.507L350.105 494.077L373.907 550.681L373.999 641.654L362.496 637.313Z" fill="#31323E"/>
</g>
<path d="M77.1216 697.987L77.2278 712.33L89.5137 712.275L89.4075 697.932L77.1216 697.987Z" fill="#78B9EB"/>
<path d="M77.0685 690.815L64.7821 690.87L64.9945 719.557L77.2809 719.502L77.2278 712.33L77.1216 697.987L77.0685 690.815Z" fill="#78B9EB"/>
<path d="M64.6583 674.136C64.6387 671.495 61.874 669.367 58.4797 669.382C55.0854 669.398 52.3524 671.549 52.3719 674.191L52.8321 736.346C52.8517 738.988 55.6164 741.115 59.0107 741.1C62.4049 741.085 65.138 738.933 65.1184 736.291L64.6583 674.136Z" fill="#ED1C24"/>
<path d="M111.227 740.866C111.271 743.498 114.023 745.615 117.405 745.619L166.549 745.399C169.943 745.384 172.677 743.232 172.657 740.59C172.638 737.949 169.873 735.821 166.479 735.837L117.334 736.057C113.947 736.079 111.216 738.229 111.227 740.866Z" fill="#0A87EB"/>
<path d="M116.963 685.855L101.605 685.923L101.888 724.173L117.246 724.104L117.334 736.057L166.479 735.837L166.018 673.681L116.874 673.902L116.963 685.855Z" fill="#78B9EB"/>
<path d="M95.4268 681.17C92.039 681.193 89.3089 683.342 89.319 685.979L89.6022 724.228C89.6462 726.86 92.3986 728.978 95.7808 728.982C99.1685 728.959 101.899 726.81 101.889 724.173L101.605 685.924C101.576 683.287 98.8146 681.162 95.4268 681.17Z" fill="#0A87EB"/>
<path d="M110.696 669.148C110.725 671.785 113.486 673.91 116.874 673.902L166.018 673.681C169.406 673.659 172.136 671.51 172.126 668.873C172.082 666.241 169.33 664.123 165.948 664.119L116.803 664.339C113.416 664.362 110.685 666.511 110.696 669.148Z" fill="#0A87EB"/>
<path d="M117.405 745.619L117.618 774.306L166.762 774.086L166.549 745.399L117.405 745.619Z" fill="#78B9EB"/>
<path d="M116.591 635.652L116.803 664.339L165.948 664.119L165.735 635.432L116.591 635.652Z" fill="#78B9EB"/>
<path d="M113.502 633.276L113.718 662.402C108.951 663.72 106.456 667.795 108.148 671.505C109.082 673.557 111.17 675.161 113.817 675.866L113.874 683.478L104.094 683.522C102.38 679.802 97.1165 677.868 92.3375 679.202C88.6592 680.23 86.219 682.952 86.2476 685.993L86.3184 695.555L80.1753 695.582L80.1399 690.801C80.1301 689.482 78.7461 688.417 77.0508 688.424L67.8362 688.466L67.73 674.122C67.7007 670.161 63.552 666.969 58.4624 666.992C53.3728 667.015 49.2716 670.244 49.3009 674.205L49.7611 736.36C49.7904 740.321 53.9391 743.513 59.0287 743.49C64.1184 743.468 68.2195 740.239 68.1902 736.277L68.084 721.934L77.2986 721.892C78.9939 721.885 80.362 720.808 80.3523 719.488L80.3169 714.707L86.46 714.679L86.5308 724.242C86.5878 728.193 90.721 731.373 95.7985 731.372C99.6901 731.343 103.138 729.412 104.413 726.552L114.192 726.508L114.249 734.12C110.589 735.145 108.148 737.85 108.155 740.879C108.19 743.91 110.67 746.593 114.348 747.588L114.564 776.711L169.851 776.463L169.636 747.336C174.402 746.019 176.897 741.943 175.205 738.234C174.271 736.182 172.183 734.577 169.536 733.872L169.105 675.618C172.765 674.593 175.205 671.888 175.198 668.859C175.163 665.828 172.683 663.142 169.005 662.15L168.789 633.028L113.502 633.276ZM58.9934 738.709C57.298 738.717 55.914 737.652 55.9043 736.333L55.4441 674.177C55.4343 672.858 56.8024 671.781 58.4978 671.773C60.1931 671.765 61.5771 672.83 61.5869 674.15L62.0471 736.305C62.0568 737.625 60.6887 738.702 58.9934 738.709ZM68.0486 717.153L67.8716 693.247L74.0148 693.219L74.1918 717.125L68.0486 717.153ZM80.2815 709.926L80.2107 700.364L86.3538 700.336L86.4246 709.898L80.2815 709.926V709.926ZM93.5706 725.867C92.9929 725.434 92.6692 724.838 92.6736 724.214L92.3904 685.965C92.3807 684.645 93.7488 683.568 95.4441 683.561C97.1395 683.553 98.5235 684.618 98.5332 685.937L98.8164 724.187C98.8262 725.506 97.4581 726.583 95.7627 726.591C94.9367 726.595 94.1425 726.333 93.5706 725.867ZM120.671 771.902L120.494 747.996L163.496 747.803L163.673 771.709L120.671 771.902ZM169.586 740.604C169.596 741.923 168.227 743.001 166.532 743.008L117.387 743.229C116.558 743.232 115.767 742.971 115.195 742.504C114.617 742.072 114.294 741.476 114.298 740.852C114.288 739.532 115.656 738.455 117.352 738.447L166.496 738.227C168.192 738.22 169.576 739.284 169.586 740.604ZM120.388 733.653L120.317 724.09C120.308 722.771 118.924 721.706 117.228 721.714L104.942 721.769L104.694 688.3L116.98 688.245C118.676 688.238 120.044 687.161 120.034 685.841L119.963 676.279L162.965 676.086L163.389 733.46L120.388 733.653ZM169.055 668.886C169.065 670.206 167.696 671.283 166.001 671.291L116.857 671.511C115.161 671.519 113.777 670.454 113.767 669.134C113.758 667.815 115.126 666.738 116.821 666.73L165.965 666.51C166.791 666.506 167.586 666.765 168.158 667.231C168.735 667.664 169.059 668.262 169.055 668.886ZM162.682 637.836L162.859 661.742L119.857 661.935L119.68 638.029L162.682 637.836Z" fill="#231F20"/>
<g clip-path="url(#clip1)">
<path d="M424.519 714.599L424.676 699.987L413.61 699.868L413.453 714.48L424.519 714.599Z" fill="#78B9EB"/>
<path d="M424.441 721.905L435.507 722.024L435.821 692.8L424.755 692.681L424.676 699.987L424.519 714.599L424.441 721.905Z" fill="#78B9EB"/>
<path d="M435.324 739.071C435.295 741.762 437.748 743.968 440.805 744.001C443.862 744.034 446.361 741.881 446.39 739.19L447.07 675.871C447.099 673.18 444.647 670.974 441.589 670.941C438.532 670.908 436.033 673.061 436.004 675.753L435.324 739.071Z" fill="#ED1C24"/>
<path d="M394.558 670.436C394.565 667.755 392.124 665.558 389.078 665.506L344.813 665.031C341.756 664.998 339.257 667.151 339.228 669.842C339.199 672.533 341.652 674.739 344.709 674.772L388.973 675.248C392.024 675.273 394.521 673.122 394.558 670.436Z" fill="#0A87EB"/>
<path d="M388.424 726.39L402.257 726.538L402.675 687.573L388.842 687.424L388.973 675.248L344.709 674.772L344.029 738.091L388.293 738.566L388.424 726.39Z" fill="#78B9EB"/>
<path d="M407.737 731.468C410.789 731.493 413.285 729.343 413.322 726.657L413.741 687.691C413.748 685.01 411.306 682.814 408.26 682.761C405.209 682.736 402.712 684.886 402.675 687.573L402.256 726.538C402.236 729.224 404.686 731.428 407.737 731.468Z" fill="#0A87EB"/>
<path d="M393.774 743.496C393.794 740.81 391.345 738.606 388.293 738.566L344.029 738.091C340.977 738.065 338.481 740.216 338.443 742.902C338.437 745.584 340.878 747.78 343.924 747.832L388.188 748.308C391.24 748.333 393.737 746.182 393.774 743.496Z" fill="#0A87EB"/>
<path d="M389.078 665.506L389.391 636.282L345.127 635.807L344.813 665.031L389.078 665.506Z" fill="#78B9EB"/>
<path d="M387.875 777.532L388.188 748.308L343.924 747.832L343.61 777.056L387.875 777.532Z" fill="#78B9EB"/>
<path d="M390.615 779.997L390.934 750.324C395.25 749.051 397.568 744.935 396.11 741.132C395.305 739.029 393.452 737.365 391.081 736.609L391.164 728.855L399.973 728.949C401.451 732.762 406.157 734.807 410.485 733.517C413.816 732.522 416.061 729.784 416.089 726.686L416.194 716.945L421.727 717.005L421.674 721.875C421.66 723.219 422.888 724.324 424.415 724.34L432.714 724.429L432.557 739.041C432.514 743.077 436.194 746.387 440.778 746.437C445.363 746.486 449.113 743.255 449.156 739.22L449.836 675.901C449.88 671.866 446.199 668.555 441.615 668.506C437.031 668.457 433.281 671.687 433.237 675.723L433.08 690.335L424.781 690.246C423.254 690.229 422.003 691.307 421.988 692.651L421.936 697.522L416.403 697.463L416.507 687.721C416.526 683.695 412.859 680.397 408.286 680.326C404.781 680.301 401.642 682.218 400.443 685.113L391.635 685.019L391.718 677.265C395.032 676.272 397.278 673.552 397.325 670.466C397.347 667.378 395.161 664.61 391.865 663.544L392.184 633.876L342.387 633.342L342.068 663.014C337.752 664.288 335.433 668.403 336.892 672.206C337.697 674.31 339.549 675.974 341.921 676.73L341.283 736.074C337.969 737.066 335.724 739.787 335.677 742.872C335.655 745.96 337.841 748.731 341.136 749.795L340.818 779.462L390.615 779.997ZM441.563 673.376C443.09 673.393 444.318 674.497 444.303 675.841L443.623 739.16C443.609 740.504 442.358 741.582 440.831 741.566C439.304 741.549 438.076 740.445 438.09 739.101L438.77 675.782C438.785 674.438 440.036 673.36 441.563 673.376ZM433.028 695.205L432.767 719.559L427.233 719.499L427.495 695.146L433.028 695.205ZM421.884 702.393L421.779 712.134L416.246 712.074L416.35 702.333L421.884 702.393V702.393ZM410.196 685.966C410.708 686.414 410.989 687.026 410.975 687.662L410.556 726.627C410.542 727.971 409.291 729.049 407.764 729.033C406.237 729.016 405.009 727.912 405.023 726.568L405.442 687.602C405.456 686.258 406.707 685.18 408.234 685.197C408.978 685.205 409.689 685.483 410.196 685.966ZM386.599 638.688L386.337 663.041L347.606 662.625L347.867 638.272L386.599 638.688ZM341.994 669.872C342.009 668.528 343.26 667.45 344.787 667.466L389.051 667.942C389.798 667.95 390.506 668.227 391.013 668.71C391.526 669.159 391.807 669.771 391.792 670.407C391.778 671.751 390.526 672.829 388.999 672.812L344.735 672.337C343.208 672.32 341.98 671.216 341.994 669.872ZM386.18 677.653L386.076 687.394C386.061 688.739 387.289 689.843 388.816 689.859L399.882 689.978L399.516 724.073L388.45 723.954C386.923 723.938 385.672 725.015 385.657 726.36L385.553 736.101L346.821 735.685L347.449 677.237L386.18 677.653ZM341.21 742.932C341.224 741.588 342.475 740.51 344.002 740.526L388.267 741.002C389.794 741.018 391.022 742.122 391.007 743.467C390.993 744.811 389.742 745.888 388.215 745.872L343.95 745.397C343.206 745.389 342.495 745.113 341.989 744.63C341.476 744.182 341.195 743.567 341.21 742.932ZM346.403 774.651L346.665 750.297L385.396 750.713L385.134 775.066L346.403 774.651Z" fill="#231F20"/>
</g>
<g clip-path="url(#clip2)">
<path d="M244.195 50.6238L238.722 37.2575C234.09 38.7733 229.735 41.0291 225.933 43.9097L230.733 48.995L245.308 64.4905C246.409 63.6549 247.685 62.9805 249.062 62.5482L244.195 50.6238Z" fill="#DA4453"/>
<path d="M275.962 95.435L244.335 95.516L238.906 108.971C251.698 113.115 265.277 111.397 275.988 105.421L275.988 105.399L275.962 95.435Z" fill="#CCD1D9"/>
<path d="M236.341 115.307C234.46 114.706 232.631 113.992 230.872 113.213L230.907 126.948L230.908 126.975L240.932 126.949L265.993 126.885L276.018 126.86L276.043 126.86L276.043 126.833L276.007 113.12C264.117 118.515 249.863 119.674 236.341 115.307Z" fill="#CCD1D9"/>
<path d="M238.722 37.2576C247.787 34.2714 258.036 34.0207 267.843 37.183C270.678 38.096 273.362 39.2564 275.822 40.617L275.822 40.644C286.262 46.4084 293.203 55.8607 295.31 66.3377C296.173 70.6452 296.235 75.1343 295.344 79.5809C294.924 81.7391 294.303 83.8933 293.431 86.0257C290.066 94.3641 283.796 101.027 275.988 105.399L275.988 105.421C265.277 111.397 251.698 113.115 238.906 108.971L238.881 108.971C234.09 107.414 229.774 105.181 226.08 102.407C212.697 92.4321 207.043 75.6568 213.316 60.1281C215.958 53.5894 220.378 48.081 225.931 43.9097C229.738 41.0291 234.092 38.7733 238.722 37.2576V37.2576ZM270.411 30.8668C256.867 26.4818 242.582 27.6631 230.67 33.0807C219.705 38.0897 210.755 46.6646 206.246 57.8567C197.529 79.4701 208.469 103.168 230.875 113.211C232.631 113.992 234.462 114.706 236.343 115.305C249.865 119.672 264.12 118.513 276.01 113.116C287.002 108.129 295.974 99.5094 300.507 88.3173C309.25 66.6769 298.26 42.9344 275.779 32.9136C274.046 32.1593 272.265 31.4726 270.411 30.8668V30.8668Z" fill="#ED5565"/>
<path d="M275.896 69.4423L265.702 71.0823C265.829 71.7128 265.904 72.3613 265.905 73.0369C265.907 73.708 265.836 74.3614 265.712 74.988L275.914 76.5802L295.344 79.5809C296.235 75.1343 296.173 70.6452 295.31 66.3377L275.896 69.4423Z" fill="#DA4453"/>
<path d="M240.618 3.46878L230.594 3.49446C227.837 3.50152 225.587 5.52745 225.593 7.99652L225.61 14.7573C225.617 17.2264 227.877 19.2407 230.634 19.2337L240.659 19.208L240.618 3.46878Z" fill="#E6E9ED"/>
<path d="M267.846 37.1829C258.039 34.0207 247.789 34.2714 238.725 37.2575L244.197 50.6237L244.223 50.6237L275.85 50.5427L275.824 40.6439L275.824 40.617C273.365 39.2563 270.678 38.096 267.846 37.1829V37.1829Z" fill="#CCD1D9"/>
<path d="M265.702 71.0823C264.661 65.8326 259.511 61.8301 253.346 61.8459C251.842 61.8498 250.389 62.0981 249.062 62.5505C247.685 62.9827 246.409 63.6571 245.308 64.4927C242.582 66.5647 240.835 69.6646 240.844 73.1011C240.853 76.5555 242.615 79.6508 245.38 81.6864C246.482 82.5343 247.737 83.1842 249.116 83.6274C250.446 84.0482 251.9 84.2959 253.403 84.292C259.569 84.2763 264.698 80.2654 265.712 74.988C265.836 74.3614 265.907 73.708 265.905 73.0369C265.904 72.3613 265.829 71.7127 265.702 71.0823V71.0823Z" fill="#ED5565"/>
<path d="M245.38 81.6864C242.615 79.6509 240.853 76.5556 240.844 73.1011C240.835 69.6646 242.582 66.5648 245.308 64.4927L230.733 48.9972L230.708 49.0197L230.831 97.2789L245.352 81.7089L245.38 81.6864Z" fill="#E6E9ED"/>
<path d="M275.914 76.578L265.712 74.9857C264.698 80.2632 259.569 84.274 253.403 84.2898C251.9 84.2936 250.446 84.0482 249.116 83.6251L244.335 95.5137L275.962 95.4327L275.914 76.578Z" fill="#E6E9ED"/>
<path d="M244.22 50.6237L244.195 50.6237L249.062 62.5482C250.389 62.0981 251.842 61.8475 253.346 61.8436C259.511 61.8279 264.661 65.8303 265.702 71.0801L275.896 69.4401L275.847 50.5404L244.22 50.6214L244.22 50.6237Z" fill="#E6E9ED"/>
<path d="M240.659 19.208L230.634 19.2337L230.634 19.2561L230.67 33.0829C242.585 27.6653 256.867 26.484 270.411 30.869C272.265 31.4725 274.046 32.1615 275.779 32.9203L275.744 19.1406L275.744 19.1181L265.72 19.1438L240.659 19.208Z" fill="#CCD1D9"/>
<path d="M275.704 3.37896L265.679 3.40463L265.72 19.1439L275.744 19.1182C278.501 19.1111 280.751 17.0852 280.745 14.6161L280.728 7.85534C280.721 5.38852 278.458 3.3719 275.704 3.37896Z" fill="#E6E9ED"/>
<path d="M249.116 83.6274C247.737 83.1843 246.482 82.5343 245.38 81.6864L245.352 81.7089L230.831 97.2789L226.083 102.386L226.083 102.409C229.777 105.183 234.09 107.416 238.884 108.973L238.909 108.973L244.337 95.5182L249.116 83.6274Z" fill="#DA4453"/>
<path d="M265.72 19.1439L265.679 3.40463L240.618 3.46882L240.659 19.208L265.72 19.1439Z" fill="#F5F7FA"/>
<path d="M240.934 126.95L230.91 126.975C228.153 126.982 225.903 129.004 225.909 131.477L225.927 138.211C225.933 140.68 228.194 142.695 230.95 142.687L240.975 142.662L240.934 126.95Z" fill="#E6E9ED"/>
<path d="M266.036 142.598L265.996 126.885L240.934 126.949L240.975 142.662L266.036 142.598Z" fill="#F5F7FA"/>
<path d="M276.02 126.86L265.996 126.885L266.036 142.598L276.06 142.572C278.817 142.565 281.067 140.539 281.061 138.07L281.044 131.336C281.037 128.862 278.802 126.875 276.045 126.86L276.02 126.86Z" fill="#E6E9ED"/>
<path d="M238.343 73.1075C238.362 80.5349 245.122 86.5579 253.414 86.5367C261.707 86.5154 268.435 80.4579 268.416 73.0305C268.397 65.603 261.638 59.58 253.345 59.6013C245.053 59.6225 238.324 65.6801 238.343 73.1075ZM263.404 73.0433C263.417 77.9949 258.931 82.0333 253.403 82.0474C247.874 82.0616 243.368 78.0463 243.355 73.0946C243.343 68.143 247.828 64.1047 253.357 64.0905C258.885 64.0763 263.392 68.0917 263.404 73.0433Z" fill="black"/>
<path d="M263.219 74.9966C263.221 76.0673 264.078 77.0101 265.294 77.1977L294.924 81.7952C296.288 82.0094 297.586 81.189 297.821 79.9673C298.066 78.7501 297.146 77.583 295.782 77.3733L266.155 72.7759C264.791 72.5616 263.493 73.382 263.258 74.6037C263.231 74.7362 263.218 74.8664 263.219 74.9966Z" fill="black"/>
<path d="M236.402 108.973C236.405 109.888 237.039 110.749 238.057 111.076C239.359 111.497 240.796 110.894 241.264 109.726L251.484 84.3868C251.952 83.2251 251.282 81.9339 249.978 81.5153C248.676 81.0944 247.239 81.6974 246.771 82.8658L236.553 108.205C236.451 108.459 236.402 108.719 236.402 108.973V108.973Z" fill="black"/>
<path d="M223.572 102.379C223.573 103.021 223.878 103.656 224.471 104.099C225.533 104.893 227.114 104.765 227.999 103.814L247.278 83.1293C248.163 82.1731 248.026 80.7571 246.962 79.9697C245.9 79.1756 244.319 79.3031 243.434 80.2548L224.154 100.939C223.762 101.36 223.57 101.87 223.572 102.379Z" fill="black"/>
<path d="M236.219 37.2595C236.219 37.5131 236.27 37.7734 236.374 38.0268L246.724 63.3129C247.198 64.4789 248.64 65.0745 249.937 64.647C251.239 64.2216 251.9 62.9226 251.429 61.7678L241.079 36.4816C240.605 35.3156 239.162 34.72 237.865 35.1476C236.846 35.4801 236.216 36.3437 236.219 37.2595Z" fill="black"/>
<path d="M223.422 43.9184C223.423 44.4279 223.618 44.9369 224.012 45.3579L243.397 65.9431C244.287 66.8903 245.868 67.012 246.926 66.2102C247.987 65.4129 248.119 63.9984 247.227 63.049L227.842 42.4638C226.952 41.5166 225.37 41.3949 224.312 42.1967C223.722 42.6404 223.42 43.2764 223.422 43.9184Z" fill="black"/>
<path d="M208.26 73.1913C208.306 90.1134 220.274 105.342 238.044 111.087C249.376 114.749 261.623 114.237 272.538 109.646C283.453 105.056 291.715 96.9389 295.804 86.7917C297.609 82.327 298.514 77.6716 298.502 72.9646C298.459 56.0425 286.486 40.8119 268.708 35.0686C257.378 31.4074 245.134 31.9191 234.224 36.5104C223.312 41.0994 215.05 49.217 210.961 59.3642C209.155 63.8311 208.248 68.4821 208.26 73.1913V73.1913ZM293.488 72.9775C293.498 77.1592 292.692 81.2959 291.088 85.2707C287.452 94.2922 280.11 101.505 270.409 105.584C260.709 109.662 249.818 110.119 239.748 106.865C223.954 101.757 213.315 88.2196 213.274 73.1807L213.274 73.1784C213.264 68.9967 214.073 64.8623 215.676 60.8852C219.312 51.8637 226.654 44.6509 236.353 40.5722C246.051 36.4936 256.936 36.037 267.004 39.2906C282.806 44.3948 293.449 57.9341 293.488 72.9775V72.9775Z" fill="black"/>
<path d="M200.756 73.2105C200.807 92.9429 214.766 110.707 235.492 117.41C248.705 121.679 262.991 121.082 275.718 115.729C288.448 110.377 298.085 100.909 302.857 89.0699C304.961 83.8637 306.017 78.438 306.003 72.9454C305.953 53.2108 291.988 35.4467 271.253 28.7479C258.037 24.4766 243.754 25.0743 231.031 30.4244C218.309 35.7768 208.672 45.2446 203.9 57.0838C201.801 62.2922 200.742 67.7179 200.756 73.2105V73.2105ZM300.993 72.9583C301.006 77.9234 300.046 82.8303 298.146 87.5467C293.831 98.2556 285.109 106.821 273.59 111.665C262.075 116.509 249.152 117.048 237.2 113.188C218.446 107.12 205.817 91.0491 205.771 73.1954C205.758 68.2303 206.716 63.3211 208.618 58.6048C212.936 47.8936 221.656 39.3304 233.164 34.4862C244.675 29.6443 257.598 29.1061 269.552 32.9677C288.313 39.034 300.948 55.1024 300.993 72.9583V72.9583Z" fill="black"/>
<path d="M263.209 71.091C263.209 71.2211 263.222 71.3513 263.25 71.4837C263.494 72.7041 264.794 73.5156 266.157 73.2966L295.762 68.543C297.125 68.324 298.036 67.1589 297.788 65.9385C297.544 64.718 296.244 63.9066 294.881 64.1256L265.273 68.877C264.058 69.0709 263.206 70.0203 263.209 71.091V71.091Z" fill="black"/>
<path d="M273.496 113.113L273.531 126.839C273.535 128.08 274.657 129.081 276.043 129.077C277.429 129.074 278.547 128.068 278.544 126.826L278.509 113.1C278.505 111.859 277.383 110.859 275.997 110.862C274.611 110.866 273.493 111.872 273.496 113.113Z" fill="black"/>
<path d="M228.381 113.206L228.416 126.955C228.42 128.196 229.542 129.196 230.928 129.193C232.314 129.189 233.432 128.183 233.429 126.942L233.393 113.194C233.39 111.952 232.267 110.952 230.882 110.955C229.496 110.959 228.378 111.965 228.381 113.206Z" fill="black"/>
<path d="M273.403 76.5732L273.477 105.419C273.48 106.66 274.603 107.66 275.988 107.657C277.374 107.653 278.492 106.647 278.489 105.406L278.415 76.5603C278.412 75.3191 277.289 74.3186 275.903 74.3221C274.517 74.3257 273.4 75.3319 273.403 76.5732Z" fill="black"/>
<path d="M273.311 40.6279L273.384 69.4577C273.388 70.699 274.51 71.6995 275.896 71.6959C277.282 71.6924 278.4 70.6862 278.397 69.4449L278.323 40.6151C278.32 39.3738 277.197 38.3733 275.811 38.3769C274.425 38.3804 273.307 39.3866 273.311 40.6279Z" fill="black"/>
<path d="M273.248 19.129L273.283 32.9289C273.287 34.1702 274.409 35.1707 275.795 35.1671C277.181 35.1636 278.299 34.1574 278.296 32.9161L278.26 19.1162C278.257 17.8749 277.134 16.8745 275.748 16.878C274.363 16.8816 273.245 17.8878 273.248 19.129V19.129Z" fill="black"/>
<path d="M228.214 49.0082L228.338 97.2673C228.341 98.5086 229.464 99.5091 230.85 99.5055C232.236 99.502 233.353 98.4958 233.35 97.2545L233.226 48.9953C233.223 47.754 232.1 46.7536 230.715 46.7571C229.329 46.7607 228.211 47.7669 228.214 49.0082Z" fill="black"/>
<path d="M228.138 19.2446L228.173 33.0893C228.177 34.3306 229.299 35.3311 230.685 35.3275C232.071 35.324 233.189 34.3178 233.186 33.0765L233.15 19.2317C233.147 17.9904 232.024 16.99 230.638 16.9935C229.252 16.9971 228.135 18.0033 228.138 19.2446Z" fill="black"/>
<path d="M241.834 95.5089C241.837 96.7502 242.96 97.7507 244.346 97.7471L275.963 97.6661C277.349 97.6626 278.466 96.6564 278.463 95.4151C278.46 94.1738 277.337 93.1734 275.951 93.1769L244.334 93.2579C242.948 93.2615 241.831 94.2677 241.834 95.5089Z" fill="black"/>
<path d="M241.719 50.6167C241.722 51.8579 242.845 52.8584 244.231 52.8549L275.848 52.7739C277.234 52.7703 278.351 51.7641 278.348 50.5228C278.345 49.2816 277.222 48.2811 275.836 48.2846L244.219 48.3656C242.833 48.3692 241.716 49.3754 241.719 50.6167Z" fill="black"/>
<path d="M223.413 131.47L223.43 138.217C223.44 141.93 226.821 144.943 230.966 144.932L276.076 144.817C280.221 144.806 283.587 141.776 283.577 138.063L283.56 131.316C283.55 127.604 280.169 124.591 276.024 124.602L230.914 124.717C226.769 124.728 223.404 127.758 223.413 131.47ZM278.565 138.076C278.568 139.315 277.448 140.324 276.065 140.327L230.955 140.443C229.571 140.446 228.446 139.444 228.443 138.205L228.425 131.457C228.422 130.218 229.542 129.21 230.926 129.206L276.036 129.091C277.419 129.087 278.545 130.09 278.548 131.329L278.565 138.076Z" fill="black"/>
<path d="M263.499 126.878L263.54 142.604C263.543 143.845 264.666 144.846 266.052 144.842C267.438 144.839 268.555 143.832 268.552 142.591L268.512 126.865C268.509 125.624 267.386 124.624 266 124.627C264.614 124.631 263.496 125.637 263.499 126.878Z" fill="black"/>
<path d="M238.438 126.942L238.479 142.668C238.482 143.909 239.605 144.91 240.99 144.906C242.376 144.903 243.494 143.897 243.491 142.655L243.451 126.93C243.447 125.688 242.325 124.688 240.939 124.691C239.553 124.695 238.435 125.701 238.438 126.942Z" fill="black"/>
<path d="M223.097 8.00292L223.114 14.7502C223.124 18.4628 226.505 21.4754 230.65 21.4648L275.76 21.3493C279.905 21.3387 283.27 18.3088 283.261 14.5962L283.244 7.84887C283.234 4.13628 279.853 1.12367 275.708 1.13429L230.598 1.24983C226.453 1.26045 223.087 4.29033 223.097 8.00292ZM278.249 14.609C278.252 15.848 277.132 16.8565 275.748 16.86L230.638 16.9756C229.255 16.9791 228.13 15.9764 228.126 14.7374L228.109 7.99008C228.106 6.75106 229.226 5.74259 230.61 5.73905L275.72 5.62351C277.103 5.61997 278.228 6.62268 278.231 7.8617L278.249 14.609Z" fill="black"/>
<path d="M263.183 3.41099L263.224 19.1368C263.227 20.378 264.35 21.3785 265.735 21.3749C267.121 21.3714 268.239 20.3652 268.236 19.1239L268.195 3.39815C268.192 2.15688 267.07 1.15642 265.684 1.15997C264.298 1.16352 263.18 2.16972 263.183 3.41099Z" fill="black"/>
<path d="M238.122 3.4752L238.162 19.201C238.166 20.4422 239.288 21.4427 240.674 21.4392C242.06 21.4356 243.178 20.4294 243.175 19.1881L243.134 3.46236C243.131 2.22109 242.008 1.22063 240.622 1.22418C239.237 1.22773 238.119 2.23393 238.122 3.4752Z" fill="black"/>
</g>
<g clip-path="url(#clip3)">
<path d="M247.195 682.624L241.722 669.258C237.09 670.773 232.735 673.029 228.933 675.91L233.733 680.995L248.308 696.49C249.409 695.655 250.685 694.98 252.062 694.548L247.195 682.624Z" fill="#DA4453"/>
<path d="M278.962 727.435L247.335 727.516L241.906 740.971C254.698 745.115 268.277 743.397 278.988 737.421L278.988 737.399L278.962 727.435Z" fill="#CCD1D9"/>
<path d="M239.341 747.307C237.46 746.706 235.631 745.992 233.872 745.213L233.907 758.948L233.908 758.975L243.932 758.949L268.993 758.885L279.018 758.86L279.043 758.86L279.043 758.833L279.007 745.12C267.117 750.515 252.863 751.674 239.341 747.307Z" fill="#CCD1D9"/>
<path d="M241.722 669.258C250.787 666.271 261.036 666.021 270.843 669.183C273.678 670.096 276.362 671.256 278.822 672.617L278.822 672.644C289.262 678.408 296.203 687.861 298.31 698.338C299.173 702.645 299.235 707.134 298.344 711.581C297.924 713.739 297.303 715.893 296.431 718.026C293.066 726.364 286.796 733.026 278.988 737.399L278.988 737.421C268.277 743.397 254.698 745.115 241.906 740.971L241.881 740.971C237.09 739.414 232.774 737.18 229.08 734.407C215.697 724.432 210.043 707.657 216.316 692.128C218.958 685.589 223.378 680.081 228.931 675.91C232.738 673.029 237.092 670.773 241.722 669.258V669.258ZM273.411 662.867C259.867 658.482 245.582 659.663 233.67 665.081C222.705 670.09 213.755 678.665 209.246 689.857C200.529 711.47 211.469 735.168 233.875 745.211C235.631 745.992 237.462 746.706 239.343 747.305C252.865 751.672 267.12 750.513 279.01 745.116C290.002 740.129 298.974 731.509 303.506 720.317C312.25 698.677 301.26 674.934 278.779 664.914C277.046 664.159 275.265 663.473 273.411 662.867V662.867Z" fill="#ED5565"/>
<path d="M278.896 701.442L268.702 703.082C268.829 703.713 268.904 704.361 268.905 705.037C268.907 705.708 268.836 706.361 268.712 706.988L278.914 708.58L298.344 711.581C299.235 707.134 299.173 702.645 298.31 698.338L278.896 701.442Z" fill="#DA4453"/>
<path d="M243.618 635.469L233.594 635.494C230.837 635.502 228.587 637.527 228.593 639.997L228.61 646.757C228.617 649.226 230.877 651.241 233.634 651.234L243.659 651.208L243.618 635.469Z" fill="#E6E9ED"/>
<path d="M270.846 669.183C261.039 666.021 250.789 666.271 241.725 669.258L247.197 682.624L247.223 682.624L278.85 682.543L278.824 672.644L278.824 672.617C276.365 671.256 273.678 670.096 270.846 669.183V669.183Z" fill="#CCD1D9"/>
<path d="M268.702 703.082C267.661 697.833 262.511 693.83 256.346 693.846C254.842 693.85 253.389 694.098 252.062 694.55C250.685 694.983 249.409 695.657 248.308 696.493C245.582 698.565 243.835 701.665 243.844 705.101C243.853 708.556 245.615 711.651 248.38 713.686C249.482 714.534 250.737 715.184 252.116 715.627C253.446 716.048 254.9 716.296 256.403 716.292C262.569 716.276 267.698 712.265 268.712 706.988C268.836 706.361 268.907 705.708 268.905 705.037C268.904 704.361 268.829 703.713 268.702 703.082V703.082Z" fill="#ED5565"/>
<path d="M248.38 713.686C245.615 711.651 243.853 708.556 243.844 705.101C243.835 701.665 245.582 698.565 248.308 696.493L233.733 680.997L233.708 681.02L233.831 729.279L248.352 713.709L248.38 713.686Z" fill="#E6E9ED"/>
<path d="M278.914 708.578L268.712 706.986C267.698 712.263 262.569 716.274 256.403 716.29C254.9 716.294 253.446 716.048 252.116 715.625L247.335 727.514L278.962 727.433L278.914 708.578Z" fill="#E6E9ED"/>
<path d="M247.22 682.624L247.195 682.624L252.062 694.548C253.389 694.098 254.842 693.848 256.346 693.844C262.511 693.828 267.661 697.83 268.702 703.08L278.896 701.44L278.847 682.54L247.22 682.621L247.22 682.624Z" fill="#E6E9ED"/>
<path d="M243.659 651.208L233.634 651.234L233.634 651.256L233.67 665.083C245.585 659.665 259.867 658.484 273.411 662.869C275.265 663.473 277.046 664.162 278.779 664.92L278.744 651.141L278.744 651.118L268.72 651.144L243.659 651.208Z" fill="#CCD1D9"/>
<path d="M278.704 635.379L268.679 635.405L268.72 651.144L278.744 651.118C281.501 651.111 283.751 649.085 283.745 646.616L283.728 639.855C283.721 637.388 281.458 635.372 278.704 635.379Z" fill="#E6E9ED"/>
<path d="M252.116 715.627C250.737 715.184 249.482 714.534 248.38 713.686L248.352 713.709L233.831 729.279L229.083 734.386L229.083 734.409C232.777 737.183 237.09 739.416 241.884 740.973L241.909 740.973L247.337 727.518L252.116 715.627Z" fill="#DA4453"/>
<path d="M268.72 651.144L268.679 635.405L243.618 635.469L243.659 651.208L268.72 651.144Z" fill="#F5F7FA"/>
<path d="M243.934 758.95L233.91 758.975C231.153 758.982 228.903 761.004 228.909 763.477L228.927 770.211C228.933 772.68 231.194 774.695 233.95 774.687L243.975 774.662L243.934 758.95Z" fill="#E6E9ED"/>
<path d="M269.036 774.598L268.996 758.885L243.934 758.949L243.975 774.662L269.036 774.598Z" fill="#F5F7FA"/>
<path d="M279.02 758.86L268.996 758.885L269.036 774.598L279.06 774.572C281.817 774.565 284.067 772.539 284.061 770.07L284.044 763.336C284.037 760.862 281.802 758.875 279.045 758.86L279.02 758.86Z" fill="#E6E9ED"/>
<path d="M241.343 705.107C241.362 712.535 248.122 718.558 256.414 718.537C264.707 718.515 271.435 712.458 271.416 705.03C271.397 697.603 264.638 691.58 256.345 691.601C248.053 691.623 241.324 697.68 241.343 705.107ZM266.404 705.043C266.417 709.995 261.931 714.033 256.403 714.047C250.874 714.062 246.368 710.046 246.355 705.095C246.343 700.143 250.828 696.105 256.357 696.091C261.885 696.076 266.392 700.092 266.404 705.043Z" fill="black"/>
<path d="M266.219 706.997C266.221 708.067 267.078 709.01 268.294 709.198L297.924 713.795C299.288 714.009 300.586 713.189 300.821 711.967C301.066 710.75 300.146 709.583 298.782 709.373L269.155 704.776C267.791 704.562 266.493 705.382 266.258 706.604C266.231 706.736 266.218 706.866 266.219 706.997Z" fill="black"/>
<path d="M239.402 740.973C239.405 741.888 240.039 742.749 241.057 743.076C242.359 743.497 243.796 742.894 244.264 741.726L254.484 716.387C254.952 715.225 254.282 713.934 252.978 713.515C251.676 713.094 250.239 713.697 249.771 714.866L239.553 740.205C239.451 740.458 239.402 740.719 239.402 740.973V740.973Z" fill="black"/>
<path d="M226.572 734.379C226.573 735.021 226.878 735.656 227.471 736.099C228.533 736.893 230.114 736.765 230.999 735.814L250.278 715.129C251.163 714.173 251.026 712.757 249.962 711.97C248.9 711.176 247.319 711.303 246.434 712.255L227.154 732.939C226.762 733.36 226.57 733.87 226.572 734.379Z" fill="black"/>
<path d="M239.219 669.259C239.219 669.513 239.27 669.773 239.374 670.027L249.724 695.313C250.198 696.479 251.64 697.075 252.937 696.647C254.239 696.222 254.9 694.923 254.429 693.768L244.079 668.482C243.605 667.316 242.162 666.72 240.865 667.148C239.846 667.48 239.216 668.344 239.219 669.259Z" fill="black"/>
<path d="M226.422 675.918C226.423 676.428 226.618 676.937 227.012 677.358L246.397 697.943C247.287 698.89 248.868 699.012 249.926 698.21C250.987 697.413 251.119 695.998 250.227 695.049L230.842 674.464C229.952 673.517 228.37 673.395 227.312 674.197C226.722 674.64 226.42 675.276 226.422 675.918Z" fill="black"/>
<path d="M211.26 705.191C211.306 722.113 223.274 737.342 241.044 743.087C252.376 746.749 264.623 746.237 275.538 741.645C286.453 737.056 294.715 728.939 298.804 718.792C300.609 714.327 301.514 709.672 301.502 704.965C301.459 688.042 289.486 672.812 271.708 667.069C260.378 663.407 248.134 663.919 237.224 668.51C226.312 673.099 218.05 681.217 213.961 691.364C212.155 695.831 211.248 700.482 211.26 705.191V705.191ZM296.488 704.977C296.498 709.159 295.692 713.296 294.088 717.271C290.452 726.292 283.11 733.505 273.409 737.584C263.709 741.662 252.818 742.119 242.748 738.865C226.954 733.757 216.315 720.22 216.274 705.181L216.274 705.178C216.264 700.997 217.073 696.862 218.676 692.885C222.312 683.864 229.654 676.651 239.353 672.572C249.051 668.494 259.936 668.037 270.004 671.291C285.806 676.395 296.449 689.934 296.488 704.977V704.977Z" fill="black"/>
<path d="M203.756 705.21C203.807 724.943 217.766 742.707 238.492 749.41C251.705 753.679 265.991 753.082 278.718 747.729C291.448 742.377 301.085 732.909 305.857 721.07C307.961 715.864 309.017 710.438 309.003 704.945C308.953 685.211 294.988 667.447 274.253 660.748C261.037 656.477 246.754 657.074 234.031 662.424C221.309 667.777 211.672 677.245 206.9 689.084C204.801 694.292 203.742 699.718 203.756 705.21V705.21ZM303.993 704.958C304.006 709.923 303.046 714.83 301.146 719.547C296.831 730.256 288.109 738.821 276.59 743.665C265.075 748.509 252.152 749.048 240.2 745.188C221.446 739.12 208.817 723.049 208.771 705.195C208.758 700.23 209.716 695.321 211.618 690.605C215.936 679.894 224.656 671.33 236.164 666.486C247.675 661.644 260.598 661.106 272.552 664.968C291.313 671.034 303.948 687.102 303.993 704.958V704.958Z" fill="black"/>
<path d="M266.209 703.091C266.209 703.221 266.222 703.351 266.25 703.484C266.494 704.704 267.794 705.516 269.157 705.297L298.762 700.543C300.125 700.324 301.036 699.159 300.788 697.939C300.544 696.718 299.244 695.907 297.881 696.126L268.273 700.877C267.058 701.071 266.206 702.02 266.209 703.091V703.091Z" fill="black"/>
<path d="M276.496 745.113L276.531 758.839C276.535 760.08 277.657 761.081 279.043 761.077C280.429 761.074 281.547 760.068 281.544 758.826L281.509 745.1C281.505 743.859 280.383 742.859 278.997 742.862C277.611 742.866 276.493 743.872 276.496 745.113Z" fill="black"/>
<path d="M231.381 745.206L231.416 758.955C231.42 760.196 232.542 761.196 233.928 761.193C235.314 761.189 236.432 760.183 236.429 758.942L236.393 745.194C236.39 743.952 235.267 742.952 233.882 742.955C232.496 742.959 231.378 743.965 231.381 745.206Z" fill="black"/>
<path d="M276.403 708.573L276.477 737.419C276.48 738.66 277.603 739.66 278.988 739.657C280.374 739.653 281.492 738.647 281.489 737.406L281.415 708.56C281.412 707.319 280.289 706.319 278.903 706.322C277.517 706.326 276.4 707.332 276.403 708.573Z" fill="black"/>
<path d="M276.311 672.628L276.384 701.458C276.388 702.699 277.51 703.699 278.896 703.696C280.282 703.692 281.4 702.686 281.397 701.445L281.323 672.615C281.32 671.374 280.197 670.373 278.811 670.377C277.425 670.38 276.307 671.387 276.311 672.628Z" fill="black"/>
<path d="M276.248 651.129L276.283 664.929C276.287 666.17 277.409 667.171 278.795 667.167C280.181 667.164 281.299 666.157 281.296 664.916L281.26 651.116C281.257 649.875 280.134 648.874 278.748 648.878C277.363 648.882 276.245 649.888 276.248 651.129V651.129Z" fill="black"/>
<path d="M231.214 681.008L231.338 729.267C231.341 730.509 232.464 731.509 233.85 731.506C235.236 731.502 236.353 730.496 236.35 729.255L236.226 680.995C236.223 679.754 235.1 678.754 233.715 678.757C232.329 678.761 231.211 679.767 231.214 681.008Z" fill="black"/>
<path d="M231.138 651.245L231.173 665.089C231.177 666.331 232.299 667.331 233.685 667.328C235.071 667.324 236.189 666.318 236.186 665.077L236.15 651.232C236.147 649.99 235.024 648.99 233.638 648.994C232.252 648.997 231.135 650.003 231.138 651.245Z" fill="black"/>
<path d="M244.834 727.509C244.837 728.75 245.96 729.751 247.346 729.747L278.963 729.666C280.349 729.663 281.466 728.656 281.463 727.415C281.46 726.174 280.337 725.173 278.951 725.177L247.334 725.258C245.948 725.261 244.831 726.268 244.834 727.509Z" fill="black"/>
<path d="M244.719 682.617C244.722 683.858 245.845 684.858 247.231 684.855L278.848 684.774C280.234 684.77 281.351 683.764 281.348 682.523C281.345 681.282 280.222 680.281 278.836 680.285L247.219 680.366C245.833 680.369 244.716 681.375 244.719 682.617Z" fill="black"/>
<path d="M226.413 763.47L226.43 770.217C226.44 773.93 229.821 776.943 233.966 776.932L279.076 776.817C283.221 776.806 286.587 773.776 286.577 770.063L286.56 763.316C286.55 759.604 283.169 756.591 279.024 756.602L233.914 756.717C229.769 756.728 226.404 759.758 226.413 763.47ZM281.565 770.076C281.568 771.315 280.448 772.324 279.065 772.327L233.955 772.443C232.571 772.446 231.446 771.444 231.443 770.205L231.425 763.457C231.422 762.218 232.542 761.21 233.926 761.206L279.036 761.091C280.419 761.087 281.545 762.09 281.548 763.329L281.565 770.076Z" fill="black"/>
<path d="M266.499 758.878L266.54 774.604C266.543 775.845 267.666 776.846 269.052 776.842C270.438 776.839 271.555 775.832 271.552 774.591L271.512 758.865C271.509 757.624 270.386 756.624 269 756.627C267.614 756.631 266.496 757.637 266.499 758.878Z" fill="black"/>
<path d="M241.438 758.942L241.479 774.668C241.482 775.909 242.605 776.91 243.99 776.906C245.376 776.903 246.494 775.897 246.491 774.655L246.451 758.93C246.447 757.688 245.325 756.688 243.939 756.691C242.553 756.695 241.435 757.701 241.438 758.942Z" fill="black"/>
<path d="M226.097 640.003L226.114 646.75C226.124 650.463 229.505 653.475 233.65 653.465L278.76 653.349C282.905 653.339 286.27 650.309 286.261 646.596L286.244 639.849C286.234 636.136 282.853 633.124 278.708 633.134L233.598 633.25C229.453 633.26 226.087 636.29 226.097 640.003ZM281.249 646.609C281.252 647.848 280.132 648.857 278.748 648.86L233.638 648.976C232.255 648.979 231.13 647.976 231.126 646.737L231.109 639.99C231.106 638.751 232.226 637.743 233.61 637.739L278.72 637.624C280.103 637.62 281.228 638.623 281.231 639.862L281.249 646.609Z" fill="black"/>
<path d="M266.183 635.411L266.224 651.137C266.227 652.378 267.35 653.378 268.735 653.375C270.121 653.371 271.239 652.365 271.236 651.124L271.195 635.398C271.192 634.157 270.07 633.156 268.684 633.16C267.298 633.164 266.18 634.17 266.183 635.411Z" fill="black"/>
<path d="M241.122 635.475L241.162 651.201C241.166 652.442 242.288 653.443 243.674 653.439C245.06 653.436 246.178 652.429 246.175 651.188L246.134 635.462C246.131 634.221 245.008 633.221 243.622 633.224C242.237 633.228 241.119 634.234 241.122 635.475Z" fill="black"/>
</g>
<defs>
<clipPath id="clip0">
<rect y="130" width="512.001" height="512.001" fill="white"/>
</clipPath>
<clipPath id="clip1">
<rect x="476.56" y="634.782" width="146.129" height="166.001" transform="rotate(90.6152 476.56 634.782)" fill="white"/>
</clipPath>
<clipPath id="clip2">
<rect width="143.656" height="160.392" transform="matrix(-0.00256127 -0.999997 -0.999997 0.00256127 333.759 144.655)" fill="white"/>
</clipPath>
<clipPath id="clip3">
<rect width="143.656" height="160.392" transform="matrix(-0.00256127 -0.999997 -0.999997 0.00256127 336.759 776.655)" fill="white"/>
</clipPath>
</defs>
</svg>
