<svg height="512" viewBox="0 0 128 128" width="512" xmlns="http://www.w3.org/2000/svg" xmlns:xlink="http://www.w3.org/1999/xlink"><linearGradient id="a" gradientUnits="userSpaceOnUse" x1="89.184" x2="40.55" y1="83.405" y2="34.771"><stop offset="0" stop-color="#e30058"/><stop offset="1" stop-color="#ffc100"/></linearGradient><path d="m63.117 32.077v-6.646a1.75 1.75 0 0 1 3.5 0v6.646a1.75 1.75 0 1 1 -3.5 0zm18.4 8.644a1.743 1.743 0 0 0 1.237-.513l4.7-4.7a1.749 1.749 0 1 0 -2.474-2.474l-4.7 4.7a1.75 1.75 0 0 0 1.238 2.987zm13.54 13.145h-6.651a1.75 1.75 0 0 0 0 3.5h6.646a1.75 1.75 0 0 0 0-3.5zm-12.3 17.157a1.75 1.75 0 0 0 -2.483 2.477l4.7 4.7a1.75 1.75 0 0 0 2.474-2.475zm-35.764 0-4.7 4.7a1.75 1.75 0 0 0 2.468 2.477l4.7-4.7a1.75 1.75 0 0 0 -2.475-2.475zm-3.915-15.407a1.75 1.75 0 0 0 -1.75-1.75h-6.646a1.75 1.75 0 0 0 0 3.5h6.646a1.75 1.75 0 0 0 1.75-1.75zm3.907-15.408a1.75 1.75 0 1 0 2.475-2.474l-4.7-4.7a1.75 1.75 0 1 0 -2.475 2.474zm11.615 1.985a1.742 1.742 0 0 0 .676-.137c.255-.106.513-.207.774-.3a1.75 1.75 0 1 0 -1.164-3.3q-.488.173-.964.373a1.749 1.749 0 0 0 .678 3.363zm6.271-4.76a1.75 1.75 0 0 0 0 3.5 14.7 14.7 0 0 1 14.679 14.683 14.523 14.523 0 0 1 -2.828 8.648 25.279 25.279 0 0 0 -4.586 11.765 1.75 1.75 0 0 0 1.515 1.957 1.867 1.867 0 0 0 .223.014 1.75 1.75 0 0 0 1.733-1.53 21.787 21.787 0 0 1 3.937-10.136 18 18 0 0 0 3.506-10.718 18.2 18.2 0 0 0 -18.184-18.183zm12.738 44.567v5.86a1.749 1.749 0 0 1 -1.75 1.75h-.448v6.844a1.75 1.75 0 0 1 -1.75 1.75h-3.313v.633a5.481 5.481 0 1 1 -10.961 0v-.637h-3.314a1.751 1.751 0 0 1 -1.75-1.75v-3.3a1.75 1.75 0 0 1 3.5 0v1.55h14.088v-5.09h-1.794a1.75 1.75 0 0 1 0-3.5h3.992v-2.362h-18.484v2.362h3.805a1.75 1.75 0 0 1 0 3.5h-5.555a1.75 1.75 0 0 1 -1.75-1.75v-5.86a1.75 1.75 0 0 1 1.75-1.75h.448v-.65a24.366 24.366 0 0 0 -4.472-13.743 18.087 18.087 0 0 1 2.319-23.2 1.751 1.751 0 0 1 2.449 2.5 14.585 14.585 0 0 0 -1.881 18.723 27.853 27.853 0 0 1 5.085 15.72v.65h5.294v-19.66a1.75 1.75 0 0 1 3.5 0v19.658h9.242a1.749 1.749 0 0 1 1.75 1.752zm-10.761 16.2h-3.961v.633a1.981 1.981 0 1 0 3.961 0zm-1.855-8.59a1.75 1.75 0 0 0 0-3.5h-.6a1.75 1.75 0 0 0 0 3.5z" fill="url(#a)"/></svg>