<svg id="Capa_1" enable-background="new 0 0 512 512" height="512" viewBox="0 0 512 512" width="512" xmlns="http://www.w3.org/2000/svg"><g><path d="m452 136v240c0 8.28-6.72 15-15 15h-240c-8.28 0-15-6.72-15-15v-240c0-8.28 6.72-15 15-15h240c8.28 0 15 6.72 15 15z" fill="#76e2f8"/><path d="m452 256v120c0 8.28-6.72 15-15 15h-240c-8.28 0-15-6.72-15-15v-120z" fill="#4bb9ec"/><path d="m15 121h92v270h-92z" fill="#465a61"/><path d="m15 256h92v135h-92z" fill="#3b4a51"/><g><path d="m197 91h-90c-8.28 0-15 6.72-15 15v300c0 8.28 6.72 15 15 15h90c8.28 0 15-6.72 15-15v-300c0-8.28-6.72-15-15-15z" fill="#596c76"/></g><path d="m212 256v150c0 8.28-6.72 15-15 15h-90c-8.28 0-15-6.72-15-15v-150z" fill="#465a61"/><path d="m512 196v120c0 41.35-33.65 75-75 75v-270c41.35 0 75 33.65 75 75z" fill="#465a61"/><path d="m512 256v60c0 41.35-33.65 75-75 75v-135z" fill="#3b4a51"/><g><path d="m272 226v60c0 8.28-6.72 15-15 15s-15-6.72-15-15v-60c0-8.28 6.72-15 15-15s15 6.72 15 15z" fill="#596c76"/></g><g><path d="m332 226v60c0 8.28-6.72 15-15 15s-15-6.72-15-15v-60c0-8.28 6.72-15 15-15s15 6.72 15 15z" fill="#596c76"/></g><g><path d="m392 226v60c0 8.28-6.72 15-15 15s-15-6.72-15-15v-60c0-8.28 6.72-15 15-15s15 6.72 15 15z" fill="#596c76"/></g><g fill="#465a61"><path d="m242 256h30v30c0 8.28-6.72 15-15 15s-15-6.72-15-15z"/><path d="m302 256h30v30c0 8.28-6.72 15-15 15s-15-6.72-15-15z"/><path d="m392 256v30c0 8.28-6.72 15-15 15s-15-6.72-15-15v-30z"/></g><g><path d="m452 106v300c0 8.28-6.72 15-15 15s-15-6.72-15-15v-300c0-8.28 6.72-15 15-15s15 6.72 15 15z" fill="#596c76"/></g><path d="m452 256v150c0 8.28-6.72 15-15 15s-15-6.72-15-15v-150z" fill="#465a61"/><g><path d="m30 106v300c0 8.28-6.72 15-15 15s-15-6.72-15-15v-300c0-8.28 6.72-15 15-15s15 6.72 15 15z" fill="#596c76"/></g><path d="m30 256v150c0 8.28-6.72 15-15 15s-15-6.72-15-15v-150z" fill="#465a61"/></g></svg>