<?xml version="1.0" encoding="iso-8859-1"?>
<!-- Generator: Adobe Illustrator 19.0.0, SVG Export Plug-In . SVG Version: 6.00 Build 0)  -->
<svg version="1.1" id="Capa_1" xmlns="http://www.w3.org/2000/svg" xmlns:xlink="http://www.w3.org/1999/xlink" x="0px" y="0px"
	 viewBox="0 0 480 480" style="enable-background:new 0 0 480 480;" xml:space="preserve">
<path style="fill:#DE4C3C;" d="M424,72H104L34.736,83.544C19.306,86.117,7.998,99.469,8,115.112V168h48c0-26.51,21.49-48,48-48
	s48,21.49,48,48h192c0-26.51,21.49-48,48-48s48,21.49,48,48h32V99.536c0.009-6.896-4.402-13.021-10.944-15.2L424,72z"/>
<g>
	<circle style="fill:#535354;" cx="104" cy="168" r="48"/>
	<circle style="fill:#535354;" cx="392" cy="168" r="48"/>
</g>
<path style="fill:#87CED9;" d="M344.392,8H188.168c-7.838,0.003-15.402,2.877-21.264,8.08L104,72h320l-57.464-55.096
	C360.579,11.191,352.645,8.001,344.392,8z"/>
<g>
	<path style="fill:#EBEBEB;" d="M104.68,154.32c-8.329-0.593-15.563,5.678-16.156,14.008c-0.593,8.329,5.678,15.563,14.008,16.156
		s15.563-5.678,16.156-14.008c0-0.001,0-0.003,0-0.004C119.279,162.144,113.008,154.913,104.68,154.32z"/>
	<path style="fill:#EBEBEB;" d="M392.68,154.32c-8.329-0.593-15.563,5.678-16.156,14.008s5.678,15.563,14.008,16.156
		s15.563-5.678,16.156-14.008c0-0.001,0-0.003,0-0.004C407.279,162.144,401.008,154.913,392.68,154.32z"/>
</g>
<path style="fill:#BF362C;" d="M216,96h48v16h-48V96z"/>
<path style="fill:#FDB62F;" d="M448,104h24v16h-24V104z"/>
<path style="fill:#71C4D1;" d="M366.536,16.904c-5.957-5.713-13.891-8.903-22.144-8.904H256l-64,64h232L366.536,16.904z"/>
<path style="fill:#87CED9;" d="M280,8h16v64h-16V8z"/>
<g>
	<path style="fill:#FDB62F;" d="M8,216h464v32H8V216z"/>
	<path style="fill:#FDB62F;" d="M8,440h464v32H8V440z"/>
</g>
<path style="fill:#FFA83D;" d="M440,248h-64L40,440h64L440,248z"/>
<path style="fill:#FDB62F;" d="M272,344c0.112-17.562-14.033-31.891-31.596-32.003c-5.817-0.037-11.532,1.522-16.524,4.507L104,248
	H40l168,96c-0.112,17.562,14.033,31.891,31.596,32.003c5.817,0.037,11.532-1.522,16.524-4.507L376,440h64L272,344z"/>
<path style="fill:#FA962A;" d="M232,336h16v16h-16V336z"/>
<g>
	<path style="fill:#D64333;" d="M434.232,120c13.837,12.113,21.772,29.61,21.768,48h16v-48H434.232z"/>
	<path style="fill:#D64333;" d="M349.768,120H146.232c13.837,12.113,21.772,29.61,21.768,48h160
		C327.996,149.61,335.931,132.113,349.768,120z"/>
	<path style="fill:#D64333;" d="M8,168h32c-0.004-18.39,7.931-35.887,21.768-48H8L8,168z"/>
</g>
<path style="fill:#BF362C;" d="M280,72h16v96h-16V72z"/>
<path style="fill:#EBEBEB;" d="M8,112h24v16H8V112z"/>
<path d="M101.976,192.464c0.544,0,1.104,0.056,1.648,0.056c12.118-0.027,22.165-9.394,23.04-21.48
	c0.907-12.737-8.683-23.797-21.42-24.704c-0.001,0-0.003,0-0.004,0c-12.708-0.822-23.715,8.727-24.696,21.424
	C79.642,180.5,89.236,191.559,101.976,192.464z M103.576,162.28h0.512c3.921,0.277,6.875,3.679,6.6,7.6
	c-0.29,3.918-3.689,6.866-7.608,6.6c-3.922-0.278-6.878-3.678-6.608-7.6c0.288-3.724,3.393-6.599,7.128-6.6H103.576z"/>
<path d="M463.592,76.8L428.24,64.976l-56.168-53.848C364.635,3.973,354.712-0.016,344.392,0H188.168
	c-9.795-0.004-19.251,3.592-26.568,10.104l-61.184,54.4l-66.976,11.2C14.134,78.856-0.032,95.551,0,115.112V168c0,4.418,3.582,8,8,8
	h40.64c1.744,12.165,7.456,23.414,16.248,32H8c-4.418,0-8,3.582-8,8v32c0,4.418,3.582,8,8,8h29.88l153.992,88L37.88,432H8
	c-4.418,0-8,3.582-8,8v32c0,4.418,3.582,8,8,8h464c4.418,0,8-3.582,8-8v-32c0-4.418-3.582-8-8-8h-29.88l-153.992-88l153.992-88H472
	c4.418,0,8-3.582,8-8v-32c0-4.418-3.582-8-8-8h-40.888c8.792-8.586,14.504-19.835,16.248-32H472c4.418,0,8-3.582,8-8V99.528
	C479.983,89.213,473.377,80.063,463.592,76.8z M296,16h48.392c6.191-0.011,12.145,2.381,16.608,6.672L404.104,64H296V16z
	 M172.216,22.064c4.395-3.907,10.071-6.065,15.952-6.064H280v48H125.04L172.216,22.064z M336.64,176
	c1.744,12.165,7.456,23.414,16.248,32H143.112c8.792-8.586,14.504-19.835,16.248-32H336.64z M60.64,132.632
	c-0.904,1.104-1.752,2.256-2.568,3.424c-0.168,0.248-0.352,0.472-0.52,0.712c-0.971,1.44-1.872,2.923-2.704,4.448
	c-0.216,0.384-0.384,0.8-0.592,1.192c-0.592,1.144-1.168,2.296-1.68,3.488c-0.256,0.592-0.464,1.2-0.696,1.792
	c-0.408,1.032-0.8,2.056-1.144,3.112c-0.224,0.688-0.4,1.384-0.6,2.08c-0.28,1.008-0.552,2.016-0.8,3.048
	c-0.16,0.736-0.288,1.488-0.424,2.24c-0.112,0.608-0.264,1.208-0.352,1.832H16v-32h16v-16H16.28
	c1.319-10.475,9.361-18.839,19.776-20.568L104.664,80H280v80H159.432c-0.088-0.616-0.24-1.216-0.352-1.824
	c-0.136-0.76-0.264-1.512-0.432-2.256c-0.224-1.024-0.496-2.032-0.8-3.032c-0.2-0.696-0.376-1.4-0.6-2.088
	c-0.344-1.056-0.736-2.08-1.144-3.112c-0.232-0.592-0.44-1.2-0.696-1.792c-0.512-1.192-1.088-2.344-1.68-3.488
	c-0.208-0.392-0.376-0.8-0.592-1.192c-0.832-1.531-1.733-3.011-2.704-4.44c-0.168-0.264-0.368-0.496-0.552-0.752
	c-0.8-1.16-1.6-2.296-2.536-3.392c-0.368-0.456-0.8-0.88-1.168-1.328c-0.744-0.856-1.488-1.704-2.28-2.504
	c-0.472-0.48-0.968-0.928-1.456-1.392c-0.76-0.72-1.528-1.44-2.328-2.12c-0.544-0.456-1.096-0.888-1.656-1.32
	c-0.8-0.632-1.6-1.24-2.4-1.824c-0.6-0.424-1.208-0.8-1.824-1.216c-0.84-0.544-1.688-1.064-2.56-1.6
	c-0.648-0.368-1.296-0.72-1.952-1.064c-0.888-0.464-1.8-0.896-2.712-1.312c-0.68-0.304-1.352-0.608-2.04-0.888
	c-0.952-0.384-1.92-0.728-2.896-1.056c-0.688-0.24-1.368-0.488-2.072-0.696c-1.032-0.304-2.08-0.552-3.128-0.8
	c-0.68-0.16-1.352-0.336-2.04-0.472c-1.176-0.232-2.4-0.392-3.568-0.552c-0.592-0.072-1.168-0.184-1.768-0.24
	C107.68,112.104,105.848,112,104,112s-3.68,0.104-5.48,0.28c-0.6,0.056-1.176,0.168-1.768,0.24c-1.2,0.16-2.4,0.32-3.568,0.552
	c-0.688,0.136-1.36,0.312-2.032,0.472c-1.056,0.248-2.104,0.504-3.136,0.8c-0.704,0.208-1.384,0.456-2.072,0.696
	c-0.976,0.328-1.944,0.672-2.896,1.056c-0.688,0.28-1.36,0.584-2.04,0.888c-0.912,0.416-1.824,0.848-2.712,1.312
	c-0.656,0.344-1.304,0.696-1.952,1.064c-0.872,0.496-1.72,1.016-2.568,1.6c-0.608,0.392-1.216,0.8-1.816,1.208
	c-0.8,0.584-1.64,1.2-2.4,1.832c-0.56,0.432-1.112,0.864-1.656,1.32c-0.8,0.68-1.6,1.4-2.328,2.12
	c-0.488,0.464-0.984,0.912-1.456,1.392c-0.8,0.8-1.536,1.648-2.28,2.504c-0.424,0.416-0.84,0.84-1.208,1.296H60.64z M64,168
	c0-22.091,17.909-40,40-40s40,17.909,40,40s-17.909,40-40,40C81.92,207.974,64.026,190.08,64,168z M202.088,356.592
	c0,0.112,0.104,0.216,0.144,0.328c0.772,2.182,1.73,4.294,2.864,6.312c0.2,0.368,0.408,0.72,0.624,1.08
	c1.185,1.999,2.543,3.892,4.056,5.656c0.072,0.08,0.12,0.184,0.192,0.264L101.872,432H70.128L202.088,356.592z M224.112,380.592
	c10.125,4.46,21.659,4.46,31.784,0L345.872,432H134.12L224.112,380.592z M464,448v16H16v-16H464z M409.872,432h-31.744
	l-118.04-67.448c-2.484-1.414-5.533-1.396-8,0.048c-7.41,4.511-16.718,4.511-24.128,0c-7.389-4.228-11.952-12.087-11.96-20.6
	c0-0.705-0.094-1.408-0.28-2.088c-0.048-0.184-0.152-0.352-0.216-0.528c-0.15-0.482-0.345-0.948-0.584-1.392
	c-0.112-0.2-0.288-0.36-0.416-0.552c-0.248-0.386-0.529-0.75-0.84-1.088c-0.23-0.197-0.47-0.382-0.72-0.552
	c-0.29-0.264-0.6-0.505-0.928-0.72L70.128,256h31.744l118.04,67.448c2.484,1.414,5.533,1.396,8-0.048
	c7.41-4.511,16.718-4.511,24.128,0c7.389,4.228,11.952,12.087,11.96,20.6c0,0.705,0.094,1.408,0.28,2.088
	c0.048,0.184,0.152,0.352,0.216,0.528c0.15,0.482,0.345,0.948,0.584,1.392c0.112,0.2,0.288,0.36,0.416,0.552
	c0.248,0.386,0.529,0.75,0.84,1.088c0.23,0.197,0.47,0.382,0.72,0.552c0.29,0.264,0.6,0.505,0.928,0.72L409.872,432z M134.128,256
	H345.88l-89.992,51.424c-10.124-4.468-21.66-4.468-31.784,0L134.128,256z M277.912,331.408c0-0.112-0.104-0.216-0.144-0.328
	c-0.772-2.182-1.73-4.294-2.864-6.312c-0.2-0.368-0.408-0.72-0.624-1.08c-1.185-1.999-2.543-3.892-4.056-5.656
	c-0.072-0.08-0.12-0.184-0.192-0.264L378.128,256h31.744L277.912,331.408z M464,224v16H16v-16H464z M392,208
	c-22.091,0-40-17.909-40-40s17.909-40,40-40s40,17.909,40,40C431.974,190.08,414.08,207.974,392,208z M464,104h-16v16h16v40h-16.568
	c-0.088-0.616-0.24-1.216-0.352-1.824c-0.136-0.76-0.264-1.512-0.432-2.256c-0.224-1.024-0.496-2.032-0.8-3.032
	c-0.2-0.696-0.376-1.4-0.6-2.088c-0.344-1.056-0.736-2.08-1.144-3.112c-0.232-0.592-0.44-1.2-0.696-1.792
	c-0.512-1.192-1.088-2.344-1.68-3.488c-0.208-0.392-0.376-0.8-0.592-1.192c-0.832-1.531-1.733-3.011-2.704-4.44
	c-0.168-0.264-0.368-0.496-0.552-0.752c-0.8-1.16-1.6-2.296-2.536-3.392c-0.368-0.456-0.8-0.88-1.168-1.328
	c-0.744-0.856-1.488-1.704-2.28-2.504c-0.472-0.48-0.968-0.928-1.456-1.392c-0.76-0.72-1.528-1.44-2.328-2.12
	c-0.544-0.456-1.096-0.888-1.656-1.32c-0.8-0.632-1.6-1.24-2.4-1.824c-0.6-0.424-1.208-0.8-1.824-1.216
	c-0.84-0.544-1.688-1.064-2.56-1.6c-0.648-0.368-1.296-0.72-1.952-1.064c-0.888-0.464-1.8-0.896-2.712-1.312
	c-0.68-0.304-1.352-0.608-2.04-0.888c-0.952-0.384-1.92-0.728-2.896-1.056c-0.688-0.24-1.368-0.488-2.072-0.696
	c-1.032-0.304-2.08-0.552-3.128-0.8c-0.68-0.16-1.352-0.336-2.04-0.472c-1.176-0.232-2.4-0.392-3.568-0.552
	c-0.592-0.072-1.168-0.184-1.768-0.24C395.68,112.104,393.848,112,392,112s-3.68,0.104-5.48,0.28c-0.6,0.056-1.176,0.168-1.768,0.24
	c-1.2,0.16-2.4,0.32-3.568,0.552c-0.688,0.136-1.36,0.312-2.032,0.472c-1.056,0.248-2.104,0.504-3.136,0.8
	c-0.704,0.208-1.384,0.456-2.072,0.696c-0.976,0.328-1.944,0.672-2.896,1.056c-0.688,0.28-1.36,0.584-2.04,0.888
	c-0.912,0.416-1.824,0.848-2.712,1.312c-0.656,0.344-1.304,0.696-1.952,1.064c-0.872,0.496-1.72,1.016-2.568,1.6
	c-0.608,0.392-1.216,0.8-1.816,1.208c-0.8,0.584-1.6,1.2-2.4,1.832c-0.56,0.432-1.112,0.864-1.656,1.32
	c-0.8,0.68-1.6,1.4-2.328,2.12c-0.488,0.464-0.984,0.912-1.456,1.392c-0.8,0.8-1.536,1.648-2.28,2.504
	c-0.384,0.448-0.8,0.872-1.168,1.328c-0.904,1.104-1.752,2.256-2.568,3.424c-0.168,0.248-0.352,0.472-0.52,0.712
	c-0.965,1.44-1.867,2.923-2.704,4.448c-0.216,0.384-0.384,0.8-0.592,1.192c-0.592,1.144-1.168,2.296-1.68,3.488
	c-0.256,0.592-0.464,1.2-0.696,1.792c-0.408,1.032-0.8,2.056-1.144,3.112c-0.224,0.688-0.4,1.384-0.6,2.08
	c-0.28,1.008-0.552,2.016-0.8,3.048c-0.16,0.736-0.288,1.488-0.424,2.24c-0.112,0.608-0.264,1.208-0.352,1.832H296V80h126.704
	l35.824,11.944c3.266,1.088,5.469,4.142,5.472,7.584L464,104z"/>
<path d="M393.24,146.336c-12.704-0.808-23.703,8.733-24.696,21.424c-0.902,12.74,8.692,23.799,21.432,24.704
	c0.544,0,1.104,0.056,1.648,0.056c12.118-0.027,22.165-9.394,23.04-21.48c0.907-12.737-8.683-23.797-21.42-24.704
	C393.243,146.336,393.242,146.336,393.24,146.336L393.24,146.336z M391.104,176.504c-3.922-0.278-6.878-3.678-6.608-7.6
	c0.276-3.724,3.37-6.609,7.104-6.624h0.512c3.921,0.277,6.875,3.679,6.6,7.6C398.43,173.805,395.03,176.765,391.104,176.504z"/>
<path d="M216,96h48v16h-48V96z"/>
<path d="M232,336h16v16h-16V336z"/>
<g>
</g>
<g>
</g>
<g>
</g>
<g>
</g>
<g>
</g>
<g>
</g>
<g>
</g>
<g>
</g>
<g>
</g>
<g>
</g>
<g>
</g>
<g>
</g>
<g>
</g>
<g>
</g>
<g>
</g>
</svg>
