<svg id="Capa_1" enable-background="new 0 0 512 512" height="512" viewBox="0 0 512 512" width="512" xmlns="http://www.w3.org/2000/svg"><g><g><path d="m304.333 56.007v90c0 8.284 6.716 15 15 15s15-6.716 15-15v-90z" fill="#453d81"/><path d="m334.333 146.007v-90h-15v105c8.284 0 15-6.715 15-15z" fill="#38336b"/><path d="m319.252 330.993c-4.538 0-9.12-.465-13.68-1.411-25.305-5.251-45.452-25.957-50.136-51.525-2.876-15.703.006-31.765 8.115-45.227 7.154-11.875 10.781-23.572 10.781-34.767v-2.056c0-8.284 6.716-15 15-15h60c8.284 0 15 6.716 15 15v2.103c0 11.479 3.504 23.121 10.135 33.669 6.453 10.267 9.865 22.104 9.865 34.229 0 19.644-8.746 38.026-23.995 50.436-11.691 9.514-26.156 14.549-41.085 14.549z" fill="#acceff"/><path d="m374.468 231.779c-6.631-10.548-10.135-22.19-10.135-33.669v-2.103c0-8.284-6.716-15-15-15h-30v149.984c14.9-.018 29.334-5.05 41.005-14.548 15.249-12.409 23.995-30.792 23.995-50.436 0-12.125-3.412-23.962-9.865-34.228z" fill="#6ba7ff"/><path d="m329.333 131.007h-20c-19.299 0-35 15.701-35 35v30h90v-30c0-19.299-15.701-35-35-35z" fill="#e7f1f9"/><path d="m364.333 166.007c0-19.299-15.701-35-35-35h-10v65h45z" fill="#d5e7f6"/></g><g><path d="m177.667 56.007v230c0 8.284 6.716 15 15 15s15-6.716 15-15v-230z" fill="#453d81"/><path d="m207.667 286.007v-230h-15v245c8.284 0 15-6.715 15-15z" fill="#38336b"/><path d="m192.586 470.993c-4.538 0-9.12-.465-13.68-1.411-25.305-5.251-45.452-25.957-50.136-51.525-2.876-15.703.006-31.765 8.115-45.227 7.154-11.875 10.781-23.572 10.781-34.767v-2.056c0-8.284 6.716-15 15-15h60c8.284 0 15 6.716 15 15v2.103c0 11.479 3.504 23.121 10.135 33.669 6.453 10.267 9.865 22.104 9.865 34.229 0 19.644-8.746 38.026-23.995 50.436-11.692 9.514-26.156 14.549-41.085 14.549z" fill="#ffea98"/><path d="m247.802 371.779c-6.631-10.548-10.135-22.19-10.135-33.669v-2.103c0-8.284-6.716-15-15-15h-30v149.984c14.9-.018 29.334-5.05 41.005-14.548 15.249-12.409 23.995-30.792 23.995-50.436 0-12.125-3.412-23.962-9.865-34.228z" fill="#ffdd54"/><path d="m202.667 271.007h-20c-19.299 0-35 15.701-35 35v30h90v-30c0-19.299-15.701-35-35-35z" fill="#e7f1f9"/><path d="m237.667 306.007c0-19.299-15.701-35-35-35h-10v65h45z" fill="#d5e7f6"/></g><g><path d="m51 56.007v90c0 8.284 6.716 15 15 15s15-6.716 15-15v-90z" fill="#453d81"/><path d="m81 146.007v-90h-15v105c8.284 0 15-6.715 15-15z" fill="#38336b"/><path d="m65.919 330.993c-4.538 0-9.12-.465-13.68-1.411-25.305-5.251-45.452-25.957-50.136-51.525-2.876-15.703.006-31.765 8.115-45.227 7.155-11.875 10.782-23.573 10.782-34.767v-2.056c0-8.284 6.716-15 15-15h60c8.284 0 15 6.716 15 15v2.103c0 11.479 3.504 23.121 10.135 33.669 6.453 10.267 9.865 22.104 9.865 34.229 0 19.644-8.746 38.026-23.995 50.436-11.692 9.514-26.157 14.549-41.086 14.549z" fill="#8ee26b"/><path d="m121.135 231.779c-6.631-10.548-10.135-22.191-10.135-33.669v-2.103c0-8.284-6.716-15-15-15h-30v149.984c14.9-.018 29.334-5.05 41.005-14.548 15.249-12.409 23.995-30.792 23.995-50.436 0-12.125-3.412-23.962-9.865-34.228z" fill="#00a763"/><path d="m76 131.007h-20c-19.299 0-35 15.701-35 35v30h90v-30c0-19.299-15.701-35-35-35z" fill="#e7f1f9"/><path d="m111 166.007c0-19.299-15.701-35-35-35h-10v65h45z" fill="#d5e7f6"/></g><g><path d="m431 56.007v230c0 8.284 6.716 15 15 15s15-6.716 15-15v-230z" fill="#453d81"/><path d="m461 286.007v-230h-15v245c8.284 0 15-6.715 15-15z" fill="#38336b"/><path d="m445.919 470.993c-4.538 0-9.12-.465-13.68-1.411-25.305-5.251-45.452-25.957-50.136-51.525-2.876-15.703.006-31.765 8.115-45.227 7.155-11.875 10.782-23.573 10.782-34.767v-2.056c0-8.284 6.716-15 15-15h60c8.284 0 15 6.716 15 15v2.103c0 11.479 3.504 23.121 10.135 33.669 6.453 10.267 9.865 22.104 9.865 34.229 0 19.644-8.746 38.026-23.995 50.436-11.693 9.514-26.157 14.549-41.086 14.549z" fill="#e789da"/><path d="m501.135 371.779c-6.631-10.548-10.135-22.191-10.135-33.669v-2.103c0-8.284-6.716-15-15-15h-30v149.984c14.9-.018 29.334-5.05 41.005-14.548 15.249-12.409 23.995-30.792 23.995-50.436 0-12.125-3.412-23.962-9.865-34.228z" fill="#da45c6"/><path d="m456 271.007h-20c-19.299 0-35 15.701-35 35v30h90v-30c0-19.299-15.701-35-35-35z" fill="#e7f1f9"/><path d="m491 306.007c0-19.299-15.701-35-35-35h-10v65h45z" fill="#d5e7f6"/></g><g><path d="m497 71.007h-482c-8.284 0-15-6.716-15-15s6.716-15 15-15h482c8.284 0 15 6.716 15 15s-6.716 15-15 15z" fill="#e7f1f9"/></g><path d="m497 41.007h-241v30h241c8.284 0 15-6.716 15-15s-6.716-15-15-15z" fill="#d5e7f6"/></g></svg>