<svg xmlns="http://www.w3.org/2000/svg" xmlns:xlink="http://www.w3.org/1999/xlink" version="1.1" x="0px" y="0px" viewBox="0 0 351.68 361.04125000000005" style="enable-background:new 0 0 351.68 288.833;" xml:space="preserve"><g><path d="M146.116,205.336V144.25c0-2.209-1.791-4-4-4s-4,1.791-4,4v62.348c2.481-0.817,5.127-1.265,7.878-1.265   C146.035,205.333,146.075,205.336,146.116,205.336z"/><path d="M180.767,217.875v-39.5h-15.5v35.921c0.943,1.114,1.79,2.312,2.532,3.579H180.767z M167.517,181.25h11.25v2.875h-11.25   V181.25z M167.517,187.425h11.25v2.875h-11.25V187.425z M167.517,193.6h11.25v2.875h-11.25V193.6z M167.517,199.775h11.25v2.875   h-11.25V199.775z M167.517,205.95h11.25v2.875h-11.25V205.95z M167.517,212.125h11.25V215h-11.25V212.125z"/><path d="M249.434,217.875v-39.5h-15.5v39.5H249.434z M236.184,181.25h11.25v2.875h-11.25V181.25z M236.184,187.425h11.25v2.875   h-11.25V187.425z M236.184,193.6h11.25v2.875h-11.25V193.6z M236.184,199.775h11.25v2.875h-11.25V199.775z M236.184,205.95h11.25   v2.875h-11.25V205.95z M236.184,212.125h11.25V215h-11.25V212.125z"/><rect x="159.351" y="143.583" width="96" height="3.667"/><path d="M167.244,230.583c0-11.736-9.514-21.25-21.25-21.25c-11.736,0-21.25,9.514-21.25,21.25c0,11.736,9.514,21.25,21.25,21.25   C157.73,251.833,167.244,242.319,167.244,230.583z M145.994,244.083c-7.456,0-13.5-6.044-13.5-13.5c0-7.456,6.044-13.5,13.5-13.5   c7.456,0,13.5,6.044,13.5,13.5C159.494,238.039,153.45,244.083,145.994,244.083z"/><circle cx="145.994" cy="230.583" r="5.625"/><path d="M61.671,183.501c1.692-6.328,3.922-12.553,6.188-18.355c-10.398-8.172-15.915-16.502-16.357-17.183   c-1.483-2.286-1.987-5.013-1.419-7.677c0.568-2.665,2.14-4.949,4.425-6.432c1.658-1.075,3.575-1.643,5.543-1.643   c3.463,0,6.659,1.729,8.548,4.625c0.244,0.37,2.648,3.931,7.116,8.208c1.794-8.034-0.393-16.586-6.788-19.549   c-7.983-3.699-21.01-1.477-28.714,11.955c-10.483,18.531-14.394,31.151-16.039,53.455c0.022,9.099,3.273,14.286,7.702,17.38   l7.635,16.994H12.5c-6.903,0-12.5,5.597-12.5,12.5s5.597,12.5,12.5,12.5h46.333c4.24,0,8.191-2.149,10.495-5.71   c2.304-3.56,2.645-8.045,0.908-11.913l-9.348-20.807l16.184-8.101l0.262,35.558c0.05,6.873,5.637,12.408,12.498,12.408   c0.031,0,0.063,0,0.094,0c6.903-0.051,12.458-5.688,12.407-12.592l-0.41-55.627c-0.008-1.078-0.155-2.136-0.428-3.152   c-7.585-1.294-14.334-3.699-20.221-6.655L61.671,183.501z"/><path d="M126.837,178.043c4.354-0.749,7.278-4.886,6.529-9.24c-0.748-4.354-4.882-7.271-9.239-6.529   c-36.703,6.305-56.494-22.91-57.368-24.234c-2.409-3.691-7.353-4.737-11.052-2.339c-3.707,2.404-4.763,7.358-2.358,11.065   c0.945,1.457,21.523,32.422,60.355,32.422C117.871,179.188,122.25,178.831,126.837,178.043z"/><path d="M131.227,104.174c0.746-3.888-8.104-8.853-19.766-11.09c-0.399-0.077-0.791-0.139-1.186-0.207   c-3.234-4.713-8.252-8.204-14.31-9.366c-12.203-2.341-23.995,5.655-26.336,17.858c-2.341,12.205,5.655,23.995,17.858,26.336   c11.195,2.148,22.034-4.404,25.559-14.921c-1.973-0.484-4.034-1.101-6.131-1.852c-10.976-3.929-18.848-10.034-17.869-13.783   c0.845,3.685,9.102,7.977,19.714,10.012c8.008,1.536,15.259,1.386,19.259-0.117C129.845,106.358,130.994,105.391,131.227,104.174z"/><path d="M256.494,285.833c-35.335,0-35.97-4.532-35.973-4.578c-0.05-1.009,3.62-4.667,20.974-9.421   c14.224-3.896,32.867-7.181,51.148-9.009c23.417-2.342,25.321-6.72,25.947-8.158c0.431-0.99,0.659-2.546-0.7-4.332   c-5.242-6.887-31.927-12.519-59.397-12v-0.955c5.201-0.926,9.413-3.068,12.543-6.433c5.705-6.136,5.609-14.113,5.548-15.467   v-51.507l52.529-26.229c1.976-0.987,2.778-3.39,1.792-5.366s-3.391-2.779-5.366-1.792l-54.742,27.334   c-1.356,0.678-2.213,2.063-2.213,3.579v54.083c0,0.078,0.004,0.186,0.009,0.264c0.003,0.057,0.291,5.723-3.468,9.709   c-1.54,1.634-3.609,2.795-6.15,3.512v-5.985h-27.625v-47.5h30v-26h-108v26h30v47.5h-13.244c0.739,2.37,1.137,4.89,1.137,7.5   c0,2.55-0.383,5.011-1.089,7.333h52.839v11.917h35.5v-8.563c28.595-0.654,53.129,5.782,57.01,10.882   c0.579,0.76,0.409,1.151,0.336,1.318c-0.429,0.986-3.391,4.359-23.495,6.37c-18.44,1.844-37.264,5.16-51.642,9.1   c-23.478,6.432-23.251,10.972-23.177,12.464c0.172,3.459,4.758,7.429,38.969,7.429c74.235,0,94.985-2.486,95.186-2.512   l-0.372-2.977C351.108,283.369,330.543,285.833,256.494,285.833z M250.577,154.167h5.5v5.5h-5.5V154.167z M242.355,154.167h5.5v5.5   h-5.5V154.167z M234.133,154.167h5.5v5.5h-5.5V154.167z M225.911,154.167h5.5v5.5h-5.5V154.167z M167.369,169.583   c-4.142,0-7.5-3.358-7.5-7.5c0-3.759,2.768-6.863,6.375-7.407v6.782h2.25v-6.782c3.607,0.544,6.375,3.648,6.375,7.407   C174.869,166.225,171.511,169.583,167.369,169.583z M177.619,162.083c0-3.759,2.768-6.863,6.375-7.407v6.782h2.25v-6.782   c3.607,0.544,6.375,3.648,6.375,7.407c0,4.142-3.358,7.5-7.5,7.5S177.619,166.225,177.619,162.083z M187.244,206.333v-23.5h18.75   v23.5H187.244z"/><path d="M288.827,44c0-24.301-19.699-44-44-44s-44,19.699-44,44c0,15.923,8.458,29.868,21.126,37.593l-12.96,50.574l28.219-44.837   c2.475,0.432,5.016,0.67,7.614,0.67C269.128,88,288.827,68.301,288.827,44z M244.327,82.167c-19.882,0-36-16.118-36-36   s16.118-36,36-36c19.882,0,36,16.118,36,36S264.209,82.167,244.327,82.167z"/><polygon points="259.435,24.089 238.435,24.589 229.435,52.089 245.101,50.422 234.768,73.422 261.768,39.755 247.768,40.755  "/></g><text x="0" y="303.833" fill="#000000" font-size="5px" font-weight="bold" font-family="'Helvetica Neue', Helvetica, Arial-Unicode, Arial, Sans-serif">Created by Gan Khoon Lay</text><text x="0" y="308.833" fill="#000000" font-size="5px" font-weight="bold" font-family="'Helvetica Neue', Helvetica, Arial-Unicode, Arial, Sans-serif">from the Noun Project</text></svg>