<svg xmlns="http://www.w3.org/2000/svg" xmlns:xlink="http://www.w3.org/1999/xlink" xml:space="preserve" style="shape-rendering:geometricPrecision;text-rendering:geometricPrecision;image-rendering:optimizeQuality;" viewBox="0 0 19.984 23.9785" x="0px" y="0px" fill-rule="evenodd" clip-rule="evenodd"><defs><style type="text/css">
   
    .fil1 {fill:none}
    .fil0 {fill:black}
    .fil2 {fill:black;fill-rule:nonzero}
   
  </style></defs><g><path class="fil0" d="M12.6309 12.8837c0,-0.0685 0.0033,-0.1513 0.0854,-0.1516 0.0135,-0.0532 0.0558,-0.0532 0.0693,0 0.0796,0.0021 0.0828,0.0838 0.0828,0.1516l0.7071 0 0 1.1117 -0.2529 0.0802c0.2944,0 0.2557,-0.062 0.2557,0.2675l-1.6569 0c0,-0.3308 -0.0377,-0.2675 0.259,-0.2675 -0.1333,-0.0275 -0.3415,-0.0509 -0.4597,-0.0945l0 -0.959c0.407,-0.1499 0.4412,-0.134 0.9102,-0.1384zm-0.3201 0.0789l0.8727 0 0 0.0645 -0.8727 0 0 -0.0645zm-0.2877 0.8451l1.4092 0 0 0.0892 -1.4092 0 0 -0.0892zm0 -0.1369l1.4092 0 0 0.0892 -1.4092 0 0 -0.0892zm0 -0.137l1.4092 0 0 0.0892 -1.4092 0 0 -0.0892zm0 -0.1369l1.4092 0 0 0.0891 -1.4092 0 0 -0.0891z"/><path class="fil0" d="M11.5255 13.4823l0.2586 0 0 -0.23c0.0387,-0.0151 0.081,-0.024 0.1253,-0.0252l0 0.6329c-0.0443,-0.0011 -0.0866,-0.01 -0.1253,-0.0251l0 -0.2301 -0.2586 0c-0.0038,0.2517 -0.0321,0.4858 -0.0847,0.4841 -0.0643,-0.0021 -0.0643,-1.0927 0,-1.0906 0.0525,0.0017 0.0806,0.2342 0.0847,0.484z"/><polyline class="fil1" points="12.3265,13.1634 12.4871,13.324 12.6478,13.1634 12.8085,13.324 12.9691,13.1634 13.1298,13.324 13.2904,13.1634 13.3511,13.3188 13.4511,13.1634 13.6117,13.324 "/><polygon class="fil2" points="12.4571,13.294 12.6178,13.1593 12.7784,13.294 12.9391,13.1593 13.0997,13.294 13.2282,13.1387 13.3316,13.2585 13.4129,13.1525 13.6158,13.3225 13.4292,13.2804 13.3261,13.4147 13.1922,13.2831 13.0997,13.4082 12.9391,13.2736 12.7784,13.4082 12.6178,13.2736 12.4571,13.4082 12.2624,13.245 "/><path class="fil0" d="M9.8793 11.9386l5.5421 0 -2.771 -2.2851 -2.7711 2.2851zm-6.4001 2.6756l0.6689 0 0 -7.9219 0.5786 0 0 7.9219 4.9681 0 0 -2.5234 -0.192 0.1583 -0.5389 -0.6534 3.1832 -2.625c0.3229,-0.2662 0.6836,-0.2664 1.0065,0l3.1832 2.625 -0.5389 0.6534 -0.192 -0.1584 0.0013 3.3898 -12.128 0 0 -0.8663zm6.5855 0l5.1722 0 0.0052 -1.0269 -0.7505 -0.9918 -3.5589 0 -0.8623 0.8987 -0.0057 1.12zm5.1798 -1.4968l0.0026 -0.5219 -0.3975 0 0.3949 0.5219zm-4.7074 -0.5219l-0.4622 0 -0.0025 0.4842 0.4647 -0.4842z"/><rect class="fil0" x="2.7048" y="0.465848" width="3.46515" height="6.06401" rx="0.7508" ry="0.7508"/><path class="fil0" d="M5.5074 0.413l-2.1456 0c0.1115,-0.5505 2.0341,-0.5505 2.1456,0z"/><path class="fil0" d="M5.6109 5.1994l0 -3.8673 0.22 0 0 3.8673c0,0.7832 -0.22,0.7832 -0.22,0z"/><polygon class="fil0" points="4.8463,6.8628 4.971,6.8628 4.971,14.3702 9.5488,14.3702 9.5488,14.4949 4.8463,14.4943 "/><rect class="fil0" x="2.93741" y="15.7772" width="14.1092" height="0.799622"/><rect class="fil0" x="1.41351" y="16.978" width="17.157" height="0.799622"/><rect class="fil0" y="18.3832" width="19.984" height="0.799622"/></g><text x="0" y="34.1828" fill="#000000" font-size="5px" font-weight="bold" font-family="'Helvetica Neue', Helvetica, Arial-Unicode, Arial, Sans-serif">Created by LAUREN</text><text x="0" y="39.1828" fill="#000000" font-size="5px" font-weight="bold" font-family="'Helvetica Neue', Helvetica, Arial-Unicode, Arial, Sans-serif">from the Noun Project</text></svg>