<svg xmlns="http://www.w3.org/2000/svg" xmlns:xlink="http://www.w3.org/1999/xlink" version="1.1" x="0px" y="0px" viewBox="0 0 45.08823 125" style="enable-background:new 0 0 45.08823 100;" xml:space="preserve"><polygon points="41.02248,86.24371 37.64071,86.24371 39.00906,80.36725 33.07656,88.53522 36.4584,88.53522 35.09005,94.41162 "/><path d="M21.78658,64.75293V53.14551c0-0.47559-0.3877-0.86328-0.86377-0.86328H10.78805c-0.47607,0-0.86377,0.3877-0.86377,0.86328  v11.60742c0,0.47559,0.3877,0.86328,0.86377,0.86328h10.13477C21.39889,65.61621,21.78658,65.22852,21.78658,64.75293z   M20.67916,64.50879H11.0317V53.38965h9.64746V64.50879z"/><path d="M20.68941,73.1748v-2.88672c0-0.35547-0.28906-0.64453-0.64453-0.64453h-8.37891  c-0.35547,0-0.64453,0.28906-0.64453,0.64453v2.88672c0,0.35547,0.28906,0.64453,0.64453,0.64453h8.37891  C20.40035,73.81934,20.68941,73.53027,20.68941,73.1748z M12.02731,70.64941h2.26807v2.16406h-2.26807V70.64941z M19.68356,72.81348  h-4.38232v-2.16406h4.38232V72.81348z"/><path d="M16.74606,82.77539v-6.11328h1.0293c4.29492,0,7.78955-3.49512,7.78955-7.79004V11.34619  c0-4.29492-3.49463-7.78955-7.78955-7.78955h-3.83984c-4.29492,0-7.78955,3.49463-7.78955,7.78955v57.52588  c0,4.29492,3.49463,7.79004,7.78955,7.79004h1.18555v6.16699c0.00049,2.14648,0.04199,7.65137,5.06543,7.65137h10.04492v-1.625  H20.18649C17.16256,88.85547,16.74606,85.93359,16.74606,82.77539z M7.30807,68.87207V11.34619  c0-3.6543,2.97314-6.62744,6.62744-6.62744h3.83984c3.6543,0,6.62744,2.97314,6.62744,6.62744v57.52588  c0,3.6543-2.97314,6.62793-6.62744,6.62793h-3.83984C10.28121,75.5,7.30807,72.52637,7.30807,68.87207z"/><rect x="13.11568" y="59.41699" width="1.01221" height="3.01563"/><rect x="17.58297" y="59.41699" width="1.01221" height="3.01563"/><path d="M15.85543,57.79395c0.64209,0,1.16455-0.52148,1.16455-1.16406v-1.16406h-2.3291v1.16406  C14.69088,57.27246,15.21334,57.79395,15.85543,57.79395z"/><path d="M10.78805,50.85254h10.13477c0.47607,0,0.86377-0.3877,0.86377-0.86377V38.38232c0-0.47607-0.3877-0.86377-0.86377-0.86377  H10.78805c-0.47607,0-0.86377,0.3877-0.86377,0.86377v11.60645C9.92428,50.46484,10.31197,50.85254,10.78805,50.85254z   M11.0317,38.62598h9.64746v11.11914H11.0317V38.62598z"/><rect x="13.11568" y="44.65332" width="1.01221" height="3.0166"/><rect x="17.58297" y="44.65332" width="1.01221" height="3.0166"/><path d="M14.69088,41.86621c0,0.64209,0.52246,1.16455,1.16455,1.16455s1.16455-0.52246,1.16455-1.16455v-1.16455h-2.3291V41.86621z  "/><path d="M10.78805,36.08887h10.13477c0.47607,0,0.86377-0.38721,0.86377-0.86328V23.61865c0-0.47607-0.3877-0.86377-0.86377-0.86377  H10.78805c-0.47607,0-0.86377,0.3877-0.86377,0.86377v11.60693C9.92428,35.70166,10.31197,36.08887,10.78805,36.08887z   M11.0317,23.8623h9.64746v11.11914H11.0317V23.8623z"/><rect x="13.11568" y="29.88965" width="1.01221" height="3.0166"/><rect x="17.58297" y="29.88965" width="1.01221" height="3.0166"/><path d="M14.69088,27.10254c0,0.64209,0.52246,1.16455,1.16455,1.16455s1.16455-0.52246,1.16455-1.16455v-1.16455h-2.3291V27.10254z  "/><path d="M10.78805,21.3252h10.13477c0.47607,0,0.86377-0.38721,0.86377-0.86328V8.85498c0-0.47607-0.3877-0.86328-0.86377-0.86328  H10.78805c-0.47607,0-0.86377,0.38721-0.86377,0.86328v11.60693C9.92428,20.93799,10.31197,21.3252,10.78805,21.3252z   M11.0317,9.09912h9.64746v11.11865H11.0317V9.09912z"/><rect x="13.11568" y="15.12598" width="1.01221" height="3.0166"/><rect x="17.58297" y="15.12598" width="1.01221" height="3.0166"/><path d="M14.69088,12.33887c0,0.64209,0.52246,1.16455,1.16455,1.16455s1.16455-0.52246,1.16455-1.16455v-1.16455h-2.3291V12.33887z  "/><text x="0" y="115" fill="#000000" font-size="5px" font-weight="bold" font-family="'Helvetica Neue', Helvetica, Arial-Unicode, Arial, Sans-serif">Created by Lucas Helle</text><text x="0" y="120" fill="#000000" font-size="5px" font-weight="bold" font-family="'Helvetica Neue', Helvetica, Arial-Unicode, Arial, Sans-serif">from the Noun Project</text></svg>