<svg xmlns="http://www.w3.org/2000/svg" xmlns:xlink="http://www.w3.org/1999/xlink" xml:space="preserve" version="1.1" style="shape-rendering:geometricPrecision;text-rendering:geometricPrecision;image-rendering:optimizeQuality;" viewBox="0 0 268 335" x="0px" y="0px" fill-rule="evenodd" clip-rule="evenodd"><defs><style type="text/css">
   
    .fil0 {fill:black}
   
  </style></defs><g><path class="fil0" d="M204 20c63,38 83,121 44,184 -38,63 -121,83 -184,44 -63,-38 -83,-121 -44,-184 38,-63 121,-83 184,-44zm-6 9c58,36 76,111 41,169 -36,58 -111,76 -169,41 -58,-36 -76,-111 -41,-169 36,-58 111,-76 169,-41z"/><path class="fil0" d="M179 39c30,4 23,45 -13,75 4,6 6,13 6,20 32,-2 52,-38 67,-9 11,29 -28,43 -71,26 -1,1 -1,2 -2,3 -3,5 -8,10 -13,13 18,27 59,26 41,54 -19,23 -51,-3 -58,-49 -7,0 -15,-2 -21,-5 -15,29 7,64 -26,62 -30,-4 -23,-45 13,-75 -4,-6 -6,-13 -6,-20 -32,2 -52,38 -67,9 -11,-29 28,-43 71,-26 1,-1 1,-2 2,-3 3,-5 8,-10 13,-13 -18,-27 -59,-26 -41,-54 19,-23 51,3 58,49 7,0 15,2 21,5 15,-29 -7,-64 26,-62zm-35 78c10,6 13,18 7,27 -6,10 -18,13 -27,7 -10,-6 -13,-18 -7,-27 6,-10 18,-13 27,-7z"/></g><text x="0" y="283" fill="#000000" font-size="5px" font-weight="bold" font-family="'Helvetica Neue', Helvetica, Arial-Unicode, Arial, Sans-serif">Created by kareemov</text><text x="0" y="288" fill="#000000" font-size="5px" font-weight="bold" font-family="'Helvetica Neue', Helvetica, Arial-Unicode, Arial, Sans-serif">from the Noun Project</text></svg>