<svg xmlns="http://www.w3.org/2000/svg" xmlns:xlink="http://www.w3.org/1999/xlink" version="1.1" x="0px" y="0px" viewBox="0 0 100 125" style="enable-background:new 0 0 100 100;" xml:space="preserve"><path d="M87.50484,18.50635H12.49508c-3.63525,0-6.59277,2.95752-6.59277,6.59277v49.80225  c0,3.63477,2.95752,6.59277,6.59277,6.59277h75.00977c3.63477,0,6.59277-2.95801,6.59277-6.59277V25.09912  C94.09762,21.46387,91.13961,18.50635,87.50484,18.50635z M91.51754,74.90137c0,2.21289-1.7998,4.0127-4.0127,4.0127H12.49508  c-2.21289,0-4.01367-1.7998-4.01367-4.0127V25.09912c0-2.21289,1.80078-4.01367,4.01367-4.01367h75.00977  c2.21289,0,4.0127,1.80078,4.0127,4.01367V74.90137z"/><path d="M24.52096,26.92334c0-0.63672-0.51611-1.15283-1.15283-1.15283h-7.90332c-0.63672,0-1.15283,0.51611-1.15283,1.15283  s0.51611,1.15283,1.15283,1.15283h7.90332C24.00484,28.07617,24.52096,27.56006,24.52096,26.92334z"/><rect x="73.10836" y="41.88184" width="2.3584" height="7.02832"/><rect x="62.69918" y="41.88184" width="2.3584" height="7.02832"/><path d="M69.08297,52.69043c-1.49609,0-2.71387,1.21777-2.71387,2.71387v2.71484h5.42773V55.4043  C71.79684,53.9082,70.57906,52.69043,69.08297,52.69043z"/><path d="M75.43356,34.46582h-12.7002c-5.10254,0-9.10059,6.82324-9.10059,15.53418c0,8.03711,4.02148,15.00293,8.96484,15.52637  l12.9043,0.00781l0.06738-0.00781C80.51266,65.00293,84.53414,58.03711,84.53414,50  C84.53414,41.28906,80.53609,34.46582,75.43356,34.46582z M75.35934,62.9541H62.80758  C59.67477,62.55762,56.21285,57.17578,56.21285,50c0-7.02246,2.98535-12.95508,6.52051-12.95508h12.7002  c3.53516,0,6.52051,5.93262,6.52051,12.95508C81.95406,57.17578,78.49215,62.55762,75.35934,62.9541z"/><rect x="34.94283" y="41.88184" width="2.35742" height="7.02832"/><rect x="24.53365" y="41.88184" width="2.35742" height="7.02832"/><path d="M30.91695,52.69043c-1.49609,0-2.71338,1.21777-2.71338,2.71387v2.71484h5.42676V55.4043  C33.63033,53.9082,32.41305,52.69043,30.91695,52.69043z"/><path d="M37.26705,34.46582h-12.7002c-5.10303,0-9.1001,6.82324-9.1001,15.53418c0,8.03711,4.02148,15.00293,8.96436,15.52637  l12.9043,0.00781l0.06738-0.00781C42.34566,65.00293,46.36715,58.03711,46.36715,50  C46.36715,41.28906,42.37008,34.46582,37.26705,34.46582z M37.19283,62.9541H24.64108  C21.50875,62.55762,18.04586,57.17578,18.04586,50c0-7.02246,2.98633-12.95508,6.521-12.95508h12.7002  c3.53467,0,6.521,5.93262,6.521,12.95508C43.78805,57.17578,40.32516,62.55762,37.19283,62.9541z"/><text x="0" y="115" fill="#000000" font-size="5px" font-weight="bold" font-family="'Helvetica Neue', Helvetica, Arial-Unicode, Arial, Sans-serif">Created by Lucas Helle</text><text x="0" y="120" fill="#000000" font-size="5px" font-weight="bold" font-family="'Helvetica Neue', Helvetica, Arial-Unicode, Arial, Sans-serif">from the Noun Project</text></svg>