<svg xmlns="http://www.w3.org/2000/svg" xmlns:xlink="http://www.w3.org/1999/xlink" version="1.1" x="0px" y="0px" viewBox="0 0 100 125" style="enable-background:new 0 0 100 100;" xml:space="preserve"><path d="M87.50484,18.50635H12.49508c-3.63525,0-6.59277,2.95752-6.59277,6.59277v49.80225  c0,3.63477,2.95752,6.59277,6.59277,6.59277h75.00977c3.63477,0,6.59277-2.95801,6.59277-6.59277V25.09912  C94.09762,21.46387,91.13961,18.50635,87.50484,18.50635z M91.51754,74.90137c0,2.21289-1.7998,4.0127-4.0127,4.0127H12.49508  c-2.21289,0-4.01367-1.7998-4.01367-4.0127V25.09912c0-2.21289,1.80078-4.01367,4.01367-4.01367h75.00977  c2.21289,0,4.0127,1.80078,4.0127,4.01367V74.90137z"/><path d="M24.52096,26.92334c0-0.63672-0.51611-1.15283-1.15283-1.15283h-7.90332c-0.63672,0-1.15283,0.51611-1.15283,1.15283  s0.51611,1.15283,1.15283,1.15283h7.90332C24.00484,28.07617,24.52096,27.56006,24.52096,26.92334z"/><path d="M57.23922,31.57861H42.76119c-0.96387,0-1.74756,0.78369-1.74756,1.74756v32.99121  c0,0.96387,0.78369,1.74805,1.74756,1.74805h14.47803c0.96387,0,1.74707-0.78418,1.74707-1.74805V33.32617  C58.98629,32.3623,58.20309,31.57861,57.23922,31.57861z M56.74606,65.8252H43.25387V33.81885h13.49219V65.8252z"/><path d="M50.00002,52.51636c1.48816,0,2.69452-1.20636,2.69452-2.69452s-1.20636-2.69458-2.69452-2.69458  s-2.69458,1.20642-2.69458,2.69458S48.51186,52.51636,50.00002,52.51636z"/><path d="M50.00002,63.66949c1.48816,0,2.69452-1.20642,2.69452-2.69458s-1.20636-2.69452-2.69452-2.69452  s-2.69458,1.20636-2.69458,2.69452S48.51186,63.66949,50.00002,63.66949z"/><path d="M50.00002,41.36328c1.48816,0,2.69452-1.20642,2.69452-2.69458s-1.20636-2.69452-2.69452-2.69452  s-2.69458,1.20636-2.69458,2.69452S48.51186,41.36328,50.00002,41.36328z"/><path d="M82.02047,31.57861H67.54195c-0.96387,0-1.74707,0.78369-1.74707,1.74756v32.99121  c0,0.96387,0.7832,1.74805,1.74707,1.74805h14.47852c0.96387,0,1.74707-0.78418,1.74707-1.74805V33.32617  C83.76754,32.3623,82.98434,31.57861,82.02047,31.57861z M81.52731,65.8252H68.03512V33.81885h13.49219V65.8252z"/><path d="M74.78109,52.51636c1.48816,0,2.69452-1.20636,2.69452-2.69452s-1.20636-2.69458-2.69452-2.69458  s-2.69458,1.20642-2.69458,2.69458S73.29293,52.51636,74.78109,52.51636z"/><path d="M74.78109,63.66949c1.48816,0,2.69452-1.20642,2.69452-2.69458s-1.20636-2.69452-2.69452-2.69452  s-2.69458,1.20636-2.69458,2.69452S73.29293,63.66949,74.78109,63.66949z"/><path d="M74.78109,41.36328c1.48816,0,2.69452-1.20642,2.69452-2.69458s-1.20636-2.69452-2.69452-2.69452  s-2.69458,1.20636-2.69458,2.69452S73.29293,41.36328,74.78109,41.36328z"/><path d="M32.45797,31.57861H17.97994c-0.96387,0-1.74756,0.78369-1.74756,1.74756v32.99121  c0,0.96387,0.78369,1.74805,1.74756,1.74805h14.47803c0.96338,0,1.74707-0.78418,1.74707-1.74805V33.32617  C34.20504,32.3623,33.42135,31.57861,32.45797,31.57861z M31.96481,65.8252H18.47262V33.81885h13.49219V65.8252z"/><path d="M25.21896,52.51636c1.48816,0,2.69452-1.20636,2.69452-2.69452s-1.20636-2.69458-2.69452-2.69458  s-2.69452,1.20642-2.69452,2.69458S23.7308,52.51636,25.21896,52.51636z"/><path d="M25.21896,63.66949c1.48816,0,2.69452-1.20642,2.69452-2.69458s-1.20636-2.69452-2.69452-2.69452  s-2.69452,1.20636-2.69452,2.69452S23.7308,63.66949,25.21896,63.66949z"/><path d="M25.21896,41.36328c1.48816,0,2.69452-1.20642,2.69452-2.69458s-1.20636-2.69452-2.69452-2.69452  s-2.69452,1.20636-2.69452,2.69452S23.7308,41.36328,25.21896,41.36328z"/><text x="0" y="115" fill="#000000" font-size="5px" font-weight="bold" font-family="'Helvetica Neue', Helvetica, Arial-Unicode, Arial, Sans-serif">Created by Lucas Helle</text><text x="0" y="120" fill="#000000" font-size="5px" font-weight="bold" font-family="'Helvetica Neue', Helvetica, Arial-Unicode, Arial, Sans-serif">from the Noun Project</text></svg>