<svg xmlns="http://www.w3.org/2000/svg" xmlns:xlink="http://www.w3.org/1999/xlink" version="1.1" x="0px" y="0px" viewBox="0 0 283.46457 354.3307125" style="enable-background:new 0 0 283.46457 283.46457;" xml:space="preserve"><g><path d="M139.68518,140.9548c-0.00195,0.36816-0.1665,36.93457,0,49.08398c0.20752,15.0625-3.29248,21.32715-9.40723,27.05762   c-5.61768,5.2627-22.32861,7.26172-31.54297,7.28516l0.01758,8.93945c2.79785-0.00488,27.62305-0.31934,37.63721-9.70117   c9.021-8.4541,12.45068-17.90332,12.23389-33.7041c-0.16602-12.06836-0.00195-48.55273,0-48.91992L139.68518,140.9548z"/><polygon points="78.20874,190.21793 45.57062,235.15451 64.1759,235.15451 56.64771,267.4841 89.28589,222.54758    70.68054,222.54758  "/><path d="M230.85211,50.68039h-26.88818v-4.06781c0-1.88483-1.52789-3.41272-3.41266-3.41272h-25.14618v-0.02783v-9.18781v-0.84094   c0-5.09723-4.17047-9.2677-9.2677-9.2677h-43.94745c-5.09723,0-9.2677,4.17047-9.2677,9.2677v94.98853   c0,5.09723,4.17047,9.2677,9.2677,9.2677h43.94745c5.09723,0,9.2677-4.17047,9.2677-9.2677V81.32285V71.01169v-0.42224h25.14618   c1.88477,0,3.41266-1.52789,3.41266-3.41272v-4.06781h26.88818c3.00427,0,5.44849-2.44421,5.44849-5.44855v-1.53149   C236.3006,53.1246,233.85638,50.68039,230.85211,50.68039z M129.05774,65.13693c0,1.95703-1.58643,3.54346-3.54346,3.54346   s-3.54346-1.58643-3.54346-3.54346V36.85324c0-1.95703,1.58643-3.54346,3.54346-3.54346s3.54346,1.58643,3.54346,3.54346V65.13693z    M233.44421,57.66037c0,1.43164-1.16052,2.59216-2.5921,2.59216h-26.88818v-6.71576h26.88818   c1.43158,0,2.5921,1.16052,2.5921,2.5921V57.66037z"/></g><text x="0" y="298.46457" fill="#000000" font-size="5px" font-weight="bold" font-family="'Helvetica Neue', Helvetica, Arial-Unicode, Arial, Sans-serif">Created by Lucas Helle</text><text x="0" y="303.46457" fill="#000000" font-size="5px" font-weight="bold" font-family="'Helvetica Neue', Helvetica, Arial-Unicode, Arial, Sans-serif">from the Noun Project</text></svg>