<svg xmlns="http://www.w3.org/2000/svg" xmlns:xlink="http://www.w3.org/1999/xlink" viewBox="0 0 60 63.75" version="1.1" x="0px" y="0px"><title>011 - Site Generator</title><desc>Created with Sketch.</desc><g stroke="none" stroke-width="1" fill="none" fill-rule="evenodd"><g fill="#000000" fill-rule="nonzero"><rect x="13" y="4" width="10" height="4"/><rect x="6" y="22" width="1" height="2"/><path d="M27,20 L9,20 L9,38 L27.00146,38 L27,20 Z M16,36 L12,36 C11.4477153,36 11,35.5522847 11,35 C11,34.4477153 11.4477153,34 12,34 L16,34 C16.5522847,34 17,34.4477153 17,35 C17,35.5522847 16.5522847,36 16,36 Z M16,33 L12,33 C11.4477153,33 11,32.5522847 11,32 C11,31.4477153 11.4477153,31 12,31 L16,31 C16.5522847,31 17,31.4477153 17,32 C17,32.5522847 16.5522847,33 16,33 Z M25,30 C25,30.5522847 24.5522847,31 24,31 C23.4477153,31 23,30.5522847 23,30 L23,28 C23,27.4477153 23.4477153,27 24,27 C24.5522847,27 25,27.4477153 25,28 L25,30 Z"/><rect x="6" y="34" width="1" height="2"/><rect x="2" y="5" width="9" height="2"/><path d="M51,44 L52.00146,44 L52,14 L2,14 L2,44 L51,44 Z M31,18 C31.0011025,16.8958875 31.8958875,16.0011025 33,16 L48,16 C49.1041125,16.0011025 49.9988975,16.8958875 50,18 L50,26 C49.9988975,27.1041125 49.1041125,27.9988975 48,28 L33,28 C31.8958875,27.9988975 31.0011025,27.1041125 31,26 L31,18 Z M31,32 C31.0011025,30.8958875 31.8958875,30.0011025 33,30 L48,30 C49.1041125,30.0011025 49.9988975,30.8958875 50,32 L50,40 C49.9988975,41.1041125 49.1041125,41.9988975 48,42 L33,42 C31.8958875,41.9988975 31.0011025,41.1041125 31,40 L31,32 Z M4,34 C4.00110246,32.8958875 4.89588748,32.0011025 6,32 L7,32 L7,26 L6,26 C4.89588748,25.9988975 4.00110246,25.1041125 4,24 L4,22 C4.00110246,20.8958875 4.89588748,20.0011025 6,20 L7,20 C7.00110246,18.8958875 7.89588748,18.0011025 9,18 L27,18 C28.1041125,18.0011025 28.9988975,18.8958875 29,20 L29,38 C28.9988975,39.1041125 28.1041125,39.9988975 27,40 L9,40 C7.89588748,39.9988975 7.00110246,39.1041125 7,38 L6,38 C4.89588748,37.9988975 4.00110246,37.1041125 4,36 L4,34 Z"/><rect x="33" y="18" width="15.00073" height="8"/><path d="M52,0 C48.1358047,0.0043371494 45.0043371,3.13580468 45,7 L45,8 L52,8 L52,0 Z"/><polygon points="57.78 0 54 0 54 8 56.18 8"/><rect x="45" y="10" width="7" height="2"/><path d="M48,32 L33,32 L33,40 L48.00146,40 L48,32 Z M42,36 L39,36 C38.4477153,36 38,35.5522847 38,35 C38,34.4477153 38.4477153,34 39,34 L42,34 C42.5522847,34 43,34.4477153 43,35 C43,35.5522847 42.5522847,36 42,36 Z"/><path d="M31,10 C30.9967599,7.23991948 28.7600805,5.00324014 26,5 L25,5 L25,12 L31,12 L31,10 Z"/><path d="M59,49 L50,49 L50,46 L4,46 L4,49 L1,49 C0.44771525,49 6.76353751e-17,49.4477153 0,50 C-6.76353751e-17,50.5522847 0.44771525,51 1,51 L59,51 C59.5522847,51 60,50.5522847 60,50 C60,49.4477153 59.5522847,49 59,49 Z"/></g></g><text x="0" y="66" fill="#000000" font-size="5px" font-weight="bold" font-family="'Helvetica Neue', Helvetica, Arial-Unicode, Arial, Sans-serif">Created by Ben Davis</text><text x="0" y="71" fill="#000000" font-size="5px" font-weight="bold" font-family="'Helvetica Neue', Helvetica, Arial-Unicode, Arial, Sans-serif">from the Noun Project</text></svg>