<svg id="Capa_1" enable-background="new 0 0 512 512" height="512" viewBox="0 0 512 512" width="512" xmlns="http://www.w3.org/2000/svg"><g><path d="m368.609 143.947c4.702-2.664 10.473-2.591 15.108.19l100 60c4.518 2.712 7.283 7.594 7.283 12.863v25l-35 15 35 15v30l-35 15 35 15v30l-35 15 35 15v30l-35 15 35 15v45h-130v-340c0-5.404 2.907-10.391 7.609-13.053z" fill="#c6bcb7"/><path d="m436 257c0-8.284 6.716-15 15-15h40v30h-40c-8.284 0-15-6.716-15-15z" fill="#b4a29d"/><path d="m451 302h40v30h-40c-8.284 0-15-6.716-15-15s6.716-15 15-15z" fill="#b4a29d"/><path d="m451 362h40v30h-40c-8.284 0-15-6.716-15-15s6.716-15 15-15z" fill="#b4a29d"/><path d="m451 422h40v30h-40c-8.284 0-15-6.716-15-15s6.716-15 15-15z" fill="#b4a29d"/><path d="m346 92h-180c-8.284 0-15-6.716-15-15v-62c0-8.284 6.716-15 15-15h180c8.284 0 15 6.716 15 15v62c0 8.284-6.716 15-15 15z" fill="#e9dfda"/><path d="m346 0h-90v92h90c8.284 0 15-6.716 15-15v-62c0-8.284-6.716-15-15-15z" fill="#c6bcb7"/><path d="m143.391 143.947c-4.702-2.664-10.473-2.591-15.108.19l-100 60c-4.518 2.712-7.283 7.594-7.283 12.863v25l35 15-35 15v30l35 15-35 15v30l35 15-35 15v30l35 15-35 15v45h130v-340c0-5.404-2.907-10.391-7.609-13.053z" fill="#e9dfda"/><g fill="#c6bcb7"><path d="m76 257c0-8.284-6.716-15-15-15h-40v30h40c8.284 0 15-6.716 15-15z"/><path d="m61 302h-40v30h40c8.284 0 15-6.716 15-15s-6.716-15-15-15z"/><path d="m61 362h-40v30h40c8.284 0 15-6.716 15-15s-6.716-15-15-15z"/><path d="m61 422h-40v30h40c8.284 0 15-6.716 15-15s-6.716-15-15-15z"/></g><path d="m391 497h-270v-420c0-8.284 6.716-15 15-15h240c8.284 0 15 6.716 15 15z" fill="#f3eee9"/><path d="m391 77c0-8.284-6.716-15-15-15h-120v435h135z" fill="#e9dfda"/><path d="m326 452c-8.284 0-15-6.716-15-15v-300c0-8.284 6.716-15 15-15s15 6.716 15 15v300c0 8.284-6.716 15-15 15z" fill="#b4a29d"/><path d="m186 452c-8.284 0-15-6.716-15-15v-300c0-8.284 6.716-15 15-15s15 6.716 15 15v300c0 8.284-6.716 15-15 15z" fill="#c6bcb7"/><path d="m256 452c-8.284 0-15-6.716-15-15v-300c0-8.284 6.716-15 15-15s15 6.716 15 15v300c0 8.284-6.716 15-15 15z" fill="#c6bcb7"/><path d="m497 512h-482c-8.284 0-15-6.716-15-15s6.716-15 15-15h482c8.284 0 15 6.716 15 15s-6.716 15-15 15z" fill="#8be152"/><path d="m497 482h-241v30h241c8.284 0 15-6.716 15-15s-6.716-15-15-15z" fill="#4ecb35"/><path d="m256 122v330c8.284 0 15-6.716 15-15v-300c0-8.284-6.716-15-15-15z" fill="#b4a29d"/></g></svg>