<svg height="512pt" viewBox="-2 0 512 512" width="512pt" xmlns="http://www.w3.org/2000/svg"><path d="m276.042969 512h-232.089844c-5.394531 0-9.773437-4.375-9.773437-9.773438v-380.117187c0-5.398437 4.378906-9.773437 9.773437-9.773437h232.089844zm0 0" fill="#c0dbff"/><path d="m80.207031 511.996094h-36.320312c-5.355469 0-9.703125-4.339844-9.703125-9.703125v-380.253907c0-5.355468 4.347656-9.703124 9.703125-9.703124h36.320312c-5.355469 0-9.703125 4.347656-9.703125 9.703124v380.253907c0 5.363281 4.347656 9.703125 9.703125 9.703125zm0 0" fill="#a0cafe"/><path d="m498.121094 512h-225.449219v-501.621094c0-5.734375 4.644531-10.378906 10.378906-10.378906h215.066407c5.734374 0 10.378906 4.644531 10.378906 10.378906v491.242188c0 5.734375-4.644532 10.378906-10.375 10.378906zm0 0" fill="#a0cafe"/><path d="m338.652344 325.074219h-30.441406c-2.863282 0-5.1875-2.324219-5.1875-5.1875v-283.542969c0-2.867188 2.324218-5.1875 5.1875-5.1875h30.441406c2.863281 0 5.1875 2.320312 5.1875 5.1875v283.542969c0 2.863281-2.324219 5.1875-5.1875 5.1875zm0 0" fill="#fff5f4"/><path d="m405.804688 325.074219h-30.441407c-2.863281 0-5.1875-2.324219-5.1875-5.1875v-283.542969c0-2.867188 2.324219-5.1875 5.1875-5.1875h30.441407c2.867187 0 5.1875 2.320312 5.1875 5.1875v283.542969c0 2.863281-2.320313 5.1875-5.1875 5.1875zm0 0" fill="#fff5f4"/><path d="m472.957031 325.074219h-30.441406c-2.863281 0-5.1875-2.324219-5.1875-5.1875v-283.542969c0-2.867188 2.324219-5.1875 5.1875-5.1875h30.441406c2.867188 0 5.191407 2.320312 5.191407 5.1875v283.542969c0 2.863281-2.324219 5.1875-5.191407 5.1875zm0 0" fill="#fff5f4"/><g fill="#81b8fd"><path d="m478.144531 364.167969v147.828125h-175.121093v-147.828125c0-2.863281 2.324218-5.1875 5.1875-5.1875h164.742187c2.875 0 5.191406 2.324219 5.191406 5.1875zm0 0"/><path d="m202.339844 223.90625v-70.402344c0-1.527344 1.246094-2.769531 2.78125-2.769531h34.878906c1.535156 0 2.769531 1.242187 2.769531 2.769531v70.402344c0 1.523438-1.234375 2.769531-2.769531 2.769531h-34.878906c-1.535156 0-2.78125-1.246093-2.78125-2.769531zm0 0"/><path d="m133.203125 223.90625v-70.402344c0-1.527344 1.246094-2.769531 2.78125-2.769531h34.878906c1.539063 0 2.773438 1.242187 2.773438 2.769531v70.402344c0 1.523438-1.234375 2.769531-2.773438 2.769531h-34.878906c-1.535156 0-2.78125-1.246093-2.78125-2.769531zm0 0"/><path d="m64.082031 223.90625v-70.402344c0-1.527344 1.234375-2.769531 2.769531-2.769531h34.878907c1.535156 0 2.769531 1.242187 2.769531 2.769531v70.402344c0 1.523438-1.234375 2.769531-2.769531 2.769531h-34.878907c-1.535156 0-2.769531-1.246093-2.769531-2.769531zm0 0"/></g><path d="m182.605469 250.558594h-92.542969c-17.507812 0-31.746094 14.242187-31.746094 31.746094v33.050781c0 4.296875 3.484375 7.785156 7.78125 7.785156 4.300782 0 7.785156-3.488281 7.785156-7.785156v-33.050781c0-8.921876 7.257813-16.179688 16.179688-16.179688h92.542969c8.921875 0 16.175781 7.257812 16.175781 16.179688v33.050781c0 4.296875 3.484375 7.785156 7.785156 7.785156 4.300782 0 7.78125-3.488281 7.78125-7.785156v-33.050781c0-17.503907-14.238281-31.746094-31.742187-31.746094zm0 0" fill="#c9885b"/><path d="m272.671875 316.589844v157.636718c0 3.648438-.53125 7.167969-1.511719 10.488282-4.519531 15.242187-18.636718 26.371094-35.347656 26.371094h-198.953125c-20.359375 0-36.859375-16.507813-36.859375-36.859376v-157.636718c0-6.769532 5.484375-12.257813 12.253906-12.257813h248.164063c6.769531 0 12.253906 5.488281 12.253906 12.257813zm0 0" fill="#daae91"/><path d="m272.671875 316.589844v35.640625c0 9.792969-2.710937 18.953125-7.421875 26.773437-9.089844 15.066406-25.613281 25.144532-44.496094 25.144532h-168.835937c-28.675781 0-51.917969-23.242188-51.917969-51.917969v-35.640625c0-6.769532 5.484375-12.257813 12.253906-12.257813h248.164063c6.769531 0 12.253906 5.488281 12.253906 12.257813zm0 0" fill="#d19a75"/><path d="m271.164062 484.714844c-4.523437 15.238281-18.636718 26.367187-35.355468 26.367187h-198.949219c-20.363281 0-36.859375-16.5-36.859375-36.859375v-157.632812c0-6.773438 5.492188-12.253906 12.253906-12.253906h12.582032v145.035156c0 20.351562 16.5 36.859375 36.859374 36.859375h198.953126c3.65625.003906 7.191406-.523438 10.515624-1.515625zm0 0" fill="#d19a75"/><path d="m265.246094 379.007812c-9.085938 15.066407-25.609375 25.144532-44.488282 25.144532h-168.832031c-28.679687 0-51.925781-23.25-51.925781-51.925782v-35.636718c0-6.773438 5.492188-12.253906 12.253906-12.253906h12.582032v26.597656c0 28.679687 23.25 51.925781 51.925781 51.925781h168.832031c6.957031.003906 13.597656-1.367187 19.652344-3.851563zm0 0" fill="#c9885b"/><path d="m202.339844 223.90625v-32.429688c0-1.527343 1.246094-2.773437 2.78125-2.773437h34.878906c1.535156 0 2.769531 1.246094 2.769531 2.773437v32.429688c0 1.523438-1.234375 2.769531-2.769531 2.769531h-34.878906c-1.535156 0-2.78125-1.246093-2.78125-2.769531zm0 0" fill="#62a6fd"/><path d="m133.203125 223.90625v-32.429688c0-1.527343 1.246094-2.773437 2.78125-2.773437h34.878906c1.539063 0 2.773438 1.246094 2.773438 2.773437v32.429688c0 1.523438-1.234375 2.769531-2.773438 2.769531h-34.878906c-1.535156 0-2.78125-1.246093-2.78125-2.769531zm0 0" fill="#62a6fd"/><path d="m64.082031 223.90625v-32.429688c0-1.527343 1.234375-2.773437 2.769531-2.773437h34.878907c1.535156 0 2.769531 1.246094 2.769531 2.773437v32.429688c0 1.523438-1.234375 2.769531-2.769531 2.769531h-34.878907c-1.535156 0-2.769531-1.246093-2.769531-2.769531zm0 0" fill="#62a6fd"/><path d="m328.625 325.074219h-20.414062c-2.863282 0-5.1875-2.324219-5.1875-5.1875v-283.542969c0-2.867188 2.324218-5.191406 5.1875-5.191406h20.414062c-2.867188 0-5.191406 2.324218-5.191406 5.191406v283.542969c0 2.863281 2.324218 5.1875 5.191406 5.1875zm0 0" fill="#ebe0da"/><path d="m395.777344 325.074219h-20.414063c-2.863281 0-5.1875-2.324219-5.1875-5.1875v-283.542969c0-2.867188 2.324219-5.191406 5.1875-5.191406h20.414063c-2.863282 0-5.1875 2.324218-5.1875 5.191406v283.542969c0 2.863281 2.320312 5.1875 5.1875 5.1875zm0 0" fill="#ebe0da"/><path d="m462.929688 325.074219h-20.414063c-2.863281 0-5.1875-2.324219-5.1875-5.1875v-283.542969c0-2.867188 2.324219-5.191406 5.1875-5.191406h20.414063c-2.863282 0-5.1875 2.324218-5.1875 5.191406v283.542969c0 2.863281 2.324218 5.1875 5.1875 5.1875zm0 0" fill="#ebe0da"/><path d="m344.53125 358.980469c-2.863281 0-5.1875 2.324219-5.1875 5.1875v147.828125h-36.320312v-147.828125c0-2.863281 2.324218-5.1875 5.1875-5.1875zm0 0" fill="#62a6fd"/><path d="m478.144531 364.167969v32.855469h-175.121093v-32.855469c0-2.863281 2.324218-5.1875 5.1875-5.1875h164.742187c2.875 0 5.191406 2.324219 5.191406 5.1875zm0 0" fill="#62a6fd"/><path d="m344.53125 358.980469c-2.863281 0-5.1875 2.324219-5.1875 5.1875v32.855469h-36.320312v-32.855469c0-2.863281 2.324218-5.1875 5.1875-5.1875zm0 0" fill="#4394fb"/><path d="m382.804688 358.980469h15.566406v153.015625h-15.566406zm0 0" fill="#4394fb"/><path d="m221.945312 429.726562h-15.988281c-3.339843 0-6.050781-2.710937-6.050781-6.050781v-39.4375c0-3.34375 2.710938-6.050781 6.050781-6.050781h15.988281c3.339844 0 6.046876 2.707031 6.046876 6.050781v39.4375c0 3.339844-2.707032 6.050781-6.046876 6.050781zm0 0" fill="#9b5e34"/><path d="m227.992188 384.238281v19.40625c-2.359376.332031-4.78125.503907-7.238282.503907h-20.851562v-19.910157c0-3.339843 2.714844-6.054687 6.054687-6.054687h15.984375c3.347656 0 6.050782 2.714844 6.050782 6.054687zm0 0" fill="#b56d3c"/><path d="m66.769531 429.726562h-15.984375c-3.34375 0-6.050781-2.710937-6.050781-6.050781v-39.4375c0-3.34375 2.707031-6.050781 6.050781-6.050781h15.984375c3.34375 0 6.050781 2.707031 6.050781 6.050781v39.4375c0 3.339844-2.707031 6.050781-6.050781 6.050781zm0 0" fill="#9b5e34"/><path d="m72.820312 384.238281v19.40625c-2.359374.332031-4.78125.503907-7.238281.503907h-20.851562v-19.910157c0-3.339843 2.714843-6.054687 6.054687-6.054687h15.980469c3.351563 0 6.054687 2.714844 6.054687 6.054687zm0 0" fill="#b56d3c"/></svg>