<svg id="Capa_1" enable-background="new 0 0 512 512" height="512" viewBox="0 0 512 512" width="512" xmlns="http://www.w3.org/2000/svg"><g><path d="m348.83 458.487-95.554-14.229-90.107 14.229-17.886 49.392c-.726 2.004.759 4.121 2.891 4.121h215.653c2.132 0 3.616-2.117 2.891-4.121z" fill="#698ed5"/><path d="m207.393 485.243c0 4.267-3.459 7.726-7.726 7.726s-7.726-3.459-7.726-7.726 3.459-7.726 7.726-7.726 7.726 3.459 7.726 7.726zm48.607-7.726c-4.267 0-7.726 3.459-7.726 7.726s3.459 7.726 7.726 7.726 7.726-3.459 7.726-7.726-3.459-7.726-7.726-7.726zm56.333 0c-4.267 0-7.726 3.459-7.726 7.726s3.459 7.726 7.726 7.726 7.726-3.459 7.726-7.726c.001-4.267-3.458-7.726-7.726-7.726z" fill="#4073c8"/><path d="m242.457 56.789h27.086v45.184h-27.086z" fill="#d0e2e7"/><path d="m289.208 119.587-33.208 13.842-33.208-13.842 11.45-24.079c.877-1.845 2.738-3.02 4.781-3.02h33.954c2.043 0 3.904 1.176 4.781 3.02z" fill="#9dc6fb"/><path d="m279.058 64.515h-46.117c-4.268 0-7.726-3.459-7.726-7.726s3.459-7.726 7.726-7.726h46.117c4.268 0 7.726 3.459 7.726 7.726s-3.458 7.726-7.726 7.726z" fill="#f1f4f6"/><path d="m202.662 130.406-33.489-10.819 5.19-90.515 28.299-10.819z" fill="#4073c8"/><path d="m309.338 130.406 33.489-10.819-5.19-90.515-28.299-10.819z" fill="#4073c8"/><path d="m337.637 0h-163.274c-8.028 0-14.536 6.508-14.536 14.536 0 8.028 6.508 14.536 14.536 14.536h163.275c8.028 0 14.536-6.508 14.536-14.536-.001-8.028-6.509-14.536-14.537-14.536z" fill="#698ed5"/><path d="m121.783 411.475c0 26.172 21.217 47.389 47.389 47.389h173.654c26.172 0 47.389-21.217 47.389-47.389v-39.523l-268.433-10.457v49.98z" fill="#698ed5"/><path d="m349.009 358.985v31.886c0 26.172-21.217 47.389-47.389 47.389h-171.545c8.541 12.442 22.866 20.604 39.098 20.604h173.654c26.172 0 47.389-21.217 47.389-47.389v-39.523z" fill="#4073c8"/><path d="m390.217 166.977c0-26.173-21.217-47.39-47.389-47.39h-173.655c-26.172 0-47.389 21.217-47.389 47.39v194.518l268.433-15.475z" fill="#698ed5"/><path d="m342.827 119.587h-2.11c5.231 7.62 8.292 16.845 8.292 26.786v150.298c0 15.875-12.869 28.744-28.744 28.744h-198.482v33.57l268.433-12.967v-179.041c.001-26.173-21.216-47.39-47.389-47.39z" fill="#4073c8"/><path d="m294.132 195.864c21.17 21.17 21.526 55.136.796 75.866s-54.697 20.374-75.866-.796-45.087-88.844-29.431-104.501 83.331 8.261 104.501 29.431z" fill="#80cb8e"/><path d="m294.132 195.864c-9.582-9.581-28.69-19.726-48.19-26.509 2.673 1.97 5.026 3.949 6.982 5.905 21.17 21.17 21.526 55.136.796 75.866-10.591 10.591-24.637 15.677-38.667 15.297 1.34 1.671 2.679 3.182 4.008 4.511 21.17 21.17 55.136 21.526 75.866.796s20.374-54.696-.795-75.866z" fill="#66b49d"/><path d="m308.433 430.488h-104.866c-2.707 0-4.901-2.194-4.901-4.901v-20.358c0-2.707 2.194-4.901 4.901-4.901h104.865c2.707 0 4.901 2.194 4.901 4.901v20.358c.001 2.707-2.193 4.901-4.9 4.901z" fill="#f1f4f6"/><g><path d="m332.873 298.749-40.976-40.976v-42.954c0-4.268-3.459-7.726-7.726-7.726s-7.726 3.459-7.726 7.726v27.501l-13.275-13.275v-23.422c0-4.268-3.459-7.726-7.726-7.726s-7.726 3.459-7.726 7.726v7.969l-29.405-29.405c-3.018-3.016-7.909-3.016-10.928 0-3.017 3.018-3.017 7.909 0 10.928l18.868 18.868h-6.876c-4.268 0-7.726 3.459-7.726 7.726s3.459 7.726 7.726 7.726h22.329l12.166 12.166h-15.847c-4.268 0-7.726 3.459-7.726 7.726s3.459 7.726 7.726 7.726h31.3l52.622 52.622c1.509 1.508 3.487 2.263 5.464 2.263s3.955-.755 5.464-2.263c3.015-3.017 3.015-7.908-.002-10.926z" fill="#e2f4b4"/></g><path d="m390.217 371.952h-268.434c-5.251 0-9.509-4.257-9.509-9.509v-6.916c0-5.251 4.257-9.509 9.509-9.509h268.433c5.251 0 9.509 4.257 9.509 9.509v6.916c0 5.251-4.257 9.509-9.508 9.509z" fill="#9dc6fb"/><path d="m366.717 507.879-17.887-49.392-12.182-5.802-21.427 6.179 4.507 12.446c3.538 9.769-3.698 20.086-14.089 20.086h-154.387l-5.969 16.482c-.726 2.005.759 4.121 2.891 4.121h215.653c2.131.001 3.616-2.116 2.89-4.12z" fill="#4073c8"/><g fill="#3b66c1"><path d="m312.333 492.97c4.267 0 7.726-3.459 7.726-7.726 0-1.068-.217-2.086-.609-3.011-2.012 4.743-6.421 8.372-11.937 9.049 1.323 1.056 2.998 1.688 4.82 1.688z"/><path d="m199.667 492.97c1.756 0 3.375-.586 4.673-1.573h-9.346c1.297.987 2.916 1.573 4.673 1.573z"/><path d="m251.327 491.396c1.298.987 2.917 1.573 4.673 1.573s3.375-.586 4.673-1.573z"/></g></g></svg>