<svg id="Capa_1" enable-background="new 0 0 512 512" height="512" viewBox="0 0 512 512" width="512" xmlns="http://www.w3.org/2000/svg"><g><g clip-rule="evenodd" fill-rule="evenodd"><path d="m188.041 190.236h-72.367-.085c-58.081 0-105.589 47.509-105.589 105.591s47.508 105.62 105.589 105.62h64.685 53.63v-211.211z" fill="#d8e4e4"/><path d="m188.041 166.566c0-13.011-10.658-23.641-23.669-23.641h-25.029c-13.011 0-23.669 10.63-23.669 23.641v23.669h72.367z" fill="#b4cbce"/><path d="m270.556 168.494h-27.637c-4.961 0-9.014 4.054-9.014 9.014v12.728 211.211 12.728c0 4.961 4.053 9.014 9.014 9.014h27.637c4.961 0 9.014-4.054 9.014-9.014v-12.728-211.211-12.728c0-4.961-4.054-9.014-9.014-9.014z" fill="#ffd88e"/><path d="m429.633 190.236h-41.612-69.646-38.805v211.211h150.063v-51.506-108.199z" fill="#d8e4e4"/><path d="m388.021 137.596h-12.5-44.645-12.501v52.64h69.646z" fill="#ffd88e"/><path d="m429.633 241.742h72.367v108.199h-72.367z" fill="#ffd88e"/><path d="m502 47.794h-116.36c-28.573 0-54.764 13.606-54.764 51.307v38.495h44.645v-33.846c-.198-10.715 2.466-14.939 14.91-14.939l111.569-.141z" fill="#cbf4fb"/><path d="m115.589 401.447h64.685v62.76h-64.685z" fill="#b4cbce"/></g><g><path d="m390.443 98.812 111.569-.142c5.518-.007 9.987-4.482 9.987-10v-40.876c0-5.522-4.478-10-10-10h-116.359c-17.826 0-33.163 4.742-44.353 13.714-9.312 7.467-20.411 21.785-20.411 47.594v28.494h-2.501c-5.522 0-10 4.478-10 10v42.64h-18.806v-2.728c0-10.484-8.529-19.014-19.014-19.014h-27.637c-10.484 0-19.014 8.529-19.014 19.014v2.728h-25.864v-13.669c0-18.55-15.104-33.642-33.668-33.642h-25.03c-18.565 0-33.669 15.092-33.669 33.642v14.099c-59.111 5.046-105.673 54.764-105.673 115.161 0 60.383 46.518 110.095 105.588 115.183v43.196h-95.588c-5.523 0-10 4.478-10 10s4.477 10 10 10h105.588 64.686 321.726c5.522 0 10-4.478 10-10s-4.478-10-10-10h-311.726v-42.759h33.63v2.728c0 10.484 8.53 19.014 19.014 19.014h27.637c10.484 0 19.014-8.529 19.014-19.014v-2.728h140.063c5.522 0 10-4.478 10-10v-41.507h62.368c5.522 0 10-4.478 10-10v-108.199c0-5.522-4.478-10-10-10h-62.367v-41.506c0-5.522-4.478-10-10-10h-31.611v-42.64c0-5.522-4.478-10-10-10h-2.501v-23.845c0-.062-.001-.123-.002-.185-.044-2.378.102-3.686.229-4.358.705-.172 2.12-.395 4.695-.395zm-264.77 67.754c0-7.522 6.132-13.642 13.669-13.642h25.03c7.537 0 13.668 6.119 13.668 13.642v13.669h-52.367zm44.601 287.64h-44.686v-42.759h44.686zm-54.686-62.759c-52.708 0-95.588-42.895-95.588-95.62 0-52.71 42.881-95.592 95.588-95.592h.085 72.367 35.864v191.212zm376.412-139.706v88.199h-52.367v-88.199zm-72.367 98.199v41.507h-130.064v-50.747c0-5.522-4.478-10-10-10s-10 4.478-10 10v72.488h-25.665v-11.741-211.212-11.741h25.665v72.403c0 5.522 4.478 10 10 10s10-4.478 10-10v-50.662h130.063v149.705zm-91.258-169.705v-32.64h2.501 44.645 2.501v32.64zm42.902-95.166c-5.253 5.351-5.866 12.481-5.757 18.77v23.757h-24.645v-28.494c0-34.142 24.343-41.308 44.764-41.308h106.361v20.889l-101.569.129c-6.058 0-13.709.71-19.154 6.257z"/><path d="m188.607 285.827h-26.305c-5.523 0-10 4.478-10 10s4.477 10 10 10h26.305c5.523 0 10-4.478 10-10s-4.477-10-10-10z"/><path d="m188.607 235.852h-26.305c-5.523 0-10 4.478-10 10s4.477 10 10 10h26.305c5.523 0 10-4.478 10-10s-4.477-10-10-10z"/><path d="m188.607 335.831h-26.305c-5.523 0-10 4.478-10 10s4.477 10 10 10h26.305c5.523 0 10-4.478 10-10s-4.477-10-10-10z"/><path d="m279.569 285.799c-5.522 0-10 4.478-10 10v.028c0 5.522 4.478 9.986 10 9.986s10-4.492 10-10.015-4.477-9.999-10-9.999z"/></g></g></svg>