<svg id="Capa_1" enable-background="new 0 0 512 512" height="512" viewBox="0 0 512 512" width="512" xmlns="http://www.w3.org/2000/svg"><g><g><path clip-rule="evenodd" d="m91.485 458.121v29.423c0 7.937 6.491 14.456 14.428 14.456h63.351c7.965 0 14.456-6.52 14.456-14.456v-29.423z" fill="#ffda8f" fill-rule="evenodd"/></g><g><path clip-rule="evenodd" d="m69.29 32.195v96.858 210.015 96.886c0 12.189 9.977 22.167 22.194 22.167h92.235 144.56 92.235c12.217 0 22.194-9.978 22.194-22.167v-403.759c0-12.217-9.977-22.195-22.194-22.195h-329.029c-12.217 0-22.195 9.978-22.195 22.195zm63.578 318.891v-62.928-58.449-58.449-62.928-53.971h261.654v116.899 116.899 116.899h-44.247-42.433-42.432-42.461-42.433-47.648z" fill="#9da5be" fill-rule="evenodd"/></g><g><path clip-rule="evenodd" d="m132.868 108.332v62.928h45.947v-51.675c0-11.65 9.552-21.203 21.202-21.203 11.678 0 21.231 9.553 21.231 21.203h42.433 42.461 42.433v51.675h45.947v-116.899h-261.654z" fill="#bedaff" fill-rule="evenodd"/></g><g><path clip-rule="evenodd" d="m178.816 119.585v51.675h42.433v-51.675c0-11.65-9.552-21.203-21.231-21.203-11.65.001-21.202 9.553-21.202 21.203z" fill="#e7e9ef" fill-rule="evenodd"/></g><g><path clip-rule="evenodd" d="m263.681 119.585h42.461v51.675h-42.461z" fill="#b7eabc" fill-rule="evenodd"/></g><g><path clip-rule="evenodd" d="m221.249 119.585h42.433v51.675h-42.433z" fill="#b7eabc" fill-rule="evenodd"/></g><g><path clip-rule="evenodd" d="m306.142 119.585h42.433v51.675h-42.433z" fill="#b7eabc" fill-rule="evenodd"/></g><g><path clip-rule="evenodd" d="m306.142 236.484v51.675h42.433v-51.675c0-11.679-9.552-21.231-21.202-21.231-11.678 0-21.231 9.552-21.231 21.231z" fill="#ffda8f" fill-rule="evenodd"/></g><g><path clip-rule="evenodd" d="m263.681 236.484h42.461v51.675h-42.461z" fill="#b7eabc" fill-rule="evenodd"/></g><g><path clip-rule="evenodd" d="m221.249 236.484v51.675h42.433v-51.675h42.461c0-11.679 9.552-21.231 21.231-21.231 11.65 0 21.202 9.553 21.202 21.231v51.675h45.947v-116.899h-45.947-42.433-42.461-42.433-42.433-45.947v58.449 58.449h45.947v-51.675c0-11.679 9.552-21.231 21.202-21.231 11.678.001 21.231 9.553 21.231 21.232z" fill="#bedaff" fill-rule="evenodd"/></g><g><path clip-rule="evenodd" d="m178.816 236.484v51.675h42.433v-51.675c0-11.679-9.552-21.231-21.231-21.231-11.65 0-21.202 9.552-21.202 21.231z" fill="#ffda8f" fill-rule="evenodd"/></g><g><path clip-rule="evenodd" d="m132.868 288.158v62.928 53.971h47.648v-51.675c0-11.678 9.552-21.231 21.231-21.231 11.65 0 21.202 9.553 21.202 21.231 0-11.678 9.552-21.231 21.23-21.231s21.231 9.553 21.231 21.231v51.675h42.433v-51.675c0-11.678 9.552-21.231 21.231-21.231s21.202 9.553 21.202 21.231v51.675h44.247v-116.899h-45.947-42.433-42.461-42.433-42.433z" fill="#bedaff" fill-rule="evenodd"/></g><g><path clip-rule="evenodd" d="m201.747 332.151c-11.678 0-21.231 9.553-21.231 21.231v51.675h42.433v-51.675c0-11.678-9.552-21.231-21.202-21.231z" fill="#ffda8f" fill-rule="evenodd"/></g><g><path clip-rule="evenodd" d="m222.949 353.382v51.675h42.461v-51.675c0-11.678-9.552-21.231-21.231-21.231-11.677 0-21.23 9.553-21.23 21.231z" fill="#b7eabc" fill-rule="evenodd"/></g><g><path clip-rule="evenodd" d="m307.843 353.382v51.675h42.433v-51.675c0-11.678-9.524-21.231-21.202-21.231s-21.231 9.553-21.231 21.231z" fill="#ffda8f" fill-rule="evenodd"/></g><g><path clip-rule="evenodd" d="m328.28 458.121v29.423c0 7.937 6.491 14.456 14.428 14.456h63.38c7.937 0 14.428-6.52 14.428-14.456v-29.423z" fill="#ffda8f" fill-rule="evenodd"/></g><g><path d="m420.515 0h-329.03c-17.752 0-32.195 14.442-32.195 32.195v403.759c0 14.249 9.324 26.357 22.194 30.57v21.019c0 13.485 10.958 24.457 24.428 24.457h63.351c13.485 0 24.456-10.971 24.456-24.457v-19.423h124.561v19.423c0 13.485 10.958 24.457 24.428 24.457h63.38c13.47 0 24.428-10.971 24.428-24.457v-21.019c12.87-4.213 22.194-16.321 22.194-30.57v-403.759c0-17.753-14.443-32.195-32.195-32.195zm-341.225 118.332h43.578v227.233h-43.578zm94.429 369.211c0 2.416-2.041 4.457-4.456 4.457h-63.351c-2.4 0-4.428-2.041-4.428-4.457v-19.423h72.235zm232.369 4.457h-63.38c-2.4 0-4.428-2.041-4.428-4.457v-19.423h72.235v19.423c0 2.416-2.027 4.457-4.427 4.457zm26.622-56.046c0 6.708-5.471 12.167-12.194 12.167h-329.031c-6.724 0-12.194-5.458-12.194-12.167v-70.389h43.578v39.492c0 5.523 4.477 10 10 10h261.654c5.522 0 10-4.477 10-10v-350.696c0-5.523-4.478-10-10-10h-85.971c-5.522 0-10 4.477-10 10s4.478 10 10 10h75.971v96.898h-25.947v-41.674c0-5.523-4.478-10-10-10h-42.433-42.461-34.087c-4.182-12.314-15.856-21.203-29.576-21.203-17.205 0-31.202 13.998-31.202 31.203v41.674h-25.948v-96.898h75.886c5.523 0 10-4.477 10-10s-4.477-10-10-10h-85.886c-5.523 0-10 4.477-10 10v43.971h-43.579v-66.137c0-6.724 5.47-12.195 12.195-12.195h329.031c6.724 0 12.194 5.471 12.194 12.195zm-48.188-254.694v96.898h-25.947v-41.674c0-17.221-13.997-31.231-31.202-31.231-13.724 0-25.399 8.902-29.579 21.231h-34.113c-5.522 0-10 4.477-10 10v41.674h-22.433v-41.674c0-17.221-14.01-31.231-31.23-31.231-17.205 0-31.202 14.01-31.202 31.231v41.674h-25.948v-96.898zm-195.706-20v-41.674c0-6.177 5.025-11.203 11.202-11.203 6.192 0 11.23 5.026 11.23 11.203v41.674zm42.433 0v-31.674h22.433v31.674zm42.432 0v-31.674h22.461v31.674zm42.461 0v-31.674h22.433v31.674zm22.433 75.224v41.674h-22.433v-41.674c0-6.193 5.038-11.231 11.23-11.231 6.178 0 11.203 5.038 11.203 11.231zm-42.433 10v31.674h-22.461v-31.674zm-84.893-10v41.674h-22.433v-41.674c0-6.193 5.025-11.231 11.202-11.231 6.193 0 11.231 5.038 11.231 11.231zm173.273 61.674v96.899h-24.246v-41.675c0-17.221-13.997-31.231-31.202-31.231-17.221 0-31.23 14.01-31.23 31.231v41.675h-22.434v-41.675c0-17.221-14.01-31.231-31.23-31.231-8.19 0-15.65 3.174-21.226 8.35-5.571-5.176-13.024-8.35-21.207-8.35-17.221 0-31.23 14.01-31.23 31.231v41.675h-27.648v-96.899zm-44.246 55.224v41.675h-22.433v-41.675c0-6.193 5.038-11.231 11.23-11.231 6.178 0 11.203 5.038 11.203 11.231zm-84.866 0v41.675h-22.46v-41.675c0-6.193 5.038-11.231 11.23-11.231s11.23 5.038 11.23 11.231zm-42.461 0v41.675h-22.433v-41.675c0-6.193 5.038-11.231 11.23-11.231 6.178 0 11.203 5.038 11.203 11.231z"/><path d="m263.653 44.361c-5.522 0-10 4.477-10 10s4.478 10 10 10h.028c5.522 0 9.985-4.477 9.985-10s-4.49-10-10.013-10z"/></g></g></svg>