<svg height="512" viewBox="0 0 64 64" width="512" xmlns="http://www.w3.org/2000/svg"><g id="Security"><rect fill="#6d6e71" height="54" rx="4" width="36" x="3" y="3"/><path d="m35 57h-28a4 4 0 0 1 -4-4v4a4 4 0 0 0 4 4h28a4 4 0 0 0 4-4v-3c-.047 0-.093 0-.14 0a3.992 3.992 0 0 1 -3.86 3z" fill="#58595b"/><path d="m36 8a2.006 2.006 0 0 0 -2-2h-5.08a1.978 1.978 0 0 0 -1.92 2.041 2 2 0 0 1 -2 1.959h-8.079a1.978 1.978 0 0 1 -1.921-2.041 2 2 0 0 0 -2-1.959h-5a2.006 2.006 0 0 0 -2 2v41a2.006 2.006 0 0 0 2 2h26a2 2 0 0 0 2-2z" fill="#ffcd00"/><path d="m36 8a2.006 2.006 0 0 0 -2-2h-5.08a1.978 1.978 0 0 0 -1.92 2.041 2 2 0 0 1 -2 1.959h-8.079a1.978 1.978 0 0 1 -1.921-2.041 2 2 0 0 0 -2-1.959h-5a2.006 2.006 0 0 0 -2 2v37.974l30-37.692z" fill="#ffda44"/><path d="m61 32a22 22 0 0 1 -22 22h-.14a22 22 0 0 1 -2.86-43.79 22.78 22.78 0 0 1 3-.21 22 22 0 0 1 22 22z" fill="#d1e7f8"/><rect fill="#006df0" height="14" rx="2" width="16" x="31" y="29"/><circle cx="39" cy="34" fill="#58595b" r="1"/><path d="m39 32a1.994 1.994 0 0 0 -1 3.722v3.278a1 1 0 0 0 2 0v-3.278a1.994 1.994 0 0 0 -1-3.722z" fill="#f1f2f2"/><path d="m18 6h2v2h-2z" fill="#f1f2f2"/><path d="m22 6h2v2h-2z" fill="#f1f2f2"/><g fill="#ff5023"><path d="m38 13h2v2h-2z"/><path d="m47 15.411h2v2h-2z" transform="matrix(.5 -.866 .866 .5 9.79 49.778)"/><path d="m53.589 22h1.999v1.999h-1.999z" transform="matrix(.866 -.5 .5 .866 -4.185 30.385)"/><path d="m56 31h2v2h-2z"/><path d="m53.589 40h1.999v1.999h-1.999z" transform="matrix(.5 -.866 .866 .5 -8.217 67.765)"/><path d="m47 46.589h2v2h-2z" transform="matrix(.866 -.5 .5 .866 -17.364 30.378)"/><path d="m38 49h2v2h-2z"/><path d="m29 46.588h2v2h-2z" transform="matrix(.5 -.866 .866 .5 -26.213 49.78)"/><path d="m22.411 40h2v2h-2z" transform="matrix(.866 -.5 .5 .866 -17.361 17.195)"/><path d="m20 31h2v2h-2z"/><path d="m22.411 22h2v2h-2z" transform="matrix(.5 -.866 .866 .5 -8.213 31.774)"/><path d="m29 15.411h2v2h-2z" transform="matrix(.866 -.5 .5 .866 -4.186 17.2)"/></g><path d="m57 52h-2v2h-2v2h2v2h2v-2h2v-2h-2z" fill="#006df0"/><path d="m53 60h6v2h-6z" fill="#006df0"/><path d="m18 53h6v2h-6z" fill="#f1f2f2"/><path d="m35 29v-4a4 4 0 0 1 8 0v4h2v-4a6 6 0 0 0 -12 0v4z" fill="#808285"/></g></svg>