<?xml version="1.0" encoding="UTF-8"?>
<!DOCTYPE svg PUBLIC "-//W3C//DTD SVG 1.1//EN" "http://www.w3.org/Graphics/SVG/1.1/DTD/svg11.dtd">
<!-- Creator: CorelDRAW X7 -->
<svg xmlns="http://www.w3.org/2000/svg" xml:space="preserve" width="100%" height="100%" version="1.1" style="shape-rendering:geometricPrecision; text-rendering:geometricPrecision; image-rendering:optimizeQuality; fill-rule:evenodd; clip-rule:evenodd"
viewBox="0 0 1729 1729"
 xmlns:xlink="http://www.w3.org/1999/xlink">
 <defs>
  <style type="text/css">
   <![CDATA[
    .fil0 {fill:none}
    .fil2 {fill:#36A6DE}
    .fil1 {fill:#5CB7E4}
    .fil3 {fill:#FF9031}
   ]]>
  </style>
 </defs>
 <g id="Layer_x0020_1">
  <metadata id="CorelCorpID_0Corel-Layer"/>
  <rect class="fil0" width="1729" height="1729"/>
  <path class="fil1" d="M495 1338c13,1 26,-1 41,-1 34,6 33,22 30,57l0 11 -353 0c-19,1 -5,1 -11,-11l-2 0c2,-33 -5,-53 32,-56 10,-1 20,-1 28,0 -55,-38 -91,-101 -91,-173 0,-40 11,-78 31,-110l-1 -175 -61 -3 2 -42 204 0 1 43 -61 1 0 99c28,-14 60,-22 94,-22 116,0 210,93 210,209 0,72 -37,136 -93,173zm114 -830l208 0 -3 -103c-11,-2 -454,-10 -506,-3 -29,4 -11,-1 -25,10l0 366 59 1 1 35 -203 0 1 -34 63 -2 -3 -351c0,-94 39,-82 43,-98l20 -4c105,-4 215,-1 321,-1 52,0 148,0 200,0 66,0 90,8 106,61l2 123 532 0 0 773 57 0c4,-6 10,-10 16,-13 -14,-1 -24,-2 -24,-3 0,-1 17,-3 38,-3 21,0 38,2 38,3 0,1 -10,2 -24,3 7,3 13,7 17,13l47 0 0 66 -47 0c-7,9 -18,15 -31,15 -12,0 -23,-6 -30,-15l-57 0 0 58 -816 0 0 -897zm-231 624c19,0 33,15 33,33 0,18 -14,33 -33,33 -18,0 -33,-15 -33,-33 0,-18 15,-33 33,-33zm7 -93c30,1 57,13 77,32l-18 18c-16,-14 -36,-23 -59,-24l0 -26zm88 42c18,20 30,47 31,77l-26 0c-1,-23 -10,-43 -24,-59l19 -18zm-102 -16c-22,1 -43,10 -58,24l-19 -18c21,-19 48,-31 77,-32l0 26zm-69 34c-13,16 -22,36 -24,59l-26 0c2,-30 13,-57 32,-77l18 18zm202 73c-1,30 -13,56 -31,77l-19 -18c14,-16 23,-37 24,-59l26 0zm-42 87c-20,19 -47,31 -77,32l0 -26c23,-2 43,-11 59,-24l18 18zm-91 32c-29,-1 -56,-13 -77,-32l19 -18c15,13 36,22 58,24l0 26zm-87 -42c-19,-21 -30,-47 -32,-77l26 0c2,22 11,43 24,59l-18 18zm1009 -704l98 0 0 99 -98 0 0 -99zm-130 0l98 0 0 99 -98 0 0 -99zm-130 0l98 0 0 99 -98 0 0 -99zm-131 0l99 0 0 99 -99 0 0 -99zm-130 0l98 0 0 99 -98 0 0 -99zm-130 0l98 0 0 99 -98 0 0 -99z"/>
  <path class="fil2" d="M495 1338c13,1 26,-1 41,-1 34,6 33,22 30,57l0 11 -243 0 263 -263c1,8 2,15 2,23 0,72 -37,136 -93,173zm114 -218l476 -476 46 0 0 -46 32 -32 0 78 98 0 0 -99 -78 0 38 -37 204 0 0 773 57 0c4,-6 10,-10 16,-13 -14,-1 -24,-2 -24,-3 0,-1 17,-3 38,-3 21,0 38,2 38,3 0,1 -10,2 -24,3 7,3 13,7 17,13l47 0 0 66 -47 0c-7,9 -18,15 -31,15 -12,0 -23,-6 -30,-15l-57 0 0 58 -816 0 0 -285zm684 -575l98 0 0 99 -98 0 0 -99z"/>
  <path class="fil3" d="M378 1037c71,0 128,57 128,128 0,70 -57,128 -128,128 -70,0 -127,-58 -127,-128 0,-71 57,-128 127,-128zm7 1c30,2 57,14 78,32l-19 19c-16,-14 -36,-23 -59,-24l0 -27zm88 42c18,21 30,48 32,78l-26 0c-2,-23 -11,-43 -25,-59l19 -19zm-102 -15c-22,1 -43,10 -59,24l-18 -19c21,-18 47,-30 77,-32l0 27zm-69 34c-14,16 -22,36 -24,59l-26 0c1,-30 13,-57 32,-78l18 19zm203 73c-2,30 -14,57 -32,77l-19 -18c14,-16 23,-37 25,-59l26 0zm-42 87c-21,19 -48,31 -78,32l0 -26c23,-1 43,-10 59,-24l19 18zm-92 32c-29,-1 -56,-13 -77,-32l18 -18c16,14 37,23 59,24l0 26zm-87 -42c-19,-20 -31,-47 -32,-77l26 0c2,22 10,43 24,59l-18 18zm94 -117c19,0 33,15 33,33 0,18 -14,33 -33,33 -18,0 -33,-15 -33,-33 0,-18 15,-33 33,-33z"/>
 </g>
</svg>
