<?xml version="1.0" encoding="iso-8859-1"?>
<!-- Generator: Adobe Illustrator 19.0.0, SVG Export Plug-In . SVG Version: 6.00 Build 0)  -->
<svg version="1.1" id="Capa_1" xmlns="http://www.w3.org/2000/svg" xmlns:xlink="http://www.w3.org/1999/xlink" x="0px" y="0px"
	 viewBox="0 0 512 512" style="enable-background:new 0 0 512 512;" xml:space="preserve">
<path style="fill:#86B5A5;" d="M327.088,96.771c-26.124,0-49.296,12.825-63.592,32.496V78.584C263.496,35.252,228.243,0,184.911,0
	s-78.584,35.252-78.584,78.584v38.13c0,4.14,3.356,7.496,7.496,7.496s7.496-3.356,7.496-7.496v-38.13
	c0-35.065,28.528-63.593,63.593-63.593s63.593,28.528,63.593,63.593v96.772v155.069c0,4.14,3.356,7.496,7.496,7.496
	c4.14,0,7.496-3.356,7.496-7.496V175.356c0-35.066,28.528-63.593,63.593-63.593s63.592,28.528,63.592,63.593v36.806
	c0,4.14,3.356,7.496,7.496,7.496s7.496-3.356,7.496-7.496v-36.806C405.673,132.024,370.42,96.771,327.088,96.771z"/>
<path style="fill:#686D6D;" d="M319.916,475.301h-37.493v-66.852c0-2.804-2.273-5.078-5.078-5.078h-8.134v-66.852
	c0-2.804-2.273-5.078-5.078-5.078h-16.268c-2.804,0-5.078,2.273-5.078,5.078v66.852h-8.134c-2.804,0-5.078,2.273-5.078,5.078v66.852
	h-37.493c-2.804,0-5.078,2.273-5.078,5.078v26.543c0,2.804,2.273,5.078,5.078,5.078h127.832c2.804,0,5.078-2.273,5.078-5.078
	v-26.543C324.994,477.575,322.721,475.301,319.916,475.301z"/>
<g>
	<path style="fill:#86B5A5;" d="M440.38,253.614c3.041,0,5.408-2.658,5.049-5.678c-2.806-23.605-22.891-41.909-47.252-41.909
		c-24.36,0-44.445,18.304-47.252,41.909c-0.359,3.02,2.008,5.678,5.049,5.678H440.38z"/>
	<path style="fill:#86B5A5;" d="M71.62,162.214c-3.041,0-5.408-2.658-5.049-5.678c2.806-23.605,22.891-41.909,47.252-41.909
		s44.445,18.304,47.252,41.909c0.359,3.02-2.008,5.678-5.049,5.678H71.62z"/>
</g>
<g>
	<path style="fill:#4D8278;" d="M156.027,162.213h-25.763c0-20.829-13.375-38.53-32.01-44.979c4.875-1.696,10.115-2.61,15.569-2.61
		c24.361,0,44.447,18.305,47.254,41.911C161.435,159.555,159.068,162.213,156.027,162.213z"/>
	<path style="fill:#4D8278;" d="M440.38,253.614h-25.763c0-20.829-13.375-38.53-32.01-44.979c4.875-1.696,10.115-2.61,15.569-2.61
		c24.361,0,44.447,18.305,47.254,41.911C445.788,250.956,443.421,253.614,440.38,253.614z"/>
</g>
<g>
	<path style="fill:#555656;" d="M319.916,475.301h-37.493v-66.852c0-2.804-2.273-5.078-5.078-5.078h-14.74v71.93V512h57.31
		c2.804,0,5.078-2.273,5.078-5.078v-26.543C324.994,477.575,322.721,475.301,319.916,475.301z"/>
	<path style="fill:#555656;" d="M269.212,403.371H256v-71.93h8.134c2.804,0,5.078,2.273,5.078,5.078V403.371z"/>
</g>
<g>
	<path style="fill:#FFC853;" d="M377.431,253.614c0,11.458,9.289,20.747,20.747,20.747s20.747-9.289,20.747-20.747H377.431z"/>
	<path style="fill:#FFC853;" d="M93.076,162.214c0,11.458,9.289,20.747,20.747,20.747s20.747-9.289,20.747-20.747H93.076z"/>
</g>
<g>
</g>
<g>
</g>
<g>
</g>
<g>
</g>
<g>
</g>
<g>
</g>
<g>
</g>
<g>
</g>
<g>
</g>
<g>
</g>
<g>
</g>
<g>
</g>
<g>
</g>
<g>
</g>
<g>
</g>
</svg>
