<?xml version="1.0" encoding="iso-8859-1"?>
<!-- Generator: Adobe Illustrator 19.0.0, SVG Export Plug-In . SVG Version: 6.00 Build 0)  -->
<svg version="1.1" id="Capa_1" xmlns="http://www.w3.org/2000/svg" xmlns:xlink="http://www.w3.org/1999/xlink" x="0px" y="0px"
	 viewBox="0 0 512 512" style="enable-background:new 0 0 512 512;" xml:space="preserve">
<g>
	<g transform="translate(24 1)">
		<g>
			<path style="fill:#3F51B5;" d="M232,127c9.426,0,17.067,7.641,17.067,17.067V280.6h-34.133V144.067
				C214.933,134.641,222.574,127,232,127z"/>
			<rect x="206.4" y="297.667" style="fill:#3F51B5;" width="51.2" height="179.2"/>
			<path style="fill:#3F51B5;" d="M197.867,468.333h68.267c9.426,0,17.067,7.641,17.067,17.067v17.067H180.8V485.4
				C180.8,475.974,188.441,468.333,197.867,468.333z"/>
		</g>
		<path style="fill:#2296F3;" d="M214.933,263.533h34.133c4.713,0,8.533,3.82,8.533,8.533V306.2h-51.2v-34.133
			C206.4,267.354,210.221,263.533,214.933,263.533z"/>
		<path style="fill:#FF5722;" d="M419.733,41.667v17.067c-0.028,9.414-7.653,17.039-17.067,17.067h-51.2
			c-9.414-0.028-17.039-7.653-17.067-17.067V41.667H419.733z"/>
		<path style="fill:#BDC3C7;" d="M419.733,24.6v17.067H334.4V7.533h68.267C412.081,7.561,419.706,15.186,419.733,24.6z"/>
	</g>
	<g>
		<path d="M503.467,494.933H486.4c-4.713,0-8.533,3.821-8.533,8.533c0,4.713,3.82,8.533,8.533,8.533h17.067
			c4.713,0,8.533-3.82,8.533-8.533C512,498.754,508.18,494.933,503.467,494.933z"/>
		<path d="M426.667,0h-128c-28.264,0.031-51.169,22.936-51.2,51.2v69.839c-10.199,3.592-17.033,13.214-17.067,24.028v113.307
			c-5.262,3.024-8.514,8.624-8.533,14.693V460.8c-14.132,0.015-25.585,11.468-25.6,25.6v8.533H8.533
			c-4.713,0-8.533,3.821-8.533,8.533C0,508.18,3.821,512,8.533,512h443.733c4.713,0,8.533-3.82,8.533-8.533
			c0-4.713-3.82-8.533-8.533-8.533H315.733V486.4c-0.015-14.132-11.468-25.585-25.6-25.6V273.067
			c-0.019-6.069-3.271-11.669-8.533-14.693V145.067c-0.033-10.813-6.868-20.435-17.067-24.028V51.2
			c0.022-18.842,15.291-34.112,34.133-34.133h51.2v42.667c0.015,14.132,11.468,25.585,25.6,25.6h51.2
			c14.132-0.015,25.585-11.468,25.6-25.6V25.6C452.251,11.468,440.799,0.015,426.667,0z M247.467,145.067
			c0-4.713,3.821-8.533,8.533-8.533c4.713,0,8.533,3.821,8.533,8.533V256h-17.067V145.067z M273.067,298.667h-34.133v-25.6h34.133
			V298.667z M298.667,486.4v8.533h-85.333V486.4c0.006-4.71,3.823-8.527,8.533-8.533h68.267
			C294.844,477.873,298.661,481.69,298.667,486.4z M238.933,460.8V315.733h34.133V460.8H238.933z M435.2,25.6v8.533h-68.267V17.067
			h59.733C431.377,17.073,435.194,20.89,435.2,25.6z M426.667,68.267h-51.2c-4.71-0.006-8.527-3.823-8.533-8.533V51.2H435.2v8.533
			C435.194,64.444,431.377,68.261,426.667,68.267z"/>
		<path d="M347.366,87.834c-1.6-1.601-3.77-2.5-6.033-2.5s-4.434,0.899-6.033,2.5l-25.6,25.6c-2.178,2.151-3.037,5.304-2.251,8.262
			s3.097,5.269,6.055,6.055s6.111-0.073,8.262-2.251l25.6-25.6c1.601-1.6,2.5-3.77,2.5-6.033
			C349.866,91.604,348.967,89.433,347.366,87.834z"/>
		<path d="M486.4,128c3.451-0.001,6.562-2.08,7.882-5.268c1.32-3.188,0.591-6.858-1.849-9.298l-25.6-25.6
			c-3.341-3.281-8.701-3.256-12.012,0.054s-3.335,8.671-0.054,12.012l25.6,25.6C481.965,127.103,484.136,128.003,486.4,128z"/>
		<path d="M346.05,152.7c4.216,2.106,9.341,0.398,11.45-3.817l17.067-34.133c1.372-2.728,1.182-5.982-0.499-8.532
			c-1.681-2.55-4.596-4.007-7.644-3.822c-3.048,0.185-5.765,1.985-7.124,4.72l-17.067,34.133c-1.012,2.024-1.179,4.368-0.463,6.516
			S344.025,151.688,346.05,152.7z"/>
		<path d="M392.533,110.933v34.133c0,4.713,3.82,8.533,8.533,8.533s8.533-3.821,8.533-8.533v-34.133
			c0-4.713-3.821-8.533-8.533-8.533S392.533,106.221,392.533,110.933z"/>
		<path d="M431.383,103.3c-2.025,1.012-3.564,2.787-4.28,4.934s-0.549,4.491,0.463,6.516l17.067,34.133
			c2.114,4.204,7.232,5.903,11.441,3.799c4.209-2.104,5.92-7.218,3.826-11.432l-17.067-34.133c-1.012-2.025-2.787-3.564-4.934-4.28
			C435.752,102.121,433.408,102.287,431.383,103.3z"/>
	</g>
</g>
<g>
</g>
<g>
</g>
<g>
</g>
<g>
</g>
<g>
</g>
<g>
</g>
<g>
</g>
<g>
</g>
<g>
</g>
<g>
</g>
<g>
</g>
<g>
</g>
<g>
</g>
<g>
</g>
<g>
</g>
</svg>
