<svg height="480pt" viewBox="0 0 480 480.208" width="480pt" xmlns="http://www.w3.org/2000/svg"><path d="m472.105469 472.207031h-192l32-32h128zm0 0" fill="#d8d7da"/><path d="m456.105469 280.207031c8.824219.027344 15.972656 7.175781 16 16-.066407 8.808594-7.191407 15.9375-16 16h-160c-8.828125-.023437-15.976563-7.171875-16-16 .0625-8.808593 7.1875-15.933593 16-16zm0 0" fill="#ffe477"/><path d="m424.105469 200.207031c8.824219.027344 15.972656 7.175781 16 16-.066407 8.808594-7.191407 15.9375-16 16h-96c-8.828125-.023437-15.976563-7.171875-16-16 .0625-8.808593 7.1875-15.933593 16-16zm0 0" fill="#c0ab91"/><path d="m424.105469 392.207031v48h-96v-48c.023437-8.824219 7.171875-15.972656 16-16h64c8.824219.027344 15.972656 7.175781 16 16zm0 0" fill="#ffe477"/><path d="m408.105469 120.207031c8.824219.027344 15.972656 7.175781 16 16-.066407 8.808594-7.191407 15.9375-16 16h-64c-8.828125-.023437-15.976563-7.171875-16-16 .0625-8.808593 7.1875-15.933593 16-16zm0 0" fill="#ffe477"/><path d="m408.023438 39.007812c-1.113282-17.058593-15.4375-30.234374-32.53125-29.910156-17.09375.320313-30.917969 14.019532-31.386719 31.109375-.015625.402344.011719.804688.078125 1.199219 1.113281 17.0625 15.441406 30.234375 32.535156 29.914062 17.089844-.320312 30.914062-14.023437 31.386719-31.113281.011719-.402343-.015625-.800781-.082031-1.199219zm0 0" fill="#d80027"/><g fill="#c6c5ca"><path d="m360.105469 312.207031h32v64h-32zm0 0"/><path d="m360.105469 232.207031h32v48h-32zm0 0"/><path d="m360.105469 152.207031h32v48h-32zm0 0"/><path d="m392.105469 67.886719v52.320312h-32v-52.320312c9.886719 5.761719 22.109375 5.761719 32 0zm0 0"/></g><path d="m296.105469 128.207031-88 88 24-64h-32l9.359375-24h-25.359375l17.839843-40h86.160157l-40 40zm0 0" fill="#ffe477"/><path d="m200.105469 472.207031h-192l32-32h128zm0 0" fill="#d8d7da"/><path d="m184.105469 280.207031c8.824219.027344 15.972656 7.175781 16 16-.066407 8.808594-7.191407 15.9375-16 16h-160c-8.828125-.023437-15.976563-7.171875-16-16 .0625-8.808593 7.1875-15.933593 16-16zm0 0" fill="#ffe477"/><path d="m152.105469 200.207031c8.824219.027344 15.972656 7.175781 16 16-.066407 8.808594-7.191407 15.9375-16 16h-96c-8.828125-.023437-15.976563-7.171875-16-16 .0625-8.808593 7.1875-15.933593 16-16zm0 0" fill="#c0ab91"/><path d="m152.105469 392.207031v48h-96v-48c.023437-8.824219 7.171875-15.972656 16-16h64c8.824219.027344 15.972656 7.175781 16 16zm0 0" fill="#ffe477"/><path d="m136.105469 120.207031c8.824219.027344 15.972656 7.175781 16 16-.066407 8.808594-7.191407 15.9375-16 16h-64c-8.828125-.023437-15.976563-7.171875-16-16 .0625-8.808593 7.1875-15.933593 16-16zm0 0" fill="#ffe477"/><path d="m136.023438 39.007812c-1.113282-17.058593-15.4375-30.234374-32.53125-29.910156-17.09375.320313-30.917969 14.019532-31.386719 31.109375-.015625.402344.011719.804688.078125 1.199219 1.113281 17.0625 15.441406 30.234375 32.535156 29.914062 17.089844-.320312 30.914062-14.023437 31.386719-31.113281.011719-.402343-.015625-.800781-.082031-1.199219zm0 0" fill="#d80027"/><path d="m88.105469 312.207031h32v64h-32zm0 0" fill="#c6c5ca"/><path d="m88.105469 232.207031h32v48h-32zm0 0" fill="#c6c5ca"/><path d="m88.105469 152.207031h32v48h-32zm0 0" fill="#c6c5ca"/><path d="m120.105469 67.886719v52.320312h-32v-52.320312c9.886719 5.761719 22.109375 5.761719 32 0zm0 0" fill="#c6c5ca"/><path d="m184.105469 320.207031c13.253906 0 24-10.746093 24-24 0-13.253906-10.746094-24-24-24h-56v-32h24c13.253906 0 24-10.746093 24-24 0-13.253906-10.746094-24-24-24h-24v-32h8c13.253906 0 24-10.746093 24-24 0-13.253906-10.746094-24-24-24h-8v-40.207031c13.773437-10.332031 19.390625-28.316406 13.945312-44.648438-5.445312-16.335937-20.730469-27.351562-37.945312-27.351562-17.21875 0-32.503907 11.015625-37.949219 27.351562-5.445312 16.332032.175781 34.316407 13.949219 44.648438v40.207031h-8c-13.257813 0-24 10.746094-24 24 0 13.253907 10.742187 24 24 24h8v32h-24c-13.257813 0-24 10.746094-24 24 0 13.253907 10.742187 24 24 24h24v32h-56c-13.257813 0-24 10.746094-24 24 0 13.253907 10.742187 24 24 24h56v48h-8c-13.257813 0-24 10.746094-24 24v40h-8c-2.121094 0-4.15625.84375-5.65625 2.34375l-32 32c-2.289063 2.289063-2.972657 5.730469-1.734375 8.71875 1.238281 2.988281 4.152344 4.9375 7.390625 4.9375h192c3.234375 0 6.148437-1.949219 7.386719-4.9375 1.238281-2.988281.554687-6.429687-1.730469-8.71875l-32-32c-1.5-1.5-3.535157-2.34375-5.65625-2.34375h-8v-40c0-13.253906-10.746094-24-24-24h-8v-48zm-80-304c13.253906 0 24 10.746094 24 24 0 13.253907-10.746094 24-24 24-13.257813 0-24-10.746093-24-24 0-13.253906 10.742187-24 24-24zm-8 63.199219c5.277343 1.078125 10.71875 1.078125 16 0v32.800781h-16zm-32 56.800781c0-4.417969 3.582031-8 8-8h64c4.417969 0 8 3.582031 8 8s-3.582031 8-8 8h-64c-4.417969 0-8-3.582031-8-8zm32 24h16v32h-16zm-48 56c0-4.417969 3.582031-8 8-8h96c4.417969 0 8 3.582031 8 8s-3.582031 8-8 8h-96c-4.417969 0-8-3.582031-8-8zm48 24h16v32h-16zm-80 56c0-4.417969 3.582031-8 8-8h160c4.417969 0 8 3.582031 8 8s-3.582031 8-8 8h-160c-4.417969 0-8-3.582031-8-8zm164.6875 168h-153.378907l16-16h121.378907zm-36.6875-72v40h-80v-40c0-4.417969 3.582031-8 8-8h64c4.417969 0 8 3.582031 8 8zm-32-24h-16v-48h16zm0 0"/><path d="m96.105469 32.207031h16v16h-16zm0 0"/><path d="m303.496094 125.144531c-1.238282-2.988281-4.15625-4.9375-7.390625-4.9375h-28.691407l26.347657-26.34375c2.285156-2.289062 2.96875-5.726562 1.730469-8.714843-1.238282-2.992188-4.152344-4.941407-7.386719-4.941407h-86.136719c-3.15625 0-6.015625 1.855469-7.304688 4.738281l-17.863281 40c-1.105469 2.472657-.882812 5.339844.589844 7.613282 1.476563 2.277344 4.003906 3.648437 6.714844 3.648437h13.597656l-5.09375 13.105469c-.960937 2.46875-.636719 5.25.863281 7.429688 1.503906 2.179687 3.984375 3.480468 6.632813 3.464843h20.453125l-19.949219 53.183594c-1.332031 3.53125-.019531 7.511719 3.152344 9.554687 3.167969 2.039063 7.335937 1.589844 10-1.082031l88-88c2.289062-2.289062 2.972656-5.730469 1.734375-8.71875zm-74.929688 59.289063 11.035156-29.410156c.921876-2.457032.582032-5.214844-.914062-7.371094-1.496094-2.160156-3.957031-3.445313-6.582031-3.445313h-20.304688l5.09375-13.101562c.957031-2.460938.636719-5.238281-.855469-7.414063-1.488281-2.179687-3.960937-3.484375-6.597656-3.484375h-13l10.71875-24h61.601563l-26.347657 26.34375c-2.289062 2.292969-2.972656 5.742188-1.726562 8.734375 1.246094 2.992188 4.175781 4.933594 7.417969 4.921875h28.6875zm0 0"/><path d="m445.761719 434.550781c-1.5-1.5-3.535157-2.34375-5.65625-2.34375h-8v-40c0-13.253906-10.746094-24-24-24h-8v-48h56c13.253906 0 24-10.746093 24-24 0-13.253906-10.746094-24-24-24h-56v-32h24c13.253906 0 24-10.746093 24-24 0-13.253906-10.746094-24-24-24h-24v-32h8c13.253906 0 24-10.746093 24-24 0-13.253906-10.746094-24-24-24h-8v-40.207031c13.773437-10.332031 19.390625-28.316406 13.945312-44.648438-5.445312-16.335937-20.730469-27.351562-37.945312-27.351562-17.21875 0-32.503907 11.015625-37.949219 27.351562-5.445312 16.332032.175781 34.316407 13.949219 44.648438v40.207031h-8c-13.257813 0-24 10.746094-24 24 0 13.253907 10.742187 24 24 24h8v32h-24c-13.257813 0-24 10.746094-24 24 0 13.253907 10.742187 24 24 24h24v32h-56c-13.257813 0-24 10.746094-24 24 0 13.253907 10.742187 24 24 24h56v48h-8c-13.257813 0-24 10.746094-24 24v40h-8c-2.121094 0-4.15625.84375-5.65625 2.34375l-32 32c-2.289063 2.289063-2.972657 5.730469-1.734375 8.71875 1.238281 2.988281 4.152344 4.9375 7.390625 4.9375h192c3.234375 0 6.148437-1.949219 7.386719-4.9375 1.238281-2.988281.554687-6.429687-1.730469-8.71875zm-69.65625-418.34375c13.253906 0 24 10.746094 24 24 0 13.253907-10.746094 24-24 24-13.257813 0-24-10.746093-24-24 0-13.253906 10.742187-24 24-24zm-8 63.199219c5.277343 1.078125 10.71875 1.078125 16 0v32.800781h-16zm-32 56.800781c0-4.417969 3.582031-8 8-8h64c4.417969 0 8 3.582031 8 8s-3.582031 8-8 8h-64c-4.417969 0-8-3.582031-8-8zm32 24h16v32h-16zm-48 56c0-4.417969 3.582031-8 8-8h96c4.417969 0 8 3.582031 8 8s-3.582031 8-8 8h-96c-4.417969 0-8-3.582031-8-8zm48 24h16v32h-16zm-80 56c0-4.417969 3.582031-8 8-8h160c4.417969 0 8 3.582031 8 8s-3.582031 8-8 8h-160c-4.417969 0-8-3.582031-8-8zm80 24h16v48h-16zm-32 72c0-4.417969 3.582031-8 8-8h64c4.417969 0 8 3.582031 8 8v40h-80zm-36.691407 72 16-16h121.378907l16 16zm0 0"/><path d="m368.105469 32.207031h16v16h-16zm0 0"/><path d="m192.105469 37.550781 17.597656 23.457031c1.511719 2.015626 3.882813 3.199219 6.402344 3.199219 2.515625 0 4.886719-1.183593 6.398437-3.199219l17.601563-23.464843 17.597656 23.464843c1.511719 2.015626 3.882813 3.199219 6.402344 3.199219 2.515625 0 4.886719-1.183593 6.398437-3.199219l17.601563-23.480468 17.597656 23.480468 12.800781-9.601562-24-32c-1.511718-2.011719-3.882812-3.199219-6.398437-3.199219-2.519531 0-4.890625 1.1875-6.402344 3.199219l-17.597656 23.480469-17.664063-23.480469c-1.574218-1.910156-3.921875-3.019531-6.402344-3.019531-2.476562 0-4.824218 1.109375-6.398437 3.019531l-17.601563 23.464844-17.535156-23.464844c-1.574218-1.910156-3.921875-3.015625-6.398437-3.015625-2.476563 0-4.824219 1.105469-6.402344 3.015625l-24 32 12.800781 9.601562zm0 0"/></svg>