<svg id="Layer_5" enable-background="new 0 0 64 64" height="512" viewBox="0 0 64 64" width="512" xmlns="http://www.w3.org/2000/svg"><path d="m62 58v4h-16v-4c0-1.1.9-2 2-2h3 6 3c1.1 0 2 .9 2 2z" fill="#b27946"/><path d="m57 8v48h-6v-46c0-1.1-.9-2-2-2h-23-8-4c-.83 0-1.58-.34-2.12-.88s-.88-1.29-.88-2.12c0-1.66 1.34-3 3-3h37c3.31 0 6 2.69 6 6z" fill="#d3a06c"/><g fill="#969faa"><path d="m18 8h8v6h-8z"/><path d="m12 30v8h-3.1c-.56-2.84-3.43-5-6.9-5v-3z"/><path d="m12 18v8h-3.1c-.56-2.84-3.43-5-6.9-5v-3z"/><path d="m12 42v8h-3.1c-.56-2.84-3.43-5-6.9-5v-3z"/><path d="m42 30v3c-3.47 0-6.34 2.16-6.9 5h-3.1v-8z"/><path d="m42 18v3c-3.47 0-6.34 2.16-6.9 5h-3.1v-8z"/><path d="m42 42v3c-3.47 0-6.34 2.16-6.9 5h-3.1v-8z"/></g><path d="m32 42v8c0 2.21-1.79 4-4 4h-12c-2.21 0-4-1.79-4-4v-8-4-8-4-8c0-2.21 1.79-4 4-4h2 8 2c2.21 0 4 1.79 4 4v8 4 8z" fill="#ccd1d9"/><circle cx="22" cy="46" fill="#ff826e" r="4"/><circle cx="22" cy="34" fill="#fcd770" r="4"/><circle cx="22" cy="22" fill="#b4dd7f" r="4"/><path d="m22 27c2.757 0 5-2.243 5-5s-2.243-5-5-5-5 2.243-5 5 2.243 5 5 5zm0-8c1.654 0 3 1.346 3 3s-1.346 3-3 3-3-1.346-3-3 1.346-3 3-3z"/><path d="m22 39c2.757 0 5-2.243 5-5s-2.243-5-5-5-5 2.243-5 5 2.243 5 5 5zm0-8c1.654 0 3 1.346 3 3s-1.346 3-3 3-3-1.346-3-3 1.346-3 3-3z"/><path d="m22 51c2.757 0 5-2.243 5-5s-2.243-5-5-5-5 2.243-5 5 2.243 5 5 5zm0-8c1.654 0 3 1.346 3 3s-1.346 3-3 3-3-1.346-3-3 1.346-3 3-3z"/><path d="m60 55h-2v-47c0-3.859-3.141-7-7-7h-37c-2.206 0-4 1.794-4 4s1.794 4 4 4h3v4h-1c-2.414 0-4.434 1.721-4.899 4h-10.101v5h1c2.95 0 5.438 1.764 5.914 4.192l.158.808h2.928v2h-10v5h1c2.95 0 5.438 1.764 5.914 4.192l.158.808h2.928v2h-10v5h1c2.95 0 5.438 1.764 5.914 4.192l.158.808h3.029c.465 2.279 2.484 4 4.899 4h12c2.414 0 4.434-1.721 4.899-4h3.03l.158-.808c.475-2.429 2.963-4.192 5.913-4.192h1v-5h-10v-2h2.929l.158-.808c.475-2.429 2.963-4.192 5.913-4.192h1v-5h-10v-2h2.929l.158-.808c.475-2.429 2.963-4.192 5.913-4.192h1v-5h-10.101c-.465-2.279-2.484-4-4.899-4h-1v-4h22c.552 0 1 .448 1 1v45h-2c-1.654 0-3 1.346-3 3v5h18v-5c0-1.654-1.346-3-3-3zm-50.338-30c-.898-2.664-3.514-4.604-6.662-4.946v-1.054h8v6zm0 12c-.898-2.664-3.514-4.604-6.662-4.946v-1.054h8v6zm-6.662 7.054v-1.054h8v6h-1.338c-.898-2.664-3.514-4.604-6.662-4.946zm38-1.054v1.054c-3.148.343-5.764 2.282-6.661 4.946h-1.339v-6zm0-12v1.054c-3.148.343-5.764 2.282-6.661 4.946h-1.339v-6zm0-10.946c-3.148.343-5.764 2.282-6.661 4.946h-1.339v-6h8zm-10-2.054v32c0 1.654-1.346 3-3 3h-12c-1.654 0-3-1.346-3-3v-32c0-1.654 1.346-3 3-3h12c1.654 0 3 1.346 3 3zm-6-5h-6v-4h6zm24-6h-35c-1.103 0-2-.897-2-2s.897-2 2-2h37c2.757 0 5 2.243 5 5v47h-4v-45c0-1.654-1.346-3-3-3zm12 54h-14v-3c0-.552.448-1 1-1h12c.552 0 1 .448 1 1z"/></svg>