<?xml version="1.0" encoding="UTF-8"?>
<!DOCTYPE svg PUBLIC "-//W3C//DTD SVG 1.1//EN" "http://www.w3.org/Graphics/SVG/1.1/DTD/svg11.dtd">
<!-- Creator: CorelDRAW X7 -->
<svg xmlns="http://www.w3.org/2000/svg" xml:space="preserve" width="100%" height="100%" version="1.1" style="shape-rendering:geometricPrecision; text-rendering:geometricPrecision; image-rendering:optimizeQuality; fill-rule:evenodd; clip-rule:evenodd"
viewBox="0 0 1729 1729"
 xmlns:xlink="http://www.w3.org/1999/xlink">
 <defs>
  <style type="text/css">
   <![CDATA[
    .fil0 {fill:none}
    .fil8 {fill:#ED3237}
    .fil3 {fill:#AEB3B4}
    .fil7 {fill:#333332}
    .fil4 {fill:#36A6DE}
    .fil5 {fill:#FFE348}
    .fil6 {fill:#FFE86A}
    .fil2 {fill:#BCBFBF;fill-rule:nonzero}
    .fil1 {fill:#AEB3B4;fill-rule:nonzero}
   ]]>
  </style>
 </defs>
 <g id="Layer_x0020_1">
  <metadata id="CorelCorpID_0Corel-Layer"/>
  <rect class="fil0" width="1729" height="1729"/>
  <polygon class="fil1" points="1510,463 1510,1382 219,1382 219,463 "/>
  <polygon class="fil2" points="320,1382 219,1382 219,463 1238,463 "/>
  <path class="fil1" d="M1432 1417l0 2c0,38 -31,69 -69,69l-998 0c-38,0 -68,-31 -68,-69l0 -2 1135 0z"/>
  <path class="fil3" d="M1210 244l0 0c9,0 17,8 17,17l0 202 -34 0 0 -202c0,-9 8,-17 17,-17z"/>
  <path class="fil3" d="M1276 321l0 0c0,9 -7,17 -17,17l-98 0c-10,0 -17,-8 -17,-17l0 0c0,-10 7,-17 17,-17l98 0c10,0 17,7 17,17z"/>
  <path class="fil4" d="M1276 380l0 0c0,9 -7,17 -17,17l-98 0c-10,0 -17,-8 -17,-17l0 0c0,-10 7,-17 17,-17l98 0c10,0 17,7 17,17z"/>
  <polygon class="fil5" points="693,1070 1035,1070 864,775 "/>
  <polygon class="fil6" points="887,814 864,775 779,923 "/>
  <polygon class="fil7" points="848,1048 896,954 867,942 881,865 833,959 862,970 "/>
  <path class="fil3" d="M864 244l0 0c10,0 17,8 17,17l0 202 -34 0 0 -202c0,-9 8,-17 17,-17z"/>
  <path class="fil5" d="M931 321l0 0c0,9 -8,17 -17,17l-99 0c-9,0 -17,-8 -17,-17l0 0c0,-10 8,-17 17,-17l99 0c9,0 17,7 17,17z"/>
  <path class="fil3" d="M931 380l0 0c0,9 -8,17 -17,17l-99 0c-9,0 -17,-8 -17,-17l0 0c0,-10 8,-17 17,-17l99 0c9,0 17,7 17,17z"/>
  <path class="fil3" d="M519 244l0 0c9,0 17,8 17,17l0 202 -34 0 0 -202c0,-9 7,-17 17,-17z"/>
  <path class="fil3" d="M585 321l0 0c0,9 -8,17 -17,17l-99 0c-9,0 -17,-8 -17,-17l0 0c0,-10 8,-17 17,-17l99 0c9,0 17,7 17,17z"/>
  <path class="fil8" d="M585 380l0 0c0,9 -8,17 -17,17l-99 0c-9,0 -17,-8 -17,-17l0 0c0,-10 8,-17 17,-17l99 0c9,0 17,7 17,17z"/>
 </g>
</svg>
