<svg id="Capa_1" enable-background="new 0 0 512 512" height="512" viewBox="0 0 512 512" width="512" xmlns="http://www.w3.org/2000/svg"><g><g><path d="m76 10h360v492h-360z" fill="#eefaff"/><path d="m256 73c-66.603 0-120 54.005-120 120 0 66.603 54.005 120 120 120 66.603 0 120-54.005 120-120 0-66.551-53.985-120-120-120z" fill="#8690a6"/><g fill="#9bbeff"><path d="m366.78 146.8-83.09 34.65.06 22.96 83.25 34.26c5.8-14.08 9-29.5 9-45.67 0-16.38-3.28-31.98-9.22-46.2z"/><path d="m166 376v126h180c0-15.247 0-110.652 0-126z"/><path d="m302.19 303.76-34.64-83.07-22.96.06-34.26 83.25c14.08 5.8 29.5 9 45.67 9 16.38 0 31.98-3.28 46.2-9.22z"/><path d="m256 73c-16.38 0-31.98 3.28-46.2 9.22l34.65 83.09 22.96-.06 34.26-83.25c-14.08-5.8-29.5-9-45.67-9z"/><path d="m228.25 181.59-83.25-34.26c-5.8 14.08-9 29.5-9 45.67 0 16.38 3.28 31.98 9.22 46.2l83.09-34.65z"/></g><path d="m244.59 220.75c-15.315-6.299-22.646-23.827-16.34-39.16 6.299-15.315 23.827-22.646 39.16-16.34 15.315 6.299 22.646 23.827 16.34 39.16-6.299 15.315-23.827 22.646-39.16 16.34z" fill="#eefaff"/></g><g><circle cx="376" cy="73" r="10"/><circle cx="376" cy="313" r="10"/><circle cx="136" cy="73" r="10"/><circle cx="136" cy="313" r="10"/><path d="m126 193c0 71.555 58.039 130 130 130 71.556 0 130-58.038 130-130 0-71.555-58.039-130-130-130-71.556 0-130 58.038-130 130zm20 0c0-11.115 1.638-21.987 4.867-32.444l65.496 26.956c-.52 3.71-.51 7.465.029 11.173l-65.37 27.26c-3.332-10.606-5.022-21.647-5.022-32.945zm12.737 51.396 65.353-27.252c2.257 2.993 4.92 5.644 7.925 7.886l-26.947 65.478c-19.64-10.31-35.926-26.52-46.331-46.112zm97.263 58.604c-11.115 0-21.987-1.638-32.445-4.867l26.956-65.497c3.636.509 7.302.536 11.174-.027l27.259 65.369c-10.604 3.331-21.645 5.022-32.944 5.022zm-7.701-128.46c10.195-4.25 21.908.558 26.162 10.759 4.242 10.177-.542 21.9-10.76 26.162-10.173 4.241-21.898-.538-26.161-10.757 0-.001 0-.001-.001-.002 0-.001 0-.001-.001-.002-4.24-10.176.543-21.899 10.761-26.16zm59.097 115.723-27.253-65.353c2.993-2.257 5.644-4.92 7.886-7.925l65.477 26.948c-10.309 19.639-26.518 35.925-46.11 46.33zm58.604-97.263c0 11.115-1.638 21.987-4.867 32.444l-65.497-26.956c.52-3.71.51-7.465-.029-11.173l65.37-27.26c3.333 10.606 5.023 21.647 5.023 32.945zm-12.737-51.396-65.353 27.252c-2.257-2.993-4.92-5.644-7.925-7.886l26.947-65.478c19.64 10.31 35.927 26.52 46.331 46.112zm-97.263-58.604c11.115 0 21.987 1.638 32.445 4.867l-26.955 65.496c-3.71-.52-7.466-.51-11.175.029l-27.26-65.37c10.605-3.331 21.646-5.022 32.945-5.022zm-51.396 12.737 27.253 65.353c-2.993 2.257-5.644 4.92-7.886 7.925l-65.477-26.948c10.309-19.639 26.518-35.925 46.11-46.33z"/><circle cx="256" cy="10" r="10"/><path d="m211 0h-135c-5.522 0-10 4.477-10 10v492c0 5.523 4.478 10 10 10h360c5.522 0 10-4.477 10-10v-492c0-5.523-4.478-10-10-10h-135c-5.522 0-10 4.477-10 10s4.478 10 10 10h125v472h-70v-43h20c5.522 0 10-4.477 10-10s-4.478-10-10-10h-20v-53c0-5.523-4.478-10-10-10h-180c-5.522 0-10 4.477-10 10v53h-20c-5.522 0-10 4.477-10 10s4.478 10 10 10h20v43h-70v-472h125c5.522 0 10-4.477 10-10s-4.478-10-10-10zm-35 386h160v43h-160zm0 63h160v43h-160z"/></g></g></svg>