<svg id="Capa_1" enable-background="new 0 0 501 501" height="512" viewBox="0 0 501 501" width="512" xmlns="http://www.w3.org/2000/svg"><path d="m423.741 71.759c95.678 95.678 95.678 250.804 0 346.482s-250.804 95.678-346.482 0-95.678-250.804 0-346.482 250.804-95.679 346.482 0z" fill="#fd7c66"/><path d="m443.358 396.138c-6.018 7.659-12.557 15.043-19.617 22.103-95.678 95.678-250.804 95.678-346.482 0s-95.678-250.804 0-346.482c7.06-7.06 14.443-13.599 22.103-19.617-75.541 96.145-69.002 235.761 19.617 324.38s228.234 95.157 324.379 19.616z" fill="#e43950"/><path d="m435.5 245c0 102.173-82.827 185-185 185s-185-82.827-185-185 82.827-185 185-185 185 82.827 185 185z" fill="#f5c02c"/><path d="m424.5 245c0 39.687-12.502 76.451-33.775 106.58-24.189 11.603-51.29 18.105-79.91 18.105-102.173 0-185-82.827-185-185 0-39.687 12.502-76.451 33.775-106.58 24.189-11.603 51.29-18.105 79.91-18.105 102.173 0 185 82.827 185 185z" fill="#fdf061"/><path d="m250.5 50c-107.523 0-195 87.477-195 195s87.477 195 195 195 195-87.477 195-195-87.477-195-195-195zm0 370c-96.495 0-175-78.505-175-175s78.505-175 175-175 175 78.505 175 175-78.505 175-175 175z" fill="#fff5f5"/><path d="m447.057 63.558-184.351 211.662-55.093 44.075c-8.891 7.113-21.708 6.403-29.759-1.648-8.051-8.051-8.761-20.868-1.648-29.759l44.075-55.093 211.661-184.352c4.246-3.698 10.63-3.478 14.612.503 3.981 3.982 4.201 10.366.503 14.612z" fill="#962437"/><path d="m295.5 245c0 24.853-20.147 45-45 45s-45-20.147-45-45 20.147-45 45-45 45 20.147 45 45z" fill="#e43950"/><path d="m290.714 265.214c-7.404 14.701-22.631 24.786-40.214 24.786-24.853 0-45-20.147-45-45 0-17.583 10.085-32.81 24.786-40.214-3.061 6.078-4.786 12.945-4.786 20.214 0 24.853 20.147 45 45 45 7.27 0 14.136-1.725 20.214-4.786z" fill="#ab2538"/><path d="m260.5 100v40c0 5.523-4.477 10-10 10s-10-4.477-10-10v-40c0-5.523 4.477-10 10-10s10 4.477 10 10zm-10 240c-5.523 0-10 4.477-10 10v40c0 5.523 4.477 10 10 10s10-4.477 10-10v-40c0-5.523-4.477-10-10-10zm-76.06-206.739c2.761 4.783 8.877 6.422 13.66 3.66 4.783-2.761 6.422-8.877 3.66-13.66l-5.101-8.834c-2.761-4.783-8.877-6.421-13.66-3.66s-6.422 8.877-3.66 13.66zm-54.514 47.899 8.835 5.101c4.783 2.762 10.899 1.123 13.66-3.66s1.123-10.899-3.66-13.66l-8.835-5.101c-4.783-2.762-10.899-1.123-13.66 3.66s-1.123 10.899 3.66 13.66zm23.361 125.739c-2.761-4.783-8.877-6.422-13.66-3.66l-9.701 5.601c-4.783 2.761-6.422 8.877-3.66 13.66 2.761 4.783 8.877 6.422 13.66 3.66l9.701-5.601c4.783-2.761 6.422-8.877 3.66-13.66zm230.622-121.602 7.165-4.137c4.783-2.761 6.422-8.877 3.66-13.66-2.761-4.783-8.877-6.422-13.66-3.66l-7.165 4.137c-4.783 2.761-6.422 8.877-3.66 13.66 2.761 4.782 8.877 6.421 13.66 3.66zm-184.942 166.282c-4.783-2.762-10.899-1.123-13.66 3.66l-5.967 10.334c-2.761 4.783-1.123 10.899 3.66 13.66 4.783 2.761 10.899 1.123 13.66-3.66l5.967-10.334c2.761-4.783 1.123-10.899-3.66-13.66zm144.337-238.109c-4.014-3.794-10.343-3.615-14.136.398l-6.6 6.983c-3.793 4.014-3.615 10.343.399 14.136 4.014 3.794 10.343 3.615 14.136-.398l6.6-6.983c3.794-4.014 3.615-10.343-.399-14.136zm-187.804 121.53h-40c-5.523 0-10 4.477-10 10s4.477 10 10 10h40c5.523 0 10-4.477 10-10s-4.477-10-10-10zm250 0h-40c-5.523 0-10 4.477-10 10s4.477 10 10 10h40c5.523 0 10-4.477 10-10s-4.477-10-10-10z" fill="#d98800"/><path d="m495.494 406.149c-1.162 126.465-196.265 126.47-196.338 0-.039-66.637 46.891-146.908 95.507-176.402 1.647-.999 3.694-1.019 5.363-.058 51.123 29.407 96.091 108.611 95.468 176.46z" fill="#57b79d"/><path d="m400.026 229.689c51.122 29.407 96.091 108.61 95.467 176.46-.107 11.68-1.869 22.281-4.979 31.803-61.868 26.953-150.558-3.572-150.609-91.579-.016-28.375 7.961-59.07 20.85-87.704 10.795-11.948 22.302-21.881 33.905-28.92 1.649-1 3.696-1.021 5.366-.06z" fill="#94cfbe"/><path d="m466.078 411.733c-9.18 9.486-28.065 11.077-38.817 3.374-25.788-18.476-5.738-91.089 11.067-92.624 16.849-1.539 49.656 66.614 27.75 89.25z" fill="#b0dbce"/></svg>