<?xml version="1.0" encoding="UTF-8"?>
<!DOCTYPE svg PUBLIC "-//W3C//DTD SVG 1.1//EN" "http://www.w3.org/Graphics/SVG/1.1/DTD/svg11.dtd">
<!-- Creator: CorelDRAW X7 -->
<svg xmlns="http://www.w3.org/2000/svg" xml:space="preserve" width="100%" height="100%" version="1.1" style="shape-rendering:geometricPrecision; text-rendering:geometricPrecision; image-rendering:optimizeQuality; fill-rule:evenodd; clip-rule:evenodd"
viewBox="0 0 2646 2646"
 xmlns:xlink="http://www.w3.org/1999/xlink">
 <defs>
  <style type="text/css">
   <![CDATA[
    .fil7 {fill:#669A35}
    .fil2 {fill:#71AB3B}
    .fil0 {fill:#7DBE41}
    .fil8 {fill:#B0B0B0}
    .fil6 {fill:#B5B9BA}
    .fil3 {fill:#C3C3C3}
    .fil1 {fill:#C9CECF}
    .fil9 {fill:#D63A3A}
    .fil5 {fill:#E6E6E6}
    .fil4 {fill:white}
   ]]>
  </style>
 </defs>
 <g id="Layer_x0020_1">
  <metadata id="CorelCorpID_0Corel-Layer"/>
  <g id="_915651952">
   <g>
    <path class="fil0" d="M1408 1564l0 34c1,105 -2,248 2,346 3,57 -3,98 -2,149 0,15 -2,12 6,23 18,-4 24,-1 44,-4 -5,10 -4,9 -12,17 -12,12 -8,3 -20,18 -10,13 -10,7 -13,13 -8,21 -2,4 3,11 9,-16 9,-10 21,-22 20,-23 26,-36 53,-35 51,1 190,3 227,-1l1 -81 149 0 49 1 40 0c51,-1 305,-2 334,-2l1 7c0,0 0,1 1,2 0,0 0,1 0,1 2,-4 -6,-10 26,-10 47,1 242,6 257,-2 5,-19 1,-205 1,-240l0 -59c-1,-28 8,-156 -2,-177 0,0 -1,-1 -1,-2l2 -6 -777 0c-3,-18 -1,-35 -2,-49l-3 -10c4,-18 3,-44 1,-63l-246 0 -140 141z"/>
    <path class="fil1" d="M1059 1912c139,1 274,2 325,2 15,0 12,2 24,-5l0 -345 -3 3 0 50 -50 -1 -296 296z"/>
    <path class="fil2" d="M1408 1909l0 411 389 -2 -2 -122 784 0 0 -574c0,-14 3,-76 -4,-77l-2 6c0,1 1,2 1,2 10,21 1,149 2,177l0 59c0,35 4,221 -1,240 -15,8 -210,3 -257,2 -32,0 -24,6 -26,10 0,0 0,-1 0,-1 -1,-1 -1,-2 -1,-2l-1 -7 -317 2 -39 0 -18 0 -49 -1 -149 0 -1 81 -227 1 -32 -2c-20,3 -26,0 -44,4 -8,-11 -6,-8 -6,-23 -1,-51 5,-92 2,-149 -4,-98 -1,-241 -2,-346l0 -34 0 0 0 345z"/>
    <path class="fil3" d="M858 2113l545 1c4,37 -10,187 5,206l0 -411c-12,7 -9,5 -24,5 -51,0 -186,-1 -325,-2l-201 201z"/>
    <polygon class="fil2" points="653,2319 677,2319 677,2295 "/>
    <g>
     <path class="fil4" d="M1109 1862c81,25 145,87 307,16 176,-78 196,60 374,28 25,-5 111,-22 93,-54 -20,-36 -89,56 -238,-3 -105,-41 -135,-51 -246,-6 -139,56 -190,14 -258,-12l-32 31z"/>
     <path class="fil4" d="M1885 1721c-29,-17 -67,13 -113,19 -150,21 -181,-110 -373,-27 -73,32 -123,34 -164,24l-32 32c52,17 116,24 213,-20 116,-51 138,-14 238,18 60,19 231,21 231,-46z"/>
     <path class="fil4" d="M957 2014c23,-6 69,-28 119,-22 90,11 127,72 246,53 89,-15 145,-75 242,-47 93,28 131,72 252,39 84,-22 83,-52 52,-57 -10,-2 -82,28 -124,29 -97,1 -144,-65 -247,-57 -90,7 -140,69 -245,55 -88,-12 -130,-72 -237,-51l-58 58z"/>
    </g>
   </g>
   <g>
    <path class="fil2" d="M1408 1428c10,7 0,10 0,38l0 98 140 -141 -139 0 -1 5z"/>
    <path class="fil5" d="M1041 622c5,9 42,329 40,353l-85 1 45 -354zm177 -147c19,10 25,38 11,59 -12,-3 -1,-4 -17,-6 2,-10 10,-24 -2,-30 -13,-5 -14,20 -16,16 0,0 -1,2 -2,3 -6,-10 -7,-5 -12,-21 7,15 -1,9 -7,11 -6,-28 22,-45 45,-32zm-282 663c10,1 48,12 66,14 21,3 59,4 80,0 10,-2 25,-3 34,-6 33,-8 82,-31 90,-32 10,-15 52,-24 109,-101 47,-65 76,-163 59,-249 -10,-56 -28,-112 -66,-155l-46 -51c34,-41 36,-69 7,-116 -32,-50 -115,-43 -148,2 -11,15 -10,25 -17,39l-10 -1c-41,-9 -96,-5 -135,5 -42,12 -84,28 -113,51 -22,19 -42,32 -64,57l-33 48c-18,35 -23,38 -37,87 -27,93 -1,199 41,264 24,38 23,35 53,66 24,26 66,50 99,65l31 13z"/>
    <path class="fil6" d="M816 1250c10,0 11,-1 18,-6l24 -26c1,0 1,-1 2,-1l12 -11c22,-13 5,-10 28,-27l32 -34c5,-6 0,5 4,-7l-31 -13c-33,-15 -75,-39 -99,-65 -30,-31 -29,-28 -53,-66 -42,-65 -68,-171 -41,-264 14,-49 19,-52 37,-87l33 -48c22,-25 42,-38 64,-57 29,-23 71,-39 113,-51 39,-10 94,-14 135,-5l10 1c62,10 119,39 158,75l46 51c38,43 56,99 66,155 17,86 -12,184 -59,249 -57,77 -99,86 -109,101 21,-7 3,-2 9,1 -1,1 -6,6 -6,7l0 5c0,1 1,2 1,3 0,0 1,2 2,3 9,-8 3,-5 7,-8l23 -5c10,1 7,7 18,10 -10,3 -15,-10 -31,-5 -9,3 -7,4 -9,13 -3,14 -1,7 0,21 7,3 11,7 21,6 16,-2 4,2 10,-4l7 -11c-2,13 -3,11 -5,24 14,1 5,1 14,9 0,0 5,4 7,4 11,2 3,2 11,-2 -4,-8 -4,-9 -11,-15l-18 -11c0,-1 2,-2 3,-1l5 -1c0,0 1,0 2,0 6,2 4,3 1,5l-3 -12c2,-25 -1,-6 6,-15 4,7 1,15 0,24 13,11 9,15 29,20 -2,-19 -13,-20 -17,-32 18,0 7,11 32,15 -2,-14 -5,-20 -18,-27 6,-2 7,-3 11,0 14,12 1,9 22,12 -2,-14 -8,-24 -21,-26l-7 -1c-9,0 -13,7 -19,13 2,-25 6,-17 26,-22l4 -12c0,-1 1,-2 1,-2l5 -8c9,-10 13,-10 22,-6 -4,5 -12,6 -17,10 -1,0 -1,0 -2,1 -4,4 -5,12 -4,18 3,8 9,12 18,14l5 1c1,0 2,0 3,1l8 2c-18,9 -37,0 -22,0 3,4 1,2 8,5l-2 18c-1,0 -2,0 -2,1l-13 2c10,3 3,0 3,9l-22 12c-8,9 -14,15 -23,19l-9 5c0,1 -4,4 -5,5 3,-13 5,0 1,-12 -5,-14 1,-4 -9,-9l-4 11c0,0 1,8 1,10l-15 -12c11,-6 10,-7 12,-20 -21,2 -5,-1 -14,4 0,0 -1,0 -2,1l-2 2c-1,1 -1,1 -1,1l-8 3c-1,0 -2,0 -3,1l-5 2 7 7c1,1 1,1 2,2l17 20c20,0 17,0 29,-11 -5,35 -33,13 -47,0 12,12 3,1 9,15l1 27c-3,8 -5,5 -16,10 -8,-13 -2,-6 -13,-15 -10,-8 -12,-8 -28,-8 -14,22 2,6 -20,21 1,37 11,11 12,33 61,-21 96,-30 153,-71 137,-97 223,-255 209,-442 -10,-133 -72,-234 -135,-301 -161,-170 -434,-201 -635,-60 -143,99 -221,262 -206,445 6,87 39,168 87,237 36,54 122,135 175,153z"/>
    <path class="fil6" d="M915 1287l1 329 -241 2 -1 297c23,-3 207,-3 385,-3l296 -296 -187 0 0 -319c-2,-3 -3,-4 -7,-7 -7,-7 2,-3 -9,-7l-13 -2c-7,1 -9,2 -12,4 -6,16 -3,19 3,32 6,2 4,3 14,3 5,0 5,0 9,-1 1,0 2,0 3,-1 1,-1 2,-1 3,-1 -4,-25 -14,3 -24,-18l30 6c-9,67 -3,189 -3,267 6,-2 1,3 -1,-3l-7 -12c-1,-1 -1,-1 -2,-2 -1,0 -1,-1 -2,-1 -10,-8 -4,2 -11,-9 -17,-27 -7,-3 -17,-15 -1,-1 -4,-8 -6,-11 -10,-14 -9,-1 -19,-18 -8,-13 -7,-6 -16,-13 -7,-5 -3,-10 -15,-18 -9,-5 -3,2 -9,-6 -17,-22 -11,-8 -19,-19l-14 -14c-1,-1 -5,-2 -6,-3 2,-14 1,5 6,-14 -9,1 -12,-2 -14,6l-7 -8c-16,-19 -19,-33 -43,-33 2,13 4,15 10,20 0,0 1,0 1,1l23 21c7,6 1,2 7,7 -1,1 -7,3 -8,4l-26 28c0,0 -1,1 -1,1l-12 12c0,0 -1,1 -1,2 0,0 -1,1 -1,1l-14 16c-19,18 -16,2 -16,18l-1 -214c-3,-11 5,-5 -6,-9zm493 277l0 -136 1 -5c-9,7 -3,-1 -4,11l0 133 3 -3z"/>
    <path class="fil7" d="M1408 1564l0 -98c0,-28 10,-31 0,-38l0 136 0 0z"/>
    <path class="fil2" d="M68 1622c5,9 3,175 3,202 0,34 0,68 0,102 0,27 -3,80 0,104 4,4 -2,1 7,2 148,0 289,4 434,0l1 28c-7,-8 -12,-16 -23,-19 -1,10 1,9 6,15 5,4 6,6 10,11 8,11 6,33 7,48 13,-1 35,-2 41,1 5,1 21,18 26,23 9,8 15,14 24,23l24 26c-22,18 -10,9 -30,29 -12,12 -21,21 -32,32l-64 66c13,-3 4,0 11,-6l4 -3c0,-1 1,-1 1,-2 18,-15 108,-109 116,-112l30 35 -1 -18c-5,-5 -9,-8 -15,-12 -7,-7 -7,-10 -12,-14 -28,-23 -10,-12 -41,-41l-29 -29 97 1 4 14c1,-13 4,-15 4,-29 0,-12 -1,-23 -1,-35l3 -135c-1,-24 -1,-46 0,-70 1,-16 -1,-17 -1,-32l1 -103c0,-29 -3,-109 2,-132l0 -168 -200 -1 -2 121 -400 1c-2,21 -2,-1 -4,16 -1,6 0,13 0,20 1,15 -1,26 -1,41z"/>
    <path class="fil8" d="M675 2113l183 0 201 -201c-178,0 -362,0 -385,3l1 198z"/>
    <path class="fil6" d="M1206 1114c-8,1 -57,24 -90,32 -9,3 -24,4 -34,6 -21,4 -59,3 -80,0 -18,-2 -56,-13 -66,-14 -4,12 1,1 -4,7l-32 34c-23,17 -6,14 -28,27l-12 11c-1,0 -1,1 -2,1l-24 26c-7,5 -8,6 -18,6 16,13 50,19 65,29 11,3 22,8 34,8 11,4 3,-2 6,9l1 214c0,-16 -3,0 16,-18l14 -16c0,0 1,-1 1,-1 0,-1 1,-2 1,-2l12 -12c0,0 1,-1 1,-1l26 -28c1,-1 7,-3 8,-4 -6,-5 0,-1 -7,-7l-23 -21c0,-1 -1,-1 -1,-1 -6,-5 -8,-7 -10,-20 24,0 27,14 43,33l7 8c2,-8 5,-5 14,-6 -5,19 -4,0 -6,14 1,1 5,2 6,3l14 14c8,11 2,-3 19,19 6,8 0,1 9,6 12,8 8,13 15,18 9,7 8,0 16,13 10,17 9,4 19,18 2,3 5,10 6,11 10,12 0,-12 17,15 7,11 1,1 11,9 1,0 1,1 2,1 1,1 1,1 2,2l7 12c2,6 7,1 1,3 0,-78 -6,-200 3,-267l-30 -6c10,21 20,-7 24,18 -1,0 -2,0 -3,1 -1,1 -2,1 -3,1 -4,1 -4,1 -9,1 -10,0 -8,-1 -14,-3 -6,-13 -9,-16 -3,-32 3,-2 5,-3 12,-4l13 2c11,4 2,0 9,7 4,3 5,4 7,7l0 -8c-1,-22 -11,4 -12,-33 22,-15 6,1 20,-21 16,0 18,0 28,8 11,9 5,2 13,15 11,-5 13,-2 16,-10l-1 -27c-6,-14 3,-3 -9,-15 14,13 42,35 47,0 -12,11 -9,11 -29,11l-17 -20c-1,-1 -1,-1 -2,-2l-7 -7 5 -2c1,-1 2,-1 3,-1l8 -3c0,0 0,0 1,-1l2 -2c1,-1 2,-1 2,-1 9,-5 -7,-2 14,-4 -2,13 -1,14 -12,20l15 12c0,-2 -1,-10 -1,-10l4 -11c10,5 4,-5 9,9 4,12 2,-1 -1,12 1,-1 5,-4 5,-5l9 -5c9,-4 15,-10 23,-19l22 -12c0,-9 7,-6 -3,-9l13 -2c0,-1 1,-1 2,-1l2 -18c-7,-3 -5,-1 -8,-5 -15,0 4,9 22,0l-8 -2c-1,-1 -2,-1 -3,-1l-5 -1c-9,-2 -15,-6 -18,-14 -1,-6 0,-14 4,-18 1,-1 1,-1 2,-1 5,-4 13,-5 17,-10 -9,-4 -13,-4 -22,6l-5 8c0,0 -1,1 -1,2l-4 12c-20,5 -24,-3 -26,22 6,-6 10,-13 19,-13l7 1c13,2 19,12 21,26 -21,-3 -8,0 -22,-12 -4,-3 -5,-2 -11,0 13,7 16,13 18,27 -25,-4 -14,-15 -32,-15 4,12 15,13 17,32 -20,-5 -16,-9 -29,-20 1,-9 4,-17 0,-24 -7,9 -4,-10 -6,15l3 12c3,-2 5,-3 -1,-5 -1,0 -2,0 -2,0l-5 1c-1,-1 -3,0 -3,1l18 11c7,6 7,7 11,15 -8,4 0,4 -11,2 -2,0 -7,-4 -7,-4 -9,-8 0,-8 -14,-9 2,-13 3,-11 5,-24l-7 11c-6,6 6,2 -10,4 -10,1 -14,-3 -21,-6 -1,-14 -3,-7 0,-21 2,-9 0,-10 9,-13 16,-5 21,8 31,5 -11,-3 -8,-9 -18,-10l-23 5c-4,3 2,0 -7,8 -1,-1 -2,-3 -2,-3 0,-1 -1,-2 -1,-3l0 -5c0,-1 5,-6 6,-7 -6,-3 12,-8 -9,-1z"/>
    <path class="fil7" d="M365 2031l-287 1c-9,-1 -3,2 -7,-2 -3,-24 0,-77 0,-104 0,-34 0,-68 0,-102 0,-27 2,-193 -3,-202 0,-15 2,-26 1,-41 0,-7 -1,-14 0,-20 2,-17 2,5 4,-16 -9,3 -6,0 -7,15l1 62c0,27 0,54 0,82l-1 492 408 0 0 122 179 1 24 -24 -2 -182 -1 -198 1 -297 0 -26c-5,23 -2,103 -2,132l-1 103c0,15 2,16 1,32 -1,24 -1,46 0,70l-3 135c0,12 1,23 1,35 0,11 3,15 -8,15l-97 -1 -12 3c-6,-3 -28,-2 -41,-1l0 -40 0 -15 -1 -28c-55,1 -92,2 -147,-1z"/>
    <path class="fil9" d="M996 976l85 -1c2,-24 -35,-344 -40,-353l-45 354z"/>
    <g>
     <path class="fil5" d="M931 1872c29,17 73,-17 115,-18 23,-1 44,3 63,8l32 -31c-31,-12 -66,-20 -113,-15 -34,4 -100,14 -97,56z"/>
     <path class="fil5" d="M1235 1737c-69,-16 -115,-61 -207,-50 -26,3 -113,21 -96,53 13,22 77,-14 114,-15 59,-3 102,26 157,44l32 -32z"/>
     <path class="fil5" d="M1005 1959c-98,23 -85,53 -58,57 3,0 6,-1 10,-2l58 -58c-3,1 -7,2 -10,3z"/>
    </g>
   </g>
  </g>
 </g>
</svg>
