<?xml version="1.0" encoding="UTF-8"?>
<!DOCTYPE svg PUBLIC "-//W3C//DTD SVG 1.1//EN" "http://www.w3.org/Graphics/SVG/1.1/DTD/svg11.dtd">
<!-- Creator: CorelDRAW X7 -->
<svg xmlns="http://www.w3.org/2000/svg" xml:space="preserve" width="100%" height="100%" version="1.1" style="shape-rendering:geometricPrecision; text-rendering:geometricPrecision; image-rendering:optimizeQuality; fill-rule:evenodd; clip-rule:evenodd"
viewBox="0 0 1729 1729"
 xmlns:xlink="http://www.w3.org/1999/xlink">
 <defs>
  <style type="text/css">
   <![CDATA[
    .fil2 {fill:#36A6DE}
    .fil1 {fill:#5CB7E4}
    .fil3 {fill:#EE4040}
    .fil0 {fill:white}
   ]]>
  </style>
 </defs>
 <g id="Layer_x0020_1">
  <metadata id="CorelCorpID_0Corel-Layer"/>
  <rect class="fil0" width="1729" height="1729"/>
  <path class="fil1" d="M1286 636l4 6 32 -13c11,20 22,43 27,75l-22 2 1 18 22 1c-8,45 -13,43 -27,76l-33 -13 -4 5c12,25 6,6 13,32 -27,11 -32,22 -71,23l-8 -28 -14 2 -3 25c-34,2 -52,-12 -75,-24l12 -30 -6 -4 -29 11c-12,-21 -23,-39 -26,-69l21 -5 4 -20 -26 -4c5,-33 15,-51 27,-71l29 10 6 -4 -13 -30c21,-13 39,-22 70,-27l14 38 16 -37c42,1 44,13 72,24l-13 31zm-519 339l-251 1 1 44 252 1 -2 -46zm682 274l51 1 0 -68 95 0 -1 -125 -92 -3 -2 -68 -52 0 1 263zm-1316 62c129,10 122,-30 122,65l57 0 -2 -268 -54 -1 -1 63 -121 2 -1 139zm536 -779c28,24 50,36 51,80l-2 274c-5,21 -42,55 -56,67 86,10 86,-10 127,-51 25,-24 21,-23 20,-69 -1,-166 42,-322 -140,-301zm-45 423c-60,-97 -58,18 -58,-209 0,-243 -3,-123 50,-216 -49,-1 -67,-9 -95,18 -23,21 -44,34 -44,73l0 250c0,23 28,44 43,59 32,32 35,24 104,25zm-195 0l86 1c-60,-86 -57,15 -57,-218 0,-105 -21,-157 52,-208l-88 0c-24,21 -54,38 -58,82 -2,39 1,93 1,134 0,107 -22,153 64,209zm423 0c85,-63 69,-73 69,-209 0,-133 22,-154 -61,-216l-83 0c21,41 47,30 50,83l-2 272c-7,25 -41,40 -56,70l83 0zm-211 -416c-79,53 -58,83 -58,199 0,32 -4,107 1,134 5,33 33,52 55,68 85,-47 62,-113 62,-202 0,-115 16,-153 -60,-199zm-204 -30l414 -1c-1,-189 -14,-152 -202,-152 -169,0 -233,-40 -212,153zm482 539c-98,0 -196,0 -294,0 -91,0 -210,-14 -170,103 19,2 39,3 58,5 7,1 20,3 27,5 15,5 10,3 19,10l-178 0 -3 -63 -57 1 4 267 53 -1 5 -63c94,0 188,0 281,0 115,0 186,22 168,-113 117,0 84,-3 94,54l52 0 -2 -270 -51 2 -6 63zm457 141l8 1 0 60 48 0 0 -264 -47 0c0,6 1,31 0,35l0 26 -98 1 -4 -130c6,-24 156,-70 132,-234 -14,-95 -97,-174 -203,-173 -196,2 -275,248 -122,366 62,48 53,-12 51,171l-90 0 -7 -63 -49 -2 -4 270 53 -1 5 -64 327 1z"/>
  <path class="fil2" d="M1286 636l4 6 32 -13c11,20 22,43 27,75l-22 2 1 18 22 1c-8,45 -13,43 -27,76l-33 -13 -4 5c12,25 6,6 13,32 -27,11 -32,22 -71,23l-8 -28 -14 2 -3 25c-34,2 -52,-12 -75,-24l12 -30 -6 -4 -29 11c-12,-21 -23,-39 -26,-69l21 -5 4 -20 -26 -4c5,-33 15,-51 27,-71l29 10 6 -4 -13 -30c21,-13 39,-22 70,-27l14 38 16 -37c42,1 44,13 72,24l-13 31zm-209 552l-83 -118 1 -87 49 2 7 63 90 0c2,-183 11,-123 -51,-171 -153,-118 -74,-364 122,-366 106,-1 189,78 203,173 24,164 -126,210 -132,234l4 130 98 -1 0 -26c1,-4 0,-29 0,-35l47 0 0 264 -48 0 0 -60 -8 -1 -299 -1zm-101 -143l-42 -60 42 -2 0 62zm-85 -122l-65 -94 1 -216c-3,-53 -29,-42 -50,-83l83 0c83,62 61,83 61,216 0,109 10,137 -30,177zm-82 -117l-89 -127 0 -67c-1,-44 -23,-56 -51,-80 172,-20 143,119 140,274zm-107 -153l-74 -105c4,-3 8,-6 13,-9 53,32 61,60 61,114zm-86 -123l0 0 0 0 0 0zm-15 -21l-108 -154c35,-6 87,1 156,1 188,0 201,-37 202,152l-250 1zm848 740l51 1 0 -68 95 0 -1 -125 -92 -3 -2 -68 -52 0 1 263z"/>
  <path class="fil2" d="M1286 636l4 6 32 -13c11,20 22,43 27,75l-22 2 1 18 22 1c-8,45 -13,43 -27,76l-33 -13 -4 5c12,25 6,6 13,32 -27,11 -32,22 -71,23l-8 -28 -14 2 -3 25c-34,2 -52,-12 -75,-24l12 -30 -6 -4 -29 11c-12,-21 -23,-39 -26,-69l21 -5 4 -20 -26 -4c5,-33 15,-51 27,-71l29 10 6 -4 -13 -30c21,-13 39,-22 70,-27l14 38 16 -37c42,1 44,13 72,24l-13 31zm-235 552l-58 -100 2 -105 49 2 7 63 90 0c2,-183 11,-123 -51,-171 -153,-118 -74,-364 122,-366 106,-1 189,78 203,173 24,164 -126,210 -132,234l4 130 98 -1 0 -26c1,-4 0,-29 0,-35l47 0 0 264 -48 0 0 -60 -8 -1 -325 -1zm-75 -129l-42 -74 42 -2 0 76zm-81 -141l-69 -120 1 -185c-3,-53 -29,-42 -50,-83l83 0c83,62 61,83 61,216 0,105 9,135 -26,172zm-85 -147l-90 -156 0 -3c-1,-40 -20,-54 -45,-75l-3 -6c155,-16 143,101 138,240zm-151 -262l-89 -155c23,1 49,2 79,2 188,0 201,-37 202,152l-192 1zm790 740l51 1 0 -68 95 0 -1 -125 -92 -3 -2 -68 -52 0 1 263z"/>
  <polygon class="fil3" points="1213,656 1227,755 1200,755 "/>
 </g>
</svg>
