<?xml version="1.0" encoding="UTF-8"?>
<!DOCTYPE svg PUBLIC "-//W3C//DTD SVG 1.1//EN" "http://www.w3.org/Graphics/SVG/1.1/DTD/svg11.dtd">
<!-- Creator: CorelDRAW X7 -->
<svg xmlns="http://www.w3.org/2000/svg" xml:space="preserve" width="100%" height="100%" version="1.1" style="shape-rendering:geometricPrecision; text-rendering:geometricPrecision; image-rendering:optimizeQuality; fill-rule:evenodd; clip-rule:evenodd"
viewBox="0 0 2646 2646"
 xmlns:xlink="http://www.w3.org/1999/xlink">
 <defs>
  <style type="text/css">
   <![CDATA[
    .fil4 {fill:#209141}
    .fil2 {fill:#24A148}
    .fil3 {fill:#A3A7A7}
    .fil1 {fill:#B5B9BA}
    .fil0 {fill:#C9CECF}
   ]]>
  </style>
 </defs>
 <g id="Layer_x0020_1">
  <metadata id="CorelCorpID_0Corel-Layer"/>
  <g id="_662883960">
   <g>
    <path class="fil0" d="M627 996l0 107c-89,-1 -147,-17 -149,53 -109,0 -218,1 -327,0 -103,0 -83,3 -83,238 0,138 -12,116 208,116 98,0 455,1 858,2l355 -355c-163,1 -327,3 -487,-1 -33,-66 13,-49 -152,-53l-1 -106c138,-5 297,9 430,-1 66,-5 44,-114 44,-170l0 -435c0,-90 -24,-74 -149,-74l-870 0c-180,0 -151,-38 -151,284l0 325c0,40 1,64 38,69l436 1z"/>
    <path class="fil1" d="M1046 1600l-709 0c-4,222 -2,475 -1,710l710 -710z"/>
    <path class="fil2" d="M1412 744c-1,59 0,118 0,177 0,123 -39,99 -37,139 8,5 91,7 203,8l325 -325c-126,-6 -437,-5 -491,1z"/>
    <path class="fil2" d="M1649 179c-127,14 -232,124 -217,269 13,127 129,230 272,213 122,-14 228,-127 211,-270 -14,-122 -126,-228 -266,-212z"/>
   </g>
   <g>
    <path class="fil1" d="M1134 1512c643,1 1403,0 1418,-6 39,-17 25,-91 25,-136 0,-53 2,-109 1,-162 -2,-64 -55,-52 -109,-52l-812 0c-56,0 -112,1 -168,1l-355 355z"/>
    <path class="fil3" d="M2307 1600l-1261 0 -710 710c0,31 0,62 0,93 1,46 11,63 59,64 308,4 619,0 927,0 308,0 616,1 923,0 79,-1 62,-36 62,-169l0 -698z"/>
    <path class="fil4" d="M1578 1068c221,2 551,-2 609,-1 -3,-157 -73,-286 -236,-320 -8,-1 -25,-3 -48,-4l-325 325z"/>
   </g>
  </g>
 </g>
</svg>
