<svg width="750" height="500" viewBox="0 0 750 500" fill="none" xmlns="http://www.w3.org/2000/svg">
<rect width="750" height="500" fill="white"/>
<rect width="750" height="500" fill="white"/>
<path d="M620.709 188.809C626.35 185.024 627.855 177.383 624.07 171.742C620.285 166.101 612.644 164.597 607.003 168.381C601.362 172.166 599.857 179.807 603.642 185.448C607.427 191.09 615.068 192.594 620.709 188.809Z" fill="#E0E0E0"/>
<path d="M577.34 191.69C584.575 191.69 590.44 185.825 590.44 178.59C590.44 171.355 584.575 165.49 577.34 165.49C570.105 165.49 564.24 171.355 564.24 178.59C564.24 185.825 570.105 191.69 577.34 191.69Z" fill="#E0E0E0"/>
<path d="M549.28 169.31C556.957 169.31 563.18 163.087 563.18 155.41C563.18 147.733 556.957 141.51 549.28 141.51C541.603 141.51 535.38 147.733 535.38 155.41C535.38 163.087 541.603 169.31 549.28 169.31Z" fill="#E0E0E0"/>
<path d="M543.58 134.31C551.599 134.31 558.1 127.809 558.1 119.79C558.1 111.771 551.599 105.27 543.58 105.27C535.561 105.27 529.06 111.771 529.06 119.79C529.06 127.809 535.561 134.31 543.58 134.31Z" fill="#E0E0E0"/>
<path d="M561.37 103.61C569.66 103.61 576.38 96.8898 576.38 88.6C576.38 80.3102 569.66 73.59 561.37 73.59C553.08 73.59 546.36 80.3102 546.36 88.6C546.36 96.8898 553.08 103.61 561.37 103.61Z" fill="#E0E0E0"/>
<path d="M595.54 92.63C604.575 92.63 611.9 85.3054 611.9 76.27C611.9 67.2346 604.575 59.91 595.54 59.91C586.505 59.91 579.18 67.2346 579.18 76.27C579.18 85.3054 586.505 92.63 595.54 92.63Z" fill="#E0E0E0"/>
<path d="M652.508 157.816C654.007 151.429 650.045 145.035 643.657 143.536C637.27 142.036 630.876 145.999 629.377 152.387C627.877 158.774 631.84 165.168 638.228 166.667C644.615 168.166 651.009 164.204 652.508 157.816Z" fill="#E0E0E0"/>
<path d="M647.33 130.41C653.416 130.41 658.35 125.476 658.35 119.39C658.35 113.304 653.416 108.37 647.33 108.37C641.244 108.37 636.31 113.304 636.31 119.39C636.31 125.476 641.244 130.41 647.33 130.41Z" fill="#E0E0E0"/>
<path d="M629 98.26C634.562 98.26 639.07 93.7515 639.07 88.19C639.07 82.6285 634.562 78.12 629 78.12C623.438 78.12 618.93 82.6285 618.93 88.19C618.93 93.7515 623.438 98.26 629 98.26Z" fill="#E0E0E0"/>
<path d="M207 79.75C208.116 79.5038 209.264 79.443 210.4 79.57C213.053 79.8283 215.575 80.8484 217.662 82.5074C219.748 84.1663 221.31 86.3933 222.16 88.92C222.964 91.3001 223.112 93.8527 222.59 96.31C221.999 99.0389 220.606 101.529 218.59 103.46C216.442 105.554 213.679 106.904 210.706 107.309C207.734 107.714 204.71 107.153 202.08 105.71C199.632 104.372 197.637 102.335 196.35 99.86C195.193 97.6295 194.658 95.1287 194.8 92.62C194.922 90.4431 195.555 88.3257 196.65 86.44C198.217 83.6887 200.691 81.5676 203.65 80.44C204.706 80.0169 205.824 79.7703 206.96 79.71C206.96 79.81 205.76 79.9 203.76 80.71C200.942 81.9128 198.607 84.0252 197.13 86.71C196.042 88.6651 195.461 90.8612 195.438 93.0985C195.415 95.3357 195.952 97.5432 197 99.52C197.592 100.659 198.354 101.701 199.26 102.61C200.202 103.579 201.297 104.386 202.5 105C204.986 106.356 207.841 106.882 210.648 106.501C213.455 106.119 216.066 104.851 218.1 102.88C220.005 101.056 221.324 98.706 221.89 96.13C222.398 93.8077 222.281 91.3921 221.55 89.13C220.91 87.1452 219.81 85.3396 218.34 83.86C216.201 81.6628 213.381 80.2532 210.34 79.86C209.229 79.7675 208.114 79.7308 207 79.75Z" fill="#E0E0E0"/>
<path d="M212.21 62.17C212.21 62.17 212.14 62.03 212.02 61.72L211.48 60.37C210.99 59.12 210.3 57.31 209.39 54.98L209.53 55.06L196.87 56.85L197.04 56.67C196.85 59 196.63 61.59 196.4 64.36V64.5L196.27 64.56C193.717 65.6272 191.318 67.0332 189.14 68.74L189.02 68.84L188.87 68.77L181.87 65.59L182.21 65.5L174.5 75.69V75.31L179.5 81.22L179.63 81.37L179.55 81.55C178.503 84.1128 177.801 86.8028 177.46 89.55V89.76L177.26 89.83L170.03 92.54L170.26 92.17C170.8 96.17 171.39 100.44 171.99 104.83L171.66 104.52L179.35 105.19H179.58L179.67 105.4C180.732 107.94 182.128 110.328 183.82 112.5L183.96 112.68L183.86 112.89C182.86 115.1 181.77 117.5 180.66 119.89L180.55 119.42L190.72 127.16H190.23L196.15 122.16L196.33 122.01L196.55 122.1C199.096 123.148 201.769 123.854 204.5 124.2V124.2C204.64 124.31 204.18 123.95 204.82 124.46V124.58L204.91 124.8L205.08 125.26L205.42 126.17L206.09 127.98C206.55 129.19 206.99 130.39 207.44 131.59L207.02 131.34L219.69 129.62L219.35 129.97C219.577 127.383 219.803 124.82 220.03 122.28V122.05L220.25 121.96C222.793 120.902 225.184 119.509 227.36 117.82L227.54 117.68L227.75 117.77L234.75 120.98L234.3 121.1L242.05 110.93V111.39C240.37 109.39 238.71 107.39 237.05 105.46L236.91 105.29L237 105.1C238.054 102.538 238.763 99.8482 239.11 97.1V96.9L239.3 96.83L246.54 94.14L246.33 94.49C245.73 90.03 245.17 85.82 244.64 81.82L244.91 82.08L237.22 81.38H237.05L236.98 81.23C235.96 78.7446 234.622 76.4017 233 74.26L232.91 74.13L232.97 73.99C234.14 71.44 235.2 69.15 236.2 66.99L236.27 67.27L226.13 59.48H226.35L220.35 64.4H220.29H220.22C218.284 63.5906 216.275 62.9678 214.22 62.54L212.7 62.26L212.19 62.16C212.363 62.1464 212.537 62.1464 212.71 62.16C213.05 62.16 213.56 62.26 214.25 62.39C216.306 62.7599 218.317 63.3465 220.25 64.14H220.12C221.73 62.77 223.65 61.14 226.01 59.14L226.11 59.05L226.23 59.13L236.43 66.83L236.58 66.94L236.5 67.11C235.5 69.29 234.5 71.59 233.32 74.11V73.84C235.054 76.0562 236.483 78.4945 237.57 81.09L237.34 80.92L245.03 81.58H245.27V81.82C245.82 85.82 246.39 90.02 247.01 94.48V94.74L246.77 94.83L239.54 97.54L239.76 97.27C239.408 100.069 238.688 102.809 237.62 105.42L237.56 105.06C239.193 106.987 240.86 108.957 242.56 110.97L242.75 111.19L242.57 111.42L234.84 121.6L234.66 121.84L234.39 121.71L227.39 118.52H227.78C225.549 120.254 223.098 121.683 220.49 122.77L220.73 122.45C220.51 124.99 220.28 127.55 220.06 130.14V130.45H219.75L207.09 132.18H206.78L206.67 131.88L205.32 128.28L204.64 126.46L204.3 125.55L204.13 125.1L204.04 124.87V124.76V124.7C204.68 125.21 204.22 124.84 204.36 124.95C201.56 124.598 198.819 123.875 196.21 122.8L196.62 122.74L190.69 127.74L190.45 127.94L190.21 127.75L180 120.06L179.75 119.88L179.88 119.6L183.09 112.6L183.14 112.99C181.409 110.759 179.983 108.307 178.9 105.7L179.21 105.93L171.52 105.25H171.23V104.96C170.63 100.56 170.06 96.27 169.52 92.29V92.01L169.78 91.92L177.01 89.22L176.8 89.5C177.15 86.7017 177.876 83.9635 178.96 81.36V81.69L174 75.7L173.84 75.51L173.99 75.32C176.663 71.7733 179.24 68.39 181.72 65.17L181.85 64.99L182.06 65.08L189.06 68.3H188.79C191.013 66.5763 193.458 65.1602 196.06 64.09L195.92 64.28C196.17 61.51 196.41 58.92 196.63 56.59V56.43H196.79L209.46 54.79H209.56V54.88L211.5 60.27C211.71 60.86 211.87 61.27 211.99 61.67C212.081 61.8283 212.155 61.9959 212.21 62.17V62.17Z" fill="#E0E0E0"/>
<path fill-rule="evenodd" clip-rule="evenodd" d="M151 136C154.913 136.488 158.744 137.497 162.39 139L170.76 132L185.17 143L180.64 152.93C183.059 156.047 185.056 159.47 186.58 163.11L197.45 164.11L199.88 182L189.65 185.82C189.166 189.734 188.157 193.565 186.65 197.21L193.65 205.58L182.71 219.96L172.77 215.43C169.656 217.855 166.233 219.852 162.59 221.37L161.59 232.24L143.68 234.67L139.86 224.44C135.947 223.951 132.117 222.942 128.47 221.44L120.1 228.44L105.72 217.5L110.25 207.56C107.828 204.446 105.834 201.022 104.32 197.38L93.44 196.38L91.01 178.47L101.24 174.65C101.725 170.736 102.734 166.905 104.24 163.26L97.24 154.89L108.18 140.51L118.12 145.04C121.235 142.621 124.659 140.626 128.3 139.11L129.3 128.23L147.21 125.8L151 136ZM143.65 160.86C139.849 161.373 136.286 163.003 133.411 165.541C130.536 168.08 128.479 171.414 127.499 175.123C126.519 178.831 126.661 182.746 127.907 186.374C129.153 190.001 131.447 193.178 134.498 195.501C137.549 197.825 141.221 199.192 145.049 199.428C148.877 199.665 152.689 198.761 156.004 196.831C159.318 194.901 161.986 192.031 163.669 188.585C165.352 185.139 165.975 181.271 165.46 177.47C164.762 172.387 162.078 167.788 157.995 164.681C153.913 161.573 148.765 160.21 143.68 160.89L143.65 160.86Z" fill="#E0E0E0"/>
<path d="M714 429C714 429.15 562.21 429.26 375 429.26C187.79 429.26 36 429.11 36 429C36 428.89 187.76 428.74 375 428.74C562.24 428.74 714 428.82 714 429Z" fill="#263238"/>
<path d="M592.1 133.22H183.93C175.883 133.22 169.36 139.743 169.36 147.79V407.84C169.36 415.887 175.883 422.41 183.93 422.41H592.1C600.147 422.41 606.67 415.887 606.67 407.84V147.79C606.67 139.743 600.147 133.22 592.1 133.22Z" fill="#455A64"/>
<path d="M152.27 403.73H626.06V411.24C626.06 415.961 624.185 420.488 620.846 423.827C617.508 427.165 612.981 429.04 608.26 429.04H170.07C165.349 429.04 160.822 427.165 157.484 423.827C154.145 420.488 152.27 415.961 152.27 411.24V403.73V403.73Z" fill="#455A64"/>
<path d="M593.71 144.71H181.1V388.93H593.71V144.71Z" fill="#263238"/>
<path d="M344.91 401.02L350.79 410.37H433.52L438.98 401.02H344.91Z" fill="#263238"/>
<path d="M582.79 152.98H192.87C191.064 152.98 189.6 154.444 189.6 156.25V384.88C189.6 386.686 191.064 388.15 192.87 388.15H582.79C584.596 388.15 586.06 386.686 586.06 384.88V156.25C586.06 154.444 584.596 152.98 582.79 152.98Z" fill="#EBEBEB"/>
<path d="M585.64 388.49H189.18L189.6 170.55H585.64V388.49Z" fill="#FAFAFA"/>
<path d="M222.11 162.06C222.11 162.687 221.924 163.301 221.575 163.822C221.226 164.344 220.731 164.75 220.151 164.99C219.571 165.229 218.933 165.291 218.318 165.168C217.703 165.045 217.138 164.742 216.695 164.298C216.252 163.854 215.951 163.288 215.83 162.672C215.709 162.057 215.773 161.419 216.014 160.84C216.256 160.261 216.664 159.766 217.186 159.419C217.709 159.072 218.323 158.888 218.95 158.89C219.366 158.89 219.778 158.972 220.162 159.132C220.546 159.291 220.894 159.525 221.188 159.819C221.482 160.114 221.714 160.463 221.872 160.848C222.031 161.232 222.111 161.644 222.11 162.06V162.06Z" fill="#263238"/>
<path d="M202.92 162.06C202.92 162.687 202.734 163.301 202.385 163.822C202.036 164.344 201.541 164.75 200.961 164.99C200.381 165.229 199.743 165.291 199.128 165.168C198.513 165.045 197.948 164.742 197.505 164.298C197.062 163.854 196.761 163.288 196.64 162.672C196.519 162.057 196.583 161.419 196.824 160.84C197.066 160.261 197.474 159.766 197.996 159.419C198.519 159.072 199.133 158.888 199.76 158.89C200.176 158.89 200.588 158.972 200.972 159.132C201.356 159.291 201.704 159.525 201.998 159.819C202.292 160.114 202.524 160.463 202.682 160.848C202.841 161.232 202.921 161.644 202.92 162.06V162.06Z" fill="#263238"/>
<path d="M212.14 162.06C212.14 162.687 211.954 163.3 211.606 163.821C211.257 164.342 210.762 164.749 210.183 164.989C209.604 165.229 208.966 165.291 208.352 165.169C207.737 165.047 207.172 164.745 206.728 164.302C206.285 163.858 205.983 163.293 205.861 162.678C205.739 162.064 205.801 161.426 206.041 160.847C206.281 160.268 206.688 159.773 207.209 159.424C207.73 159.076 208.343 158.89 208.97 158.89C209.811 158.89 210.617 159.224 211.212 159.818C211.806 160.413 212.14 161.219 212.14 162.06V162.06Z" fill="#263238"/>
<path d="M602.91 401C602.91 401.16 505.85 401.28 386.15 401.28C266.45 401.28 169.36 401.16 169.36 401C169.36 400.84 266.36 400.72 386.15 400.72C505.94 400.72 602.91 400.86 602.91 401Z" fill="#263238"/>
<path d="M526.6 278.75H257.19C254.026 278.75 250.992 277.493 248.754 275.256C246.517 273.018 245.26 269.984 245.26 266.82V266.82C245.26 263.655 246.517 260.62 248.754 258.381C250.991 256.142 254.025 254.883 257.19 254.88H526.6C529.765 254.883 532.799 256.142 535.036 258.381C537.273 260.62 538.53 263.655 538.53 266.82V266.82C538.53 269.984 537.273 273.018 535.036 275.256C532.798 277.493 529.764 278.75 526.6 278.75Z" fill="#EBEBEB"/>
<path d="M396.39 278.75H382C380.412 278.763 378.836 278.461 377.365 277.861C375.895 277.26 374.558 276.374 373.432 275.253C372.307 274.132 371.415 272.799 370.808 271.331C370.202 269.863 369.893 268.289 369.9 266.7V266.7C369.877 265.142 370.167 263.596 370.752 262.152C371.337 260.708 372.206 259.397 373.307 258.295C374.409 257.193 375.72 256.323 377.163 255.736C378.606 255.15 380.152 254.858 381.71 254.88L396.39 254.94C399.611 254.993 402.682 256.312 404.937 258.612C407.192 260.912 408.451 264.009 408.44 267.23V267.23C408.44 273.88 403 278.75 396.39 278.75Z" fill="#E0E0E0"/>
<path d="M388.92 278.75H257.19C254.026 278.75 250.992 277.493 248.754 275.256C246.517 273.018 245.26 269.984 245.26 266.82V266.82C245.26 263.655 246.517 260.62 248.754 258.381C250.991 256.142 254.025 254.883 257.19 254.88H388.92C392.087 254.88 395.124 256.138 397.363 258.377C399.602 260.616 400.86 263.653 400.86 266.82C400.86 268.388 400.551 269.94 399.951 271.388C399.351 272.836 398.471 274.151 397.362 275.259C396.253 276.367 394.937 277.246 393.488 277.845C392.04 278.444 390.488 278.751 388.92 278.75V278.75Z" fill="#90CAF9"/>
<g opacity="0.2">
<path opacity="0.2" d="M261.75 254.88L276.33 278.75H286.64L271.48 254.88H261.75Z" fill="white"/>
</g>
<g opacity="0.2">
<path opacity="0.2" d="M239.69 254.88L254.27 278.75H264.58L249.42 254.88H239.69Z" fill="white"/>
</g>
<g opacity="0.2">
<path opacity="0.2" d="M283.09 254.88L297.66 278.75H307.98L292.82 254.88H283.09Z" fill="white"/>
</g>
<g opacity="0.2">
<path opacity="0.2" d="M304.43 254.88L319 278.75H329.32L314.16 254.88H304.43Z" fill="white"/>
</g>
<g opacity="0.2">
<path opacity="0.2" d="M325.76 254.88L340.34 278.75H350.65L335.49 254.88H325.76Z" fill="white"/>
</g>
<g opacity="0.2">
<path opacity="0.2" d="M347.1 254.88L361.67 278.75H371.99L356.83 254.88H347.1Z" fill="white"/>
</g>
<g opacity="0.2">
<path opacity="0.2" d="M368.44 254.88L383.01 278.75H393.33L378.17 254.88H368.44Z" fill="white"/>
</g>
<g opacity="0.2">
<path opacity="0.2" d="M389.77 254.88L404.35 278.75H414.66L399.5 254.88H389.77Z" fill="white"/>
</g>
<path d="M326.71 301.62C329.24 301.62 330.71 302.88 330.71 305.06C330.71 307.24 329.26 308.66 326.71 308.66H324.39V311.66H322.69V301.62H326.71ZM324.39 307.14H326.64C328.19 307.14 329.07 306.47 329.07 305.14C329.07 303.81 328.19 303.14 326.64 303.14H324.39V307.14Z" fill="#90CAF9"/>
<path d="M332.64 311.7V301H334.3V311.7H332.64Z" fill="#90CAF9"/>
<path d="M343.84 308.5H338.06C338.156 309.052 338.449 309.551 338.885 309.904C339.321 310.257 339.87 310.44 340.43 310.42C340.832 310.422 341.23 310.344 341.601 310.189C341.972 310.035 342.309 309.807 342.59 309.52L343.47 310.46C343.063 310.887 342.569 311.222 342.023 311.444C341.477 311.667 340.889 311.771 340.3 311.75C339.781 311.785 339.26 311.709 338.773 311.527C338.285 311.346 337.842 311.063 337.472 310.697C337.103 310.331 336.815 309.89 336.628 309.405C336.442 308.919 336.36 308.399 336.39 307.88C336.365 307.364 336.447 306.848 336.632 306.365C336.817 305.882 337.101 305.443 337.465 305.077C337.829 304.71 338.266 304.423 338.747 304.234C339.228 304.045 339.743 303.959 340.26 303.98C343 304 344 305.74 343.84 308.5ZM342.4 307.29C342.401 307.016 342.345 306.745 342.236 306.493C342.128 306.242 341.969 306.015 341.769 305.828C341.569 305.64 341.333 305.496 341.075 305.403C340.817 305.311 340.543 305.272 340.27 305.29C339.711 305.27 339.166 305.467 338.748 305.84C338.331 306.213 338.073 306.732 338.03 307.29H342.4Z" fill="#90CAF9"/>
<path d="M350.45 310.76C350.133 311.109 349.739 311.38 349.301 311.553C348.862 311.727 348.39 311.797 347.92 311.76C347.584 311.798 347.243 311.765 346.92 311.663C346.598 311.56 346.3 311.392 346.046 311.168C345.793 310.943 345.589 310.668 345.449 310.36C345.308 310.052 345.233 309.718 345.23 309.38C345.23 307.99 346.23 307.1 348.12 307.08H350.43V306.85C350.43 305.85 349.82 305.31 348.61 305.31C347.795 305.334 347.006 305.606 346.35 306.09L345.67 304.94C346.637 304.266 347.792 303.916 348.97 303.94C350.97 303.94 352.05 304.94 352.06 306.63V311.63H350.44L350.45 310.76ZM350.45 309.01V308.3H348.38C347.3 308.3 346.8 308.59 346.8 309.3C346.8 310.01 347.36 310.44 348.28 310.44C349.44 310.46 350.35 309.84 350.43 309L350.45 309.01Z" fill="#90CAF9"/>
<path d="M359.55 304.75L358.94 305.97C358.279 305.554 357.52 305.319 356.74 305.29C356.1 305.29 355.62 305.51 355.62 306.06C355.62 307.47 359.69 306.7 359.68 309.48C359.68 311.05 358.28 311.75 356.74 311.75C355.621 311.77 354.53 311.395 353.66 310.69L354.25 309.51C354.974 310.103 355.875 310.437 356.81 310.46C357.52 310.46 358.07 310.21 358.07 309.64C358.07 308.07 354.07 308.95 354.07 306.18C354.07 304.63 355.42 303.97 356.89 303.97C357.834 303.965 358.759 304.236 359.55 304.75V304.75Z" fill="#90CAF9"/>
<path d="M368.37 308.5H362.59C362.688 309.051 362.982 309.549 363.417 309.902C363.852 310.254 364.4 310.438 364.96 310.42C365.362 310.422 365.76 310.344 366.131 310.189C366.502 310.035 366.839 309.807 367.12 309.52L368 310.46C367.593 310.887 367.1 311.223 366.553 311.445C366.007 311.668 365.42 311.771 364.83 311.75C364.311 311.785 363.79 311.709 363.303 311.527C362.815 311.346 362.372 311.063 362.002 310.697C361.633 310.331 361.345 309.89 361.158 309.405C360.972 308.919 360.89 308.399 360.92 307.88C360.896 307.364 360.98 306.849 361.165 306.367C361.351 305.885 361.635 305.447 361.998 305.08C362.362 304.713 362.798 304.426 363.279 304.237C363.759 304.048 364.274 303.96 364.79 303.98C367.48 304 368.57 305.74 368.37 308.5ZM366.93 307.29C366.93 307.017 366.875 306.747 366.767 306.496C366.659 306.245 366.501 306.019 366.302 305.832C366.104 305.644 365.869 305.5 365.612 305.406C365.356 305.313 365.083 305.274 364.81 305.29C364.25 305.27 363.703 305.467 363.284 305.839C362.865 306.212 362.606 306.731 362.56 307.29H366.93Z" fill="#90CAF9"/>
<path d="M383.12 311.7L380.73 303.84L378.31 311.7H376.55L373.22 301.62H375L377.45 309.81L379.88 301.64H381.55L384 309.83L386.43 301.64H388.18L384.82 311.72L383.12 311.7Z" fill="#90CAF9"/>
<path d="M393.51 310.76C393.193 311.109 392.8 311.381 392.361 311.554C391.923 311.728 391.45 311.798 390.98 311.76C390.644 311.798 390.303 311.765 389.98 311.663C389.658 311.56 389.36 311.392 389.106 311.168C388.853 310.943 388.649 310.668 388.509 310.36C388.368 310.052 388.293 309.718 388.29 309.38C388.29 307.99 389.29 307.1 391.18 307.08H393.5V306.85C393.5 305.85 392.88 305.31 391.67 305.31C390.855 305.334 390.066 305.606 389.41 306.09L388.73 304.94C389.697 304.268 390.852 303.918 392.03 303.94C394.03 303.94 395.11 304.94 395.12 306.63V311.63H393.49L393.51 310.76ZM393.51 309.01V308.3H391.44C390.36 308.3 389.85 308.59 389.85 309.3C389.85 310.01 390.41 310.44 391.33 310.44C392.5 310.46 393.41 309.84 393.5 309L393.51 309.01Z" fill="#90CAF9"/>
<path d="M399.43 301.85C399.43 302.048 399.371 302.241 399.261 302.406C399.152 302.57 398.995 302.698 398.813 302.774C398.63 302.85 398.429 302.869 398.235 302.831C398.041 302.792 397.863 302.697 397.723 302.557C397.583 302.417 397.488 302.239 397.449 302.045C397.411 301.851 397.43 301.65 397.506 301.467C397.582 301.285 397.71 301.128 397.874 301.019C398.039 300.909 398.232 300.85 398.43 300.85C398.695 300.85 398.95 300.955 399.137 301.143C399.325 301.33 399.43 301.585 399.43 301.85ZM397.65 311.7V304H399.29V311.66L397.65 311.7Z" fill="#90CAF9"/>
<path d="M406.36 311.21C405.792 311.564 405.139 311.758 404.47 311.77C404.175 311.793 403.879 311.75 403.603 311.645C403.327 311.539 403.078 311.374 402.873 311.161C402.668 310.947 402.514 310.692 402.42 310.411C402.326 310.131 402.295 309.833 402.33 309.54V305.54H401.25V304.3H402.33V302.2H404V304.3H406.26V305.54H404V309.21C404 310 404.3 310.21 404.82 310.21C405.224 310.189 405.617 310.077 405.97 309.88L406.36 311.21Z" fill="#90CAF9"/>
<path d="M415.31 301C414.197 302.888 413.611 305.039 413.611 307.23C413.611 309.421 414.197 311.572 415.31 313.46H413.81C412.669 311.582 412.066 309.427 412.066 307.23C412.066 305.033 412.669 302.878 413.81 301H415.31Z" fill="#90CAF9"/>
<path d="M421.07 307.71V305.32H422.65V307.71H424.12V309.22H422.65V311.7H421.07V309.22H416.26V308L419.7 301.66H421.34L418.08 307.75L421.07 307.71Z" fill="#90CAF9"/>
<path d="M427.45 303.15V305.32H428.83C431.02 305.32 432.43 306.61 432.43 308.38C432.43 310.43 430.96 311.76 428.7 311.76C427.421 311.726 426.179 311.327 425.12 310.61L425.79 309.23C426.548 309.886 427.508 310.264 428.51 310.3C429.82 310.3 430.61 309.62 430.61 308.48C430.61 307.34 429.82 306.83 428.53 306.83C427.92 306.83 426.53 306.89 425.88 306.96V301.63H432V303.16L427.45 303.15Z" fill="#90CAF9"/>
<path d="M439.21 304.59C439.21 306.47 438.21 307.59 436.55 307.59C434.89 307.59 433.89 306.45 433.89 304.59C433.89 302.73 434.89 301.59 436.55 301.59C438.21 301.59 439.21 302.72 439.21 304.59ZM434.99 304.59C434.99 305.88 435.55 306.59 436.55 306.59C437.55 306.59 438.12 305.84 438.12 304.59C438.12 303.34 437.54 302.59 436.55 302.59C435.56 302.59 435 303.31 435 304.59H434.99ZM443.2 301.59H444.78L437.38 311.67H435.79L443.2 301.59ZM446.79 308.69C446.79 310.57 445.79 311.69 444.13 311.69C442.47 311.69 441.47 310.56 441.47 308.69C441.47 306.82 442.47 305.69 444.13 305.69C445.79 305.69 446.79 306.85 446.79 308.72V308.69ZM442.58 308.69C442.58 309.98 443.14 310.69 444.13 310.69C445.12 310.69 445.7 309.95 445.7 308.69C445.7 307.43 445.12 306.69 444.13 306.69C443.14 306.69 442.58 307.44 442.58 308.72V308.69Z" fill="#90CAF9"/>
<path d="M450.85 301C451.991 302.878 452.594 305.033 452.594 307.23C452.594 309.427 451.991 311.582 450.85 313.46H449.35C450.463 311.572 451.049 309.421 451.049 307.23C451.049 305.039 450.463 302.888 449.35 301H450.85Z" fill="#90CAF9"/>
<path d="M343.71 226.64H345.39V236.91H351.74V238.37H343.74L343.71 226.64Z" fill="black"/>
<path d="M352.49 232.5C352.442 231.257 352.767 230.028 353.422 228.971C354.078 227.914 355.034 227.077 356.169 226.568C357.303 226.058 358.564 225.899 359.79 226.111C361.015 226.324 362.15 226.897 363.047 227.759C363.944 228.62 364.563 229.73 364.825 230.946C365.087 232.161 364.98 233.428 364.517 234.582C364.054 235.737 363.257 236.726 362.228 237.424C361.198 238.123 359.984 238.497 358.74 238.5C357.931 238.534 357.124 238.403 356.367 238.117C355.61 237.831 354.919 237.394 354.335 236.834C353.751 236.273 353.286 235.6 352.969 234.855C352.652 234.111 352.489 233.309 352.49 232.5V232.5ZM363.28 232.5C363.29 231.595 363.03 230.708 362.535 229.951C362.039 229.194 361.329 228.602 360.495 228.25C359.662 227.897 358.742 227.801 357.854 227.973C356.966 228.145 356.149 228.577 355.507 229.215C354.865 229.853 354.427 230.667 354.249 231.554C354.071 232.441 354.162 233.361 354.508 234.197C354.855 235.033 355.442 235.747 356.196 236.248C356.95 236.749 357.835 237.014 358.74 237.01C359.339 237.029 359.935 236.926 360.493 236.707C361.05 236.487 361.557 236.156 361.982 235.734C362.407 235.312 362.742 234.807 362.965 234.251C363.188 233.695 363.295 233.099 363.28 232.5V232.5Z" fill="black"/>
<path d="M374.83 235.43H368.59L367.3 238.37H365.58L370.89 226.64H372.55L377.88 238.37H376.12L374.83 235.43ZM374.24 234.09L371.71 228.35L369.18 234.09H374.24Z" fill="black"/>
<path d="M379.62 226.64H384.56C388.33 226.64 390.89 229.02 390.89 232.5C390.89 235.98 388.33 238.37 384.56 238.37H379.62V226.64ZM384.46 236.91C387.36 236.91 389.22 235.13 389.22 232.5C389.22 229.87 387.36 228.1 384.46 228.1H381.29V236.91H384.46Z" fill="black"/>
<path d="M393.46 226.64H395.13V238.37H393.46V226.64Z" fill="black"/>
<path d="M408.74 226.64V238.37H407.36L400.36 229.62V238.37H398.68V226.64H400L407 235.38V226.64H408.74Z" fill="black"/>
<path d="M420.38 232.44H422V237C420.738 237.998 419.168 238.524 417.56 238.49C415.969 238.49 414.443 237.858 413.317 236.733C412.192 235.607 411.56 234.081 411.56 232.49C411.56 230.899 412.192 229.373 413.317 228.247C414.443 227.122 415.969 226.49 417.56 226.49C418.397 226.453 419.233 226.595 420.011 226.907C420.789 227.219 421.491 227.694 422.07 228.3L421.07 229.3C420.624 228.856 420.093 228.508 419.509 228.276C418.924 228.044 418.299 227.933 417.67 227.95C417.054 227.909 416.436 227.995 415.854 228.202C415.272 228.41 414.74 228.735 414.289 229.157C413.838 229.578 413.478 230.088 413.232 230.655C412.987 231.221 412.86 231.832 412.86 232.45C412.86 233.068 412.987 233.679 413.232 234.245C413.478 234.812 413.838 235.322 414.289 235.743C414.74 236.165 415.272 236.49 415.854 236.698C416.436 236.905 417.054 236.991 417.67 236.95C418.64 236.972 419.596 236.712 420.42 236.2L420.38 232.44Z" fill="black"/>
<path d="M424.37 237.31C424.367 237.16 424.395 237.01 424.451 236.871C424.508 236.731 424.591 236.604 424.698 236.498C424.804 236.391 424.931 236.308 425.071 236.251C425.21 236.195 425.36 236.167 425.51 236.17C425.658 236.17 425.804 236.2 425.94 236.257C426.077 236.315 426.2 236.4 426.302 236.506C426.405 236.613 426.485 236.739 426.538 236.877C426.591 237.015 426.615 237.162 426.61 237.31C426.615 237.459 426.591 237.607 426.538 237.746C426.486 237.885 426.406 238.013 426.303 238.121C426.201 238.229 426.078 238.315 425.942 238.375C425.806 238.435 425.659 238.467 425.51 238.47C425.359 238.47 425.209 238.44 425.069 238.381C424.929 238.323 424.803 238.237 424.697 238.129C424.591 238.021 424.507 237.893 424.451 237.752C424.395 237.612 424.367 237.461 424.37 237.31V237.31Z" fill="black"/>
<path d="M428.17 237.31C428.167 237.16 428.195 237.01 428.251 236.871C428.308 236.731 428.391 236.604 428.498 236.498C428.604 236.391 428.731 236.308 428.871 236.251C429.01 236.195 429.16 236.167 429.31 236.17C429.458 236.17 429.605 236.2 429.742 236.257C429.879 236.315 430.002 236.399 430.106 236.506C430.209 236.612 430.29 236.738 430.344 236.876C430.398 237.014 430.424 237.162 430.42 237.31C430.424 237.459 430.398 237.608 430.345 237.747C430.291 237.886 430.21 238.014 430.107 238.121C430.004 238.229 429.88 238.316 429.743 238.375C429.607 238.435 429.459 238.467 429.31 238.47C429.159 238.47 429.009 238.44 428.869 238.381C428.729 238.323 428.603 238.237 428.497 238.129C428.391 238.021 428.307 237.893 428.251 237.752C428.195 237.612 428.167 237.461 428.17 237.31V237.31Z" fill="black"/>
<path d="M432 237.31C431.997 237.16 432.025 237.01 432.081 236.871C432.138 236.731 432.221 236.604 432.328 236.498C432.434 236.391 432.561 236.308 432.701 236.251C432.84 236.195 432.99 236.167 433.14 236.17C433.289 236.169 433.436 236.197 433.573 236.254C433.711 236.312 433.835 236.396 433.939 236.503C434.043 236.609 434.124 236.736 434.177 236.874C434.231 237.013 434.255 237.161 434.25 237.31C434.255 237.46 434.231 237.609 434.177 237.749C434.124 237.888 434.043 238.016 433.94 238.124C433.836 238.232 433.712 238.319 433.575 238.378C433.438 238.438 433.29 238.469 433.14 238.47C432.989 238.47 432.839 238.44 432.699 238.381C432.559 238.323 432.433 238.237 432.327 238.129C432.221 238.021 432.137 237.893 432.081 237.752C432.025 237.612 431.997 237.461 432 237.31V237.31Z" fill="black"/>
</svg>
