<svg height="512" viewBox="0 0 128 128" width="512" xmlns="http://www.w3.org/2000/svg"><g><g><rect fill="#0d70b2" height="39.003" rx="4" width="124.5" x="1.75" y="21.006"/><path d="m11.75 60.009v-5.492a6 6 0 0 1 6-6h92.5a6 6 0 0 1 6 6v5.492z" fill="#1689fc"/><path d="m41.125 31.006h45.75v8.503h-45.75z" fill="#00ddc1"/><g fill="#e1e4fb"><path d="m101.375 37.008h-6.25a1.75 1.75 0 0 1 0-3.5h6.25a1.75 1.75 0 0 1 0 3.5z"/><path d="m116.25 37.008h-6.25a1.75 1.75 0 0 1 0-3.5h6.25a1.75 1.75 0 0 1 0 3.5z"/><path d="m64 91.493a1.749 1.749 0 0 1 -1.75-1.75v-19.733a1.75 1.75 0 1 1 3.5 0v19.733a1.749 1.749 0 0 1 -1.75 1.75z"/><path d="m86.875 108.743h-1.375a10.011 10.011 0 0 1 -10-10v-28.733a1.75 1.75 0 1 1 3.5 0v28.733a6.508 6.508 0 0 0 6.5 6.5h1.375a6.508 6.508 0 0 0 6.5-6.5v-2.75a6.508 6.508 0 0 0 -6.5-6.5 1.75 1.75 0 0 1 0-3.5 10.011 10.011 0 0 1 10 10v2.75a10.011 10.011 0 0 1 -10 10z"/><path d="m42.5 108.743h-1.375a10.011 10.011 0 0 1 -10-10v-2.75a10.011 10.011 0 0 1 10-10 1.75 1.75 0 0 1 0 3.5 6.508 6.508 0 0 0 -6.5 6.5v2.75a6.508 6.508 0 0 0 6.5 6.5h1.375a6.508 6.508 0 0 0 6.5-6.5v-28.733a1.75 1.75 0 0 1 3.5 0v28.733a10.011 10.011 0 0 1 -10 10z"/></g></g><g><path d="m126.25 23.257a1.749 1.749 0 0 0 -1.75 1.75v31a2.253 2.253 0 0 1 -2.25 2.25h-4.25v-3.74a7.759 7.759 0 0 0 -7.75-7.75h-54a1.75 1.75 0 0 0 0 3.5h54a4.254 4.254 0 0 1 4.25 4.25v3.743h-101v-3.743a4.254 4.254 0 0 1 4.25-4.25h8.5a1.75 1.75 0 0 0 0-3.5h-8.5a7.759 7.759 0 0 0 -7.75 7.75v3.743h-4.25a2.253 2.253 0 0 1 -2.25-2.25v-31a2.253 2.253 0 0 1 2.25-2.25h110a1.75 1.75 0 0 0 0-3.5h-110a5.756 5.756 0 0 0 -5.75 5.747v31a5.756 5.756 0 0 0 5.75 5.75h116.5a5.756 5.756 0 0 0 5.75-5.747v-31a1.749 1.749 0 0 0 -1.75-1.753z"/><path d="m37.25 46.767a1.75 1.75 0 0 0 0 3.5h8a1.75 1.75 0 0 0 0-3.5z"/><path d="m88.625 39.51v-8.5a1.749 1.749 0 0 0 -1.75-1.75h-45.75a1.749 1.749 0 0 0 -1.75 1.75v8.5a1.749 1.749 0 0 0 1.75 1.75h45.75a1.749 1.749 0 0 0 1.75-1.75zm-3.5-1.75h-42.25v-5h42.25z"/><path d="m95.125 33.508a1.75 1.75 0 0 0 0 3.5h6.25a1.75 1.75 0 0 0 0-3.5z"/><path d="m116.25 33.508h-6.25a1.75 1.75 0 0 0 0 3.5h6.25a1.75 1.75 0 0 0 0-3.5z"/><path d="m64 68.26a1.749 1.749 0 0 0 -1.75 1.75v19.733a1.75 1.75 0 0 0 3.5 0v-19.733a1.749 1.749 0 0 0 -1.75-1.75z"/><path d="m86.875 85.993a1.75 1.75 0 0 0 0 3.5 6.508 6.508 0 0 1 6.5 6.5v2.75a6.508 6.508 0 0 1 -6.5 6.5h-1.375a6.508 6.508 0 0 1 -6.5-6.5v-28.733a1.75 1.75 0 1 0 -3.5 0v28.733a10.011 10.011 0 0 0 10 10h1.375a10.011 10.011 0 0 0 10-10v-2.75a10.011 10.011 0 0 0 -10-10z"/><path d="m50.75 68.26a1.749 1.749 0 0 0 -1.75 1.75v28.733a6.508 6.508 0 0 1 -6.5 6.5h-1.375a6.508 6.508 0 0 1 -6.5-6.5v-2.75a6.508 6.508 0 0 1 6.5-6.5 1.75 1.75 0 0 0 0-3.5 10.011 10.011 0 0 0 -10 10v2.75a10.011 10.011 0 0 0 10 10h1.375a10.011 10.011 0 0 0 10-10v-28.733a1.749 1.749 0 0 0 -1.75-1.75z"/></g></g></svg>