<?xml version="1.0"?>
<svg xmlns="http://www.w3.org/2000/svg" viewBox="0 0 64 64" width="512" height="512"><g id="Air_conditioner" data-name="Air conditioner"><path d="M2,2V19a5.006,5.006,0,0,0,5,5H57a5.006,5.006,0,0,0,5-5V2ZM12,22V21H51v1Zm0-4H51v1H12Zm.78-2A2.985,2.985,0,0,1,15,15H48a2.985,2.985,0,0,1,2.22,1ZM60,19a3,3,0,0,1-3,3H53V18a5.006,5.006,0,0,0-5-5H15a5.006,5.006,0,0,0-5,5v4H7a3,3,0,0,1-3-3V4H60Z"/><rect x="52" y="6" width="2" height="2"/><rect x="56" y="6" width="2" height="2"/><path d="M59,34H47a3,3,0,0,0-3,3V59a3,3,0,0,0,3,3H59a3,3,0,0,0,3-3V37A3,3,0,0,0,59,34ZM47,36H59a1,1,0,0,1,1,1V54H46V37A1,1,0,0,1,47,36ZM59,60H47a1,1,0,0,1-1-1V56H60v3A1,1,0,0,1,59,60Z"/><path d="M50,44h6a1,1,0,0,0,.857-1.515l-3-5a1.039,1.039,0,0,0-1.714,0l-3,5A1,1,0,0,0,50,44Zm3-4.056L54.234,42H51.766Z"/><path d="M52.143,52.515a1,1,0,0,0,1.714,0l3-5A1,1,0,0,0,56,46H50a1,1,0,0,0-.857,1.515ZM54.234,48,53,50.056,51.766,48Z"/><path d="M54,57H52a1,1,0,0,0,0,2h2a1,1,0,0,0,0-2Z"/><path d="M34,27a1,1,0,0,0-2,0,2.958,2.958,0,0,1-.8,2.065,5.046,5.046,0,0,0,0,6.533,3.07,3.07,0,0,1,0,4.134A4.917,4.917,0,0,0,30,43a1,1,0,0,0,2,0,2.963,2.963,0,0,1,.8-2.067,5.049,5.049,0,0,0,0-6.535,3.068,3.068,0,0,1,0-4.132A4.912,4.912,0,0,0,34,27Z"/><path d="M42,27a1,1,0,0,0-2,0,2.958,2.958,0,0,1-.8,2.065,5.046,5.046,0,0,0,0,6.533,3.07,3.07,0,0,1,0,4.134A4.917,4.917,0,0,0,38,43a1,1,0,0,0,2,0,2.963,2.963,0,0,1,.8-2.067,5.049,5.049,0,0,0,0-6.535,3.068,3.068,0,0,1,0-4.132A4.912,4.912,0,0,0,42,27Z"/><path d="M26,27a1,1,0,0,0-2,0,2.958,2.958,0,0,1-.8,2.065,5.046,5.046,0,0,0,0,6.533,3.07,3.07,0,0,1,0,4.134A4.917,4.917,0,0,0,22,43a1,1,0,0,0,2,0,2.963,2.963,0,0,1,.8-2.067,5.049,5.049,0,0,0,0-6.535,3.068,3.068,0,0,1,0-4.132A4.912,4.912,0,0,0,26,27Z"/><path d="M17,27a1,1,0,0,0-2,0,2.958,2.958,0,0,1-.8,2.065,5.046,5.046,0,0,0,0,6.533,3.07,3.07,0,0,1,0,4.134A4.917,4.917,0,0,0,13,43a1,1,0,0,0,2,0,2.963,2.963,0,0,1,.8-2.067,5.049,5.049,0,0,0,0-6.535,3.068,3.068,0,0,1,0-4.132A4.912,4.912,0,0,0,17,27Z"/></g></svg>
