<?xml version="1.0" encoding="iso-8859-1"?>
<!-- Generator: Adobe Illustrator 19.0.0, SVG Export Plug-In . SVG Version: 6.00 Build 0)  -->
<svg version="1.1" id="Capa_1" xmlns="http://www.w3.org/2000/svg" xmlns:xlink="http://www.w3.org/1999/xlink" x="0px" y="0px"
	 viewBox="0 0 403.968 403.968" style="enable-background:new 0 0 403.968 403.968;" xml:space="preserve">
<g>
	<g>
		<path d="M398.848,393.728h-16.896V304.64h4.608c3.072,0,5.12-2.048,5.12-5.12v-30.208c0-3.072-2.048-5.12-5.12-5.12H371.2
			c0,0,0,0,0-0.512V68.096h4.608c3.072,0,5.12-2.048,5.12-5.12V28.672c0-3.072-2.048-5.12-5.12-5.12H371.2V5.12
			c0-3.072-2.048-5.12-5.12-5.12H242.176c-3.072,0-5.12,2.048-5.12,5.12v18.432h-5.12c-3.072,0-5.12,2.048-5.12,5.12v34.304
			c0,3.072,2.048,5.12,5.12,5.12h5.632v15.36h-72.192V66.048c0-3.072-2.048-5.12-5.12-5.12h-25.6c-3.072,0-5.12,2.048-5.12,5.12
			v17.408h-20.48c-3.072,0-5.12,2.048-5.12,5.12v34.304c0,3.072,2.048,5.12,5.12,5.12h4.608v265.216h-28.16V368.64
			c9.216-2.56,16.384-10.752,16.384-20.992v-27.136c0-11.776-9.728-21.504-21.504-21.504s-21.504,9.728-21.504,21.504v27.648
			c0,10.24,7.168,18.432,16.384,20.992v24.576H28.672v-15.36c10.752-2.56,18.432-11.776,18.432-23.04v-14.336
			c0-13.312-10.752-23.552-23.552-23.552C10.24,317.44,0,328.192,0,340.992v14.336c0,11.264,8.192,20.992,18.432,23.04v15.36H8.192
			c-3.072,0-5.12,2.048-5.12,5.12c0,3.072,2.048,5.12,5.12,5.12h390.656c3.072,0,5.12-2.048,5.12-5.12
			C403.968,395.776,401.92,393.728,398.848,393.728z M9.728,355.328v-14.336c0-7.68,6.144-13.312,13.312-13.312
			c7.68,0,13.312,6.144,13.312,13.312v14.336c0,7.68-6.144,13.312-13.312,13.312C15.872,368.64,9.728,362.496,9.728,355.328z
			 M68.608,348.16v-27.136c0-6.144,5.12-11.264,11.264-11.264s11.264,5.12,11.264,11.264v27.136c0,6.144-5.12,11.264-11.264,11.264
			S68.608,354.304,68.608,348.16z M247.296,9.728H360.96V23.04H247.296V9.728z M237.056,57.856V33.792h133.632v24.064H237.056z
			 M252.928,83.456h-4.608v-15.36h113.152v196.096c0,0,0,0,0,0.512H247.808c0,0,0,0,0-0.512v-135.68h4.608
			c3.072,0,5.12-2.048,5.12-5.12V89.088C258.048,86.016,255.488,83.456,252.928,83.456z M139.776,71.168h15.36v12.288h-15.36V71.168
			z M114.176,93.696h133.632v24.064H114.176V93.696z M208.896,393.728h-84.992V128.512h113.664v135.68c0,0,0,0,0,0.512h-33.792
			c-3.072,0-5.12,2.048-5.12,5.12v30.208c0,3.072,2.048,5.12,5.12,5.12h5.12V393.728z M272.896,393.728h-23.04v-47.104h23.04
			V393.728z M371.712,393.728h-88.576v-52.224c0-3.072-2.048-5.12-5.12-5.12h-33.28c-3.072,0-5.12,2.048-5.12,5.12v52.224h-19.968
			V304.64h152.064V393.728z M381.44,294.4H209.408v-19.968H381.44V294.4z"/>
	</g>
</g>
<g>
	<g>
		<path d="M271.36,155.136c-3.072,0-5.12,2.048-5.12,5.12v23.04c0,2.56,2.56,5.12,5.12,5.12c3.072,0,5.12-2.048,5.12-5.12v-23.04
			C276.48,157.184,274.432,155.136,271.36,155.136z"/>
	</g>
</g>
<g>
	<g>
		<path d="M304.64,155.136c-3.072,0-5.12,2.048-5.12,5.12v23.04c0,2.56,2.56,5.12,5.12,5.12c3.072,0,5.12-2.048,5.12-5.12v-23.04
			C309.76,157.184,307.712,155.136,304.64,155.136z"/>
	</g>
</g>
<g>
	<g>
		<path d="M338.432,155.136c-3.072,0-5.12,2.048-5.12,5.12v23.04c0,2.56,2.048,5.12,5.12,5.12s5.12-2.048,5.12-5.12v-23.04
			C343.552,157.184,341.504,155.136,338.432,155.136z"/>
	</g>
</g>
<g>
	<g>
		<path d="M271.36,215.552c-3.072,0-5.12,2.048-5.12,5.12v23.04c0,2.56,2.56,5.12,5.12,5.12c3.072,0,5.12-2.048,5.12-5.12v-23.04
			C276.48,217.6,274.432,215.552,271.36,215.552z"/>
	</g>
</g>
<g>
	<g>
		<path d="M304.64,215.552c-3.072,0-5.12,2.048-5.12,5.12v23.04c0,2.56,2.56,5.12,5.12,5.12c3.072,0,5.12-2.048,5.12-5.12v-23.04
			C309.76,217.6,307.712,215.552,304.64,215.552z"/>
	</g>
</g>
<g>
	<g>
		<path d="M338.432,215.552c-3.072,0-5.12,2.048-5.12,5.12v23.04c0,2.56,2.048,5.12,5.12,5.12s5.12-2.048,5.12-5.12v-23.04
			C343.552,217.6,341.504,215.552,338.432,215.552z"/>
	</g>
</g>
<g>
	<g>
		<path d="M271.36,95.232c-3.072,0-5.12,2.048-5.12,5.12v23.04c0,2.56,2.56,5.12,5.12,5.12c3.072,0,5.12-2.048,5.12-5.12v-23.04
			C276.48,97.28,274.432,95.232,271.36,95.232z"/>
	</g>
</g>
<g>
	<g>
		<path d="M304.64,95.232c-3.072,0-5.12,2.048-5.12,5.12v23.04c0,2.56,2.56,5.12,5.12,5.12c3.072,0,5.12-2.048,5.12-5.12v-23.04
			C309.76,97.28,307.712,95.232,304.64,95.232z"/>
	</g>
</g>
<g>
	<g>
		<path d="M338.432,95.232c-3.072,0-5.12,2.048-5.12,5.12v23.04c0,2.56,2.048,5.12,5.12,5.12s5.12-2.048,5.12-5.12v-23.04
			C343.552,97.28,341.504,95.232,338.432,95.232z"/>
	</g>
</g>
<g>
	<g>
		<path d="M147.456,155.136c-3.072,0-5.12,2.048-5.12,5.12v23.04c0,3.072,2.048,5.12,5.12,5.12c3.072,0,5.12-2.048,5.12-5.12v-23.04
			C152.576,157.696,150.016,155.136,147.456,155.136z"/>
	</g>
</g>
<g>
	<g>
		<path d="M180.736,155.136c-3.072,0-5.12,2.048-5.12,5.12v23.04c0,3.072,2.048,5.12,5.12,5.12c3.072,0,5.12-2.048,5.12-5.12v-23.04
			C185.856,157.696,183.808,155.136,180.736,155.136z"/>
	</g>
</g>
<g>
	<g>
		<path d="M214.016,155.136c-3.072,0-5.12,2.048-5.12,5.12v23.04c0,2.56,2.56,5.12,5.12,5.12c3.072,0,5.12-2.048,5.12-5.12v-23.04
			C219.136,157.184,217.088,155.136,214.016,155.136z"/>
	</g>
</g>
<g>
	<g>
		<path d="M147.456,215.552c-3.072,0-5.12,2.048-5.12,5.12v23.04c0,3.072,2.048,5.12,5.12,5.12c3.072,0,5.12-2.048,5.12-5.12v-23.04
			C152.576,218.112,150.016,215.552,147.456,215.552z"/>
	</g>
</g>
<g>
	<g>
		<path d="M180.736,215.552c-3.072,0-5.12,2.048-5.12,5.12v23.04c0,3.072,2.048,5.12,5.12,5.12c3.072,0,5.12-2.048,5.12-5.12v-23.04
			C185.856,218.112,183.808,215.552,180.736,215.552z"/>
	</g>
</g>
<g>
	<g>
		<path d="M214.016,215.552c-3.072,0-5.12,2.048-5.12,5.12v23.04c0,2.56,2.56,5.12,5.12,5.12c3.072,0,5.12-2.048,5.12-5.12v-23.04
			C219.136,217.6,217.088,215.552,214.016,215.552z"/>
	</g>
</g>
<g>
	<g>
		<path d="M147.456,275.968c-3.072,0-5.12,2.048-5.12,5.12v23.04c0,3.072,2.048,5.12,5.12,5.12c3.072,0,5.12-2.048,5.12-5.12v-23.04
			C152.576,278.528,150.016,275.968,147.456,275.968z"/>
	</g>
</g>
<g>
	<g>
		<path d="M180.736,275.968c-3.072,0-5.12,2.048-5.12,5.12v23.04c0,3.072,2.048,5.12,5.12,5.12c3.072,0,5.12-2.048,5.12-5.12v-23.04
			C185.856,278.528,183.808,275.968,180.736,275.968z"/>
	</g>
</g>
<g>
	<g>
		<path d="M147.456,336.384c-3.072,0-5.12,2.048-5.12,5.12v23.04c0,3.072,2.048,5.12,5.12,5.12c3.072,0,5.12-2.048,5.12-5.12v-23.04
			C152.576,338.944,150.016,336.384,147.456,336.384z"/>
	</g>
</g>
<g>
	<g>
		<path d="M180.736,336.384c-3.072,0-5.12,2.048-5.12,5.12v23.04c0,3.072,2.048,5.12,5.12,5.12c3.072,0,5.12-2.048,5.12-5.12v-23.04
			C185.856,338.944,183.808,336.384,180.736,336.384z"/>
	</g>
</g>
<g>
	<g>
		<path d="M310.784,336.384c-3.072,0-5.12,2.048-5.12,5.12v23.04c0,2.56,2.048,5.12,5.12,5.12c3.072,0,5.12-2.048,5.12-5.12v-23.04
			C315.904,338.432,313.856,336.384,310.784,336.384z"/>
	</g>
</g>
<g>
	<g>
		<path d="M344.064,336.384c-3.072,0-5.12,2.048-5.12,5.12v23.04c0,2.56,2.048,5.12,5.12,5.12c3.072,0,5.12-2.048,5.12-5.12v-23.04
			C349.184,338.432,347.136,336.384,344.064,336.384z"/>
	</g>
</g>
<g>
</g>
<g>
</g>
<g>
</g>
<g>
</g>
<g>
</g>
<g>
</g>
<g>
</g>
<g>
</g>
<g>
</g>
<g>
</g>
<g>
</g>
<g>
</g>
<g>
</g>
<g>
</g>
<g>
</g>
</svg>
