<svg id="Capa_1" enable-background="new 0 0 510.667 510.667" height="512" viewBox="0 0 510.667 510.667" width="512" xmlns="http://www.w3.org/2000/svg"><g><g><path d="m246.145 468.75h-198.454v-381.047c0-7.236 5.866-13.101 13.101-13.101h195.352z" fill="#ffeed2"/></g><g><path d="m216.145 74.602h30v394.148h-30z" fill="#f8e7c7"/></g><g fill="#f8d99f"><path d="m97.816 468.461v-393.859h-17.7v393.859c0 .098.013.192.017.289h17.666c.004-.097.017-.191.017-.289z"/><path d="m164.294 194.705c4.888 0 8.85-3.782 8.85-8.448v-111.655h-17.7v111.655c0 4.666 3.963 8.448 8.85 8.448z"/><path d="m193.108 74.602v111.655c0 4.666 3.962 8.448 8.85 8.448s8.85-3.782 8.85-8.448v-111.655z"/><path d="m126.222 206.999c4.888 0 8.85-4.17 8.85-9.313v-123.084h-17.7v123.084c-.001 5.143 3.962 9.313 8.85 9.313z"/></g><g><path d="m462.976 470.75h-145.028v-420.378c0-9.916 8.039-17.955 17.955-17.955h109.118c9.916 0 17.955 8.039 17.955 17.955z" fill="#bed9fd"/></g><g><path d="m445.021 32.417h-30c9.916 0 17.955 8.039 17.955 17.955v420.378h30v-420.378c0-9.916-8.039-17.955-17.955-17.955z" fill="#9ec8fc"/></g><g><path d="m245.572 468.75h-112.415l-20-56.377v-218.365c0-8.667 7.026-15.693 15.693-15.693h126.722z" fill="#bed9fd"/></g><g><path d="m215.572 178.315h35v290.435h-35z" fill="#9ec8fc"/></g><g><path d="m113.157 412.373h132.415v56.377h-132.415z" fill="#80b6fc"/></g><g><path d="m215.572 412.373h37.688v56.377h-37.688z" fill="#62a4fb"/></g><g><path d="m389.75 468.75h-143.605v-417.636c0-8.214 8.973-13.276 16.003-9.029l127.603 77.092v349.573z" fill="#f8d99f"/></g><g><path d="m262.148 42.085c-6.869-4.15-15.57.597-15.966 8.479l78.122 47.198c22.001 13.292 35.447 37.124 35.447 62.829v308.159h30v-349.572z" fill="#f0d29a"/></g><g><path d="m503.167 478.25h-495.667c-4.142 0-7.5-3.358-7.5-7.5s3.358-7.5 7.5-7.5h495.667c4.142 0 7.5 3.358 7.5 7.5s-3.358 7.5-7.5 7.5z" fill="#a29aa5"/></g><g><g><path d="m145.421 224.679c-4.142 0-7.5-3.358-7.5-7.5v-8.84c0-4.142 3.358-7.5 7.5-7.5s7.5 3.358 7.5 7.5v8.84c0 4.142-3.358 7.5-7.5 7.5z" fill="#f7f7f7"/></g><g><path d="m179.365 224.679c-4.142 0-7.5-3.358-7.5-7.5v-8.84c0-4.142 3.358-7.5 7.5-7.5s7.5 3.358 7.5 7.5v8.84c0 4.142-3.358 7.5-7.5 7.5z" fill="#f7f7f7"/></g><g><path d="m213.309 224.679c-4.142 0-7.5-3.358-7.5-7.5v-8.84c0-4.142 3.358-7.5 7.5-7.5s7.5 3.358 7.5 7.5v8.84c0 4.142-3.358 7.5-7.5 7.5z" fill="#f7f7f7"/></g><g><path d="m145.421 267.453c-4.142 0-7.5-3.358-7.5-7.5v-8.84c0-4.142 3.358-7.5 7.5-7.5s7.5 3.358 7.5 7.5v8.84c0 4.142-3.358 7.5-7.5 7.5z" fill="#f7f7f7"/></g><g><path d="m179.365 267.453c-4.142 0-7.5-3.358-7.5-7.5v-8.84c0-4.142 3.358-7.5 7.5-7.5s7.5 3.358 7.5 7.5v8.84c0 4.142-3.358 7.5-7.5 7.5z" fill="#f7f7f7"/></g><g><path d="m213.309 267.453c-4.142 0-7.5-3.358-7.5-7.5v-8.84c0-4.142 3.358-7.5 7.5-7.5s7.5 3.358 7.5 7.5v8.84c0 4.142-3.358 7.5-7.5 7.5z" fill="#f7f7f7"/></g><g><path d="m145.421 310.227c-4.142 0-7.5-3.358-7.5-7.5v-8.84c0-4.142 3.358-7.5 7.5-7.5s7.5 3.358 7.5 7.5v8.84c0 4.142-3.358 7.5-7.5 7.5z" fill="#f7f7f7"/></g><g><path d="m179.365 310.227c-4.142 0-7.5-3.358-7.5-7.5v-8.84c0-4.142 3.358-7.5 7.5-7.5s7.5 3.358 7.5 7.5v8.84c0 4.142-3.358 7.5-7.5 7.5z" fill="#f7f7f7"/></g><g><path d="m213.309 310.227c-4.142 0-7.5-3.358-7.5-7.5v-8.84c0-4.142 3.358-7.5 7.5-7.5s7.5 3.358 7.5 7.5v8.84c0 4.142-3.358 7.5-7.5 7.5z" fill="#f7f7f7"/></g><g><path d="m145.421 353.001c-4.142 0-7.5-3.358-7.5-7.5v-8.84c0-4.142 3.358-7.5 7.5-7.5s7.5 3.358 7.5 7.5v8.84c0 4.142-3.358 7.5-7.5 7.5z" fill="#f7f7f7"/></g><g><path d="m179.365 353.001c-4.142 0-7.5-3.358-7.5-7.5v-8.84c0-4.142 3.358-7.5 7.5-7.5s7.5 3.358 7.5 7.5v8.84c0 4.142-3.358 7.5-7.5 7.5z" fill="#f7f7f7"/></g><g><path d="m213.309 353.001c-4.142 0-7.5-3.358-7.5-7.5v-8.84c0-4.142 3.358-7.5 7.5-7.5s7.5 3.358 7.5 7.5v8.84c0 4.142-3.358 7.5-7.5 7.5z" fill="#f7f7f7"/></g><g><path d="m145.421 387.775c-4.142 0-7.5-3.358-7.5-7.5v-8.84c0-4.142 3.358-7.5 7.5-7.5s7.5 3.358 7.5 7.5v8.84c0 4.142-3.358 7.5-7.5 7.5z" fill="#f7f7f7"/></g><g><path d="m179.365 387.775c-4.142 0-7.5-3.358-7.5-7.5v-8.84c0-4.142 3.358-7.5 7.5-7.5s7.5 3.358 7.5 7.5v8.84c0 4.142-3.358 7.5-7.5 7.5z" fill="#f7f7f7"/></g><g><path d="m213.309 387.775c-4.142 0-7.5-3.358-7.5-7.5v-8.84c0-4.142 3.358-7.5 7.5-7.5s7.5 3.358 7.5 7.5v8.84c0 4.142-3.358 7.5-7.5 7.5z" fill="#f7f7f7"/></g></g><g><path d="m374.252 90.388c-4.142 0-7.5-3.358-7.5-7.5v-9.587c0-4.142 3.358-7.5 7.5-7.5s7.5 3.358 7.5 7.5v9.587c0 4.142-3.358 7.5-7.5 7.5z" fill="#f7f7f7"/></g><g><path d="m417.064 90.388c-4.142 0-7.5-3.358-7.5-7.5v-9.587c0-4.142 3.358-7.5 7.5-7.5s7.5 3.358 7.5 7.5v9.587c0 4.142-3.358 7.5-7.5 7.5z" fill="#f7f7f7"/></g><g><path d="m417.064 145.292c-4.142 0-7.5-3.358-7.5-7.5v-9.587c0-4.142 3.358-7.5 7.5-7.5s7.5 3.358 7.5 7.5v9.587c0 4.142-3.358 7.5-7.5 7.5z" fill="#f7f7f7"/></g><g><path d="m417.064 200.196c-4.142 0-7.5-3.358-7.5-7.5v-9.587c0-4.142 3.358-7.5 7.5-7.5s7.5 3.358 7.5 7.5v9.587c0 4.142-3.358 7.5-7.5 7.5z" fill="#f7f7f7"/></g><g><path d="m417.064 255.1c-4.142 0-7.5-3.358-7.5-7.5v-9.587c0-4.142 3.358-7.5 7.5-7.5s7.5 3.358 7.5 7.5v9.587c0 4.142-3.358 7.5-7.5 7.5z" fill="#f7f7f7"/></g><g><path d="m417.064 310.004c-4.142 0-7.5-3.358-7.5-7.5v-9.587c0-4.142 3.358-7.5 7.5-7.5s7.5 3.358 7.5 7.5v9.587c0 4.142-3.358 7.5-7.5 7.5z" fill="#f7f7f7"/></g><g><path d="m417.064 364.908c-4.142 0-7.5-3.358-7.5-7.5v-9.587c0-4.142 3.358-7.5 7.5-7.5s7.5 3.358 7.5 7.5v9.587c0 4.142-3.358 7.5-7.5 7.5z" fill="#f7f7f7"/></g><g><path d="m417.064 419.812c-4.142 0-7.5-3.358-7.5-7.5v-9.587c0-4.142 3.358-7.5 7.5-7.5s7.5 3.358 7.5 7.5v9.587c0 4.142-3.358 7.5-7.5 7.5z" fill="#f7f7f7"/></g><g><g><path d="m281.135 248.784c-4.142 0-7.5-3.358-7.5-7.5v-9.587c0-4.142 3.358-7.5 7.5-7.5s7.5 3.358 7.5 7.5v9.587c0 4.143-3.358 7.5-7.5 7.5z" fill="#f7f7f7"/></g><g><path d="m317.948 248.784c-4.142 0-7.5-3.358-7.5-7.5v-9.587c0-4.142 3.358-7.5 7.5-7.5s7.5 3.358 7.5 7.5v9.587c0 4.143-3.358 7.5-7.5 7.5z" fill="#f7f7f7"/></g><g><path d="m354.76 248.784c-4.142 0-7.5-3.358-7.5-7.5v-9.587c0-4.142 3.358-7.5 7.5-7.5s7.5 3.358 7.5 7.5v9.587c0 4.143-3.358 7.5-7.5 7.5z" fill="#f7f7f7"/></g><g><path d="m281.135 206.999c-4.142 0-7.5-3.358-7.5-7.5v-9.587c0-4.142 3.358-7.5 7.5-7.5s7.5 3.358 7.5 7.5v9.587c0 4.142-3.358 7.5-7.5 7.5z" fill="#f7f7f7"/></g><g><path d="m317.948 206.999c-4.142 0-7.5-3.358-7.5-7.5v-9.587c0-4.142 3.358-7.5 7.5-7.5s7.5 3.358 7.5 7.5v9.587c0 4.142-3.358 7.5-7.5 7.5z" fill="#f7f7f7"/></g><g><path d="m354.76 206.999c-4.142 0-7.5-3.358-7.5-7.5v-9.587c0-4.142 3.358-7.5 7.5-7.5s7.5 3.358 7.5 7.5v9.587c0 4.142-3.358 7.5-7.5 7.5z" fill="#f7f7f7"/></g><g><path d="m281.135 167.523c-4.142 0-7.5-3.358-7.5-7.5v-9.587c0-4.142 3.358-7.5 7.5-7.5s7.5 3.358 7.5 7.5v9.587c0 4.142-3.358 7.5-7.5 7.5z" fill="#f7f7f7"/></g><g><path d="m317.948 167.523c-4.142 0-7.5-3.358-7.5-7.5v-9.587c0-4.142 3.358-7.5 7.5-7.5s7.5 3.358 7.5 7.5v9.587c0 4.142-3.358 7.5-7.5 7.5z" fill="#f7f7f7"/></g><g><path d="m354.76 167.523c-4.142 0-7.5-3.358-7.5-7.5v-9.587c0-4.142 3.358-7.5 7.5-7.5s7.5 3.358 7.5 7.5v9.587c0 4.142-3.358 7.5-7.5 7.5z" fill="#f7f7f7"/></g><g><path d="m281.135 127.972c-4.142 0-7.5-3.358-7.5-7.5v-9.587c0-4.142 3.358-7.5 7.5-7.5s7.5 3.358 7.5 7.5v9.587c0 4.143-3.358 7.5-7.5 7.5z" fill="#f7f7f7"/></g><g><path d="m317.948 127.972c-4.142 0-7.5-3.358-7.5-7.5v-9.587c0-4.142 3.358-7.5 7.5-7.5s7.5 3.358 7.5 7.5v9.587c0 4.143-3.358 7.5-7.5 7.5z" fill="#f7f7f7"/></g><g><path d="m281.135 295.174c-4.142 0-7.5-3.358-7.5-7.5v-9.587c0-4.142 3.358-7.5 7.5-7.5s7.5 3.358 7.5 7.5v9.587c0 4.142-3.358 7.5-7.5 7.5z" fill="#f7f7f7"/></g><g><path d="m317.948 295.174c-4.142 0-7.5-3.358-7.5-7.5v-9.587c0-4.142 3.358-7.5 7.5-7.5s7.5 3.358 7.5 7.5v9.587c0 4.142-3.358 7.5-7.5 7.5z" fill="#f7f7f7"/></g><g><path d="m354.76 295.174c-4.142 0-7.5-3.358-7.5-7.5v-9.587c0-4.142 3.358-7.5 7.5-7.5s7.5 3.358 7.5 7.5v9.587c0 4.142-3.358 7.5-7.5 7.5z" fill="#f7f7f7"/></g><g><path d="m281.135 341.562c-4.142 0-7.5-3.358-7.5-7.5v-9.587c0-4.142 3.358-7.5 7.5-7.5s7.5 3.358 7.5 7.5v9.587c0 4.142-3.358 7.5-7.5 7.5z" fill="#f7f7f7"/></g><g><path d="m317.948 341.562c-4.142 0-7.5-3.358-7.5-7.5v-9.587c0-4.142 3.358-7.5 7.5-7.5s7.5 3.358 7.5 7.5v9.587c0 4.142-3.358 7.5-7.5 7.5z" fill="#f7f7f7"/></g><g><path d="m354.76 341.562c-4.142 0-7.5-3.358-7.5-7.5v-9.587c0-4.142 3.358-7.5 7.5-7.5s7.5 3.358 7.5 7.5v9.587c0 4.142-3.358 7.5-7.5 7.5z" fill="#f7f7f7"/></g><g><path d="m281.135 387.951c-4.142 0-7.5-3.358-7.5-7.5v-9.587c0-4.142 3.358-7.5 7.5-7.5s7.5 3.358 7.5 7.5v9.587c0 4.143-3.358 7.5-7.5 7.5z" fill="#f7f7f7"/></g><g><path d="m317.948 387.951c-4.142 0-7.5-3.358-7.5-7.5v-9.587c0-4.142 3.358-7.5 7.5-7.5s7.5 3.358 7.5 7.5v9.587c0 4.143-3.358 7.5-7.5 7.5z" fill="#f7f7f7"/></g><g><path d="m354.76 387.951c-4.142 0-7.5-3.358-7.5-7.5v-9.587c0-4.142 3.358-7.5 7.5-7.5s7.5 3.358 7.5 7.5v9.587c0 4.143-3.358 7.5-7.5 7.5z" fill="#f7f7f7"/></g></g></g></svg>