<?xml version="1.0" encoding="iso-8859-1"?>
<!-- Generator: Adobe Illustrator 19.0.0, SVG Export Plug-In . SVG Version: 6.00 Build 0)  -->
<svg version="1.1" id="Capa_1" xmlns="http://www.w3.org/2000/svg" xmlns:xlink="http://www.w3.org/1999/xlink" x="0px" y="0px"
	 viewBox="0 0 512 512" style="enable-background:new 0 0 512 512;" xml:space="preserve">
<circle style="fill:#005FD1;" cx="256" cy="256" r="256"/>
<path style="fill:#003D8D;" d="M512,256c0-24.091-3.334-47.402-9.555-69.504l-40.882-40.882l-43.219,21.945l-14.232-15.291h-19.604
	l-6.698-7.109c-2.197-2.782-5.592-4.577-9.393-4.577h-233.07c-6.6,0-12,5.4-12,12v106.482c0,3.729,1.728,7.068,4.42,9.27
	l43.844,43.541l-6.434,18.254H140.5l-37.648-40.24H69v96.726l115.144,115.144C206.943,508.416,231.052,512,256,512
	C397.385,512,512,397.385,512,256z"/>
<polygon style="fill:#FFFFFF;" points="182.835,280.032 165.178,330.131 99.333,330.131 99.333,345.711 176.206,345.711 
	199.355,280.032 "/>
<g>
	<rect x="69" y="289.89" style="fill:#00EED0;" width="33.852" height="96.73"/>
	<rect x="154.99" y="268.35" style="fill:#00EED0;" width="98.79" height="23.37"/>
</g>
<polygon style="fill:#FFF5CB;" points="398.918,177.423 398.918,234.225 461.563,266.034 461.563,145.614 "/>
<rect x="377.82" y="152.27" style="fill:#00CEB4;" width="26.291" height="107.11"/>
<path style="fill:#FFFFFF;" d="M368.417,271.065h-233.07c-6.6,0-12-5.4-12-12V152.583c0-6.6,5.4-12,12-12h233.07c6.6,0,12,5.4,12,12
	v106.482C380.417,265.665,375.017,271.065,368.417,271.065z"/>
<path style="fill:#FFF5CB;" d="M380.42,152.585v106.48c0,6.6-5.4,12-12,12H256v-130.48h112.42
	C375.02,140.585,380.42,145.986,380.42,152.585z"/>
<rect x="139.74" y="156.97" style="fill:#00EED0;" width="16.392" height="16.391"/>
<g>
</g>
<g>
</g>
<g>
</g>
<g>
</g>
<g>
</g>
<g>
</g>
<g>
</g>
<g>
</g>
<g>
</g>
<g>
</g>
<g>
</g>
<g>
</g>
<g>
</g>
<g>
</g>
<g>
</g>
</svg>
