<?xml version="1.0" encoding="iso-8859-1"?>
<!-- Generator: Adobe Illustrator 19.0.0, SVG Export Plug-In . SVG Version: 6.00 Build 0)  -->
<svg version="1.1" id="Capa_1" xmlns="http://www.w3.org/2000/svg" xmlns:xlink="http://www.w3.org/1999/xlink" x="0px" y="0px"
	 viewBox="0 0 470.747 470.747" style="enable-background:new 0 0 470.747 470.747;" xml:space="preserve">
<path style="fill:#808080;" d="M126.747,23.374h200v48h-200V23.374z"/>
<path style="fill:#27689E;" d="M198.747,71.374h48V179.71h-48V71.374z"/>
<path style="fill:#5B7FAD;" d="M102.747,239.374l240,64l-40,136l-240-64L102.747,239.374z"/>
<path style="fill:#27689E;" d="M333.451,334.974l105.296,32.4l-24,80l-104.864-32.264L333.451,334.974z"/>
<path style="fill:#666666;" d="M158.747,255.374l18.4-55.136c7.644-22.935,31.879-35.899,55.2-29.528
	c24.257,6.621,38.554,31.653,31.933,55.91c-0.222,0.813-0.466,1.619-0.733,2.418l-16.8,50.336L158.747,255.374z"/>
<circle style="fill:#FBCC34;" cx="218.747" cy="219.374" r="20"/>
<path d="M218.747,191.374c-15.464,0-28,12.536-28,28s12.536,28,28,28s28-12.536,28-28S234.211,191.374,218.747,191.374z
	 M218.747,231.374c-6.627,0-12-5.373-12-12s5.373-12,12-12s12,5.373,12,12l0,0C230.747,226.001,225.374,231.374,218.747,231.374z"/>
<path d="M91.875,151.91l-46.496,17.864c-36.472,14.024-54.67,54.959-40.646,91.431c7.977,20.747,25.241,36.539,46.614,42.641
	l22.232,6.352l-18.504,62.92c-1.247,4.239,1.178,8.686,5.417,9.933c0.061,0.018,0.122,0.035,0.183,0.051l240,64
	c4.192,1.118,8.511-1.31,9.736-5.472l4.848-16.496l97.128,29.888c0.765,0.233,1.56,0.351,2.36,0.352c3.534,0,6.65-2.319,7.664-5.704
	l24-80c1.262-4.211-1.11-8.652-5.312-9.944l-97.744-30.072l7.064-24c1.247-4.239-1.178-8.686-5.417-9.933
	c-0.061-0.018-0.122-0.035-0.183-0.051l-87.296-23.28l13.6-40.8c6.966-20.845,0.47-43.829-16.376-57.944V79.373h72
	c4.418,0,8-3.582,8-8v-40h136v-16h-464v16h112v40c0,4.418,3.582,8,8,8h15.816C140.77,111.201,121.146,139.283,91.875,151.91
	L91.875,151.91z M409.403,437.358l-88.712-27.296l19.4-64.672l88.712,27.296L409.403,437.358z M297.267,429.638L72.739,369.774
	l35.488-120.648l48.8,13.016l88.12,23.496l87.608,23.336L297.267,429.638z M255.939,226.51l-13.912,41.728l-41.528-11.08
	l-31.144-8.304l15.352-46.08c6.306-18.903,26.279-29.588,45.504-24.344c19.999,5.458,31.787,26.095,26.329,46.094
	C256.358,225.191,256.158,225.853,255.939,226.51L255.939,226.51z M238.747,164.406c-1.424-0.512-2.856-1.008-4.336-1.416
	c-9.054-2.461-18.598-2.483-27.664-0.064V79.374h32V164.406z M134.747,31.374h184v32h-184V31.374z M158.563,79.374h32.184v90.664
	c-9.972,6.585-17.441,16.331-21.208,27.672l-15.672,47.016l-49.056-13.08c-4.192-1.118-8.511,1.31-9.736,5.472L78.091,294.87
	l-22.352-6.4c-29.078-8.299-45.922-38.599-37.623-67.676c4.723-16.548,16.951-29.913,33.015-36.084l46.768-17.992
	C133.175,151.619,156.732,117.702,158.563,79.374L158.563,79.374z"/>
<g>
</g>
<g>
</g>
<g>
</g>
<g>
</g>
<g>
</g>
<g>
</g>
<g>
</g>
<g>
</g>
<g>
</g>
<g>
</g>
<g>
</g>
<g>
</g>
<g>
</g>
<g>
</g>
<g>
</g>
</svg>
