<svg id="svg_circle" xmlns="http://www.w3.org/2000/svg" data-w="126" data-h="126" width="836px" height="836px" viewBox="0 0 126 126" style="width: 836px; height: 836px;"><rect x="45.5" y="3.5" fill="#FF0000" width="5" height="5" class="filled"></rect><rect x="51.5" y="3.5" fill="#FF0000" width="5" height="5" class="filled"></rect><rect x="57.5" y="3.5" fill="#FF0000" width="5" height="5" class="filled"></rect><rect x="63.5" y="3.5" fill="#FF0000" width="5" height="5" class="filled"></rect><rect x="69.5" y="3.5" fill="#FF0000" width="5" height="5" class="filled"></rect><rect x="75.5" y="3.5" fill="#FF0000" width="5" height="5" class="filled"></rect><rect x="33.5" y="9.5" fill="#FF0000" width="5" height="5" class="filled"></rect><rect x="39.5" y="9.5" fill="#FF0000" width="5" height="5" class="filled"></rect><rect x="81.5" y="9.5" fill="#FF0000" width="5" height="5" class="filled"></rect><rect x="87.5" y="9.5" fill="#FF0000" width="5" height="5" class="filled"></rect><rect x="21.5" y="15.5" fill="#FF0000" width="5" height="5" class="filled"></rect><rect x="27.5" y="15.5" fill="#FF0000" width="5" height="5" class="filled"></rect><rect x="93.5" y="15.5" fill="#FF0000" width="5" height="5" class="filled"></rect><rect x="99.5" y="15.5" fill="#FF0000" width="5" height="5" class="filled"></rect><rect x="15.5" y="21.5" fill="#FF0000" width="5" height="5" class="filled"></rect><rect x="105.5" y="21.5" fill="#FF0000" width="5" height="5" class="filled"></rect><rect x="15.5" y="27.5" fill="#FF0000" width="5" height="5" class="filled"></rect><rect x="105.5" y="27.5" fill="#FF0000" width="5" height="5" class="filled"></rect><rect x="9.5" y="33.5" fill="#FF0000" width="5" height="5" class="filled"></rect><rect x="111.5" y="33.5" fill="#FF0000" width="5" height="5" class="filled"></rect><rect x="9.5" y="39.5" fill="#FF0000" width="5" height="5" class="filled"></rect><rect x="111.5" y="39.5" fill="#FF0000" width="5" height="5" class="filled"></rect><rect x="3.5" y="45.5" fill="#FF0000" width="5" height="5" class="filled"></rect><rect x="117.5" y="45.5" fill="#FF0000" width="5" height="5" class="filled"></rect><rect x="3.5" y="51.5" fill="#FF0000" width="5" height="5" class="filled"></rect><rect x="117.5" y="51.5" fill="#FF0000" width="5" height="5" class="filled"></rect><rect x="3.5" y="57.5" fill="#FF0000" width="5" height="5" class="filled"></rect><rect x="117.5" y="57.5" fill="#FF0000" width="5" height="5" class="filled"></rect><rect x="3.5" y="63.5" fill="#FF0000" width="5" height="5" class="filled"></rect><rect x="117.5" y="63.5" fill="#FF0000" width="5" height="5" class="filled"></rect><rect x="3.5" y="69.5" fill="#FF0000" width="5" height="5" class="filled"></rect><rect x="117.5" y="69.5" fill="#FF0000" width="5" height="5" class="filled"></rect><rect x="3.5" y="75.5" fill="#FF0000" width="5" height="5" class="filled"></rect><rect x="117.5" y="75.5" fill="#FF0000" width="5" height="5" class="filled"></rect><rect x="9.5" y="81.5" fill="#FF0000" width="5" height="5" class="filled"></rect><rect x="111.5" y="81.5" fill="#FF0000" width="5" height="5" class="filled"></rect><rect x="9.5" y="87.5" fill="#FF0000" width="5" height="5" class="filled"></rect><rect x="111.5" y="87.5" fill="#FF0000" width="5" height="5" class="filled"></rect><rect x="15.5" y="93.5" fill="#FF0000" width="5" height="5" class="filled"></rect><rect x="105.5" y="93.5" fill="#FF0000" width="5" height="5" class="filled"></rect><rect x="15.5" y="99.5" fill="#FF0000" width="5" height="5" class="filled"></rect><rect x="105.5" y="99.5" fill="#FF0000" width="5" height="5" class="filled"></rect><rect x="21.5" y="105.5" fill="#FF0000" width="5" height="5" class="filled"></rect><rect x="27.5" y="105.5" fill="#FF0000" width="5" height="5" class="filled"></rect><rect x="93.5" y="105.5" fill="#FF0000" width="5" height="5" class="filled"></rect><rect x="99.5" y="105.5" fill="#FF0000" width="5" height="5" class="filled"></rect><rect x="33.5" y="111.5" fill="#FF0000" width="5" height="5" class="filled"></rect><rect x="39.5" y="111.5" fill="#FF0000" width="5" height="5" class="filled"></rect><rect x="81.5" y="111.5" fill="#FF0000" width="5" height="5" class="filled"></rect><rect x="87.5" y="111.5" fill="#FF0000" width="5" height="5" class="filled"></rect><rect x="45.5" y="117.5" fill="#FF0000" width="5" height="5" class="filled"></rect><rect x="51.5" y="117.5" fill="#FF0000" width="5" height="5" class="filled"></rect><rect x="57.5" y="117.5" fill="#FF0000" width="5" height="5" class="filled"></rect><rect x="63.5" y="117.5" fill="#FF0000" width="5" height="5" class="filled"></rect><rect x="69.5" y="117.5" fill="#FF0000" width="5" height="5" class="filled"></rect><rect x="75.5" y="117.5" fill="#FF0000" width="5" height="5" class="filled"></rect><rect x="2.5" y="0" fill="#bbbbbb" width="1" height="126" opacity=".4"></rect><rect x="8.5" y="0" fill="#bbbbbb" width="1" height="126" opacity=".4"></rect><rect x="14.5" y="0" fill="#bbbbbb" width="1" height="126" opacity=".4"></rect><rect x="20.5" y="0" fill="#bbbbbb" width="1" height="126" opacity=".4"></rect><rect x="26.5" y="0" fill="#bbbbbb" width="1" height="126" opacity=".4"></rect><rect x="32.5" y="0" fill="#bbbbbb" width="1" height="126" opacity=".4"></rect><rect x="38.5" y="0" fill="#bbbbbb" width="1" height="126" opacity=".4"></rect><rect x="44.5" y="0" fill="#bbbbbb" width="1" height="126" opacity=".4"></rect><rect x="50.5" y="0" fill="#bbbbbb" width="1" height="126" opacity=".4"></rect><rect x="56.5" y="0" fill="#bbbbbb" width="1" height="126" opacity=".4"></rect><rect x="62.5" y="0" fill="#bbbbbb" width="1" height="126" opacity=".4"></rect><rect x="68.5" y="0" fill="#bbbbbb" width="1" height="126" opacity=".4"></rect><rect x="74.5" y="0" fill="#bbbbbb" width="1" height="126" opacity=".4"></rect><rect x="80.5" y="0" fill="#bbbbbb" width="1" height="126" opacity=".4"></rect><rect x="86.5" y="0" fill="#bbbbbb" width="1" height="126" opacity=".4"></rect><rect x="92.5" y="0" fill="#bbbbbb" width="1" height="126" opacity=".4"></rect><rect x="98.5" y="0" fill="#bbbbbb" width="1" height="126" opacity=".4"></rect><rect x="104.5" y="0" fill="#bbbbbb" width="1" height="126" opacity=".4"></rect><rect x="110.5" y="0" fill="#bbbbbb" width="1" height="126" opacity=".4"></rect><rect x="116.5" y="0" fill="#bbbbbb" width="1" height="126" opacity=".4"></rect><rect x="122.5" y="0" fill="#bbbbbb" width="1" height="126" opacity=".4"></rect><rect x="0" y="2.5" fill="#bbbbbb" width="126" opacity=".6" height="1"></rect><rect x="0" y="8.5" fill="#bbbbbb" width="126" opacity=".6" height="1"></rect><rect x="0" y="14.5" fill="#bbbbbb" width="126" opacity=".6" height="1"></rect><rect x="0" y="20.5" fill="#bbbbbb" width="126" opacity=".6" height="1"></rect><rect x="0" y="26.5" fill="#bbbbbb" width="126" opacity=".6" height="1"></rect><rect x="0" y="32.5" fill="#bbbbbb" width="126" opacity=".6" height="1"></rect><rect x="0" y="38.5" fill="#bbbbbb" width="126" opacity=".6" height="1"></rect><rect x="0" y="44.5" fill="#bbbbbb" width="126" opacity=".6" height="1"></rect><rect x="0" y="50.5" fill="#bbbbbb" width="126" opacity=".6" height="1"></rect><rect x="0" y="56.5" fill="#bbbbbb" width="126" opacity=".6" height="1"></rect><rect x="0" y="62.5" fill="#bbbbbb" width="126" opacity=".6" height="1"></rect><rect x="0" y="68.5" fill="#bbbbbb" width="126" opacity=".6" height="1"></rect><rect x="0" y="74.5" fill="#bbbbbb" width="126" opacity=".6" height="1"></rect><rect x="0" y="80.5" fill="#bbbbbb" width="126" opacity=".6" height="1"></rect><rect x="0" y="86.5" fill="#bbbbbb" width="126" opacity=".6" height="1"></rect><rect x="0" y="92.5" fill="#bbbbbb" width="126" opacity=".6" height="1"></rect><rect x="0" y="98.5" fill="#bbbbbb" width="126" opacity=".6" height="1"></rect><rect x="0" y="104.5" fill="#bbbbbb" width="126" opacity=".6" height="1"></rect><rect x="0" y="110.5" fill="#bbbbbb" width="126" opacity=".6" height="1"></rect><rect x="0" y="116.5" fill="#bbbbbb" width="126" opacity=".6" height="1"></rect><rect x="0" y="122.5" fill="#bbbbbb" width="126" opacity=".6" height="1"></rect><line id="selection_line" x1="0" y1="0" x2="0" y2="0" style="stroke:rgb(0,255,0);" stroke-width="3" stroke-linecap="round" opacity="0"></line></svg>