<svg id="Layer_3" enable-background="new 0 0 64 64" height="512" viewBox="0 0 64 64" width="512" xmlns="http://www.w3.org/2000/svg"><g><path d="m32 19c-7.18 0-13 5.82-13 13s5.82 13 13 13 13-5.82 13-13-5.82-13-13-13zm0 23c-5.523 0-10-4.477-10-10s4.477-10 10-10 10 4.477 10 10-4.477 10-10 10z" fill="#f4b2b0"/><g fill="#b3404a"><path d="m62.707 27.707-.013-.013c-.591-4.233-2.034-8.197-4.16-11.707l.007-.016-.021-.008c-2.044-3.368-4.713-6.315-7.842-8.685v-.027h-.034c-3.289-2.484-7.087-4.325-11.207-5.343l-.004-.01-.013.006c-2.379-.587-4.863-.904-7.42-.904-1.454 0-2.882.108-4.283.303l-.01-.01-.013.013c-4.233.591-8.197 2.034-11.707 4.16l-.016-.007-.008.021c-3.368 2.044-6.315 4.713-8.685 7.842h-.027v.034c-2.484 3.289-4.325 7.087-5.343 11.207l-.01.004.006.013c-.587 2.379-.904 4.863-.904 7.42 0 1.454.108 2.882.303 4.283l-.01.01.013.013c.591 4.233 2.034 8.197 4.16 11.707l-.007.016.021.008c2.044 3.368 4.713 6.315 7.842 8.685v.027h.034c3.289 2.484 7.087 4.325 11.207 5.343l.004.01.013-.006c2.379.587 4.863.904 7.42.904 1.454 0 2.882-.108 4.283-.303l.01.01.013-.013c4.233-.591 8.197-2.034 11.707-4.16l.016.007.008-.021c3.368-2.044 6.315-4.713 8.685-7.842h.027v-.034c2.484-3.289 4.325-7.087 5.343-11.207l.01-.004-.006-.013c.587-2.379.904-4.863.904-7.42 0-1.454-.108-2.882-.303-4.283zm-2.143-.685-2.156 2.156c.699-1.352 1.278-2.763 1.723-4.221.17.679.312 1.369.433 2.065zm-1.628-5.747c-.684 4.233-2.502 8.183-5.296 11.443l-1.132 1.32c-2.178 1.159-4.593 1.818-7.089 1.93.323-1.091.508-2.239.554-3.422.012-.005.025-.01.037-.015 4.591-1.965 8.142-5.6 9.999-10.235l1.576-3.934c.502.94.951 1.914 1.351 2.913zm-26.936 22.725c-6.617 0-12-5.383-12-12s5.383-12 12-12 12 5.383 12 12-5.383 12-12 12zm22.993-29.643c.458.595.892 1.209 1.303 1.839l-1.222 3.051c.134-1.628.103-3.264-.081-4.89zm-2.564-2.918c1.058 4.149.964 8.492-.298 12.592l-.593 1.928c-1.52 1.849-3.437 3.344-5.641 4.405-.124-1.06-.373-2.08-.721-3.054.009-.009.018-.018.028-.027 2.285-2.285 3.893-5.061 4.753-8.087l.013-.001-.003-.039c.461-1.638.713-3.344.713-5.092v-4.224c.602.51 1.188 1.042 1.749 1.599zm-3.751-.107c-.46-1.445-1.046-2.847-1.759-4.189.602.363 1.187.751 1.759 1.155zm-5.219-5.967c2.512 3.477 4.02 7.559 4.349 11.842l.136 1.769c-.717 2.34-1.962 4.491-3.65 6.335-.557-1.02-1.248-1.953-2.031-2.8.006-.014.012-.027.018-.042 1.857-4.636 1.797-9.717-.167-14.308l-1.671-3.904c1.031.315 2.037.685 3.016 1.108zm-4.158 1.308c-1.061-1.252-2.243-2.396-3.529-3.42.751.098 1.494.219 2.225.374zm-7.41-3.67c3.689 2.187 6.699 5.334 8.708 9.127l.945 1.784c.233 2.386-.066 4.8-.878 7.112-.82-.649-1.714-1.202-2.667-1.656 0-.013.001-.027.001-.04 0-3.232-.826-6.332-2.358-9.079l.009-.01-.03-.026c-.832-1.484-1.861-2.869-3.097-4.105l-2.998-2.998c.781-.065 1.569-.106 2.365-.109zm-2.713 2.589c-1.352-.699-2.763-1.278-4.221-1.723.679-.17 1.368-.312 2.065-.433zm-7.903-.528c4.233.684 8.183 2.502 11.443 5.296l1.347 1.155c1.148 2.162 1.788 4.565 1.898 7.064-1.09-.323-2.236-.507-3.418-.553-.005-.012-.01-.025-.015-.037-1.965-4.591-5.6-8.142-10.235-9.999l-3.934-1.576c.941-.501 1.915-.95 2.914-1.35zm-2.027 3.862c-1.628-.134-3.266-.102-4.892.081.595-.458 1.209-.892 1.84-1.304zm-7.809 2.645c4.15-1.058 8.493-.963 12.592.298l1.928.593c1.849 1.52 3.344 3.437 4.405 5.641-1.06.124-2.08.373-3.054.721-.009-.009-.018-.019-.027-.028-2.285-2.285-5.061-3.893-8.087-4.753l-.001-.013-.039.003c-1.638-.461-3.344-.713-5.092-.713h-4.224c.51-.602 1.042-1.188 1.599-1.749zm-.107 3.751c-1.445.46-2.847 1.046-4.189 1.759.363-.602.751-1.187 1.155-1.759zm-5.967 5.219c3.477-2.512 7.559-4.02 11.842-4.349l1.769-.136c2.34.717 4.491 1.962 6.335 3.65-1.02.557-1.953 1.248-2.8 2.031-.014-.006-.028-.012-.042-.018-4.635-1.856-9.716-1.797-14.308.167l-3.904 1.671c.315-1.031.685-2.037 1.108-3.016zm1.308 4.158c-1.252 1.061-2.396 2.243-3.42 3.529.098-.751.219-1.494.374-2.225zm-3.67 7.41c2.187-3.689 5.334-6.699 9.127-8.708l1.784-.945c2.385-.233 4.8.066 7.112.878-.653.825-1.21 1.727-1.666 2.687-3.224-.015-6.341.8-9.103 2.342l-.016-.014-.04.047c-1.478.832-2.862 1.851-4.091 3.08l-2.998 2.998c-.065-.781-.106-1.569-.109-2.365zm2.589 2.713c-.699 1.352-1.278 2.763-1.723 4.221-.17-.679-.312-1.368-.433-2.065zm-.528 7.903c.684-4.233 2.502-8.183 5.296-11.443l1.147-1.338c2.172-1.158 4.581-1.816 7.075-1.918-.324 1.093-.509 2.242-.555 3.428-.012.005-.025.01-.037.015-4.591 1.965-8.142 5.6-9.999 10.235l-1.576 3.934c-.502-.94-.951-1.914-1.351-2.913zm3.943 6.918c-.458-.595-.892-1.209-1.303-1.839l1.222-3.051c-.134 1.628-.103 3.264.081 4.89zm2.564 2.918c-1.058-4.149-.964-8.492.298-12.592l.593-1.928c1.52-1.849 3.437-3.344 5.641-4.405.124 1.06.373 2.08.721 3.054-.009.009-.019.018-.028.027-2.285 2.285-3.893 5.061-4.753 8.087l-.013.001.003.039c-.461 1.638-.713 3.344-.713 5.092v4.224c-.602-.51-1.188-1.042-1.749-1.599zm3.751.107c.46 1.445 1.046 2.847 1.759 4.189-.602-.363-1.187-.751-1.759-1.155zm5.219 5.967c-2.512-3.477-4.02-7.559-4.349-11.842l-.136-1.769c.717-2.34 1.962-4.491 3.65-6.335.557 1.02 1.248 1.953 2.031 2.8-.006.014-.012.028-.018.042-1.857 4.636-1.797 9.717.167 14.308l1.671 3.904c-1.031-.315-2.037-.685-3.016-1.108zm4.158-1.308c1.061 1.252 2.243 2.396 3.529 3.42-.751-.098-1.494-.219-2.225-.374zm7.41 3.67c-3.689-2.187-6.699-5.334-8.708-9.127l-.945-1.784c-.233-2.386.066-4.8.878-7.112.82.649 1.714 1.202 2.667 1.656 0 .013-.001.027-.001.04 0 3.232.826 6.332 2.358 9.079l-.009.01.03.026c.832 1.484 1.861 2.869 3.097 4.105l2.998 2.998c-.781.065-1.569.106-2.365.109zm2.713-2.589c1.352.699 2.763 1.278 4.221 1.723-.679.17-1.368.312-2.065.433zm7.903.528c-4.233-.684-8.183-2.502-11.443-5.296l-1.347-1.155c-1.148-2.162-1.788-4.565-1.898-7.064 1.09.323 2.236.507 3.418.553.005.012.01.025.015.037 1.965 4.591 5.6 8.142 10.235 9.999l3.934 1.576c-.941.501-1.915.95-2.914 1.35zm2.017-3.866c.69.057 1.381.092 2.073.092.945 0 1.89-.065 2.831-.172-.596.459-1.211.894-1.843 1.306zm7.819-2.641c-4.149 1.058-8.491.964-12.592-.298l-1.928-.593c-1.849-1.52-3.344-3.437-4.405-5.641 1.06-.124 2.08-.373 3.054-.721.009.009.017.018.027.028 2.285 2.285 5.061 3.893 8.087 4.753l.001.013.039-.003c1.638.461 3.344.713 5.092.713h4.224c-.51.602-1.042 1.188-1.599 1.749zm.107-3.751c1.445-.46 2.847-1.046 4.189-1.759-.363.602-.751 1.187-1.155 1.759zm5.967-5.219c-3.477 2.512-7.559 4.02-11.842 4.349l-1.769.136c-2.34-.717-4.491-1.962-6.335-3.65 1.02-.557 1.953-1.248 2.8-2.031.014.006.028.012.042.018 2.249.901 4.603 1.351 6.955 1.351 2.496 0 4.989-.506 7.353-1.518l3.904-1.671c-.315 1.031-.685 2.037-1.108 3.016zm-1.308-4.158c1.252-1.061 2.396-2.243 3.42-3.529-.098.751-.219 1.494-.374 2.225zm3.67-7.41c-2.187 3.689-5.334 6.699-9.127 8.708l-1.785.945c-2.385.233-4.8-.066-7.111-.878.649-.82 1.202-1.714 1.656-2.667.013 0 .027.001.04.001 3.232 0 6.332-.826 9.079-2.358l.01.009.026-.03c1.484-.832 2.869-1.861 4.105-3.097l2.998-2.998c.065.781.106 1.569.109 2.365z"/><path d="m32 21c-6.065 0-11 4.935-11 11s4.935 11 11 11 11-4.935 11-11-4.935-11-11-11zm0 20c-4.962 0-9-4.038-9-9s4.038-9 9-9 9 4.038 9 9-4.038 9-9 9z"/></g></g></svg>