<svg id="Capa_1" enable-background="new 0 0 512 512" height="512" viewBox="0 0 512 512" width="512" xmlns="http://www.w3.org/2000/svg"><g><g><path clip-rule="evenodd" d="m10 118.951c.028 5.193 4.313 9.449 9.505 9.449h10.356 452.277 10.356c5.221 0 9.505-4.285 9.505-9.534v-35.496c0-5.249-4.284-9.534-9.505-9.534h-54.506-123.737-116.502-123.738-54.506c-5.192 0-9.477 4.256-9.505 9.449v.085 35.496z" fill="#bfdbff" fill-rule="evenodd"/></g><g><path clip-rule="evenodd" d="m74.011 51.42v22.416h123.738v-22.416c0-12.315-10.073-22.416-22.415-22.416h-78.908c-12.314 0-22.415 10.102-22.415 22.416z" fill="#a6afc6" fill-rule="evenodd"/></g><g><path clip-rule="evenodd" d="m314.251 51.42v22.416h123.738v-22.416c0-12.315-10.073-22.416-22.415-22.416h-78.907c-12.343 0-22.416 10.102-22.416 22.416z" fill="#a6afc6" fill-rule="evenodd"/></g><g><path clip-rule="evenodd" d="m29.862 128.4v262.719c0 20.089 16.428 36.518 36.517 36.518h27.522 83.702 32.63v-138.666c0-12.059 9.874-21.933 21.933-21.933h249.972v-138.638zm70.622 48.662c12.456 0 22.529 10.101 22.529 22.529 0 12.456-10.073 22.558-22.529 22.558s-22.529-10.101-22.529-22.558c0-12.427 10.073-22.529 22.529-22.529zm86.313 0c12.456 0 22.529 10.101 22.529 22.529 0 12.456-10.073 22.558-22.529 22.558-12.428 0-22.529-10.101-22.529-22.558 0-12.427 10.101-22.529 22.529-22.529zm87.816 0h136.903c12.399 0 22.557 10.158 22.557 22.529 0 12.4-10.158 22.558-22.557 22.558h-136.903c-12.399 0-22.529-10.158-22.529-22.558 0-12.371 10.13-22.529 22.529-22.529z" fill="#fff" fill-rule="evenodd"/></g><g><path clip-rule="evenodd" d="m252.084 199.592c0 12.4 10.129 22.558 22.529 22.558h136.903c12.399 0 22.557-10.158 22.557-22.558 0-12.371-10.158-22.529-22.557-22.529h-136.903c-12.399-.001-22.529 10.157-22.529 22.529z" fill="#ffda8f" fill-rule="evenodd"/></g><g><path clip-rule="evenodd" d="m186.797 177.062c-12.428 0-22.529 10.101-22.529 22.529 0 12.456 10.101 22.558 22.529 22.558 12.456 0 22.529-10.101 22.529-22.558-.001-12.427-10.073-22.529-22.529-22.529z" fill="#ffda8f" fill-rule="evenodd"/></g><g><path clip-rule="evenodd" d="m100.484 177.062c-12.456 0-22.529 10.101-22.529 22.529 0 12.456 10.073 22.558 22.529 22.558s22.529-10.101 22.529-22.558c-.001-12.427-10.073-22.529-22.529-22.529z" fill="#ffda8f" fill-rule="evenodd"/></g><g><path clip-rule="evenodd" d="m210.233 288.971v138.666h178.215c0-30.531 24.77-55.302 55.329-55.302 14.896 0 28.43 5.874 38.361 15.464v-120.761h-249.972c-12.059 0-21.933 9.874-21.933 21.933z" fill="#a6afc6" fill-rule="evenodd"/></g><g><path clip-rule="evenodd" d="m443.777 372.335c-30.558 0-55.329 24.771-55.329 55.302v.028c0 30.559 24.77 55.33 55.329 55.33s55.357-24.771 55.357-55.33c0-15.663-6.526-29.822-16.996-39.866-9.93-9.59-23.465-15.464-38.361-15.464z" fill="#bfdbff" fill-rule="evenodd"/></g><g><path clip-rule="evenodd" d="m66.379 427.637v35.582c0 10.867 8.909 19.777 19.805 19.777h44.093c10.895 0 19.805-8.91 19.805-19.777v-35.582z" fill="#a6afc6" fill-rule="evenodd"/></g><g><path d="m274.613 232.149h136.903c17.952 0 32.557-14.605 32.557-32.558 0-17.937-14.604-32.53-32.557-32.53h-136.903c-17.937 0-32.529 14.593-32.529 32.53 0 17.953 14.593 32.558 32.529 32.558zm0-45.087h136.903c6.924 0 12.557 5.621 12.557 12.53 0 6.924-5.633 12.558-12.557 12.558h-136.903c-6.908 0-12.529-5.633-12.529-12.558 0-6.909 5.621-12.53 12.529-12.53z"/><path d="m492.495 138.4c10.755 0 19.505-8.763 19.505-19.534v-35.496c0-10.771-8.75-19.534-19.505-19.534h-44.506v-12.416c0-17.874-14.542-32.416-32.416-32.416h-78.907c-17.874 0-32.415 14.542-32.415 32.416v12.416h-96.502v-12.416c0-17.874-14.541-32.416-32.415-32.416h-78.907c-17.874 0-32.416 14.542-32.416 32.416v12.416h-44.506c-10.755 0-19.505 8.763-19.505 19.534v35.497c0 10.77 8.75 19.533 19.505 19.533h.356v252.719c0 22.217 15.659 40.835 36.518 45.424v26.676c0 16.419 13.37 29.777 29.805 29.777h44.093c16.435 0 29.805-13.358 29.805-29.777v-25.582h219.128c4.815 31.307 31.936 55.358 64.569 55.358 36.038 0 65.356-29.307 65.356-65.33 0-16.884-6.441-32.292-16.995-43.9v-245.365zm-168.244-86.98c0-6.846 5.569-12.416 12.415-12.416h78.907c6.847 0 12.416 5.569 12.416 12.416v12.416h-103.738zm-240.24 0c0-6.846 5.569-12.416 12.416-12.416h78.907c6.846 0 12.415 5.569 12.415 12.416v12.416h-103.738zm56.07 411.799c0 5.391-4.398 9.777-9.805 9.777h-44.092c-5.406 0-9.805-4.386-9.805-9.777v-25.582h63.702zm239.138-45.582h-158.986v-128.666c0-6.58 5.353-11.934 11.933-11.934h239.973v91.776c-8.583-4.15-18.205-6.479-28.361-6.479-32.613.001-59.72 24.024-64.559 55.303zm64.558 55.359c-24.994 0-45.329-20.335-45.329-45.33s20.335-45.33 45.329-45.33c25.01 0 45.356 20.335 45.356 45.33s-20.346 45.33-45.356 45.33zm48.223-354.596h-191.084c-5.522 0-10 4.477-10 10s4.478 10 10 10h171.223v118.638h-239.973c-17.607 0-31.933 14.325-31.933 31.934v128.666h-50.152-83.702c-14.622 0-26.518-11.896-26.518-26.518v-252.72h171.138c5.522 0 10-4.477 10-10s-4.478-10-10-10h-190.999v-34.564h472z"/><path d="m155.39 326.565c-.374-5.147-4.805-9.26-9.963-9.26h-29.566l21.211-42.635c2.46-4.944.446-10.947-4.499-13.407-4.945-2.461-10.948-.445-13.407 4.499l-28.402 57.089c-3.239 6.512 1.678 14.492 8.981 14.454h29.531l-21.23 42.631c-2.462 4.944-.45 10.947 4.493 13.41 1.432.713 2.952 1.051 4.45 1.051 3.674 0 7.21-2.033 8.959-5.544l28.431-57.089c.796-1.599 1.145-3.421 1.011-5.199z"/><path d="m186.797 167.062c-17.937 0-32.529 14.593-32.529 32.53 0 17.952 14.593 32.558 32.529 32.558s32.528-14.605 32.528-32.558c0-17.937-14.592-32.53-32.528-32.53zm0 45.087c-6.908 0-12.529-5.633-12.529-12.558 0-6.909 5.621-12.53 12.529-12.53s12.528 5.621 12.528 12.53c0 6.925-5.62 12.558-12.528 12.558z"/><path d="m133.013 199.592c0-17.937-14.593-32.53-32.529-32.53s-32.528 14.593-32.528 32.53c0 17.952 14.592 32.558 32.528 32.558s32.529-14.606 32.529-32.558zm-45.058 0c0-6.909 5.62-12.53 12.528-12.53s12.529 5.621 12.529 12.53c0 6.924-5.621 12.558-12.529 12.558s-12.528-5.634-12.528-12.558z"/><path d="m252.084 300.99c-5.522 0-10 4.477-10 10v.057c0 5.523 4.478 9.972 10 9.972s10-4.505 10-10.028-4.478-10.001-10-10.001z"/><path d="m252.084 344.914c-5.522 0-10 4.477-10 10v.085c0 5.523 4.478 9.958 10 9.958s10-4.52 10-10.042-4.478-10.001-10-10.001z"/><path d="m292.177 300.99c-5.522 0-10 4.477-10 10v.057c0 5.523 4.478 9.972 10 9.972s10-4.505 10-10.028-4.478-10.001-10-10.001z"/><path d="m292.177 344.914c-5.522 0-10 4.477-10 10v.085c0 5.523 4.478 9.958 10 9.958s10-4.52 10-10.042-4.478-10.001-10-10.001z"/><path d="m332.24 300.99c-5.522 0-10 4.477-10 10v.057c0 5.523 4.478 9.972 10 9.972s10-4.505 10-10.028-4.477-10.001-10-10.001z"/><path d="m332.24 344.914c-5.522 0-10 4.477-10 10v.085c0 5.523 4.478 9.958 10 9.958s10-4.52 10-10.042-4.477-10.001-10-10.001z"/><path d="m452.075 311.046c0-5.523-4.478-10-10-10h-64.892c-5.522 0-10 4.477-10 10s4.478 10 10 10h64.892c5.523 0 10-4.477 10-10z"/><path d="m443.777 417.637c-5.522 0-10 4.477-10 10v.057c0 5.523 4.478 9.972 10 9.972s10-4.505 10-10.028-4.477-10.001-10-10.001z"/><path d="m255.943 138.4h.057c5.522 0 9.972-4.477 9.972-10s-4.506-10-10.028-10-10 4.477-10 10 4.477 10 9.999 10z"/></g></g></svg>