<svg id="Capa_1" enable-background="new 0 0 497 497" height="512" viewBox="0 0 497 497" width="512" xmlns="http://www.w3.org/2000/svg"><g><g><g><path d="m462.103 497h-69.314l-144.289-20-144.289 20h-69.314c-6.076 0-11.002-4.926-11.002-11.001v-121.358l10-54.771-10-58.444v-240.424c0-6.077 4.926-11.002 11.002-11.002h427.206c6.076 0 11.002 4.925 11.002 11.002v474.997c0 6.075-4.926 11.001-11.002 11.001z" fill="#5392f9"/></g></g><g><g><path d="m462.103 0h-30c6.076 0 11.001 4.925 11.001 11.002v474.997c0 6.076-4.925 11.001-11.001 11.001h30c6.076 0 11.001-4.926 11.001-11.001v-474.997c0-6.077-4.925-11.002-11.001-11.002z" fill="#4981f8"/></g></g><g><g><path d="m23.895 251.426h91.519v113.215h-91.519z" fill="#9ec8fc"/></g></g><g><g><path d="m210.795 43.513-17.827 30.877c-1.642 2.845.411 6.401 3.696 6.401h35.654c3.285 0 5.338-3.556 3.696-6.401l-17.827-30.877c-1.644-2.845-5.75-2.845-7.392 0l-17.827 30.877c-1.642 2.845.411 6.401 3.696 6.401h35.654c3.285 0 5.338-3.556 3.696-6.401l-17.827-30.877c-1.644-2.845-5.75-2.845-7.392 0z" fill="#80b6fc"/></g></g><g><g><path d="m286.205 74.391 17.827-30.877c1.642-2.845-.411-6.401-3.695-6.401h-35.654c-3.285 0-5.338 3.556-3.696 6.401l17.827 30.877c1.643 2.844 5.749 2.844 7.391 0l17.827-30.877c1.642-2.845-.411-6.401-3.695-6.401h-35.654c-3.285 0-5.338 3.556-3.696 6.401l17.827 30.877c1.643 2.844 5.749 2.844 7.391 0z" fill="#80b6fc"/></g></g><g><g><circle cx="63.706" cy="281.963" fill="#5392f9" r="7.5"/></g></g><g><g><circle cx="63.706" cy="324.438" fill="#5392f9" r="7.5"/></g></g><g><g><path d="m392.789 497h-136.789l-7.5-10-7.5 10h-136.789v-369.392c0-5.964 4.835-10.799 10.799-10.799h266.98c5.964 0 10.799 4.835 10.799 10.799z" fill="#bed9fd"/></g></g><g><g><path d="m381.99 116.809h-30c5.964 0 10.799 4.835 10.799 10.799v369.392h30v-369.392c0-5.964-4.835-10.799-10.799-10.799z" fill="#9ec8fc"/></g></g><g><g><path d="m286.624 322.173c-4.143 0-7.5-3.358-7.5-7.5v-32.71c0-4.142 3.357-7.5 7.5-7.5s7.5 3.358 7.5 7.5v32.71c0 4.142-3.357 7.5-7.5 7.5z" fill="#9ec8fc"/></g></g><g><g><path d="m210.376 322.173c-4.142 0-7.5-3.358-7.5-7.5v-32.71c0-4.142 3.358-7.5 7.5-7.5s7.5 3.358 7.5 7.5v32.71c0 4.142-3.358 7.5-7.5 7.5z" fill="#9ec8fc"/></g></g><path d="m241 116.809h15v380.191h-15z" fill="#9ec8fc"/></g></svg>