<?xml version="1.0" encoding="iso-8859-1"?>
<!-- Generator: Adobe Illustrator 19.0.0, SVG Export Plug-In . SVG Version: 6.00 Build 0)  -->
<svg version="1.1" id="Capa_1" xmlns="http://www.w3.org/2000/svg" xmlns:xlink="http://www.w3.org/1999/xlink" x="0px" y="0px"
	 viewBox="0 0 464 464" style="enable-background:new 0 0 464 464;" xml:space="preserve">
<path style="fill:#7FCAC9;" d="M0,0h464v384H0V0z"/>
<path style="fill:#7D8D9C;" d="M136,96h192v288H136V96z"/>
<path style="fill:#195C85;" d="M344,464H120l16-48h192L344,464z"/>
<path style="fill:#FFD782;" d="M360,160h32v32h-32V160z"/>
<path style="fill:#195C85;" d="M360,192h32v32h-32V192z"/>
<path style="fill:#CFDFE8;" d="M232,392c-4.418,0-8-3.582-8-8V96c0-4.418,3.582-8,8-8s8,3.582,8,8v288
	C240,388.418,236.418,392,232,392z"/>
<g>
	<path style="fill:#D3843D;" d="M224,64h-40l20-32L224,64z"/>
	<path style="fill:#D3843D;" d="M232,32h40l-20,32L232,32z"/>
</g>
<g>
</g>
<g>
</g>
<g>
</g>
<g>
</g>
<g>
</g>
<g>
</g>
<g>
</g>
<g>
</g>
<g>
</g>
<g>
</g>
<g>
</g>
<g>
</g>
<g>
</g>
<g>
</g>
<g>
</g>
</svg>
