<svg height="512" viewBox="0 0 64 64" width="512" xmlns="http://www.w3.org/2000/svg"><g id="evator-Lift-door-electronic"><path d="m3 3h58v58h-58z" fill="#787680"/><path d="m19 16h13v45h-13z" fill="#e9e9ea"/><path d="m32 16h13v45h-13z" fill="#fff"/><path d="m16 16h3v45h-3z" fill="#d8d7da"/><path d="m45 16h3v45h-3z" fill="#e9e9ea"/><path d="m51 31h6v10h-6z" fill="#fff"/><path d="m53 33h2v2h-2z" fill="#ffda44"/><path d="m53 37h2v2h-2z" fill="#ff5023"/><g fill="#ff9811"><path d="m19 10h2v2h-2z"/><path d="m23 10h2v2h-2z"/><path d="m27 10h2v2h-2z"/></g><path d="m31 10h2v2h-2z" fill="#ffda44"/><path d="m35 10h2v2h-2z" fill="#ff9811"/><path d="m39 10h2v2h-2z" fill="#ff9811"/><path d="m43 10h2v2h-2z" fill="#ff9811"/></g></svg>