<?xml version="1.0"?>
<svg xmlns="http://www.w3.org/2000/svg" width="512" height="512" viewBox="0 0 128 128"><g><path d="M115.75,0H12.25a1.75,1.75,0,0,0-1.75,1.75v124.5A1.75,1.75,0,0,0,12.25,128h103.5a1.75,1.75,0,0,0,1.75-1.75V1.747A1.75,1.75,0,0,0,115.75,0ZM22,124.5V30.131H49.372V124.5Zm30.872,0V30.131H80.243V124.5Zm61.128,0H83.743V28.381a1.75,1.75,0,0,0-1.75-1.75H20.25a1.75,1.75,0,0,0-1.75,1.75V124.5H14V3.5H114Z"/><path d="M20.25,22.125h87.5a1.75,1.75,0,0,0,1.75-1.75V9.874a1.75,1.75,0,0,0-1.75-1.75H20.25a1.75,1.75,0,0,0-1.75,1.75v10.5A1.75,1.75,0,0,0,20.25,22.125ZM22,11.624h84v7H22Z"/><path d="M107.75,26.631H90a1.75,1.75,0,0,0-1.75,1.75v17.75A1.749,1.749,0,0,0,90,47.881h17.75a1.749,1.749,0,0,0,1.75-1.75V28.381A1.75,1.75,0,0,0,107.75,26.631ZM106,44.381H91.75V30.131H106Z"/><path d="M107.75,52.388H90a1.749,1.749,0,0,0-1.75,1.75v17.75A1.75,1.75,0,0,0,90,73.638h17.75a1.75,1.75,0,0,0,1.75-1.75V54.138A1.749,1.749,0,0,0,107.75,52.388ZM106,70.138H91.75V55.888H106Z"/><path d="M96.565,41.006h4.62a1.75,1.75,0,0,0,1.515-2.625l-2.309-4a1.751,1.751,0,0,0-3.032,0l-2.309,4a1.75,1.75,0,0,0,1.515,2.625Z"/><path d="M97.359,65.888a1.751,1.751,0,0,0,3.032,0l2.309-4a1.75,1.75,0,0,0-1.515-2.625h-4.62a1.75,1.75,0,0,0-1.515,2.625Z"/><path d="M107.75,78.144H90a1.75,1.75,0,0,0-1.75,1.75v7.987A1.749,1.749,0,0,0,90,89.631h17.75a1.749,1.749,0,0,0,1.75-1.75V79.894A1.75,1.75,0,0,0,107.75,78.144ZM106,86.131H91.75V81.644H106Z"/></g></svg>
