<?xml version="1.0" encoding="UTF-8"?>
<!DOCTYPE svg PUBLIC "-//W3C//DTD SVG 1.1//EN" "http://www.w3.org/Graphics/SVG/1.1/DTD/svg11.dtd">
<!-- Creator: CorelDRAW X7 -->
<svg xmlns="http://www.w3.org/2000/svg" xml:space="preserve" width="100%" height="100%" version="1.1" style="shape-rendering:geometricPrecision; text-rendering:geometricPrecision; image-rendering:optimizeQuality; fill-rule:evenodd; clip-rule:evenodd"
viewBox="0 0 2646 2646"
 xmlns:xlink="http://www.w3.org/1999/xlink">
 <defs>
  <style type="text/css">
   <![CDATA[
    .fil1 {fill:#23C4B6}
    .fil2 {fill:#36A6DE}
    .fil0 {fill:#4AAFE1}
   ]]>
  </style>
 </defs>
 <g id="Layer_x0020_1">
  <metadata id="CorelCorpID_0Corel-Layer"/>
  <g id="_905031080">
   <g>
    <path class="fil0" d="M990 1917c0,0 10,121 104,121l229 0 229 0c94,0 104,-121 104,-121l1 0c61,-460 456,-662 456,-1092 0,-80 -16,-164 -47,-246l-552 553 -320 628 68 -377 -326 327c24,64 43,132 53,207l1 0z"/>
    <path class="fil1" d="M1570 2088l-473 0c-53,0 -93,43 -90,96l11 179c4,53 14,108 23,123 9,14 40,30 69,35 30,6 67,14 82,19 16,5 28,16 28,24 0,9 43,16 96,16l35 0c53,0 96,-7 96,-16 0,-8 15,-19 34,-24 18,-5 55,-13 81,-19 27,-5 56,-21 65,-36 8,-16 18,-72 22,-124l11 -177c3,-53 -37,-96 -90,-96z"/>
   </g>
   <path class="fil2" d="M2067 579c-102,-269 -366,-513 -744,-513 -493,0 -791,414 -791,759 0,359 277,560 404,885l326 -327 41 -223 -222 -89 372 -727 -110 600 222 89 -51 99 553 -553z"/>
  </g>
 </g>
</svg>
