<?xml version="1.0" encoding="iso-8859-1"?>
<!-- Generator: Adobe Illustrator 19.0.0, SVG Export Plug-In . SVG Version: 6.00 Build 0)  -->
<svg version="1.1" id="Capa_1" xmlns="http://www.w3.org/2000/svg" xmlns:xlink="http://www.w3.org/1999/xlink" x="0px" y="0px"
	 viewBox="0 0 512.001 512.001" style="enable-background:new 0 0 512.001 512.001;" xml:space="preserve">
<polygon style="fill:#EE3C32;" points="328.997,462.006 183.003,462.006 233.001,394.015 278.999,394.015 "/>
<path style="fill:#DAE1E5;" d="M233.001,283.91v110.106h45.998V283.91c-7.191,2.56-14.929,3.965-22.999,3.965
	C247.93,287.875,240.192,286.47,233.001,283.91z"/>
<g>
	<path style="fill:#EE3C32;" d="M187.432,219.312c0-6.358,0.884-12.505,2.503-18.347c-25.36-4.549-56.056-3.038-72.485,1.92
		c-28.305,8.543-73.827,32.604-52.264,104.033c8.674,28.733,18.789,56.502,49.621,59.233s65.348-19.478,62.029-49.342
		c-2.788-25.084,16.372-35.177,32.854-46.943C196.012,257.333,187.432,239.326,187.432,219.312z"/>
	<path style="fill:#EE3C32;" d="M459.678,215.311c-19.869-23.731-59.982-32.431-78.755-8.968
		c-15.768,19.709-36.457,13.297-56.432,9.964c0.043,0.997,0.076,1.997,0.076,3.005c0,25.599-14.039,47.905-34.831,59.681
		c14.715,21.148,37.49,41.785,52.615,49.896c26.056,13.972,75.26,29.145,110.525-36.609
		C467.064,265.83,479.548,239.042,459.678,215.311z"/>
	<path style="fill:#EE3C32;" d="M294.862,162.832c12.561-22.494,21.131-52.009,21.793-69.155
		c1.14-29.542-6.785-80.414-81.348-83.291c-29.994-1.158-59.545-0.638-72.169,27.621c-12.623,28.259-2.865,68.124,26.454,74.712
		c24.619,5.532,27.929,26.923,33.683,46.331c9.726-5.292,20.874-8.3,32.726-8.3C270.432,150.749,283.816,155.218,294.862,162.832z"
		/>
</g>
<path style="fill:#95A0A5;" d="M256,150.749c-37.869,0-68.568,30.697-68.568,68.562c0,37.866,30.699,68.563,68.568,68.563
	s68.568-30.697,68.568-68.563C324.568,181.446,293.869,150.749,256,150.749z M256,242.167c-12.623,0-22.856-10.233-22.856-22.854
	c0-12.621,10.233-22.854,22.856-22.854c12.623,0,22.856,10.233,22.856,22.854C278.856,231.934,268.623,242.167,256,242.167z"/>
<circle style="fill:#EE3C32;" cx="255.999" cy="219.311" r="22.854"/>
<rect x="125.005" y="462.01" style="fill:#95A0A5;" width="261.989" height="39.995"/>
<g>
	<path style="fill:#202020;" d="M152.653,238.147c-2.467-1.78-5.708-2.466-8.76-1.551c-7.6,2.3-14.019,5.399-19.649,9.489
		c-7.51,5.43-13.218,12.678-16.519,20.956c-2.557,6.415,2.376,13.719,9.28,13.719c4.119,0,7.759-2.47,9.29-6.279
		c3.961-9.861,13.579-15.803,23.368-18.737C157.382,253.43,159.181,242.857,152.653,238.147z"/>
	<path style="fill:#202020;" d="M347.496,286.359c9.82,5.24,19.179,7.789,28.599,7.82h0.04c7.305,0,20.621-1.274,23.809-9.259
		c2.585-6.476-2.366-13.718-9.29-13.718c-1.35,0-10.82,2.969-14.559,2.98h-0.12c-7.39,0-22.109-6.64-23.739-6.64
		c-3.699,0-7.08,2.02-8.819,5.279C340.865,277.601,342.739,283.809,347.496,286.359z"/>
	<path style="fill:#202020;" d="M246.08,78.726c3.74,3.25,6.29,7.069,8.02,12.028c1.4,4.018,2.11,15.448,2.08,16.167
		c-0.22,5.331,4.287,10.181,9.61,10.38c0.13,0,0.259,0,0.389,0c5.281,0,9.79-4.38,9.991-9.63c0.04-0.97-1.01-17.187-3.17-23.457
		c-2.77-8.069-7.56-15.207-13.839-20.616c-4.119-3.548-10.553-3.07-14.099,1.02C241.451,68.797,241.911,75.117,246.08,78.726z"/>
	<path style="fill:#202020;" d="M288.856,219.312c0-18.115-14.739-32.853-32.856-32.853s-32.856,14.737-32.856,32.853
		s14.739,32.854,32.856,32.854S288.856,237.427,288.856,219.312z M243.143,219.312c0-7.089,5.768-12.855,12.856-12.855
		s12.856,5.767,12.856,12.855s-5.768,12.855-12.856,12.855C248.911,232.168,243.143,226.401,243.143,219.312z"/>
	<path style="fill:#202020;" d="M10.01,492.003c-5.51,0-10,4.489-10,9.999c0,5.509,4.49,9.999,10,9.999s10-4.49,10-9.999
		C20.01,496.492,15.52,492.003,10.01,492.003z"/>
	<path style="fill:#202020;" d="M501.989,492.001H396.994v-30.017c0-5.522-4.477-9.982-10-9.982h-52.939l-45.057-61.29v-96.227
		c15.384,19.035,35.061,35.916,48.629,43.192c17.561,9.417,37.824,15.379,57.865,12.69c26.86-3.605,49.132-21.566,66.198-53.386
		c12.35-23.027,31.015-57.827,5.656-88.112c-13.601-16.245-35.662-26.581-56.168-26.365c-15.619,0.174-29.137,6.414-38.062,17.569
		c-9.709,12.134-20.836,11.045-39.401,7.693c-2.797-18.945-12.388-35.696-26.204-47.723c18.323-37.213,29.973-86.317,5.184-123.573
		C297.682,13.91,271.775,1.765,235.692,0.372c-26.112-1.007-65.573-2.53-81.684,33.534c-8.642,19.344-8.282,43.695,0.917,62.036
		c7.002,13.962,18.535,23.376,32.476,26.509c15.172,3.409,19.065,13.898,24.193,32.076c-12.627,8.685-22.59,20.961-28.424,35.342
		c-41.171-5.192-91.327-0.234-118.499,35.36c-16.444,21.541-19.491,49.989-9.057,84.555c7.552,25.015,18.963,62.818,58.312,66.304
		c20.985,1.859,43.566-5.943,58.361-21.071c10.922-11.167,16.066-25.136,14.489-39.334c-1.717-15.453,6.931-22.55,22.448-33.317
		c4.279,3.181,8.897,5.925,13.778,8.194v100.153l-45.057,61.29h-52.939c-5.523,0-10,4.46-10,9.982v30.017H50.01
		c-5.51,0-10,4.49-10,10c0,5.509,4.49,10,10,10H501.99c5.51,0,10-4.491,10-10C511.989,496.491,507.499,492.001,501.989,492.001z
		 M166.898,317.891c1.158,10.416-4.207,18.334-8.911,23.144c-10.165,10.393-27.167,16.475-42.298,15.133
		c-23.971-2.124-32.401-23.907-40.931-52.163c-14.285-47.322,1.051-78.131,45.581-91.572c12.931-3.902,36.423-5.463,57.749-3.128
		c-0.417,3.272-0.656,6.6-0.656,9.983c0,18.48,6.43,35.476,17.149,48.908C179.922,278.55,164.02,291.997,166.898,317.891z
		 M334.056,228.139c17.677,3.04,38.412,4.756,54.677-15.572c6.548-8.184,15.941-9.991,22.668-10.066
		c14.508-0.174,30.857,7.556,40.61,19.205c15.447,18.45,6.005,39.813-7.946,65.824c-23.365,43.562-55.995,54.503-96.987,32.524
		c-11.91-6.387-29.638-21.904-43.069-38.642C320.378,268.735,331.62,249.756,334.056,228.139z M191.785,102.941
		c-10.227-2.298-15.967-9.949-18.983-15.961c-6.517-12.993-6.731-31.045-0.534-44.916c8.24-18.443,26.011-22.021,48.955-22.021
		c4.387,0,8.965,0.131,13.699,0.314c49.398,1.907,73.536,26.439,71.742,72.915c-0.521,13.497-6.695,36.219-15.848,55.621
		c-10.501-5.214-22.318-8.161-34.816-8.161c-9.206,0-18.039,1.605-26.255,4.527C224.731,128.035,217.187,108.648,191.785,102.941z
		 M197.431,219.29c0-32.293,26.274-58.563,58.568-58.563s58.568,26.272,58.568,58.564S288.295,277.853,256,277.853
		S197.431,251.582,197.431,219.29z M268.999,296.756v87.249H243v-87.249c4.232,0.708,8.57,1.095,12.999,1.095
		C260.43,297.851,264.768,297.464,268.999,296.756z M238.061,404.005h35.879l35.293,47.998H202.767L238.061,404.005z
		 M376.995,492.001h-241.99v-19.999h241.99V492.001z"/>
	<circle style="fill:#202020;" cx="118.005" cy="310.027" r="9.999"/>
	<circle style="fill:#202020;" cx="417.992" cy="253.029" r="9.999"/>
	<circle style="fill:#202020;" cx="215.001" cy="59.057" r="10"/>
</g>
<g>
</g>
<g>
</g>
<g>
</g>
<g>
</g>
<g>
</g>
<g>
</g>
<g>
</g>
<g>
</g>
<g>
</g>
<g>
</g>
<g>
</g>
<g>
</g>
<g>
</g>
<g>
</g>
<g>
</g>
</svg>
