<svg id="Layer_1" enable-background="new 0 0 497 497" height="512" viewBox="0 0 497 497" width="512" xmlns="http://www.w3.org/2000/svg"><g><path d="m415.244 497h-333.488c-19.213 0-34.789-15.576-34.789-34.789v-427.422c0-19.213 15.576-34.789 34.789-34.789h333.488c19.213 0 34.789 15.576 34.789 34.789v427.422c0 19.213-15.576 34.789-34.789 34.789z" fill="#ff5e57"/><g fill="#fff6db"><path d="m205.833 52.336c-4.142 0-7.5 3.358-7.5 7.5v85.275c0 4.142 3.358 7.5 7.5 7.5s7.5-3.358 7.5-7.5v-85.275c0-4.142-3.358-7.5-7.5-7.5z"/><path d="m167.897 52.649h-34.309c-4.142 0-7.5 3.358-7.5 7.5v84.651c0 4.142 3.358 7.5 7.5 7.5s7.5-3.358 7.5-7.5v-35.627h24.084c4.142 0 7.5-3.358 7.5-7.5s-3.358-7.5-7.5-7.5h-24.084v-26.524h26.809c4.142 0 7.5-3.358 7.5-7.5s-3.357-7.5-7.5-7.5z"/><path d="m363.412 137.223h-28.104v-27.249h25.479c4.142 0 7.5-3.358 7.5-7.5s-3.358-7.5-7.5-7.5h-25.479v-27.248h28.104c4.142 0 7.5-3.358 7.5-7.5s-3.358-7.5-7.5-7.5h-35.604c-4.142 0-7.5 3.358-7.5 7.5v84.497c0 4.142 3.358 7.5 7.5 7.5h35.604c4.142 0 7.5-3.358 7.5-7.5s-3.358-7.5-7.5-7.5z"/><path d="m298.121 81.999c0-16.356-13.869-29.662-30.917-29.662h-22.661c-.005 0-.009.001-.014.001s-.009-.001-.014-.001c-4.142 0-7.5 3.358-7.5 7.5v85.275c0 4.142 3.358 7.5 7.5 7.5s7.5-3.358 7.5-7.5v-32.511l32.975 37.466c1.482 1.685 3.552 2.545 5.633 2.545 1.76 0 3.527-.616 4.952-1.87 3.109-2.736 3.412-7.476.675-10.585l-25.281-28.724c15.278-1.789 27.152-14.302 27.152-29.434zm-30.916 14.662c-3.448 0-9.918.03-15.046.057-.027-5.051-.058-11.38-.058-14.719 0-2.829-.018-9.401-.033-14.662h15.137c8.627 0 15.917 6.714 15.917 14.662s-7.29 14.662-15.917 14.662z"/></g><g><g><path d="m104.159 413.933v-202.827c0-11.046 8.954-20 20-20h248.682c11.046 0 20 8.954 20 20v202.827c0 11.046-8.954 20-20 20h-248.682c-11.046 0-20-8.955-20-20z" fill="#de2a2e"/></g></g><path d="m372.841 191.106h-30c11.046 0 20 8.954 20 20v202.827c0 11.046-8.954 20-20 20h30c11.046 0 20-8.954 20-20v-202.827c0-11.046-8.954-20-20-20z" fill="#cf1d21"/><path d="m104.159 258.522h288.682v107.995h-288.682z" fill="#fff6db"/><path d="m362.841 258.522h30v107.995h-30z" fill="#ffeebd"/><g fill="#cf1d21"><circle cx="248.5" cy="312.519" r="27"/><g><path d="m356.162 305.019h-27.217l5.843-5.843c6.858-6.856-3.749-17.463-10.606-10.606l-18.646 18.646c-2.929 3.535-2.929 7.071 0 10.606l18.646 18.646c6.857 6.857 17.464-3.75 10.606-10.606l-5.843-5.843h27.217c9.697 0 9.697-15 0-15z"/><path d="m172.818 288.57c-6.856-6.858-17.464 3.75-10.606 10.606l5.843 5.843h-27.217c-9.697 0-9.697 15 0 15h27.217l-5.843 5.843c-6.858 6.856 3.75 17.463 10.606 10.606l18.646-18.646c2.929-3.535 2.929-7.071 0-10.606z"/></g></g></g></svg>