<svg height="512" viewBox="0 0 128 128" width="512" xmlns="http://www.w3.org/2000/svg"><g><g><path d="m6.5 61.308h115v60.192h-115z" fill="#385b60"/><path d="m96.308 6.5h9v12.583h-9z" fill="#eaeaf0"/><path d="m106.808 8.25h-12a1.75 1.75 0 0 1 0-3.5h12a1.75 1.75 0 0 1 0 3.5z" fill="#537980"/><path d="m27.192 121.5h-6v-83.1a9 9 0 0 1 9-9h9.391v6h-9.391a3 3 0 0 0 -3 3z" fill="#d8d8d8"/><path d="m35.875 26.404h9.5v12h-9.5z" fill="#eaeaf0"/><g fill="#d8d8d8"><path d="m54.317 50.808h6v9h-6z"/><path d="m103.067 50.808h6v9h-6z"/></g><rect fill="#537980" height="39.808" rx="12" width="79.615" x="41.885" y="12.5"/><path d="m6.5 58.308h115v6h-115z" fill="#eaeaf0"/><path d="m106.808 34.789a6 6 0 0 1 -12 0c0-4.6 6-10.77 6-10.77s6 6.17 6 10.77z" fill="#eaeaf0"/><g fill="#537980"><path d="m87.612 87.212h18.073a3 3 0 1 0 4.784-3 2.993 2.993 0 1 0 -4.784-3h-18.073a3 3 0 1 0 -4.784 3 2.993 2.993 0 1 0 4.784 3z"/><path d="m51.283 108.75h12.069a3 3 0 1 0 4.784-3 2.993 2.993 0 1 0 -4.784-3h-12.069a3 3 0 1 0 -4.785 3 2.993 2.993 0 1 0 4.785 3z"/><circle cx="61.875" cy="77.688" r="3"/><circle cx="95.5" cy="100.417" r="4.5"/></g></g><g fill="#051720"><path d="m123.25 40.308v-15.808a13.732 13.732 0 0 0 -2.043-7.216 1.75 1.75 0 0 0 -2.979 1.838 10.228 10.228 0 0 1 1.522 5.378v15.808a10.261 10.261 0 0 1 -10.25 10.25h-25.917v-36.308h25.917a10.306 10.306 0 0 1 2.834.4 1.75 1.75 0 1 0 .967-3.363 13.782 13.782 0 0 0 -3.8-.533h-2.44v-2.529a1.746 1.746 0 0 0 -.252-3.475h-12a1.746 1.746 0 0 0 -.248 3.475v2.525h-10.978v-4.25a1.75 1.75 0 0 0 -3.5 0v4.25h-8.5v-4.25a1.75 1.75 0 0 0 -3.5 0v4.25h-14.2a13.765 13.765 0 0 0 -13.748 13.75v.15h-4.255a1.751 1.751 0 0 0 -1.75 1.75v1.25h-3.94a10.762 10.762 0 0 0 -10.75 10.75v18.158h-12.94a1.75 1.75 0 0 0 -1.75 1.75v6a1.751 1.751 0 0 0 1.75 1.75h12.94v4.692a1.75 1.75 0 0 0 3.5 0v-4.692h2.5v21.742h-2.5v-8.8a1.75 1.75 0 0 0 -3.5 0v8.8h-12.94a1.75 1.75 0 0 0 0 3.5h12.94v30.2a1.75 1.75 0 0 0 1.75 1.75h6a1.75 1.75 0 0 0 1.75-1.75v-30.2h18.81a1.75 1.75 0 1 0 0-3.5h-18.81v-21.742h52.893a1.75 1.75 0 0 0 0-3.5h-73.583v-2.5h111.5v2.5h-20a1.75 1.75 0 0 0 0 3.5h21.75a1.751 1.751 0 0 0 1.75-1.75v-6a1.75 1.75 0 0 0 -1.75-1.75h-10.68v-2.567a13.767 13.767 0 0 0 12.43-13.683zm-97.81 79.442h-2.5v-28.45h2.5zm10.44-79.6h4.255v.158a13.766 13.766 0 0 0 12.435 13.683v2.567h-23.63v-18.158a1.251 1.251 0 0 1 1.25-1.25h3.94v1.25a1.75 1.75 0 0 0 1.75 1.75zm20.19 13.908h2.5v2.5h-2.5zm6 0h6.013v2.5h-6.013zm9.513-19.9h8.5v6.452h-8.5zm0 9.952h8.5v6.452h-8.5zm8.5-13.452h-8.5v-6.458h8.5zm-8.5 23.4h8.5v2.5h-8.5zm12 0h17.737v2.5h-17.737zm14.477-45.808h5.5v2.5h-5.5zm-17.977 6v6.45h-8.5v-6.45zm-36.448 10.25a10.261 10.261 0 0 1 10.25-10.25h14.2v36.308h-14.2a10.261 10.261 0 0 1 -10.25-10.25zm-6 3.65h2.5v8.5h-2.5zm-14.695 10.25a7.258 7.258 0 0 1 7.25-7.25h3.94v2.5h-3.94a4.756 4.756 0 0 0 -4.75 4.75v18.158h-2.5zm81.88 18.158v-2.5h2.5v2.5z"/><path d="m56.563 20.25h6.125a1.75 1.75 0 0 0 0-3.5h-6.125a1.75 1.75 0 0 0 0 3.5z"/><path d="m93.312 66.058a1.75 1.75 0 0 0 0-3.5h-4.875a1.75 1.75 0 1 0 0 3.5z"/><path d="m99.553 22.8c-.665.683-6.495 6.829-6.495 11.99a7.75 7.75 0 0 0 15.5 0c0-5.161-5.831-11.307-6.5-11.99a1.8 1.8 0 0 0 -2.505 0zm1.255 16.24a4.254 4.254 0 0 1 -4.25-4.25c0-2.5 2.453-5.992 4.247-8.141 1.769 2.13 4.253 5.664 4.253 8.141a4.255 4.255 0 0 1 -4.25 4.249z"/><path d="m108.605 91.3a4.756 4.756 0 0 0 4.75-4.75 4.681 4.681 0 0 0 -.62-2.333 4.681 4.681 0 0 0 .62-2.333 4.75 4.75 0 0 0 -8.839-2.417h-15.735a4.747 4.747 0 0 0 -8.219 4.75 4.691 4.691 0 0 0 -.62 2.333 4.75 4.75 0 0 0 8.839 2.417h15.735a4.716 4.716 0 0 0 4.089 2.333zm-20.993-5.838a1.75 1.75 0 0 0 -1.707 1.361 1.239 1.239 0 0 1 -1.213.972 1.252 1.252 0 0 1 -1.25-1.25 1.237 1.237 0 0 1 .479-.967 1.749 1.749 0 0 0 0-2.732 1.237 1.237 0 0 1 -.479-.967 1.247 1.247 0 0 1 2.463-.278 1.751 1.751 0 0 0 1.707 1.361h18.073a1.752 1.752 0 0 0 1.707-1.361 1.238 1.238 0 0 1 1.213-.972 1.251 1.251 0 0 1 1.25 1.25 1.234 1.234 0 0 1 -.479.967 1.749 1.749 0 0 0 0 2.732 1.234 1.234 0 0 1 .479.967 1.252 1.252 0 0 1 -1.25 1.25 1.238 1.238 0 0 1 -1.213-.972 1.751 1.751 0 0 0 -1.707-1.361z"/><path d="m66.272 98.667a4.716 4.716 0 0 0 -4.089 2.333h-9.731a4.747 4.747 0 0 0 -8.22 4.75 4.69 4.69 0 0 0 -.619 2.333 4.75 4.75 0 0 0 8.839 2.417h9.731a4.747 4.747 0 0 0 8.219-4.75 4.681 4.681 0 0 0 .62-2.333 4.756 4.756 0 0 0 -4.75-4.75zm.771 8.449a1.234 1.234 0 0 1 .479.967 1.252 1.252 0 0 1 -1.25 1.25 1.237 1.237 0 0 1 -1.213-.972 1.751 1.751 0 0 0 -1.707-1.361h-12.069a1.748 1.748 0 0 0 -1.706 1.361 1.246 1.246 0 1 1 -1.985-1.245 1.749 1.749 0 0 0 0-2.732 1.234 1.234 0 0 1 -.479-.967 1.247 1.247 0 0 1 2.464-.278 1.748 1.748 0 0 0 1.706 1.361h12.069a1.751 1.751 0 0 0 1.707-1.361 1.237 1.237 0 0 1 1.213-.972 1.252 1.252 0 0 1 1.25 1.25 1.234 1.234 0 0 1 -.479.967 1.749 1.749 0 0 0 0 2.732z"/><path d="m121.5 113.917h-27.5a1.75 1.75 0 0 0 0 3.5h27.5a1.75 1.75 0 0 0 0-3.5z"/><path d="m66.625 77.688a4.75 4.75 0 1 0 -4.75 4.75 4.755 4.755 0 0 0 4.75-4.75zm-6 0a1.25 1.25 0 1 1 1.25 1.25 1.251 1.251 0 0 1 -1.25-1.25z"/><path d="m101.75 100.417a6.25 6.25 0 1 0 -6.25 6.25 6.257 6.257 0 0 0 6.25-6.25zm-9 0a2.75 2.75 0 1 1 2.75 2.75 2.752 2.752 0 0 1 -2.75-2.75z"/><path d="m37.917 75.938a1.75 1.75 0 0 0 0 3.5h6a1.75 1.75 0 0 0 0-3.5z"/><path d="m106.855 100.417a1.75 1.75 0 0 0 1.75 1.75h6a1.75 1.75 0 0 0 0-3.5h-6a1.75 1.75 0 0 0 -1.75 1.75z"/></g></g></svg>