<svg height="512" viewBox="0 0 512 512" width="512" xmlns="http://www.w3.org/2000/svg"><rect fill="#87a5be" height="480" rx="16" width="320" x="56" y="16"/><rect fill="#3c413c" height="368" rx="8" width="224" x="104" y="64"/><rect fill="#d7e6f0" height="256" rx="8" width="16" x="72" y="128"/><path d="m104 336h224v16h-224z" fill="#736969"/><path d="m104 240h224v16h-224z" fill="#736969"/><path d="m104 144h224v16h-224z" fill="#736969"/><circle cx="288" cy="400" fill="#e13741" r="32"/><path d="m278.572 390.572a13.333 13.333 0 0 0 0 18.856l20.569 20.572a32 32 0 0 0 18.859-18.859l-20.569-20.569a13.333 13.333 0 0 0 -18.859 0z" fill="#aa2823"/><circle cx="288" cy="400" fill="#3c413c" r="13.333"/><circle cx="216" cy="400" fill="#e13741" r="32"/><path d="m206.572 390.572a13.333 13.333 0 0 0 0 18.856l20.569 20.572a32 32 0 0 0 18.859-18.859l-20.569-20.569a13.333 13.333 0 0 0 -18.859 0z" fill="#aa2823"/><circle cx="216" cy="400" fill="#3c413c" r="13.333"/><circle cx="144" cy="400" fill="#e13741" r="32"/><path d="m134.572 390.572a13.333 13.333 0 0 0 0 18.856l20.569 20.572a32 32 0 0 0 18.859-18.859l-20.569-20.569a13.333 13.333 0 0 0 -18.859 0z" fill="#aa2823"/><circle cx="144" cy="400" fill="#3c413c" r="13.333"/><circle cx="288" cy="304" fill="#e13741" r="32"/><path d="m278.572 294.572a13.333 13.333 0 0 0 0 18.856l20.569 20.572a32 32 0 0 0 18.859-18.859l-20.569-20.569a13.333 13.333 0 0 0 -18.859 0z" fill="#aa2823"/><circle cx="288" cy="304" fill="#3c413c" r="13.333"/><circle cx="216" cy="304" fill="#e13741" r="32"/><path d="m206.572 294.572a13.333 13.333 0 0 0 0 18.856l20.569 20.572a32 32 0 0 0 18.859-18.859l-20.569-20.569a13.333 13.333 0 0 0 -18.859 0z" fill="#aa2823"/><circle cx="216" cy="304" fill="#3c413c" r="13.333"/><circle cx="144" cy="304" fill="#e13741" r="32"/><path d="m134.572 294.572a13.333 13.333 0 0 0 0 18.856l20.569 20.572a32 32 0 0 0 18.859-18.859l-20.569-20.569a13.333 13.333 0 0 0 -18.859 0z" fill="#aa2823"/><circle cx="144" cy="304" fill="#3c413c" r="13.333"/><circle cx="288" cy="208" fill="#e13741" r="32"/><path d="m278.572 198.572a13.333 13.333 0 0 0 0 18.856l20.569 20.572a32 32 0 0 0 18.859-18.859l-20.569-20.569a13.333 13.333 0 0 0 -18.859 0z" fill="#aa2823"/><circle cx="288" cy="208" fill="#3c413c" r="13.333"/><circle cx="216" cy="208" fill="#e13741" r="32"/><path d="m206.572 198.572a13.333 13.333 0 0 0 0 18.856l20.569 20.572a32 32 0 0 0 18.859-18.859l-20.569-20.569a13.333 13.333 0 0 0 -18.859 0z" fill="#aa2823"/><circle cx="216" cy="208" fill="#3c413c" r="13.333"/><circle cx="144" cy="208" fill="#e13741" r="32"/><path d="m134.572 198.572a13.333 13.333 0 0 0 0 18.856l20.569 20.572a32 32 0 0 0 18.859-18.859l-20.569-20.569a13.333 13.333 0 0 0 -18.859 0z" fill="#aa2823"/><circle cx="144" cy="208" fill="#3c413c" r="13.333"/><circle cx="288" cy="112" fill="#e13741" r="32"/><path d="m278.572 102.572a13.333 13.333 0 0 0 0 18.856l20.569 20.572a32 32 0 0 0 18.859-18.859l-20.569-20.569a13.333 13.333 0 0 0 -18.859 0z" fill="#aa2823"/><circle cx="288" cy="112" fill="#3c413c" r="13.333"/><circle cx="216" cy="112" fill="#e13741" r="32"/><path d="m206.572 102.572a13.333 13.333 0 0 0 0 18.856l20.569 20.572a32 32 0 0 0 18.859-18.859l-20.569-20.569a13.333 13.333 0 0 0 -18.859 0z" fill="#aa2823"/><circle cx="216" cy="112" fill="#3c413c" r="13.333"/><circle cx="144" cy="112" fill="#e13741" r="32"/><path d="m134.572 102.572a13.333 13.333 0 0 0 0 18.856l20.569 20.572a32 32 0 0 0 18.859-18.859l-20.569-20.569a13.333 13.333 0 0 0 -18.859 0z" fill="#aa2823"/><g fill="#3c413c"><circle cx="144" cy="112" r="13.333"/><rect height="10.667" rx="5.333" width="98.667" x="104" y="448"/><rect height="10.667" rx="5.333" width="98.667" x="104" y="469.333"/><rect height="10.667" rx="5.333" width="96" x="232" y="448"/><rect height="10.667" rx="5.333" width="96" x="232" y="469.333"/></g><circle cx="352" cy="256" fill="#fff" r="88"/><path d="m352 168a88 88 0 1 1 -88 88 88.1 88.1 0 0 1 88-88m0-16a104 104 0 1 0 104 104 104 104 0 0 0 -104-104z" fill="#a0dcfa"/><path d="m409.426 284.536-19.35-11.171 12.528-3.358a4 4 0 1 0 -2.07-7.727l-20.257 5.428-20.277-11.708 20.277-11.708 20.257 5.428a4 4 0 1 0 2.07-7.727l-12.528-3.358 19.35-11.171a4 4 0 1 0 -4-6.928l-19.35 11.172 3.357-12.529a4 4 0 0 0 -7.727-2.071l-5.428 20.257-20.278 11.707v-23.415l14.828-14.828a4 4 0 0 0 -5.656-5.658l-9.172 9.172v-22.343a4 4 0 0 0 -8 0v22.343l-9.172-9.172a4 4 0 0 0 -5.656 5.658l14.828 14.828v23.415l-20.278-11.707-5.428-20.257a4 4 0 0 0 -7.727 2.071l3.357 12.529-19.35-11.172a4 4 0 0 0 -4 6.928l19.35 11.171-12.524 3.358a4 4 0 1 0 2.07 7.727l20.257-5.428 20.273 11.708-20.277 11.708-20.257-5.428a4 4 0 1 0 -2.07 7.727l12.528 3.358-19.35 11.171a4 4 0 1 0 4 6.928l19.35-11.172-3.357 12.529a4 4 0 1 0 7.727 2.071l5.428-20.257 20.278-11.707v23.415l-14.828 14.828a4 4 0 0 0 5.656 5.658l9.172-9.172v22.343a4 4 0 0 0 8 0v-22.343l9.172 9.172a4 4 0 0 0 5.656-5.658l-14.828-14.828v-23.415l20.278 11.707 5.428 20.257a4 4 0 0 0 7.727-2.071l-3.357-12.529 19.35 11.172a4 4 0 1 0 4-6.928z" fill="#55bee6"/></svg>