<?xml version="1.0" encoding="iso-8859-1"?>
<!-- Generator: Adobe Illustrator 19.0.0, SVG Export Plug-In . SVG Version: 6.00 Build 0)  -->
<svg version="1.1" id="Capa_1" xmlns="http://www.w3.org/2000/svg" xmlns:xlink="http://www.w3.org/1999/xlink" x="0px" y="0px"
	 viewBox="0 0 512 512" style="enable-background:new 0 0 512 512;" xml:space="preserve">
<g>
	<g transform="translate(1 1)">
		<path style="fill:#CFD8DC;" d="M323.267,92.867h-153.6c-9.387,0-17.067-19.115-17.067-42.667s7.68-42.667,17.067-42.667h153.6
			c-9.387,0-17.067,19.115-17.067,42.667S313.88,92.867,323.267,92.867z"/>
		<path style="fill:#607D8B;" d="M414.488,55.747c-4.696,5.535-10.934,9.546-17.919,11.52h-57.685
			c-2.646,15.019-8.619,25.6-15.617,25.6c-9.387,0-17.067-19.115-17.067-42.667s7.68-42.667,17.067-42.667
			c6.998,0,12.971,10.581,15.617,25.6h85.759C427.885,36.461,423.277,46.616,414.488,55.747z"/>
		<path style="fill:#BDC3C7;" d="M395.032,67.267c0.48,0.085,0.971,0.085,1.451,0"/>
		<path style="fill:#C52828;" d="M24.6,127h460.8c9.426,0,17.067,7.641,17.067,17.067v307.2c0,9.426-7.641,17.067-17.067,17.067
			H24.6c-9.426,0-17.067-7.641-17.067-17.067v-307.2C7.533,134.641,15.174,127,24.6,127z"/>
		<path style="fill:#F44335;" d="M33.133,127h392.533c9.426,0,17.067,7.641,17.067,17.067v307.2c0,9.426-7.641,17.067-17.067,17.067
			H33.133c-9.426,0-17.067-7.641-17.067-17.067v-307.2C16.067,134.641,23.708,127,33.133,127z"/>
		<rect x="92.867" y="161.133" style="fill:#CFD8DC;" width="324.267" height="273.067"/>
		<path style="fill:#FF5722;" d="M502.467,144.067v307.2c-0.028,9.414-7.653,17.039-17.067,17.067h-17.067V127H485.4
			C494.814,127.028,502.439,134.652,502.467,144.067z"/>
		<path style="fill:#37474F;" d="M24.6,468.333c18.851,0,34.133,15.282,34.133,34.133h384c0-18.851,15.282-34.133,34.133-34.133
			H24.6z"/>
		<path style="fill:#607D8B;" d="M33.133,468.333c18.127,0.739,32.24,16.004,31.557,34.133H419.71
			c-0.683-18.129,13.43-33.394,31.557-34.133H33.133z"/>
		<path style="fill:#00BCD4;" d="M161.133,195.267H203.8c9.426,0,17.067,7.641,17.067,17.067v34.133
			c0,9.426-7.641,17.067-17.067,17.067h-42.667c-9.426,0-17.067-7.641-17.067-17.067v-34.133
			C144.067,202.908,151.708,195.267,161.133,195.267z"/>
		<g>
			<path style="fill:#607D8B;" d="M408.6,195.267h17.067c4.713,0,8.533,3.821,8.533,8.533v25.6c0,4.713-3.82,8.533-8.533,8.533
				H408.6c-4.713,0-8.533-3.821-8.533-8.533v-25.6C400.067,199.087,403.887,195.267,408.6,195.267z"/>
			<path style="fill:#607D8B;" d="M408.6,357.4h17.067c4.713,0,8.533,3.82,8.533,8.533v25.6c0,4.713-3.82,8.533-8.533,8.533H408.6
				c-4.713,0-8.533-3.82-8.533-8.533v-25.6C400.067,361.221,403.887,357.4,408.6,357.4z"/>
			<path style="fill:#607D8B;" d="M84.333,195.267H101.4c4.713,0,8.533,3.821,8.533,8.533v25.6c0,4.713-3.821,8.533-8.533,8.533
				H84.333c-4.713,0-8.533-3.821-8.533-8.533v-25.6C75.8,199.087,79.621,195.267,84.333,195.267z"/>
			<path style="fill:#607D8B;" d="M84.333,357.4H101.4c4.713,0,8.533,3.82,8.533,8.533v25.6c0,4.713-3.821,8.533-8.533,8.533H84.333
				c-4.713,0-8.533-3.82-8.533-8.533v-25.6C75.8,361.221,79.621,357.4,84.333,357.4z"/>
		</g>
		<path style="fill:#FF5722;" d="M41.667,127v341.333H24.6c-9.414-0.028-17.039-7.652-17.067-17.067v-307.2
			C7.561,134.652,15.186,127.028,24.6,127H41.667z"/>
	</g>
	<g>
		<path d="M486.4,119.467H290.133V102.4h34.133c10.048,0,18.19-9.438,22.467-25.6h49.341c0.229,0.012,0.456,0.067,0.683,0.067
			c0.58,0.001,1.159-0.039,1.733-0.121c0.764-0.155,1.518-0.352,2.26-0.589l0.158-0.041c7.98-2.553,15.132-7.194,20.715-13.441
			c10.025-10.367,18.7-25.621,10.142-34.471l-0.035-0.024c-1.055-1.022-2.358-1.751-3.781-2.114
			c-0.72-0.249-1.471-0.401-2.231-0.451l-0.077-0.015h-78.908C342.456,9.438,334.315,0,324.267,0h-153.6
			c-17.592,0-25.6,26.542-25.6,51.2s8.008,51.2,25.6,51.2H204.8v17.067H25.6c-14.132,0.015-25.585,11.468-25.6,25.6v307.2
			c0.015,14.132,11.468,25.585,25.6,25.6c14.132,0.015,25.585,11.468,25.6,25.6c-0.001,2.263,0.898,4.434,2.499,6.035
			c1.6,1.6,3.771,2.499,6.035,2.499h384c2.263,0.001,4.434-0.898,6.035-2.499c1.6-1.6,2.499-3.771,2.499-6.035
			c0.015-14.132,11.468-25.585,25.6-25.6h8.533c14.132-0.015,25.585-11.468,25.6-25.6v-307.2
			C511.985,130.935,500.532,119.482,486.4,119.467z M51.2,460.8V136.533h409.6V460.8H51.2z M213.721,85.333
			c-2.619-1.374-8.921-13.191-8.921-34.133c0-21.167,6.45-33.05,8.533-34.133h48.592C257.82,27.97,255.81,39.551,256,51.2
			c-0.19,11.649,1.82,23.23,5.925,34.133H213.721z M304.592,17.067c-4.105,10.904-6.115,22.484-5.925,34.133
			c-0.19,11.649,1.82,23.23,5.925,34.133h-22.604c-2.619-1.374-8.921-13.191-8.921-34.133c0-21.167,6.45-33.05,8.533-34.133H304.592
			z M396.715,59.733h-56.831c-0.321,0.045-0.64,0.109-0.953,0.192c-1.107,0.098-2.179,0.439-3.14,0.998
			c-0.953,0.509-1.789,1.213-2.452,2.066c-0.712,0.851-1.228,1.848-1.513,2.92c-0.131,0.284-0.245,0.576-0.341,0.874
			c-0.586,6.676-3.096,13.039-7.226,18.317c-2.808-2.267-8.525-13.967-8.525-33.9s5.717-31.633,8.525-33.9
			c4.129,5.278,6.639,11.641,7.225,18.317c0.096,0.3,0.211,0.593,0.344,0.879c0.283,1.072,0.8,2.068,1.513,2.918
			c0.341,0.43,0.723,0.826,1.142,1.181c0.4,0.328,0.831,0.618,1.285,0.866c0.49,0.282,1.007,0.512,1.545,0.687
			c0.516,0.157,1.046,0.265,1.582,0.32c0.326,0.087,0.656,0.154,0.99,0.199h75.842c-1.808,2.948-3.944,5.682-6.367,8.15
			C405.931,54.772,401.591,57.833,396.715,59.733z M170.667,17.067h22.992c-4.105,10.904-6.115,22.484-5.925,34.133
			c-0.19,11.649,1.82,23.23,5.925,34.133h-22.604c-2.619-1.374-8.921-13.191-8.921-34.133
			C162.133,30.033,168.583,18.15,170.667,17.067z M221.867,102.4h51.2v17.067h-51.2V102.4z M17.067,145.067
			c0.005-4.711,3.822-8.529,8.533-8.533h8.533V460.8H25.6c-4.711-0.005-8.529-3.822-8.533-8.533V145.067z M436.058,494.933H67.408
			c-1.314-6.207-4.006-12.04-7.877-17.067h384.404C440.064,482.894,437.372,488.726,436.058,494.933z M494.933,452.267
			c-0.005,4.711-3.822,8.529-8.533,8.533h-8.533V136.533h8.533c4.711,0.005,8.529,3.822,8.533,8.533V452.267z"/>
		<path d="M204.8,187.733h-42.667c-14.132,0.015-25.585,11.468-25.6,25.6v34.133c0.015,14.132,11.468,25.585,25.6,25.6H204.8
			c14.132-0.015,25.585-11.468,25.6-25.6v-34.133C230.385,199.201,218.932,187.749,204.8,187.733z M213.333,247.467
			c-0.005,4.711-3.822,8.529-8.533,8.533h-42.667c-4.711-0.005-8.529-3.822-8.533-8.533v-34.133
			c0.005-4.711,3.822-8.529,8.533-8.533H204.8c4.711,0.005,8.529,3.822,8.533,8.533V247.467z"/>
		<path d="M366.933,358.4h-76.8c-4.713,0-8.533,3.82-8.533,8.533s3.821,8.533,8.533,8.533h76.8c4.713,0,8.533-3.82,8.533-8.533
			S371.646,358.4,366.933,358.4z"/>
		<path d="M366.933,392.533h-76.8c-4.713,0-8.533,3.82-8.533,8.533s3.821,8.533,8.533,8.533h76.8c4.713,0,8.533-3.821,8.533-8.533
			S371.646,392.533,366.933,392.533z"/>
		<path d="M366.933,324.267h-76.8c-4.713,0-8.533,3.82-8.533,8.533s3.821,8.533,8.533,8.533h76.8c4.713,0,8.533-3.82,8.533-8.533
			S371.646,324.267,366.933,324.267z"/>
		<path d="M443.733,230.4v-25.6c-0.011-9.421-7.645-17.056-17.067-17.067v-25.6c0.001-2.263-0.898-4.434-2.499-6.035
			c-1.6-1.6-3.771-2.499-6.035-2.499H93.867c-2.263-0.001-4.434,0.898-6.035,2.499c-1.6,1.6-2.499,3.771-2.499,6.035v25.6
			c-9.421,0.011-17.056,7.645-17.067,17.067v25.6c0.011,9.421,7.645,17.056,17.067,17.067v102.4
			c-9.421,0.011-17.056,7.645-17.067,17.067v25.6c0.011,9.421,7.645,17.056,17.067,17.067v25.6
			c-0.001,2.263,0.898,4.434,2.499,6.035c1.6,1.6,3.771,2.499,6.035,2.499h324.267c2.263,0.001,4.434-0.898,6.035-2.499
			c1.6-1.6,2.499-3.771,2.499-6.035v-25.6c9.421-0.011,17.056-7.645,17.067-17.067v-25.6c-0.011-9.421-7.645-17.056-17.067-17.067
			v-102.4C436.088,247.456,443.723,239.821,443.733,230.4z M426.675,230.4H409.6v-25.6h17.067L426.675,230.4z M85.333,204.8H102.4
			l0.009,25.6H85.333V204.8z M85.333,366.933H102.4l0.009,25.6H85.333V366.933z M102.4,409.6
			c9.421-0.011,17.056-7.645,17.067-17.067v-25.6c-0.011-9.421-7.645-17.056-17.067-17.067v-102.4
			c9.421-0.011,17.056-7.645,17.067-17.067v-25.6c-0.011-9.421-7.645-17.056-17.067-17.067v-17.067h145.067v256H102.4V409.6z
			 M426.675,392.533H409.6v-25.6h17.067L426.675,392.533z M409.6,349.867c-9.421,0.011-17.056,7.645-17.067,17.067v25.6
			c0.011,9.421,7.645,17.056,17.067,17.067v17.067H264.533v-256H409.6v17.067c-9.421,0.011-17.056,7.645-17.067,17.067v25.6
			c0.011,9.421,7.645,17.056,17.067,17.067V349.867z"/>
	</g>
</g>
<g>
</g>
<g>
</g>
<g>
</g>
<g>
</g>
<g>
</g>
<g>
</g>
<g>
</g>
<g>
</g>
<g>
</g>
<g>
</g>
<g>
</g>
<g>
</g>
<g>
</g>
<g>
</g>
<g>
</g>
</svg>
