<svg height="512" viewBox="0 0 64 64" width="512" xmlns="http://www.w3.org/2000/svg"><g id="Layer_21" data-name="Layer 21"><circle cx="32" cy="18" fill="#f4b2b0" r="16"/><g fill="#b3404a"><path d="m24 46a3 3 0 1 0 -3-3 3 3 0 0 0 3 3zm0-4a1 1 0 1 1 -1 1 1 1 0 0 1 1-1z"/><path d="m16 46a3 3 0 1 0 -3-3 3 3 0 0 0 3 3zm0-4a1 1 0 1 1 -1 1 1 1 0 0 1 1-1z"/><path d="m5 40h6v2h-6z"/><path d="m5 44h6v2h-6z"/><path d="m24 60a3 3 0 1 0 -3-3 3 3 0 0 0 3 3zm0-4a1 1 0 1 1 -1 1 1 1 0 0 1 1-1z"/><path d="m16 60a3 3 0 1 0 -3-3 3 3 0 0 0 3 3zm0-4a1 1 0 1 1 -1 1 1 1 0 0 1 1-1z"/><path d="m5 54h6v2h-6z"/><path d="m5 58h6v2h-6z"/><path d="m62 49a1 1 0 0 0 1-1v-10a1 1 0 0 0 -1-1h-4v-3.18a3 3 0 0 0 0-5.64v-4.36a3 3 0 0 0 0-5.64v-3.18a2 2 0 0 0 -2-2h-7.75a17 17 0 0 0 -16.15-12h-.1a17 17 0 0 0 -16.25 12h-7.75a2 2 0 0 0 -2 2v3.18a3 3 0 0 0 0 5.64v4.36a3 3 0 0 0 0 5.64v3.18h-4a1 1 0 0 0 -1 1v10a1 1 0 0 0 1 1h1v2h-1a1 1 0 0 0 -1 1v10a1 1 0 0 0 1 1h28a1 1 0 0 0 1-1v-10a1 1 0 0 0 -1-1h-1v-2h1a1 1 0 0 0 1-1v-10a1 1 0 0 0 -1-1h-22v-3.18a3 3 0 0 0 0-5.64v-4.36a3 3 0 0 0 0-5.64v-3.18h7.28a17.43 17.43 0 0 0 -.28 3 17 17 0 0 0 34 0 17.43 17.43 0 0 0 -.28-3h7.28v3.18a3 3 0 0 0 0 5.64v4.36a3 3 0 0 0 0 5.64v3.18h-22a1 1 0 0 0 -1 1v10a1 1 0 0 0 1 1h1v2h-1a1 1 0 0 0 -1 1v10a1 1 0 0 0 1 1h28a1 1 0 0 0 1-1v-10a1 1 0 0 0 -1-1h-1v-2zm-33 12h-26v-8h26zm-2-10h-22v-2h22zm2-4h-26v-8h26zm-22-15a1 1 0 1 1 1-1 1 1 0 0 1 -1 1zm0-10a1 1 0 1 1 1-1 1 1 0 0 1 -1 1zm24-17.59v6.59a15.77 15.77 0 0 1 -4.2-.86 18.37 18.37 0 0 1 3.56-5zm0 8.59v4h-5.95a18.18 18.18 0 0 1 1-5 17.78 17.78 0 0 0 4.95 1zm0 6v4a17.78 17.78 0 0 0 -5 1 18.18 18.18 0 0 1 -1-5zm0 6v6.55l-.64-.55a18.37 18.37 0 0 1 -3.56-5.1 15.77 15.77 0 0 1 4.2-.9zm2 6.55v-6.55a15.77 15.77 0 0 1 4.2.86 18.37 18.37 0 0 1 -3.56 5.14zm0-8.55v-4h6a18.32 18.32 0 0 1 -1 5.05 17.44 17.44 0 0 0 -5-1.05zm0-6v-4a17.44 17.44 0 0 0 5-1 18.32 18.32 0 0 1 1 5zm0-6v-6.59l.64.64a18.37 18.37 0 0 1 3.56 5.05 15.77 15.77 0 0 1 -4.2.9zm2-7.32-.38-.39a15 15 0 0 1 7.62 3.87l-.24.23a15.64 15.64 0 0 1 -3 1.92 20.14 20.14 0 0 0 -3.95-5.67zm-6.1 0a20.14 20.14 0 0 0 -4 5.67 15.64 15.64 0 0 1 -2.9-1.96l-.32-.27a15 15 0 0 1 7.62-3.87zm-8.2 5.29a18 18 0 0 0 3.45 2.23 20.46 20.46 0 0 0 -1.1 5.8h-6a14.94 14.94 0 0 1 3.29-8.42zm2.35 10.03a20.46 20.46 0 0 0 1.15 5.84 18 18 0 0 0 -3.45 2.23l-.41.35a14.94 14.94 0 0 1 -3.29-8.42zm-1 9.61a15.64 15.64 0 0 1 2.95-1.92 20.14 20.14 0 0 0 4 5.67l.38.39a15 15 0 0 1 -7.62-3.87zm13 3.75a20.14 20.14 0 0 0 4-5.67 15.64 15.64 0 0 1 2.95 1.92l.32.27a15 15 0 0 1 -7.62 3.87zm8.2-5.29a18 18 0 0 0 -3.45-2.23 20.46 20.46 0 0 0 1.2-5.84h6a14.94 14.94 0 0 1 -3.29 8.42zm-2.25-10.07a20.46 20.46 0 0 0 -1.15-5.84 18 18 0 0 0 3.45-2.23l.41-.35a14.94 14.94 0 0 1 3.29 8.42zm16 3a1 1 0 1 1 -1 1 1 1 0 0 1 1-1zm0 10a1 1 0 1 1 -1 1 1 1 0 0 1 1-1zm-22 9h26v8h-26zm26 22h-26v-8h26zm-2-10h-22v-2h22z"/><path d="m56 40a3 3 0 1 0 3 3 3 3 0 0 0 -3-3zm0 4a1 1 0 1 1 1-1 1 1 0 0 1 -1 1z"/><path d="m48 40a3 3 0 1 0 3 3 3 3 0 0 0 -3-3zm0 4a1 1 0 1 1 1-1 1 1 0 0 1 -1 1z"/><path d="m37 40h6v2h-6z"/><path d="m37 44h6v2h-6z"/><path d="m56 60a3 3 0 1 0 -3-3 3 3 0 0 0 3 3zm0-4a1 1 0 1 1 -1 1 1 1 0 0 1 1-1z"/><path d="m48 60a3 3 0 1 0 -3-3 3 3 0 0 0 3 3zm0-4a1 1 0 1 1 -1 1 1 1 0 0 1 1-1z"/><path d="m37 54h6v2h-6z"/><path d="m37 58h6v2h-6z"/></g></g></svg>