<svg width="1339" height="1917" viewBox="0 0 1339 1917" fill="none" xmlns="http://www.w3.org/2000/svg">
<path d="M944.1 553.311H400.131V1155.59H944.1V553.311Z" fill="#3787E4"/>
<path d="M1017.08 1344.49C1017.08 1342.05 1016.55 1339.64 1015.55 1337.39L942.792 1175.42L966.376 1145.73C966.434 1145.66 966.473 1145.58 966.53 1145.51C967.493 1144.26 968.291 1142.9 968.897 1141.45C968.963 1141.3 969.02 1141.14 969.078 1140.98C969.313 1140.38 969.512 1139.75 969.679 1139.11C969.713 1138.99 969.755 1138.86 969.784 1138.73C969.956 1138 970.085 1137.24 970.16 1136.48C970.176 1136.33 970.173 1136.17 970.184 1136.02C970.213 1135.61 970.252 1135.2 970.252 1134.78V747.951C970.252 737.808 961.47 729.589 950.638 729.589C939.805 729.589 931.023 737.808 931.023 747.951V1116.41H868.258V563.103H913.836L931.023 609.067V674.5C931.023 684.643 939.805 692.862 950.638 692.862C961.47 692.862 970.252 684.643 970.252 674.5V605.948C970.252 603.882 969.878 601.83 969.151 599.881L946.265 538.675C943.511 531.308 936.087 526.379 927.752 526.379H917.947V506.171C917.947 475.465 891.261 450.483 858.461 450.483H807.469L795.235 387.675C791.545 368.74 773.947 355 753.391 355H577.765C557.21 355 539.612 368.74 535.922 387.675L523.685 450.483H472.693C439.893 450.483 413.207 475.465 413.207 506.171V526.379H408.63C400.296 526.379 392.871 531.31 390.117 538.675L367.234 599.881C366.507 601.83 366.133 603.882 366.133 605.948V1134.78C366.133 1135.2 366.169 1135.61 366.201 1136.02C366.211 1136.17 366.211 1136.32 366.224 1136.47C366.3 1137.24 366.428 1137.99 366.601 1138.73C366.632 1138.86 366.672 1138.98 366.706 1139.11C366.87 1139.75 367.072 1140.37 367.307 1140.98C367.367 1141.14 367.425 1141.29 367.488 1141.45C368.094 1142.9 368.892 1144.26 369.854 1145.51C369.909 1145.58 369.951 1145.66 370.009 1145.73L393.593 1175.42L320.84 1337.39C319.83 1339.64 319.31 1342.05 319.307 1344.49L319.059 1573.24C319.059 1584.77 325.108 1595.58 335.242 1602.14C341.605 1606.26 349.068 1608.38 356.598 1608.38C361.062 1608.38 365.55 1607.63 369.844 1606.12L403.311 1594.29C417.833 1589.16 427.591 1575.95 427.588 1561.59L429.408 1376.21L474.087 1276.73L489.676 1296.35C489.274 1298.3 489.049 1300.31 489.049 1302.37V1339.33C489.049 1356.81 504.243 1371.04 522.921 1371.04H614.58V1573.47C614.58 1592.8 631.375 1608.52 652.022 1608.52H684.362C705.01 1608.52 721.805 1592.79 721.805 1573.47V1371.03H813.463C832.141 1371.03 847.336 1356.81 847.336 1339.32V1302.37C847.336 1300.31 847.108 1298.3 846.708 1296.35L862.298 1276.73L906.976 1376.2L908.797 1561.41C908.797 1575.95 918.554 1589.16 933.079 1594.29L966.546 1606.12C970.838 1607.63 975.323 1608.38 979.79 1608.38C987.316 1608.38 994.783 1606.26 1001.15 1602.14C1011.28 1595.58 1017.33 1584.77 1017.33 1573.22L1017.08 1344.49ZM574.512 394.263C574.797 392.792 576.165 391.724 577.763 391.724H753.389C754.987 391.724 756.355 392.794 756.64 394.263L767.595 450.483H563.559L574.512 394.263ZM452.436 506.171C452.436 495.715 461.523 487.207 472.693 487.207H858.461C869.631 487.207 878.719 495.715 878.719 506.171V526.379H452.436V506.171ZM753.188 1026.75V979.998H829.029V1026.75H753.188ZM829.029 1063.47V1116.41H753.188V1063.47H829.029ZM753.188 943.274V896.527H829.029V943.274H753.188ZM753.188 859.805V813.058H829.029V859.805H753.188ZM753.188 776.334V729.586H829.029V776.334H753.188ZM753.188 692.862V646.115H829.029V692.862H753.188ZM753.188 609.391V563.103H829.029V609.391H753.188ZM405.361 609.067L422.546 563.103H506.866L495.286 595.315C493.006 598.317 491.664 601.985 491.664 605.948V954.164C491.664 964.307 500.446 972.526 511.278 972.526C522.111 972.526 530.893 964.307 530.893 954.164V611.403L548.258 563.103H713.959V1116.41H530.893V1029.58C530.893 1019.44 522.111 1011.22 511.278 1011.22C500.446 1011.22 491.664 1019.44 491.664 1029.58V1116.41H405.361V609.067ZM391.752 1365.3C390.763 1367.5 390.243 1369.86 390.219 1372.25L388.373 1560.32L358.29 1570.94L358.53 1348.22L420.778 1209.63L446.904 1242.51L391.752 1365.3ZM682.576 1571.79H653.809V1371.03H682.576V1571.79ZM808.107 1334.31H528.277V1307.38H808.107V1334.31ZM818.234 1270.66H518.149L424.779 1153.14H911.603L818.234 1270.66ZM948.012 1560.32L946.166 1372.25C946.142 1369.86 945.622 1367.51 944.633 1365.3L889.48 1242.52L915.607 1209.64L977.854 1348.22L978.095 1570.95L948.012 1560.32Z" fill="#31323E"/>
<path d="M171.333 1644.5L159.149 1677.43L189.243 1688.69L201.426 1655.76L171.333 1644.5Z" fill="#78B9EB"/>
<path d="M177.426 1628.03L147.331 1616.77L122.963 1682.64L153.057 1693.9L159.15 1677.43L171.333 1644.5L177.426 1628.03Z" fill="#78B9EB"/>
<path d="M161.546 1578.34C163.789 1572.28 158.874 1564.85 150.56 1561.73C142.245 1558.63 133.696 1561.02 131.451 1567.08L78.6535 1709.81C76.4093 1715.88 81.3252 1723.31 89.6391 1726.42C97.9528 1729.53 106.504 1727.14 108.748 1721.07L161.546 1578.34Z" fill="#ED1C24"/>
<path d="M217.541 1774.27C215.365 1780.34 220.259 1787.74 228.526 1790.88L348.901 1835.92C357.214 1839.03 365.767 1836.64 368.01 1830.57C370.255 1824.51 365.339 1817.07 357.025 1813.96L236.648 1768.92C228.346 1765.83 219.802 1768.23 217.541 1774.27Z" fill="#0A87EB"/>
<path d="M279.294 1653.65L241.676 1639.57L209.184 1727.4L246.803 1741.48L236.648 1768.92L357.025 1813.96L409.821 1671.24L289.446 1626.2L279.294 1653.65Z" fill="#78B9EB"/>
<path d="M230.691 1622.96C222.386 1619.88 213.845 1622.27 211.582 1628.31L179.091 1716.14C176.915 1722.21 181.809 1729.61 190.077 1732.75C198.381 1735.84 206.923 1733.45 209.187 1727.4L241.675 1639.57C243.892 1633.51 238.983 1626.08 230.691 1622.96Z" fill="#0A87EB"/>
<path d="M278.459 1609.59C276.243 1615.65 281.151 1623.08 289.444 1626.2L409.819 1671.24C418.123 1674.32 426.664 1671.93 428.927 1665.89C431.103 1659.82 426.21 1652.42 417.943 1649.28L297.566 1604.24C289.263 1601.15 280.72 1603.54 278.459 1609.59Z" fill="#0A87EB"/>
<path d="M228.526 1790.88L204.159 1856.75L324.533 1901.79L348.9 1835.92L228.526 1790.88Z" fill="#78B9EB"/>
<path d="M321.94 1538.37L297.571 1604.24L417.947 1649.28L442.314 1583.41L321.94 1538.37Z" fill="#78B9EB"/>
<path d="M316.446 1530.06L291.705 1596.95C278.904 1595.55 269.267 1602.56 270.186 1612.62C270.69 1618.19 274.405 1623.8 280.267 1627.86L273.802 1645.34L249.847 1636.38C248.882 1626.27 237.688 1616.97 224.843 1615.59C214.956 1614.54 206.627 1618.51 204.059 1625.5L195.936 1647.45L180.89 1641.82L184.951 1630.85C186.071 1627.82 183.611 1624.1 179.459 1622.54L156.888 1614.1L169.072 1581.16C172.437 1572.06 165.06 1560.91 152.594 1556.25C140.127 1551.58 127.296 1555.18 123.931 1564.27L71.1336 1707C67.7688 1716.09 75.1453 1727.24 87.6121 1731.91C100.078 1736.57 112.909 1732.98 116.275 1723.88L128.458 1690.95L151.029 1699.39C155.181 1700.95 159.461 1699.75 160.583 1696.72L164.644 1685.74L179.691 1691.37L171.568 1713.33C168.28 1722.43 175.629 1733.54 188.047 1738.24C197.589 1741.78 207.696 1740.55 213.296 1735.19L237.249 1744.15L230.784 1761.63C220.944 1760.58 212.628 1764.52 210.017 1771.46C207.473 1778.43 211.211 1786.87 219.342 1792.56L194.604 1859.43L330.026 1910.1L354.769 1843.22C367.567 1844.62 377.205 1837.6 376.285 1827.54C375.781 1821.97 372.067 1816.36 366.206 1812.3L415.69 1678.53C425.53 1679.58 433.844 1675.64 436.455 1668.7C438.999 1661.73 435.264 1653.28 427.13 1647.6L451.867 1580.73L316.446 1530.06ZM91.6736 1720.93C87.5205 1719.38 85.0598 1715.66 86.1804 1712.63L138.979 1569.9C140.099 1566.87 144.379 1565.67 148.532 1567.23C152.685 1568.78 155.146 1572.5 154.025 1575.53L101.227 1718.26C100.106 1721.29 95.8256 1722.48 91.6736 1720.93ZM132.519 1679.97L152.826 1625.08L167.874 1630.7L147.567 1685.6L132.519 1679.97ZM168.705 1674.76L176.828 1652.8L191.875 1658.43L183.753 1680.39L168.705 1674.76ZM187.374 1723.57C186.337 1722.05 186.063 1720.38 186.615 1718.96L219.106 1631.13C220.227 1628.1 224.507 1626.9 228.659 1628.45C232.812 1630.01 235.273 1633.73 234.152 1636.76L201.661 1724.59C200.54 1727.62 196.26 1728.81 192.107 1727.26C190.084 1726.51 188.369 1725.17 187.374 1723.57ZM213.711 1854.08L234.018 1799.19L339.349 1838.59L319.042 1893.49L213.711 1854.08ZM360.488 1827.76C359.368 1830.79 355.084 1831.98 350.933 1830.43L230.556 1785.39C228.526 1784.63 226.818 1783.3 225.824 1781.7C224.785 1780.18 224.513 1778.51 225.064 1777.09C226.184 1774.06 230.464 1772.86 234.619 1774.41L354.993 1819.45C359.147 1821.01 361.608 1824.73 360.488 1827.76ZM246.203 1766.25L254.325 1744.29C255.448 1741.26 252.987 1737.54 248.832 1735.99L218.739 1724.73L247.169 1647.87L277.262 1659.13C281.416 1660.69 285.696 1659.49 286.817 1656.46L294.938 1634.5L400.269 1673.91L351.53 1805.66L246.203 1766.25ZM421.409 1663.07C420.288 1666.1 416.005 1667.3 411.853 1665.75L291.479 1620.71C287.325 1619.16 284.864 1615.43 285.985 1612.4C287.107 1609.38 291.387 1608.18 295.539 1609.73L415.913 1654.77C417.937 1655.53 419.656 1656.86 420.651 1658.45C421.686 1659.98 421.96 1661.65 421.409 1663.07ZM432.761 1586.08L412.454 1640.97L307.124 1601.57L327.431 1546.67L432.761 1586.08Z" fill="#231F20"/>
<path d="M1153.81 1668.65L1143.33 1634.45L1115.67 1642.96L1126.15 1677.17L1153.81 1668.65Z" fill="#78B9EB"/>
<path d="M1159.06 1685.76L1186.72 1677.24L1165.75 1608.82L1138.09 1617.34L1143.33 1634.45L1153.81 1668.65L1159.06 1685.76Z" fill="#78B9EB"/>
<path d="M1198.94 1717.14C1200.87 1723.44 1208.63 1726.64 1216.27 1724.29C1223.91 1721.93 1228.53 1714.93 1226.6 1708.63L1181.18 1560.4C1179.25 1554.1 1171.5 1550.9 1163.86 1553.25C1156.22 1555.61 1151.59 1562.61 1153.52 1568.92L1198.94 1717.14Z" fill="#ED1C24"/>
<path d="M1046.3 1589.46C1044.33 1583.2 1036.61 1580.01 1028.98 1582.31L918.342 1616.39C910.701 1618.74 906.076 1625.75 908.007 1632.05C909.937 1638.35 917.69 1641.55 925.331 1639.19L1035.97 1605.12C1043.59 1602.75 1048.21 1595.75 1046.3 1589.46Z" fill="#0A87EB"/>
<path d="M1072.66 1724.84L1107.23 1714.19L1079.28 1622.98L1044.7 1633.63L1035.97 1605.12L925.331 1639.19L970.752 1787.42L1081.39 1753.35L1072.66 1724.84Z" fill="#78B9EB"/>
<path d="M1124.55 1721.34C1132.18 1718.97 1136.8 1711.97 1134.89 1705.68L1106.94 1614.46C1104.96 1608.2 1097.24 1605.02 1089.61 1607.32C1081.99 1609.68 1077.37 1616.68 1079.28 1622.98L1107.23 1714.2C1109.18 1720.48 1116.92 1723.67 1124.55 1721.34Z" fill="#0A87EB"/>
<path d="M1098.71 1760.49C1096.77 1754.21 1089.02 1751.02 1081.39 1753.35L970.752 1787.42C963.128 1789.79 958.51 1796.79 960.414 1803.08C962.395 1809.35 970.111 1812.53 977.739 1810.23L1088.38 1776.15C1096 1773.79 1100.62 1766.79 1098.71 1760.49Z" fill="#0A87EB"/>
<path d="M1028.98 1582.31L1008.02 1513.9L897.38 1547.98L918.343 1616.39L1028.98 1582.31Z" fill="#78B9EB"/>
<path d="M1109.35 1844.57L1088.38 1776.15L977.741 1810.23L998.705 1878.64L1109.35 1844.57Z" fill="#78B9EB"/>
<path d="M1118.01 1848.14L1096.72 1778.67C1106.53 1772.27 1109.24 1760.83 1102.78 1753.12C1099.21 1748.85 1093.35 1746.45 1086.88 1746.57L1081.32 1728.42L1103.34 1721.63C1109.86 1729.35 1123.1 1730.38 1132.93 1723.93C1140.49 1718.96 1144.04 1710.79 1141.81 1703.54L1134.82 1680.74L1148.65 1676.48L1152.14 1687.88C1153.11 1691.03 1156.99 1692.63 1160.8 1691.46L1181.55 1685.07L1192.03 1719.27C1194.93 1728.72 1206.56 1733.52 1218.02 1729.99C1229.48 1726.46 1236.41 1715.94 1233.52 1706.5L1188.1 1558.27C1185.21 1548.82 1173.57 1544.02 1162.11 1547.55C1150.65 1551.08 1143.72 1561.6 1146.61 1571.05L1157.09 1605.25L1136.35 1611.64C1132.53 1612.82 1130.22 1616.32 1131.18 1619.47L1134.67 1630.87L1120.84 1635.13L1113.85 1612.33C1110.9 1602.92 1099.31 1598.14 1087.87 1601.61C1079.12 1604.34 1072.72 1611.31 1071.89 1619.01L1049.87 1625.8L1044.31 1607.64C1051.83 1602.69 1055.4 1594.56 1053.22 1587.33C1050.98 1580.11 1043.47 1575.39 1034.47 1575.52L1013.19 1506.07L888.718 1544.41L910.003 1613.87C900.197 1620.27 897.481 1631.71 903.946 1639.42C907.518 1643.69 913.37 1646.1 919.842 1645.98L962.411 1784.9C954.892 1789.85 951.323 1797.98 953.502 1805.21C955.745 1812.43 963.253 1817.16 972.254 1817.02L993.537 1886.47L1118.01 1848.14ZM1165.61 1558.95C1169.42 1557.78 1173.31 1559.38 1174.27 1562.53L1219.69 1710.75C1220.65 1713.9 1218.34 1717.41 1214.52 1718.59C1210.71 1719.76 1206.82 1718.16 1205.86 1715.02L1160.44 1566.79C1159.48 1563.64 1161.79 1560.13 1165.61 1558.95ZM1160.58 1616.65L1178.06 1673.67L1164.22 1677.92L1146.76 1620.91L1160.58 1616.65ZM1138.17 1642.28L1145.15 1665.08L1131.32 1669.34L1124.34 1646.54L1138.17 1642.28ZM1096.82 1613.25C1098.43 1613.89 1099.59 1615.09 1100.03 1616.59L1127.98 1707.81C1128.94 1710.95 1126.63 1714.46 1122.81 1715.64C1118.99 1716.81 1115.11 1715.21 1114.15 1712.07L1086.2 1620.85C1085.23 1617.7 1087.55 1614.19 1091.36 1613.02C1093.22 1612.44 1095.2 1612.53 1096.82 1613.25ZM1002.85 1521.73L1020.32 1578.74L923.511 1608.56L906.04 1551.55L1002.85 1521.73ZM914.921 1629.92C913.959 1626.78 916.273 1623.27 920.09 1622.09L1030.73 1588.02C1032.6 1587.44 1034.57 1587.53 1036.19 1588.25C1037.8 1588.89 1038.96 1590.09 1039.39 1591.59C1040.36 1594.73 1038.04 1598.24 1034.22 1599.42L923.585 1633.49C919.767 1634.67 915.886 1633.07 914.921 1629.92ZM1030.8 1612.95L1037.79 1635.75C1038.75 1638.9 1042.64 1640.5 1046.45 1639.33L1074.11 1630.81L1098.57 1710.62L1070.91 1719.14C1067.09 1720.32 1064.78 1723.82 1065.74 1726.97L1072.73 1749.78L975.919 1779.59L933.993 1642.77L1030.8 1612.95ZM967.332 1800.96C966.367 1797.81 968.681 1794.3 972.498 1793.12L1083.14 1759.05C1086.96 1757.87 1090.84 1759.47 1091.8 1762.62C1092.77 1765.77 1090.45 1769.27 1086.63 1770.45L975.993 1804.53C974.133 1805.1 972.156 1805.02 970.536 1804.3C968.925 1803.66 967.767 1802.45 967.332 1800.96ZM1003.87 1870.81L986.403 1813.8L1083.21 1783.98L1100.68 1840.99L1003.87 1870.81Z" fill="#231F20"/>
<path d="M638.629 123.941L624.315 91.2163C612.202 94.9274 600.812 100.45 590.869 107.503L603.422 119.953L641.539 157.89C644.419 155.844 647.756 154.193 651.357 153.135L638.629 123.941Z" fill="#DA4453"/>
<path d="M721.705 233.651L638.993 233.85L624.795 266.791C658.249 276.937 693.761 272.731 721.773 258.1V258.046L721.705 233.651Z" fill="#CCD1D9"/>
<path d="M618.086 282.304C613.167 280.832 608.383 279.084 603.783 277.177L603.875 310.804L603.877 310.87L630.093 310.806L695.633 310.65L721.851 310.589H721.916V310.522L721.822 276.949C690.727 290.158 653.449 292.995 618.086 282.304Z" fill="#CCD1D9"/>
<path d="M624.313 91.2166C648.02 83.9056 674.823 83.2918 700.471 91.034C707.885 93.2693 714.904 96.1103 721.338 99.4414V99.5075C748.641 113.62 766.793 136.762 772.304 162.413C774.56 172.959 774.723 183.949 772.392 194.836C771.294 200.12 769.67 205.394 767.39 210.614C758.589 231.029 742.192 247.342 721.772 258.046V258.099C693.76 272.73 658.248 276.936 624.794 266.791H624.728C612.199 262.979 600.912 257.512 591.251 250.72C556.251 226.299 541.465 185.228 557.87 147.21C564.779 131.201 576.339 117.715 590.861 107.503C600.817 100.45 612.204 94.9275 624.313 91.2166ZM707.187 75.5702C671.766 64.8345 634.407 67.7267 603.255 80.9904C574.579 93.2539 551.172 114.248 539.38 141.649C516.583 194.564 545.194 252.583 603.791 277.172C608.383 279.084 613.172 280.832 618.091 282.298C653.454 292.99 690.734 290.152 721.83 276.939C750.576 264.729 774.04 243.626 785.895 216.225C808.76 163.243 780.018 105.115 721.225 80.5813C716.693 78.7346 712.035 77.0534 707.187 75.5702Z" fill="#ED5565"/>
<path d="M721.531 170.014L694.871 174.029C695.203 175.573 695.399 177.161 695.402 178.815C695.407 180.458 695.222 182.057 694.897 183.591L721.578 187.49L772.392 194.836C774.722 183.95 774.56 172.959 772.303 162.413L721.531 170.014Z" fill="#DA4453"/>
<path d="M629.274 8.49219L603.059 8.55506C595.849 8.57234 589.965 13.5324 589.981 19.5773L590.025 36.1296C590.043 42.1746 595.954 47.1062 603.164 47.0891L629.382 47.0261L629.274 8.49219Z" fill="#E6E9ED"/>
<path d="M700.479 91.034C674.831 83.292 648.025 83.9058 624.32 91.2166L638.631 123.941H638.699L721.411 123.742L721.343 99.5075V99.4416C714.912 96.1102 707.885 93.2695 700.479 91.034Z" fill="#CCD1D9"/>
<path d="M694.873 174.029C692.15 161.176 678.682 151.377 662.559 151.416C658.626 151.425 654.826 152.033 651.355 153.141C647.754 154.199 644.417 155.85 641.538 157.896C634.409 162.969 629.84 170.558 629.863 178.971C629.887 187.429 634.495 195.007 641.726 199.991C644.608 202.067 647.89 203.658 651.497 204.743C654.975 205.773 658.777 206.379 662.708 206.37C678.834 206.331 692.247 196.512 694.899 183.591C695.223 182.057 695.409 180.457 695.404 178.814C695.401 177.16 695.205 175.572 694.873 174.029Z" fill="#ED5565"/>
<path d="M641.724 199.991C634.493 195.007 629.885 187.429 629.862 178.971C629.838 170.558 634.407 162.969 641.536 157.896L603.419 119.958L603.354 120.014L603.675 238.165L641.651 200.046L641.724 199.991Z" fill="#E6E9ED"/>
<path d="M721.581 187.484L694.9 183.586C692.248 196.507 678.835 206.326 662.709 206.365C658.778 206.374 654.976 205.773 651.498 204.738L638.994 233.844L721.706 233.646L721.581 187.484Z" fill="#E6E9ED"/>
<path d="M638.692 123.941H638.627L651.355 153.135C654.826 152.033 658.626 151.42 662.559 151.41C678.682 151.372 692.15 161.171 694.873 174.024L721.532 170.009L721.404 123.737L638.692 123.935V123.941Z" fill="#E6E9ED"/>
<path d="M629.38 47.0263L603.162 47.0892V47.144L603.256 80.9958C634.417 67.7321 671.768 64.8399 707.188 75.5756C712.037 77.0531 716.695 78.74 721.227 80.5977L721.135 46.8612V46.8062L694.92 46.8691L629.38 47.0263Z" fill="#CCD1D9"/>
<path d="M721.032 8.27251L694.814 8.33535L694.922 46.8694L721.137 46.8065C728.347 46.7891 734.231 41.8292 734.216 35.7841L734.171 19.2319C734.153 13.1925 728.235 8.25522 721.032 8.27251Z" fill="#E6E9ED"/>
<path d="M651.495 204.743C647.888 203.658 644.606 202.067 641.724 199.991L641.651 200.046L603.675 238.165L591.258 250.669V250.725C600.918 257.517 612.198 262.984 624.735 266.796H624.801L638.996 233.855L651.495 204.743Z" fill="#DA4453"/>
<path d="M694.919 46.8695L694.812 8.33545L629.271 8.4926L629.379 47.0265L694.919 46.8695Z" fill="#F5F7FA"/>
<path d="M630.097 310.809L603.882 310.87C596.671 310.887 590.787 315.837 590.803 321.892L590.85 338.379C590.866 344.423 596.779 349.357 603.986 349.337L630.204 349.276L630.097 310.809Z" fill="#E6E9ED"/>
<path d="M695.745 349.12L695.641 310.65L630.098 310.807L630.205 349.276L695.745 349.12Z" fill="#F5F7FA"/>
<path d="M721.858 310.588L695.643 310.649L695.747 349.119L721.962 349.055C729.172 349.038 735.057 344.078 735.041 338.033L734.997 321.546C734.978 315.489 729.133 310.625 721.923 310.588H721.858Z" fill="#E6E9ED"/>
<path d="M623.324 178.987C623.374 197.171 641.053 211.917 662.739 211.865C684.427 211.813 702.022 196.983 701.972 178.798C701.922 160.614 684.246 145.868 662.558 145.92C640.873 145.972 623.275 160.803 623.324 178.987ZM688.865 178.83C688.899 190.953 677.167 200.84 662.71 200.874C648.25 200.909 636.466 191.079 636.432 178.955C636.4 166.832 648.13 156.946 662.589 156.911C677.046 156.876 688.833 166.707 688.865 178.83Z" fill="black"/>
<path d="M688.379 183.612C688.384 186.233 690.626 188.542 693.806 189.001L771.295 200.257C774.862 200.781 778.257 198.773 778.871 195.782C779.512 192.802 777.106 189.944 773.539 189.431L696.057 178.175C692.49 177.65 689.096 179.659 688.481 182.65C688.41 182.974 688.376 183.293 688.379 183.612Z" fill="black"/>
<path d="M618.246 266.796C618.254 269.036 619.912 271.144 622.574 271.945C625.979 272.975 629.737 271.499 630.961 268.639L657.689 206.602C658.913 203.758 657.161 200.597 653.751 199.572C650.345 198.541 646.587 200.018 645.363 202.878L618.641 264.916C618.374 265.537 618.246 266.174 618.246 266.796Z" fill="black"/>
<path d="M584.693 250.652C584.696 252.223 585.494 253.778 587.044 254.863C589.822 256.807 593.957 256.493 596.271 254.165L646.69 203.523C649.005 201.182 648.646 197.715 645.864 195.787C643.086 193.843 638.952 194.155 636.637 196.485L586.215 247.126C585.19 248.157 584.688 249.405 584.693 250.652Z" fill="black"/>
<path d="M617.768 91.2214C617.768 91.8423 617.901 92.4796 618.173 93.1L645.241 155.007C646.48 157.862 650.251 159.32 653.643 158.274C657.048 157.232 658.777 154.052 657.545 151.225L630.478 89.3169C629.238 86.4622 625.464 85.004 622.072 86.0509C619.407 86.865 617.76 88.9793 617.768 91.2214Z" fill="black"/>
<path d="M584.301 107.525C584.303 108.772 584.813 110.018 585.844 111.049L636.54 161.447C638.868 163.766 643.002 164.064 645.769 162.101C648.544 160.149 648.889 156.686 646.557 154.362L595.86 103.963C593.533 101.644 589.395 101.346 586.628 103.309C585.085 104.396 584.296 105.953 584.301 107.525Z" fill="black"/>
<path d="M544.649 179.192C544.769 220.622 576.068 257.906 622.541 271.971C652.177 280.937 684.205 279.683 712.751 268.443C741.296 257.206 762.903 237.333 773.597 212.49C778.317 201.559 780.684 190.161 780.653 178.637C780.54 137.207 749.228 99.9184 702.734 85.8572C673.104 76.8936 641.083 78.1464 612.551 89.3872C584.013 100.622 562.406 120.496 551.713 145.34C546.989 156.276 544.617 167.663 544.649 179.192ZM767.54 178.669C767.566 188.907 765.458 199.034 761.263 208.766C751.754 230.853 732.553 248.512 707.183 258.498C681.815 268.482 653.333 269.601 626.997 261.635C585.692 249.129 557.869 215.986 557.762 179.166V179.161C557.735 168.923 559.851 158.8 564.043 149.063C573.552 126.976 592.753 109.317 618.119 99.3316C643.481 89.346 671.948 88.2281 698.278 96.1939C739.604 108.69 767.438 141.838 767.54 178.669Z" fill="black"/>
<path d="M525.024 179.239C525.157 227.55 561.663 271.041 615.867 287.452C650.422 297.904 687.783 296.442 721.067 283.336C754.359 270.233 779.562 247.053 792.042 218.067C797.544 205.321 800.306 192.038 800.269 178.59C800.139 130.274 763.617 86.783 709.39 70.3825C674.827 59.9252 637.474 61.3885 604.2 74.4871C570.929 87.5912 545.726 110.771 533.246 139.757C527.757 152.508 524.987 165.792 525.024 179.239ZM787.167 178.622C787.201 190.778 784.69 202.791 779.721 214.338C768.437 240.557 745.627 261.527 715.502 273.386C685.387 285.246 651.591 286.566 620.333 277.115C571.287 262.259 538.259 222.913 538.139 179.202C538.105 167.046 540.611 155.027 545.585 143.48C556.877 117.256 579.682 96.2914 609.778 84.4315C639.882 72.5772 673.679 71.2595 704.941 80.7138C754.006 95.5657 787.049 134.906 787.167 178.622Z" fill="black"/>
<path d="M688.354 174.05C688.354 174.369 688.387 174.688 688.461 175.012C689.099 178 692.499 179.986 696.063 179.45L773.487 167.812C777.052 167.276 779.434 164.423 778.786 161.436C778.148 158.447 774.748 156.461 771.183 156.997L693.751 168.63C690.574 169.105 688.346 171.429 688.354 174.05Z" fill="black"/>
<path d="M715.256 276.931L715.347 310.537C715.358 313.575 718.292 316.026 721.917 316.016C725.542 316.008 728.465 313.545 728.458 310.505L728.366 276.9C728.356 273.861 725.421 271.413 721.797 271.42C718.172 271.43 715.248 273.893 715.256 276.931Z" fill="black"/>
<path d="M597.27 277.16L597.361 310.821C597.372 313.859 600.306 316.307 603.931 316.3C607.555 316.29 610.479 313.827 610.471 310.789L610.377 277.13C610.369 274.089 607.432 271.641 603.81 271.648C600.186 271.658 597.262 274.121 597.27 277.16Z" fill="black"/>
<path d="M715.012 187.472L715.205 258.095C715.213 261.133 718.15 263.581 721.772 263.574C725.397 263.564 728.321 261.101 728.313 258.063L728.119 187.441C728.111 184.402 725.174 181.952 721.55 181.961C717.925 181.97 715.004 184.433 715.012 187.472Z" fill="black"/>
<path d="M714.772 99.4681L714.962 170.051C714.973 173.09 717.907 175.54 721.532 175.531C725.157 175.523 728.08 173.059 728.073 170.02L727.879 99.4368C727.871 96.3977 724.934 93.9482 721.31 93.9571C717.685 93.9656 714.761 96.4291 714.772 99.4681Z" fill="black"/>
<path d="M714.607 46.8329L714.699 80.6188C714.709 83.6579 717.644 86.1074 721.268 86.0986C724.893 86.09 727.817 83.6265 727.809 80.5875L727.715 46.8015C727.707 43.7625 724.77 41.3132 721.146 41.3218C717.523 41.3306 714.6 43.7941 714.607 46.8329Z" fill="black"/>
<path d="M596.834 119.986L597.158 238.138C597.166 241.177 600.103 243.626 603.728 243.617C607.352 243.609 610.274 241.145 610.266 238.106L609.942 119.954C609.934 116.915 606.997 114.466 603.375 114.475C599.75 114.483 596.826 116.947 596.834 119.986Z" fill="black"/>
<path d="M596.635 47.1163L596.726 81.012C596.737 84.051 599.671 86.5005 603.296 86.4917C606.92 86.4831 609.844 84.0197 609.836 80.9806L609.742 47.0847C609.734 44.0457 606.798 41.5964 603.173 41.605C599.548 41.6138 596.627 44.0773 596.635 47.1163Z" fill="black"/>
<path d="M632.453 233.832C632.461 236.871 635.398 239.321 639.023 239.312L721.708 239.113C725.333 239.105 728.254 236.641 728.247 233.602C728.239 230.563 725.302 228.114 721.677 228.123L638.991 228.321C635.367 228.33 632.445 230.793 632.453 233.832Z" fill="black"/>
<path d="M632.15 123.924C632.158 126.962 635.095 129.412 638.72 129.403L721.406 129.205C725.03 129.196 727.952 126.733 727.944 123.694C727.936 120.655 724.999 118.205 721.374 118.214L638.688 118.412C635.064 118.421 632.143 120.884 632.15 123.924Z" fill="black"/>
<path d="M584.275 321.875L584.32 338.393C584.346 347.484 593.188 354.861 604.028 354.834L722.002 354.552C732.842 354.525 741.645 347.107 741.618 338.016L741.574 321.498C741.548 312.41 732.706 305.033 721.866 305.06L603.892 305.342C593.052 305.369 584.252 312.787 584.275 321.875ZM728.511 338.048C728.519 341.082 725.59 343.552 721.973 343.559L604 343.843C600.38 343.851 597.438 341.397 597.43 338.364L597.383 321.843C597.375 318.81 600.304 316.342 603.924 316.332L721.897 316.05C725.514 316.041 728.459 318.496 728.466 321.53L728.511 338.048Z" fill="black"/>
<path d="M689.109 310.632L689.217 349.134C689.225 352.172 692.161 354.623 695.786 354.613C699.411 354.606 702.332 352.14 702.324 349.102L702.22 310.6C702.212 307.562 699.275 305.114 695.65 305.121C692.025 305.131 689.102 307.594 689.109 310.632Z" fill="black"/>
<path d="M623.57 310.789L623.678 349.29C623.685 352.329 626.622 354.78 630.244 354.77C633.869 354.762 636.793 352.299 636.785 349.259L636.68 310.76C636.67 307.719 633.736 305.271 630.111 305.278C626.486 305.288 623.562 307.751 623.57 310.789Z" fill="black"/>
<path d="M583.451 19.5932L583.496 36.1124C583.522 45.2019 592.364 52.5776 603.204 52.5516L721.177 52.2688C732.018 52.2429 740.818 44.8249 740.794 35.7354L740.75 19.2161C740.724 10.1266 731.882 2.75092 721.041 2.77692L603.068 3.0598C592.228 3.0858 583.425 10.5038 583.451 19.5932ZM727.687 35.7667C727.695 38.8001 724.765 41.2692 721.146 41.2778L603.173 41.5608C599.556 41.5694 596.614 39.1145 596.603 36.0811L596.559 19.5618C596.551 16.5283 599.48 14.0593 603.099 14.0506L721.073 13.7678C724.69 13.7591 727.632 16.214 727.64 19.2475L727.687 35.7667Z" fill="black"/>
<path d="M688.285 8.35098L688.392 46.8521C688.4 49.8909 691.337 52.3404 694.959 52.3316C698.584 52.323 701.508 49.8596 701.5 46.8205L701.393 8.31955C701.385 5.28058 698.451 2.83118 694.826 2.83987C691.201 2.84856 688.277 5.31201 688.285 8.35098Z" fill="black"/>
<path d="M622.744 8.50821L622.849 47.0093C622.859 50.0481 625.794 52.4976 629.418 52.489C633.043 52.4802 635.967 50.0168 635.959 46.9777L635.852 8.47678C635.844 5.4378 632.907 2.9884 629.282 2.99709C625.66 3.00578 622.736 5.46924 622.744 8.50821Z" fill="black"/>
<path d="M646.474 1671.25L632.161 1638.53C620.047 1642.24 608.658 1647.76 598.715 1654.81L611.268 1667.26L649.385 1705.2C652.264 1703.16 655.601 1701.5 659.203 1700.44L646.474 1671.25Z" fill="#DA4453"/>
<path d="M729.551 1780.96L646.839 1781.16L632.641 1814.1C666.095 1824.25 701.607 1820.04 729.619 1805.41V1805.36L729.551 1780.96Z" fill="#CCD1D9"/>
<path d="M625.932 1829.61C621.012 1828.14 616.229 1826.39 611.629 1824.49L611.72 1858.11L611.723 1858.18L637.938 1858.12L703.479 1857.96L729.696 1857.9H729.762V1857.83L729.668 1824.26C698.572 1837.47 661.295 1840.3 625.932 1829.61Z" fill="#CCD1D9"/>
<path d="M632.158 1638.53C655.865 1631.21 682.669 1630.6 708.317 1638.34C715.731 1640.58 722.75 1643.42 729.184 1646.75V1646.82C756.487 1660.93 774.639 1684.07 780.149 1709.72C782.406 1720.27 782.568 1731.26 780.238 1742.15C779.14 1747.43 777.516 1752.7 775.235 1757.93C766.435 1778.34 750.037 1794.65 729.618 1805.36V1805.41C701.606 1820.04 666.094 1824.25 632.64 1814.1H632.574C620.045 1810.29 608.757 1804.82 599.097 1798.03C564.097 1773.61 549.31 1732.54 565.716 1694.52C572.625 1678.51 584.185 1665.03 598.707 1654.81C608.663 1647.76 620.05 1642.24 632.158 1638.53ZM715.033 1622.88C679.612 1612.15 642.253 1615.04 611.101 1628.3C582.424 1640.56 559.018 1661.56 547.226 1688.96C524.429 1741.87 553.04 1799.89 611.637 1824.48C616.229 1826.39 621.017 1828.14 625.937 1829.61C661.3 1840.3 698.58 1837.46 729.675 1824.25C758.422 1812.04 781.886 1790.94 793.738 1763.53C816.606 1710.55 787.864 1652.42 729.071 1627.89C724.539 1626.04 719.881 1624.36 715.033 1622.88Z" fill="#ED5565"/>
<path d="M729.376 1717.32L702.717 1721.34C703.049 1722.88 703.245 1724.47 703.248 1726.12C703.253 1727.77 703.067 1729.37 702.743 1730.9L729.424 1734.8L780.238 1742.15C782.568 1731.26 782.406 1720.27 780.149 1709.72L729.376 1717.32Z" fill="#DA4453"/>
<path d="M637.12 1555.8L610.905 1555.86C603.695 1555.88 597.811 1560.84 597.826 1566.89L597.871 1583.44C597.889 1589.48 603.799 1594.42 611.01 1594.4L637.227 1594.34L637.12 1555.8Z" fill="#E6E9ED"/>
<path d="M708.324 1638.34C682.677 1630.6 655.871 1631.22 632.166 1638.53L646.477 1671.25H646.545L729.257 1671.05L729.189 1646.82V1646.75C722.758 1643.42 715.731 1640.58 708.324 1638.34Z" fill="#CCD1D9"/>
<path d="M702.719 1721.34C699.996 1708.49 686.528 1698.69 670.405 1698.73C666.471 1698.74 662.672 1699.34 659.201 1700.45C655.6 1701.51 652.263 1703.16 649.384 1705.21C642.254 1710.28 637.686 1717.87 637.709 1726.28C637.733 1734.74 642.341 1742.32 649.572 1747.3C652.454 1749.38 655.736 1750.97 659.342 1752.05C662.821 1753.08 666.623 1753.69 670.554 1753.68C686.679 1753.64 700.093 1743.82 702.745 1730.9C703.069 1729.37 703.255 1727.77 703.25 1726.12C703.247 1724.47 703.051 1722.88 702.719 1721.34Z" fill="#ED5565"/>
<path d="M649.57 1747.3C642.339 1742.32 637.731 1734.74 637.707 1726.28C637.684 1717.87 642.253 1710.28 649.382 1705.21L611.265 1667.27L611.199 1667.32L611.521 1785.48L649.497 1747.36L649.57 1747.3Z" fill="#E6E9ED"/>
<path d="M729.426 1734.79L702.746 1730.9C700.094 1743.82 686.68 1753.64 670.555 1753.68C666.624 1753.68 662.822 1753.08 659.343 1752.05L646.84 1781.15L729.552 1780.96L729.426 1734.79Z" fill="#E6E9ED"/>
<path d="M646.538 1671.25H646.473L659.201 1700.44C662.671 1699.34 666.471 1698.73 670.405 1698.72C686.528 1698.68 699.996 1708.48 702.718 1721.33L729.378 1717.32L729.25 1671.05L646.538 1671.24V1671.25Z" fill="#E6E9ED"/>
<path d="M637.226 1594.34L611.008 1594.4V1594.45L611.102 1628.31C642.262 1615.04 679.613 1612.15 715.034 1622.89C719.883 1624.36 724.54 1626.05 729.073 1627.91L728.981 1594.17V1594.12L702.766 1594.18L637.226 1594.34Z" fill="#CCD1D9"/>
<path d="M728.878 1555.58L702.66 1555.65L702.767 1594.18L728.983 1594.12C736.193 1594.1 742.077 1589.14 742.061 1583.09L742.017 1566.54C741.999 1560.5 736.08 1555.57 728.878 1555.58Z" fill="#E6E9ED"/>
<path d="M659.34 1752.05C655.734 1750.97 652.452 1749.38 649.57 1747.3L649.496 1747.36L611.521 1785.48L599.104 1797.98V1798.04C608.764 1804.83 620.044 1810.29 632.581 1814.11H632.647L646.842 1781.16L659.34 1752.05Z" fill="#DA4453"/>
<path d="M702.765 1594.18L702.658 1555.65L637.117 1555.8L637.224 1594.34L702.765 1594.18Z" fill="#F5F7FA"/>
<path d="M637.942 1858.12L611.727 1858.18C604.517 1858.2 598.633 1863.15 598.648 1869.2L598.696 1885.69C598.711 1891.73 604.624 1896.67 611.832 1896.65L638.05 1896.59L637.942 1858.12Z" fill="#E6E9ED"/>
<path d="M703.591 1896.43L703.486 1857.96L637.943 1858.12L638.051 1896.59L703.591 1896.43Z" fill="#F5F7FA"/>
<path d="M729.703 1857.9L703.488 1857.96L703.593 1896.43L729.808 1896.37C737.018 1896.35 742.902 1891.39 742.887 1885.34L742.842 1868.86C742.824 1862.8 736.979 1857.94 729.769 1857.9H729.703Z" fill="#E6E9ED"/>
<path d="M631.17 1726.3C631.22 1744.48 648.899 1759.23 670.584 1759.18C692.272 1759.12 709.868 1744.29 709.818 1726.11C709.768 1707.92 692.092 1693.18 670.404 1693.23C648.718 1693.28 631.12 1708.11 631.17 1726.3ZM696.71 1726.14C696.744 1738.26 685.012 1748.15 670.555 1748.18C656.096 1748.22 644.312 1738.39 644.278 1726.27C644.246 1714.14 655.975 1704.26 670.435 1704.22C684.892 1704.19 696.679 1714.02 696.71 1726.14Z" fill="black"/>
<path d="M696.225 1730.92C696.23 1733.54 698.471 1735.85 701.651 1736.31L779.141 1747.57C782.708 1748.09 786.103 1746.08 786.717 1743.09C787.358 1740.11 784.952 1737.25 781.385 1736.74L703.903 1725.49C700.336 1724.96 696.941 1726.97 696.327 1729.96C696.256 1730.28 696.222 1730.6 696.225 1730.92Z" fill="black"/>
<path d="M626.092 1814.11C626.1 1816.35 627.758 1818.45 630.42 1819.26C633.825 1820.29 637.583 1818.81 638.807 1815.95L665.535 1753.91C666.759 1751.07 665.006 1747.91 661.596 1746.88C658.191 1745.85 654.433 1747.33 653.209 1750.19L626.487 1812.23C626.22 1812.85 626.092 1813.48 626.092 1814.11Z" fill="black"/>
<path d="M592.539 1797.96C592.542 1799.53 593.339 1801.09 594.89 1802.17C597.668 1804.12 601.802 1803.8 604.117 1801.48L654.536 1750.83C656.85 1748.49 656.492 1745.03 653.709 1743.1C650.932 1741.15 646.797 1741.47 644.483 1743.8L594.061 1794.44C593.036 1795.47 592.534 1796.72 592.539 1797.96Z" fill="black"/>
<path d="M625.613 1638.53C625.613 1639.15 625.747 1639.79 626.019 1640.41L653.086 1702.32C654.326 1705.17 658.097 1706.63 661.489 1705.58C664.894 1704.54 666.623 1701.36 665.391 1698.54L638.323 1636.63C637.084 1633.77 633.31 1632.31 629.918 1633.36C627.253 1634.18 625.605 1636.29 625.613 1638.53Z" fill="black"/>
<path d="M592.147 1654.83C592.149 1656.08 592.659 1657.33 593.689 1658.36L644.386 1708.76C646.713 1711.08 650.848 1711.37 653.615 1709.41C656.39 1707.46 656.735 1703.99 654.402 1701.67L603.706 1651.27C601.378 1648.96 597.241 1648.66 594.474 1650.62C592.931 1651.7 592.141 1653.26 592.147 1654.83Z" fill="black"/>
<path d="M552.494 1726.5C552.615 1767.93 583.914 1805.22 630.387 1819.28C660.022 1828.25 692.051 1826.99 720.596 1815.75C749.142 1804.52 770.749 1784.64 781.442 1759.8C786.163 1748.87 788.53 1737.47 788.498 1725.95C788.386 1684.52 757.074 1647.23 710.58 1633.17C680.95 1624.2 648.929 1625.46 620.396 1636.7C591.859 1647.93 570.252 1667.81 559.558 1692.65C554.835 1703.59 552.463 1714.97 552.494 1726.5ZM775.386 1725.98C775.412 1736.22 773.304 1746.35 769.109 1756.08C759.6 1778.16 740.399 1795.82 715.029 1805.81C689.661 1815.79 661.178 1816.91 634.843 1808.95C593.538 1796.44 565.714 1763.3 565.607 1726.48V1726.47C565.581 1716.23 567.697 1706.11 571.889 1696.37C581.398 1674.29 600.599 1656.63 625.964 1646.64C651.327 1636.66 679.794 1635.54 706.124 1643.51C747.45 1656 775.284 1689.15 775.386 1725.98Z" fill="black"/>
<path d="M532.869 1726.55C533.003 1774.86 569.509 1818.35 623.712 1834.76C658.267 1845.21 695.629 1843.75 728.913 1830.65C762.205 1817.54 787.408 1794.36 799.887 1765.38C805.39 1752.63 808.152 1739.35 808.115 1725.9C807.984 1677.59 771.463 1634.09 717.236 1617.69C682.673 1607.24 645.319 1608.7 612.046 1621.8C578.775 1634.9 553.572 1658.08 541.092 1687.07C535.602 1699.82 532.833 1713.1 532.869 1726.55ZM795.013 1725.93C795.047 1738.09 792.536 1750.1 787.567 1761.65C776.282 1787.87 753.472 1808.84 723.347 1820.7C693.233 1832.56 659.436 1833.88 628.179 1824.43C579.133 1809.57 546.105 1770.22 545.985 1726.51C545.951 1714.36 548.456 1702.34 553.43 1690.79C564.723 1664.57 587.528 1643.6 617.624 1631.74C647.728 1619.89 681.525 1618.57 712.787 1628.03C761.852 1642.88 794.895 1682.22 795.013 1725.93Z" fill="black"/>
<path d="M696.199 1721.36C696.199 1721.68 696.233 1722 696.306 1722.32C696.945 1725.31 700.344 1727.3 703.909 1726.76L781.333 1715.12C784.897 1714.59 787.28 1711.73 786.631 1708.75C785.993 1705.76 782.593 1703.77 779.029 1704.31L701.597 1715.94C698.42 1716.41 696.191 1718.74 696.199 1721.36Z" fill="black"/>
<path d="M723.102 1824.24L723.193 1857.85C723.204 1860.89 726.138 1863.34 729.763 1863.33C733.387 1863.32 736.311 1860.86 736.303 1857.82L736.212 1824.21C736.201 1821.17 733.267 1818.72 729.642 1818.73C726.018 1818.74 723.094 1821.2 723.102 1824.24Z" fill="black"/>
<path d="M605.115 1824.47L605.207 1858.13C605.217 1861.17 608.152 1863.62 611.776 1863.61C615.401 1863.6 618.325 1861.14 618.317 1858.1L618.223 1824.44C618.215 1821.4 615.278 1818.95 611.656 1818.96C608.031 1818.97 605.107 1821.43 605.115 1824.47Z" fill="black"/>
<path d="M722.857 1734.78L723.051 1805.4C723.059 1808.44 725.996 1810.89 729.618 1810.88C733.242 1810.87 736.166 1808.41 736.158 1805.37L735.965 1734.75C735.957 1731.71 733.02 1729.26 729.395 1729.27C725.771 1729.28 722.85 1731.74 722.857 1734.78Z" fill="black"/>
<path d="M722.617 1646.78L722.808 1717.36C722.819 1720.4 725.753 1722.85 729.378 1722.84C733.002 1722.83 735.926 1720.37 735.918 1717.33L735.725 1646.75C735.717 1643.71 732.78 1641.26 729.155 1641.27C725.531 1641.27 722.607 1643.74 722.617 1646.78Z" fill="black"/>
<path d="M722.453 1594.14L722.545 1627.93C722.555 1630.97 725.489 1633.42 729.114 1633.41C732.739 1633.4 735.663 1630.94 735.655 1627.9L735.561 1594.11C735.553 1591.07 732.616 1588.62 728.991 1588.63C725.369 1588.64 722.445 1591.11 722.453 1594.14Z" fill="black"/>
<path d="M604.68 1667.3L605.004 1785.45C605.012 1788.49 607.949 1790.94 611.573 1790.93C615.198 1790.92 618.119 1788.46 618.112 1785.42L617.787 1667.26C617.779 1664.23 614.842 1661.78 611.22 1661.78C607.596 1661.79 604.672 1664.26 604.68 1667.3Z" fill="black"/>
<path d="M604.48 1594.43L604.572 1628.32C604.582 1631.36 607.517 1633.81 611.141 1633.8C614.766 1633.79 617.69 1631.33 617.682 1628.29L617.588 1594.4C617.58 1591.35 614.643 1588.91 611.019 1588.92C607.394 1588.92 604.473 1591.39 604.48 1594.43Z" fill="black"/>
<path d="M640.299 1781.14C640.307 1784.18 643.244 1786.63 646.868 1786.62L729.554 1786.42C733.179 1786.42 736.1 1783.95 736.092 1780.91C736.084 1777.87 733.147 1775.42 729.523 1775.43L646.837 1775.63C643.212 1775.64 640.291 1778.1 640.299 1781.14Z" fill="black"/>
<path d="M639.996 1671.23C640.004 1674.27 642.941 1676.72 646.566 1676.71L729.251 1676.52C732.876 1676.51 735.797 1674.04 735.789 1671C735.782 1667.97 732.845 1665.52 729.22 1665.52L646.534 1665.72C642.909 1665.73 639.988 1668.19 639.996 1671.23Z" fill="black"/>
<path d="M592.121 1869.18L592.166 1885.7C592.192 1894.79 601.034 1902.17 611.874 1902.14L729.847 1901.86C740.687 1901.84 749.49 1894.42 749.464 1885.33L749.42 1868.81C749.394 1859.72 740.551 1852.34 729.711 1852.37L611.738 1852.65C600.898 1852.68 592.098 1860.1 592.121 1869.18ZM736.357 1885.36C736.364 1888.39 733.435 1890.86 729.818 1890.87L611.845 1891.15C608.226 1891.16 605.284 1888.71 605.276 1885.67L605.229 1869.15C605.221 1866.12 608.15 1863.65 611.769 1863.64L729.743 1863.36C733.36 1863.35 736.304 1865.81 736.312 1868.84L736.357 1885.36Z" fill="black"/>
<path d="M696.955 1857.94L697.062 1896.44C697.07 1899.48 700.007 1901.93 703.632 1901.92C707.257 1901.92 710.178 1899.45 710.17 1896.41L710.065 1857.91C710.057 1854.87 707.121 1852.42 703.496 1852.43C699.871 1852.44 696.947 1854.9 696.955 1857.94Z" fill="black"/>
<path d="M631.416 1858.1L631.523 1896.6C631.531 1899.64 634.468 1902.09 638.09 1902.08C641.715 1902.07 644.639 1899.61 644.631 1896.57L644.526 1858.07C644.516 1855.03 641.581 1852.58 637.957 1852.59C634.332 1852.6 631.408 1855.06 631.416 1858.1Z" fill="black"/>
<path d="M591.297 1566.9L591.341 1583.42C591.368 1592.51 600.21 1599.89 611.05 1599.86L729.023 1599.58C739.863 1599.55 748.663 1592.14 748.64 1583.05L748.595 1566.53C748.569 1557.44 739.727 1550.06 728.887 1550.09L610.914 1550.37C600.074 1550.4 591.271 1557.81 591.297 1566.9ZM735.532 1583.08C735.54 1586.11 732.611 1588.58 728.992 1588.59L611.018 1588.87C607.402 1588.88 604.459 1586.42 604.449 1583.39L604.404 1566.87C604.397 1563.84 607.326 1561.37 610.945 1561.36L728.918 1561.08C732.535 1561.07 735.477 1563.53 735.485 1566.56L735.532 1583.08Z" fill="black"/>
<path d="M696.131 1555.66L696.238 1594.16C696.246 1597.2 699.183 1599.65 702.805 1599.64C706.43 1599.63 709.353 1597.17 709.346 1594.13L709.238 1555.63C709.231 1552.59 706.296 1550.14 702.671 1550.15C699.047 1550.16 696.123 1552.62 696.131 1555.66Z" fill="black"/>
<path d="M630.59 1555.82L630.694 1594.32C630.705 1597.36 633.639 1599.81 637.264 1599.8C640.889 1599.79 643.813 1597.33 643.805 1594.29L643.697 1555.79C643.69 1552.75 640.753 1550.3 637.128 1550.31C633.506 1550.32 630.582 1552.78 630.59 1555.82Z" fill="black"/>
</svg>
