<svg height="512" viewBox="0 0 64 64" width="512" xmlns="http://www.w3.org/2000/svg"><g id="Layer_27" data-name="Layer 27"><path d="m44 50a12 12 0 1 0 -19 9.73v2.27h14v-2.27a12 12 0 0 0 5-9.73z" fill="#e47c6f"/><path d="m25 45.89 5 5-.12.11a3.4 3.4 0 0 1 -4.17.51 3.41 3.41 0 0 1 -1.3-4.45z" fill="#fff"/><path d="m39.05 45.89-5 5 .12.11a3.4 3.4 0 0 0 4.17.51 3.41 3.41 0 0 0 1.3-4.45z" fill="#fff"/><path d="m28 58h2v4h-2z" fill="#fff"/><path d="m34 58h2v4h-2z" fill="#fff"/><path d="m55 49h-8v-2h7v-10h2v11a1 1 0 0 1 -1 1z" fill="#c1c8d1"/><path d="m17 49h-8a1 1 0 0 1 -1-1v-11h2v10h7z" fill="#c1c8d1"/><path d="m8 33h2v2h-2z" fill="#c1c8d1"/><path d="m54 33h2v2h-2z" fill="#c1c8d1"/><path d="m8 29h2v2h-2z" fill="#c1c8d1"/><path d="m54 29h2v2h-2z" fill="#c1c8d1"/><path d="m4 12h24v4h-24z" fill="#698ec0"/><path d="m2 2h28v10h-28z" fill="#4472b0"/><path d="m2 16h28v10h-28z" fill="#4472b0"/><g fill="#fff"><circle cx="24" cy="7" r="2"/><circle cx="16" cy="7" r="2"/><path d="m5 4h6v2h-6z"/><path d="m5 8h6v2h-6z"/><circle cx="24" cy="21" r="2"/><circle cx="16" cy="21" r="2"/><path d="m5 18h6v2h-6z"/><path d="m5 22h6v2h-6z"/></g><path d="m36 12h24v4h-24z" fill="#698ec0"/><path d="m34 2h28v10h-28z" fill="#4472b0"/><path d="m34 16h28v10h-28z" fill="#4472b0"/><circle cx="56" cy="7" fill="#fff" r="2"/><circle cx="48" cy="7" fill="#fff" r="2"/><path d="m37 4h6v2h-6z" fill="#fff"/><path d="m37 8h6v2h-6z" fill="#fff"/><circle cx="56" cy="21" fill="#fff" r="2"/><circle cx="48" cy="21" fill="#fff" r="2"/><path d="m37 18h6v2h-6z" fill="#fff"/><path d="m37 22h6v2h-6z" fill="#fff"/></g></svg>