<svg width="512" height="512" viewBox="0 0 512 512" fill="none" xmlns="http://www.w3.org/2000/svg">
<g clip-path="url(#clip0)">
<path d="M211.861 467.86H176.551V511.998H211.861V467.86Z" fill="#E7ECED"/>
<path d="M335.447 467.86H300.137V511.998H335.447V467.86Z" fill="#E7ECED"/>
<path d="M158.895 423.722V476.688H229.516V427.148C205.955 426.662 182.412 425.505 158.895 423.722Z" fill="#DD352E"/>
<path d="M282.482 427.147V476.687H353.103V423.721C329.586 425.505 306.042 426.662 282.482 427.147Z" fill="#366DB6"/>
<path d="M110.93 401.648V13.2529C207.327 2.24903 304.671 2.24903 401.068 13.2529V401.648C304.671 412.652 207.327 412.652 110.93 401.648Z" fill="#E7ECED" stroke="black" stroke-width="10"/>
<path d="M404.568 431.241C305.859 442.753 206.139 442.753 107.43 431.241V319.291H404.568V431.241Z" fill="#AFB6BB" stroke="black" stroke-width="3"/>
<path d="M255.999 406.067C270.625 406.067 282.482 394.21 282.482 379.584C282.482 364.958 270.625 353.101 255.999 353.101C241.373 353.101 229.516 364.958 229.516 379.584C229.516 394.21 241.373 406.067 255.999 406.067Z" fill="white"/>
<path d="M300.137 141.213H211.861C202.107 141.213 194.206 133.312 194.206 123.558V88.248C194.206 78.494 202.107 70.593 211.861 70.593H300.137C309.891 70.593 317.792 78.494 317.792 88.248V123.558C317.792 133.303 309.891 141.213 300.137 141.213Z" fill="#366DB6"/>
<path d="M275.296 100.774L246.421 141.213H268.119L289.667 111.031C292.501 107.059 291.583 101.55 287.61 98.717C283.638 95.883 278.13 96.792 275.296 100.774Z" fill="white"/>
</g>
<defs>
<clipPath id="clip0">
<rect width="511.998" height="511.998" fill="white"/>
</clipPath>
</defs>
</svg>
