<?xml version="1.0" encoding="iso-8859-1"?>
<!-- Generator: Adobe Illustrator 19.0.0, SVG Export Plug-In . SVG Version: 6.00 Build 0)  -->
<svg version="1.1" id="Capa_1" xmlns="http://www.w3.org/2000/svg" xmlns:xlink="http://www.w3.org/1999/xlink" x="0px" y="0px"
	 viewBox="0 0 512 512" style="enable-background:new 0 0 512 512;" xml:space="preserve">
<path style="fill:#D9EEF7;" d="M202.667,85.301h106.667v42.667H202.667V85.301z"/>
<g>
	<path style="fill:#AAC4DA;" d="M480,42.635v42.667H309.333H202.667H32V42.635H480z"/>
	<path style="fill:#AAC4DA;" d="M437.333,383.968H74.987c5.95-100.059,91.887-176.35,191.946-170.401
		C358.688,219.023,431.878,292.213,437.333,383.968z"/>
</g>
<path style="fill:#D9EEF7;" d="M437.333,394.635v32H74.667v-32c0-3.52,0.107-7.147,0.32-10.667h362.027
	C437.227,387.488,437.333,391.115,437.333,394.635L437.333,394.635z"/>
<path style="fill:#FFE451;" d="M213.333,426.635h85.333c0,23.564-19.103,42.667-42.667,42.667S213.333,450.199,213.333,426.635z"/>
<g>
	<path style="fill:#4C5B66;" d="M512,31.968H0v21.333h21.333v32c0,5.891,4.776,10.667,10.667,10.667h160v32
		c0,5.891,4.776,10.667,10.667,10.667h106.667c5.891,0,10.667-4.776,10.667-10.667v-32h160c5.891,0,10.667-4.776,10.667-10.667v-32
		H512V31.968z M298.667,117.301h-85.333V95.968h85.333V117.301z M469.333,74.635H42.667V53.301h426.667V74.635z"/>
	<path style="fill:#4C5B66;" d="M266.667,203.157v-43.189h-21.333v43.189c-93.478,5.164-169.549,77.1-179.925,170.144H42.667v21.333
		H64v32c0,5.891,4.776,10.667,10.667,10.667h129.067c5.861,28.866,34.014,47.515,62.88,41.654
		c20.988-4.262,37.392-20.665,41.654-41.654h129.067c5.891,0,10.667-4.776,10.667-10.667v-32h21.333v-21.333h-22.741
		C436.207,280.262,360.141,208.33,266.667,203.157z M256,223.968c85.965,0.031,158.469,64.036,169.163,149.333H86.837
		C97.522,288,170.032,223.99,256,223.968z M256,458.635c-13.512-0.056-25.533-8.594-30.037-21.333h60.075
		C281.533,450.041,269.512,458.579,256,458.635z M426.667,415.968H85.333v-21.333h341.333V415.968z"/>
</g>
<g>
</g>
<g>
</g>
<g>
</g>
<g>
</g>
<g>
</g>
<g>
</g>
<g>
</g>
<g>
</g>
<g>
</g>
<g>
</g>
<g>
</g>
<g>
</g>
<g>
</g>
<g>
</g>
<g>
</g>
</svg>
