<svg id="Layer_1" enable-background="new 0 0 128 128" height="512" viewBox="0 0 128 128" width="512" xmlns="http://www.w3.org/2000/svg"><g><g><g><path d="m99.261 55.751c0-18.34-14.921-33.261-33.261-33.261s-33.261 14.921-33.261 33.261c0 9.47 4.104 19.144 11.035 26.199l.013.013c.369.375.741.749 1.127 1.109 4.038 3.774 7.234 8.56 9.315 13.878-1.312.592-2.231 1.906-2.231 3.437 0 1.101.482 2.083 1.236 2.774-.754.69-1.236 1.673-1.236 2.774s.482 2.083 1.236 2.774c-.754.69-1.236 1.673-1.236 2.774 0 2.045 1.637 3.706 3.667 3.764v.302c0 3.273 2.635 5.938 5.895 5.995.456 2.034 2.269 3.561 4.439 3.561 2.169 0 3.983-1.527 4.439-3.561 3.26-.057 5.895-2.721 5.895-5.995v-.302c2.031-.058 3.668-1.719 3.668-3.764 0-1.101-.482-2.083-1.236-2.774.754-.691 1.236-1.674 1.236-2.774s-.482-2.083-1.236-2.774c.754-.691 1.236-1.674 1.236-2.774 0-1.53-.919-2.844-2.231-3.436 2.081-5.319 5.277-10.104 9.314-13.878.385-.36.756-.732 1.125-1.107.006-.006.012-.012.018-.018 6.931-7.055 11.034-16.728 11.034-26.197z" fill="#e6e7e8"/></g><g><path d="m115.917 56.813h-9.221c-.553 0-1 .447-1 1s.447 1 1 1h9.221c.553 0 1-.447 1-1s-.447-1-1-1z" fill="#e6e7e8"/></g><g><path d="m25.304 56.813h-9.22c-.552 0-1 .447-1 1s.448 1 1 1h9.22c.552 0 1-.447 1-1s-.448-1-1-1z" fill="#e6e7e8"/></g><g><path d="m100.59 21.81-6.521 6.52c-.391.391-.391 1.023 0 1.414.195.195.451.293.707.293s.512-.098.707-.293l6.521-6.52c.391-.391.391-1.023 0-1.414s-1.024-.391-1.414 0z" fill="#e6e7e8"/></g><g><path d="m36.516 85.883-6.52 6.52c-.391.391-.391 1.023 0 1.414.195.195.451.293.707.293s.512-.098.707-.293l6.52-6.52c.391-.391.391-1.023 0-1.414s-1.023-.391-1.414 0z" fill="#e6e7e8"/></g><g><path d="m66 18.117c.552 0 1-.447 1-1v-9.221c0-.553-.448-1-1-1s-1 .447-1 1v9.221c0 .553.448 1 1 1z" fill="#e6e7e8"/></g><g><path d="m95.483 85.883c-.391-.391-1.023-.391-1.414 0s-.391 1.023 0 1.414l6.521 6.52c.195.195.451.293.707.293s.512-.098.707-.293c.391-.391.391-1.023 0-1.414z" fill="#e6e7e8"/></g><g><path d="m36.516 29.743c.195.195.451.293.707.293s.512-.098.707-.293c.391-.391.391-1.023 0-1.414l-6.52-6.52c-.391-.391-1.023-.391-1.414 0s-.391 1.023 0 1.414z" fill="#e6e7e8"/></g></g><g><g><path d="m62 120.104c1.964 0 3.556-1.592 3.556-3.556h-7.112c0 1.964 1.592 3.556 3.556 3.556z" fill="#ffd7e5"/><g><path d="m62 19.49c-17.817 0-32.261 14.444-32.261 32.261 0 10.077 4.621 19.825 11.858 26.59 4.556 4.259 7.904 9.531 9.973 15.292.068-.005.132-.02.201-.02h20.455c.069 0 .134.015.201.02 2.07-5.761 5.417-11.033 9.973-15.292 7.238-6.766 11.858-16.513 11.858-26.59.003-17.817-14.441-32.261-32.258-32.261z" fill="#d4fbff"/></g><g><path d="m40.487 77.25c.364.37.732.737 1.111 1.091 4.556 4.259 7.904 9.531 9.973 15.292.068-.005.132-.02.201-.02h20.455c.069 0 .134.015.201.02 2.07-5.76 5.417-11.032 9.973-15.292.379-.354.746-.721 1.111-1.091z" fill="#6dc9f7"/></g><g><path d="m62 22.49c17.284 0 31.392 13.593 32.221 30.672.02-.47.04-.94.04-1.412 0-17.816-14.444-32.26-32.261-32.26s-32.261 14.444-32.261 32.261c0 .472.02.942.04 1.412.829-17.079 14.936-30.673 32.221-30.673z" fill="#fff"/></g><path d="m52.666 110.257v1.291c0 2.762 2.239 5 5 5h8.667c2.762 0 5-2.239 5-5v-1.291z" fill="#fa759e"/><g fill="#0089ef"><path d="m72.228 99.161h-20.456c-1.532 0-2.774-1.242-2.774-2.774 0-1.532 1.242-2.774 2.774-2.774h20.455c1.532 0 2.774 1.242 2.774 2.774 0 1.532-1.241 2.774-2.773 2.774z"/><path d="m72.228 104.709h-20.456c-1.532 0-2.774-1.242-2.774-2.774 0-1.532 1.242-2.774 2.774-2.774h20.455c1.532 0 2.774 1.242 2.774 2.774 0 1.532-1.241 2.774-2.773 2.774z"/><path d="m72.228 110.257h-20.456c-1.532 0-2.774-1.242-2.774-2.774 0-1.532 1.242-2.774 2.774-2.774h20.455c1.532 0 2.774 1.242 2.774 2.774 0 1.532-1.241 2.774-2.773 2.774z"/></g></g><g fill="#3a2c60"><path d="m92.31 59.589c-.405 1.666-.943 3.329-1.597 4.941-.207.512.039 1.096.551 1.303.123.05.251.073.376.073.395 0 .77-.235.927-.624.69-1.703 1.258-3.46 1.687-5.221.131-.536-.198-1.077-.735-1.208-.536-.131-1.078.2-1.209.736z"/><path d="m90.523 67.424c-.49-.257-1.093-.071-1.352.418-1.636 3.102-3.702 5.909-6.112 8.408h-42.156c-6.394-6.657-10.165-15.678-10.165-24.499.001-17.237 14.025-31.261 31.262-31.261s31.261 14.023 31.261 31.261c0 1.448-.1 2.917-.296 4.368-.074.547.31 1.051.857 1.125.55.07 1.051-.312 1.125-.857.208-1.539.313-3.099.313-4.636.001-18.34-14.92-33.261-33.26-33.261s-33.261 14.921-33.261 33.261c0 9.981 4.552 20.195 12.176 27.321 4.039 3.775 7.234 8.56 9.315 13.879-1.312.591-2.232 1.905-2.232 3.436 0 1.101.482 2.083 1.236 2.774-.754.69-1.236 1.673-1.236 2.774s.482 2.083 1.236 2.774c-.754.69-1.236 1.673-1.236 2.774 0 2.045 1.637 3.706 3.668 3.764v.302c0 3.273 2.635 5.938 5.895 5.995.456 2.034 2.27 3.561 4.439 3.561 2.17 0 3.983-1.527 4.439-3.561 3.26-.057 5.895-2.721 5.895-5.995v-.302c2.031-.058 3.667-1.719 3.667-3.764 0-1.101-.482-2.083-1.235-2.774.754-.691 1.235-1.674 1.235-2.774s-.482-2.083-1.235-2.774c.754-.691 1.235-1.674 1.235-2.774 0-1.53-.919-2.844-2.231-3.436 2.081-5.32 5.277-10.104 9.315-13.879 3.173-2.966 5.815-6.431 7.855-10.297.258-.488.071-1.093-.417-1.351zm-27.523 25.189v-14.363h7.649l-4.389 14.363zm-5.26 0-4.389-14.363h7.649v14.363zm-14.817-14.363h8.337l4.389 14.363h-3.404c-2.073-5.462-5.276-10.394-9.322-14.363zm19.077 40.854c-1.055 0-1.962-.642-2.353-1.556h4.705c-.39.914-1.297 1.556-2.352 1.556zm8.334-7.556c0 2.206-1.794 4-4 4h-8.668c-2.206 0-4-1.794-4-4v-.291h16.668zm3.667-4.066c0 .979-.796 1.774-1.773 1.774h-.894-18.668-.894c-.979 0-1.774-.796-1.774-1.774s.796-1.773 1.774-1.773h20.455c.978 0 1.774.796 1.774 1.773zm0-5.547c0 .979-.796 1.774-1.773 1.774h-20.455c-.979 0-1.774-.796-1.774-1.774s.796-1.773 1.774-1.773h20.455c.977-.001 1.773.795 1.773 1.773zm-1.773-3.774h-20.455c-.979 0-1.774-.796-1.774-1.774s.796-1.773 1.774-1.773h20.455c.978 0 1.773.796 1.773 1.773 0 .978-.796 1.774-1.773 1.774zm-.473-5.548h-3.404l4.389-14.363h8.338c-4.046 3.969-7.249 8.9-9.323 14.363z"/><path d="m111.917 52.813h-9.221c-.553 0-1 .447-1 1s.447 1 1 1h9.221c.553 0 1-.447 1-1s-.447-1-1-1z"/><path d="m21.303 52.813h-9.22c-.552 0-1 .447-1 1s.448 1 1 1h9.22c.552 0 1-.447 1-1s-.447-1-1-1z"/><path d="m96.589 17.81-6.52 6.52c-.391.391-.391 1.023 0 1.414.195.195.451.293.707.293s.512-.098.707-.293l6.52-6.52c.391-.391.391-1.023 0-1.414s-1.023-.391-1.414 0z"/><path d="m32.516 81.883-6.52 6.52c-.391.391-.391 1.023 0 1.414.195.195.451.293.707.293s.512-.098.707-.293l6.52-6.52c.391-.391.391-1.023 0-1.414s-1.023-.391-1.414 0z"/><path d="m62 14.117c.552 0 1-.447 1-1v-9.221c0-.553-.448-1-1-1s-1 .447-1 1v9.221c0 .553.448 1 1 1z"/><path d="m91.483 81.883c-.391-.391-1.023-.391-1.414 0s-.391 1.023 0 1.414l6.52 6.52c.195.195.451.293.707.293s.512-.098.707-.293c.391-.391.391-1.023 0-1.414z"/><path d="m32.516 25.743c.195.195.451.293.707.293s.512-.098.707-.293c.391-.391.391-1.023 0-1.414l-6.52-6.52c-.391-.391-1.023-.391-1.414 0s-.391 1.023 0 1.414z"/><path d="m41.928 45.754c-.321-.345-.742-.517-1.261-.517-.512 0-.925.174-1.238.522-.314.349-.471.872-.471 1.569v13.124c0 .743.164 1.282.494 1.615.329.333.869.5 1.621.5h8.335c.565 0 .995-.13 1.29-.39.294-.26.441-.599.441-1.017 0-.411-.149-.752-.447-1.023-.299-.271-.727-.406-1.284-.406h-6.998v-12.402c0-.705-.161-1.229-.482-1.575z"/><path d="m65.229 48.189c.551 0 .96-.122 1.227-.366.268-.244.401-.567.401-.971 0-.395-.134-.715-.401-.959s-.676-.366-1.227-.366h-9.112c-.488 0-.89.072-1.203.216-.313.143-.544.371-.691.686-.147.313-.221.719-.221 1.215v12.81c0 .743.164 1.282.494 1.615.329.333.869.5 1.621.5h9.38c.543 0 .951-.126 1.227-.378s.413-.579.413-.982c0-.418-.138-.753-.413-1.005s-.684-.378-1.227-.378h-8.043v-4.848h7.16c.535 0 .93-.122 1.186-.366s.384-.56.384-.947-.13-.699-.39-.936-.652-.354-1.18-.354h-7.16v-4.185h7.775z"/><path d="m82.401 47.073c-.682-.597-1.441-1.003-2.278-1.22s-1.841-.326-3.011-.326h-4.498c-.744 0-1.283.167-1.616.5s-.5.872-.5 1.616v12.495c0 .551.049.998.146 1.343s.304.612.622.802c.317.19.79.285 1.418.285h4.498c.783 0 1.486-.051 2.11-.151s1.207-.274 1.749-.522c.543-.248 1.042-.577 1.5-.988.581-.535 1.058-1.141 1.43-1.819s.646-1.439.825-2.284c.178-.845.268-1.778.268-2.801-.001-3.101-.888-5.41-2.663-6.93zm-2.569 11.95c-.256.225-.558.398-.906.522s-.686.202-1.012.232c-.325.031-.774.047-1.348.047h-2.616v-11.564h2.278c1.054 0 1.953.114 2.697.343s1.369.761 1.877 1.598.762 2.097.762 3.778c0 2.386-.577 4.068-1.732 5.044z"/></g></g></g></svg>