<?xml version="1.0" encoding="UTF-8"?>
<!DOCTYPE svg PUBLIC "-//W3C//DTD SVG 1.1//EN" "http://www.w3.org/Graphics/SVG/1.1/DTD/svg11.dtd">
<!-- Creator: CorelDRAW X7 -->
<svg xmlns="http://www.w3.org/2000/svg" xml:space="preserve" width="100%" height="100%" version="1.1" style="shape-rendering:geometricPrecision; text-rendering:geometricPrecision; image-rendering:optimizeQuality; fill-rule:evenodd; clip-rule:evenodd"
viewBox="0 0 2646 2646"
 xmlns:xlink="http://www.w3.org/1999/xlink">
 <defs>
  <style type="text/css">
   <![CDATA[
    .fil0 {fill:#12496E}
    .fil2 {fill:#2A5B7D}
    .fil1 {fill:#36A6DE}
    .fil3 {fill:#4AAFE1}
   ]]>
  </style>
 </defs>
 <g id="Layer_x0020_1">
  <metadata id="CorelCorpID_0Corel-Layer"/>
  <g id="_863461384">
   <g>
    <path class="fil0" d="M1351 734c-48,-9 -54,9 -59,51 -81,-1 -636,-19 -663,19 -18,26 -8,752 -8,883 0,71 -25,241 26,273l50 0 143 -144 -7 0c-25,-5 -9,1 -24,-11 18,-24 -22,-24 61,-25l7 0 67 -67 -4 0c-92,0 -109,14 -131,-16 18,-21 -7,-9 24,-20l147 -1 69 -68 -109 -1c-113,1 -112,15 -131,-18 35,-31 62,-19 141,-19l137 0 67 -67 -214 -1c-151,1 -117,12 -131,-22 44,-26 62,-16 141,-16l242 0 68 -68 -320 0c-160,0 -117,11 -131,-24l16 -8c39,-13 307,-9 474,-7l67 -66 -426 0c-102,0 -111,14 -131,-18 34,-31 61,-19 141,-19l453 0 69 -69 -532 -1c-124,0 -114,14 -131,-19 13,-10 1,-19 61,-19l640 1 77 -77 -754 7c-24,-6 -10,0 -24,-11 18,-24 -21,-25 61,-25l745 1 68 -68 -831 0c-50,0 -27,5 -43,-16 18,-22 -7,-10 24,-21l889 -2 145 -145 -333 0 -7 -25 -2 -26 -50 -12 11 -16c125,-45 76,-273 -91,-256 -62,7 -113,58 -122,119 -14,102 51,118 78,160zm103 -48l-1 -4c-163,19 -157,-141 -71,-171 51,-18 100,11 114,49 25,63 -19,92 -42,126z"/>
    <path class="fil1" d="M458 997l0 789c0,81 43,69 129,69l0 -956c-107,3 -129,-18 -129,98z"/>
    <path class="fil0" d="M339 1279c-34,30 -203,2 -262,18l0 160c55,18 169,7 232,7 37,4 15,-4 28,14 18,21 56,13 88,10l3 -221c-16,-1 -39,-5 -50,-4 -46,4 -23,-1 -39,16z"/>
   </g>
   <g>
    <path class="fil2" d="M675 1960l1416 4 0 -1174 -246 0 -145 145 196 -1c53,3 36,-6 46,24 -14,25 -2,16 -47,16l-234 0 -68 68 223 0c139,-1 115,-11 126,24l-377 4 -77 77 328 0c111,0 111,-14 126,18 -12,29 -7,20 -56,20l-436 0 -69 69 435 0c118,-1 113,-14 126,19 -13,27 -11,18 -56,19l-542 -1 -66 66c38,1 70,1 94,1 43,0 538,-16 570,14 -10,33 1,24 -56,25l-647 -1 -68 68 497 0c42,0 257,-15 274,16 -11,32 -3,23 -56,24l-754 -1 -67 67 751 0c24,0 57,-2 80,-1 50,2 34,-9 46,20 -12,29 -9,19 -56,19l-859 0 -68 68 857 -1c129,-1 114,-13 126,22 -13,25 -14,17 -56,17l-964 -1 -67 67 961 1c137,0 115,-11 126,24 -2,2 -5,4 -6,4 -38,17 -80,10 -130,10l-987 -3 -144 144z"/>
    <path class="fil3" d="M2130 1971c171,-1 350,36 414,-98 34,-70 31,-923 2,-985 -62,-140 -238,-105 -413,-104l-3 1187z"/>
    <polygon class="fil3" points="793,2091 731,2108 721,2190 2122,2191 2117,2107 2053,2094 2051,2004 794,2003 "/>
   </g>
  </g>
 </g>
</svg>
