<svg xmlns="http://www.w3.org/2000/svg" xmlns:xlink="http://www.w3.org/1999/xlink" version="1.1" x="0px" y="0px" viewBox="0 0 66 82.5" enable-background="new 0 0 66 66" xml:space="preserve"><g><g><path d="M13.5,26.6h38.9c0.5,0,1-0.4,1-1v-4.7c0-0.4-0.3-0.8-0.7-1l-19.5-6.1c-0.2-0.1-0.4-0.1-0.6,0L13.2,20    c-0.4,0.1-0.7,0.5-0.7,1v4.7C12.5,26.1,13,26.6,13.5,26.6z"/></g><g><path d="M14.6,10l1.4-0.5l1.2,3.9l-1.5,0.5c-0.5,0.2-0.8,0.7-0.6,1.3c0.2,0.6,0.8,0.8,1.3,0.6l1.5-0.5l0.3,1l6.7-2.1l-0.3-1    l1.4-0.4c0.5-0.2,0.8-0.7,0.7-1.3c-0.2-0.5-0.7-0.8-1.3-0.7L24,11.3l-1.2-3.9L24.2,7c0.5-0.2,0.8-0.7,0.7-1.3    c-0.2-0.5-0.7-0.8-1.3-0.7l-1.4,0.5L21,1.7c-0.2-0.5-0.7-0.8-1.3-0.7l-4.8,1.5c-0.3,0.1-0.5,0.3-0.6,0.5c-0.1,0.2-0.1,0.5-0.1,0.8    l1.2,3.9L14,8.1c-0.5,0.2-0.8,0.7-0.7,1.3C13.5,9.9,14,10.2,14.6,10z"/></g><g><path d="M39.9,12.8l1.5,0.4l-0.3,1l6.7,2.1l0.3-1l1.4,0.5c0.4,0.2,1.1-0.1,1.3-0.6c0.2-0.5-0.1-1.1-0.7-1.3l-1.5-0.4l1.2-3.9    l1.5,0.5c0.6,0.2,1.1-0.2,1.3-0.7c0.2-0.5-0.1-1.1-0.7-1.3l-1.4-0.4l1.2-3.9c0.1-0.3,0-0.5-0.1-0.8c-0.1-0.2-0.3-0.4-0.6-0.5    L46.3,1c-0.5-0.2-1.1,0.1-1.3,0.7l-1.2,3.9l-1.4-0.5c-0.5-0.2-1.1,0.1-1.3,0.7c-0.2,0.5,0.1,1.1,0.7,1.3l1.5,0.4L42,11.3l-1.5-0.4    c-0.5-0.2-1.1,0.1-1.3,0.7C39.1,12.1,39.4,12.6,39.9,12.8z"/></g><g><path d="M33,59c5.3,0,9.6-4.3,9.6-9.6s-4.3-9.6-9.6-9.6c-5.3,0-9.6,4.3-9.6,9.6S27.7,59,33,59z M29.3,49.1l3.9-6.3    c0.3-0.5,0.9-0.6,1.4-0.3c0.5,0.3,0.6,0.9,0.3,1.4l-2.9,4.7h4c0.4,0,0.7,0.2,0.9,0.5c0.2,0.3,0.2,0.7,0,1l-3.3,5.8    c-0.3,0.5-0.9,0.6-1.4,0.4c-0.5-0.3-0.7-0.9-0.4-1.4l2.4-4.3h-4.1c-0.4,0-0.7-0.2-0.9-0.5C29.1,49.8,29.1,49.4,29.3,49.1z"/></g><g><path d="M54.2,63h-2.5V28.6H14.3V63h-2.5c-0.6,0-1,0.4-1,1c0,0.6,0.4,1,1,1h42.3c0.6,0,1-0.4,1-1C55.2,63.4,54.7,63,54.2,63z     M43.1,32.1h1c0.6,0,1,0.5,1,1c0,0.6-0.4,1-1,1h-1c-0.6,0-1-0.4-1-1C42.1,32.6,42.5,32.1,43.1,32.1z M32.5,32.1h1c0.6,0,1,0.5,1,1    c0,0.6-0.4,1-1,1h-1c-0.5,0-1-0.4-1-1C31.5,32.6,31.9,32.1,32.5,32.1z M33,37.8c6.4,0,11.6,5.2,11.6,11.6C44.6,55.8,39.4,61,33,61    s-11.6-5.2-11.6-11.6C21.4,43,26.6,37.8,33,37.8z M21.9,32.1h1c0.5,0,1,0.5,1,1c0,0.6-0.5,1-1,1h-1c-0.5,0-1-0.4-1-1    C20.9,32.6,21.4,32.1,21.9,32.1z"/></g></g><text x="0" y="81" fill="#000000" font-size="5px" font-weight="bold" font-family="'Helvetica Neue', Helvetica, Arial-Unicode, Arial, Sans-serif">Created by ProSymbols</text><text x="0" y="86" fill="#000000" font-size="5px" font-weight="bold" font-family="'Helvetica Neue', Helvetica, Arial-Unicode, Arial, Sans-serif">from the Noun Project</text></svg>