<svg xmlns="http://www.w3.org/2000/svg" xmlns:xlink="http://www.w3.org/1999/xlink" version="1.1" x="0px" y="0px" viewBox="0 0 512 640" enable-background="new 0 0 512 512" xml:space="preserve"><g><g><g><path d="M263.104,511.87c-0.062,0-0.133,0-0.203-0.008c-2.202-0.109-3.904-1.991-3.787-4.193l13.665-271.863     c0.102-2.201,1.687-3.998,4.192-3.795c2.203,0.113,3.904,1.991,3.788,4.193l-13.665,271.863     C266.993,510.206,265.221,511.87,263.104,511.87z"/></g></g><g><g><path d="M311.08,511.87c-2.116,0-3.889-1.664-3.99-3.803l-8.839-175.904c-0.117-2.201,1.585-4.075,3.787-4.192     c2.373-0.18,4.092,1.593,4.193,3.795l8.839,175.903c0.117,2.202-1.585,4.084-3.787,4.193     C311.213,511.87,311.143,511.87,311.08,511.87z"/></g></g><g><g><g><g><path d="M303.568,149.963c-0.773,0-1.554-0.223-2.233-0.684c-1.835-1.237-2.319-3.721-1.078-5.552       c10.714-15.887,29.399-40.726,57.519-68.844c53.855-53.852,95.429-73.572,97.177-74.385c1.992-0.918,4.373-0.07,5.311,1.933       c0.929,1.999,0.07,4.377-1.929,5.313c-0.422,0.195-42.151,20.037-94.905,72.792c-27.666,27.669-46.023,52.067-56.55,67.665       C306.114,149.346,304.849,149.963,303.568,149.963z"/></g></g><g><g><path d="M314.391,161.543c-1.28,0-2.546-0.617-3.318-1.765c-1.233-1.831-0.75-4.314,1.085-5.549       c15.711-10.584,40.285-29.039,68.106-56.857c52.755-52.755,72.597-94.487,72.792-94.901c0.937-2.007,3.334-2.862,5.317-1.933       c1.999,0.938,2.857,3.311,1.929,5.313c-0.812,1.741-20.529,43.322-74.385,97.174c-28.267,28.271-53.285,47.055-69.293,57.834       C315.937,161.324,315.164,161.543,314.391,161.543z"/></g></g></g><g><g><g><path d="M349.068,409.476c-1.257,0-2.499-0.593-3.271-1.709c-1.108-1.57-27.252-39.434-46.969-112.998       c-10.314-38.512-14.071-69.453-15.406-88.627c-0.148-2.202,1.507-4.111,3.717-4.268c2.147-0.094,4.107,1.507,4.264,3.713       c1.304,18.822,4.997,49.217,15.156,87.112c19.311,72.065,45.524,110.108,45.79,110.483c1.257,1.812,0.819,4.303-0.992,5.567       C350.661,409.242,349.865,409.476,349.068,409.476z"/></g></g><g><g><path d="M349.131,409.46c-0.117,0-0.233-0.008-0.351-0.016c-2.203-0.194-3.826-2.131-3.64-4.333       c0.039-0.453,3.726-46.508-15.593-118.573c-10.151-37.918-22.153-66.068-30.431-83.009c-0.968-1.983-0.148-4.381,1.835-5.349       c1.983-0.965,4.373-0.152,5.35,1.835c8.433,17.261,20.653,45.918,30.977,84.453c19.716,73.564,15.999,119.425,15.827,121.337       C352.926,407.892,351.177,409.46,349.131,409.46z"/></g></g></g><g><g><g><path d="M254.694,177.332c-0.102,0-0.195-0.004-0.289-0.012c-27.493-1.94-58.049-7.263-88.385-15.392       c-73.549-19.704-111.42-45.867-112.997-46.968c-1.805-1.269-2.241-3.76-0.977-5.567c1.249-1.804,3.732-2.253,5.567-0.984       c0.375,0.262,38.418,26.494,110.476,45.797c37.708,10.105,68.06,13.811,86.878,15.142c2.202,0.152,3.865,2.065,3.709,4.267       C258.528,175.724,256.771,177.332,254.694,177.332z"/></g></g><g><g><path d="M258.817,161.933c-0.594,0-1.188-0.128-1.749-0.401c-16.929-8.246-45.032-20.201-82.817-30.329       c-72.214-19.35-118.12-15.633-118.565-15.59c-2.319,0.215-4.146-1.437-4.334-3.635c-0.194-2.197,1.438-4.139,3.632-4.329       c1.905-0.176,47.772-3.885,121.345,15.831c38.387,10.292,66.997,22.466,84.238,30.859c1.983,0.969,2.812,3.362,1.843,5.346       C261.722,161.105,260.293,161.933,258.817,161.933z"/></g></g></g></g><g><g><path d="M287.038,193.886c-5.365,0-10.409-2.089-14.196-5.88c-3.787-3.787-5.872-8.827-5.872-14.185     c0-5.36,2.093-10.4,5.88-14.188c7.566-7.566,20.786-7.586,28.368,0.004c7.824,7.82,7.824,20.548,0.008,28.376     C297.431,191.801,292.395,193.886,287.038,193.886z M287.038,161.754c-3.226,0-6.255,1.257-8.535,3.537s-3.537,5.31-3.537,8.53     c0,3.226,1.249,6.255,3.529,8.531c4.561,4.561,12.517,4.564,17.077,0.004c4.7-4.701,4.7-12.361-0.008-17.065     C293.284,163.011,290.255,161.754,287.038,161.754z"/></g></g><g><g><path d="M287.03,343.954c-17.835,0-35.467-2.74-52.396-8.144c-2.101-0.672-3.265-2.921-2.593-5.021     c0.68-2.101,2.904-3.287,5.028-2.593c16.141,5.154,32.952,7.762,49.96,7.762c32.967,0,64.74-9.729,91.883-28.142     c1.819-1.241,4.318-0.765,5.552,1.062c1.233,1.828,0.757,4.318-1.069,5.553C354.933,333.749,321.606,343.954,287.03,343.954z      M220.876,330.415c-0.531,0-1.062-0.102-1.577-0.32c-4.975-2.132-9.925-4.545-14.72-7.161c-1.937-1.062-2.646-3.49-1.585-5.427     s3.482-2.639,5.427-1.593c4.561,2.499,9.284,4.794,14.032,6.833c2.03,0.866,2.967,3.217,2.101,5.247     C223.897,329.509,222.422,330.415,220.876,330.415z M393.937,305.528c-1.147,0-2.288-0.492-3.084-1.452     c-1.406-1.702-1.164-4.225,0.539-5.63c3.959-3.271,7.839-6.809,11.541-10.502c1.562-1.562,4.091-1.562,5.652,0     c1.562,1.561,1.562,4.091,0,5.652c-3.881,3.873-7.948,7.574-12.103,11.011C395.74,305.224,394.835,305.528,393.937,305.528z      M452.595,204.127c-0.227,0-0.445-0.02-0.672-0.055c-2.179-0.371-3.646-2.433-3.279-4.611c0.866-5.134,1.499-10.347,1.866-15.492     c0.164-2.206,2.093-3.881,4.279-3.697c2.202,0.156,3.857,2.073,3.701,4.275c-0.391,5.396-1.055,10.865-1.96,16.249     C456.202,202.749,454.508,204.127,452.595,204.127z M121.395,203.811c-1.913,0-3.607-1.382-3.936-3.338     c-0.89-5.329-1.538-10.8-1.929-16.254c-0.156-2.202,1.507-4.115,3.709-4.268c2.038-0.21,4.115,1.491,4.271,3.705     c0.367,5.201,0.984,10.413,1.835,15.496c0.367,2.175-1.101,4.236-3.279,4.604C121.84,203.795,121.621,203.811,121.395,203.811z      M454.905,172.275c-2.17,0-3.951-1.729-3.997-3.908c-0.953-42.369-17.991-82.216-47.983-112.209     c-5.49-5.489-11.386-10.615-17.523-15.234c-1.764-1.327-2.115-3.834-0.788-5.599c1.319-1.769,3.842-2.108,5.599-0.789     c6.435,4.842,12.619,10.214,18.365,15.969c31.453,31.453,49.327,73.248,50.326,117.683c0.047,2.206-1.701,4.037-3.904,4.088     C454.968,172.275,454.937,172.275,454.905,172.275z M119.153,171.956c-0.031,0-0.062,0-0.094,0     c-2.209-0.055-3.959-1.887-3.904-4.096c1.078-44.318,18.952-85.996,50.334-117.355c5.825-5.821,12.088-11.26,18.624-16.16     c1.757-1.315,4.264-0.972,5.599,0.801c1.319,1.765,0.96,4.271-0.805,5.595c-6.23,4.674-12.204,9.862-17.765,15.418     c-29.922,29.903-46.968,69.641-47.991,111.897C123.097,170.229,121.316,171.956,119.153,171.956z M374.603,32.741     c-0.711,0-1.437-0.188-2.085-0.586c-4.442-2.714-9.05-5.24-13.688-7.504c-1.991-0.969-2.811-3.362-1.843-5.346     c0.977-1.99,3.39-2.803,5.341-1.839c4.873,2.374,9.699,5.018,14.36,7.863c1.882,1.152,2.476,3.612,1.327,5.497     C377.258,32.062,375.946,32.741,374.603,32.741z M199.754,32.577c-1.344,0-2.663-0.68-3.413-1.918     c-1.147-1.881-0.554-4.345,1.328-5.493c4.646-2.834,9.479-5.474,14.375-7.843c1.999-0.953,4.373-0.133,5.342,1.857     c0.96,1.988,0.132,4.377-1.858,5.342c-4.662,2.256-9.27,4.771-13.688,7.469C201.183,32.39,200.464,32.577,199.754,32.577z"/></g></g><g><g><path d="M287.046,264.003c-5.561,0-11.151-0.508-16.617-1.496c-2.179-0.394-3.615-2.475-3.225-4.649     c0.398-2.179,2.498-3.6,4.646-3.221c4.998,0.905,10.112,1.366,15.196,1.366c0.187,0,0.366,0.012,0.546,0.039     c0.18-0.027,0.367-0.043,0.547-0.047c45.688-0.582,82.849-38.238,82.849-83.942c-0.008-4.755-0.406-9.511-1.188-14.129     c-0.366-2.175,1.102-4.24,3.28-4.607c2.147-0.309,4.24,1.097,4.606,3.279c0.852,5.049,1.289,10.249,1.297,15.45     c0,50.064-40.706,91.305-90.735,91.945c-0.328-0.012-0.406-0.008-0.602-0.035C287.451,263.983,287.248,264.003,287.046,264.003z      M255.765,258.279c-0.477,0-0.953-0.082-1.422-0.262c-35.45-13.481-59.267-48.034-59.267-85.979     c0-16.023,4.186-31.797,12.104-45.626c1.093-1.921,3.545-2.577,5.45-1.483c1.921,1.097,2.585,3.541,1.483,5.458     c-7.223,12.618-11.041,27.021-11.041,41.651c0,34.646,21.747,66.196,54.113,78.507c2.062,0.784,3.1,3.092,2.319,5.157     C258.896,257.299,257.373,258.279,255.765,258.279z M369.652,145.832c-1.632,0-3.171-1.007-3.757-2.632     c-1.725-4.739-3.911-9.37-6.512-13.762c-1.125-1.902-0.492-4.354,1.413-5.479c1.866-1.112,4.342-0.496,5.474,1.41     c2.843,4.817,5.248,9.896,7.138,15.098c0.757,2.073-0.312,4.369-2.39,5.122C370.565,145.754,370.104,145.832,369.652,145.832z      M219.798,119.322c-0.913,0-1.827-0.309-2.584-0.945c-1.687-1.425-1.897-3.947-0.469-5.634c3.6-4.26,7.598-8.203,11.885-11.725     c1.702-1.401,4.217-1.159,5.63,0.551c1.397,1.706,1.155,4.225-0.555,5.626c-3.912,3.217-7.566,6.821-10.854,10.71     C222.062,118.842,220.931,119.322,219.798,119.322z"/></g></g><g><g><path d="M253.109,209.979c-1.022,0-2.046-0.391-2.826-1.168c-2.038-2.033-3.92-4.256-5.6-6.605     c-1.28-1.796-0.866-4.295,0.93-5.575c1.812-1.277,4.295-0.871,5.583,0.929c1.421,1.991,3.015,3.869,4.74,5.591     c1.562,1.562,1.562,4.092,0,5.653C255.155,209.589,254.133,209.979,253.109,209.979z M331.124,194.983     c-0.522,0-1.062-0.102-1.576-0.324c-2.023-0.867-2.968-3.218-2.102-5.248c2.366-5.513,3.562-11.357,3.562-17.369     c0-1.379-0.062-2.761-0.195-4.135c-0.188-2.043,1.187-3.865,3.139-4.283c-1.96,0.273-3.904-0.953-4.427-2.929     c-1.977-7.434-5.92-14.259-11.394-19.735c-8.315-8.305-19.365-12.881-31.108-12.881c-11.736,0-22.778,4.572-31.086,12.873     c-8.309,8.312-12.885,19.357-12.885,31.104c0,1.737,0.102,3.483,0.305,5.213c0.266,2.194-1.296,4.181-3.49,4.446     c-2.155,0.25-4.186-1.296-4.443-3.494c-0.25-2.05-0.367-4.107-0.367-6.165c0-13.88,5.404-26.936,15.228-36.759     c9.822-9.811,22.862-15.215,36.739-15.215c13.883,0,26.939,5.408,36.762,15.223c6.474,6.474,11.128,14.54,13.471,23.328     c0.569,2.136-0.703,4.326-2.835,4.896c-0.07,0.016-0.133,0.031-0.195,0.043c0.062-0.008,0.133-0.016,0.195-0.023     c2.147-0.215,4.146,1.409,4.357,3.607c0.147,1.624,0.226,3.256,0.226,4.885c0,7.102-1.413,14.004-4.2,20.517     C334.154,194.073,332.671,194.983,331.124,194.983z"/></g></g><g><g><path d="M287.084,303.982c-0.015,0-0.022,0-0.038,0c-5.49,0-11.019-0.344-16.445-1.015c-2.194-0.273-3.748-2.272-3.475-4.459     c0.266-2.194,2.303-3.795,4.459-3.475c5.114,0.633,10.361,1.241,15.499,0.952c11.877,0,23.629-1.679,34.92-4.997     c2.14-0.633,4.342,0.602,4.959,2.717c0.624,2.116-0.594,4.334-2.71,4.959C312.228,302.194,299.727,303.982,287.084,303.982z      M255.397,300.039c-0.32,0-0.656-0.039-0.984-0.125c-51.653-13.126-91.102-57.432-98.153-110.249     c-0.289-2.186,1.25-4.197,3.436-4.49c2.147-0.292,4.201,1.238,4.49,3.437c6.63,49.607,43.673,91.228,92.195,103.557     c2.14,0.547,3.437,2.718,2.89,4.857C258.81,298.837,257.186,300.039,255.397,300.039z M338.152,293.37     c-1.538,0-3.007-0.897-3.662-2.396c-0.883-2.03,0.039-4.381,2.069-5.264c4.692-2.045,9.323-4.419,13.751-7.059     c1.874-1.124,4.333-0.516,5.481,1.391c1.132,1.896,0.508,4.356-1.391,5.481c-4.716,2.811-9.65,5.341-14.656,7.52     C339.229,293.27,338.684,293.37,338.152,293.37z M159.095,177.207c-2.21,0-3.998-1.788-3.998-3.998v-1.171     c0-5.064,0.289-10.19,0.866-15.235c0.25-2.202,2.257-3.807,4.428-3.518c2.194,0.25,3.771,2.229,3.521,4.424     c-0.547,4.743-0.819,9.565-0.819,14.329v1.171C163.093,175.419,161.305,177.207,159.095,177.207z M413.497,156.689     c-1.944,0-3.646-1.421-3.943-3.4c-0.773-5.103-1.874-10.194-3.279-15.121c-0.602-2.124,0.633-4.334,2.756-4.938     c2.14-0.625,4.326,0.632,4.936,2.752c1.499,5.255,2.67,10.674,3.49,16.113c0.336,2.182-1.172,4.221-3.35,4.552     C413.903,156.674,413.7,156.689,413.497,156.689z M404.806,126.006c-1.554,0-3.029-0.913-3.678-2.433     c-19.506-45.84-64.287-75.457-114.09-75.457l-2.25,0.023c-2.537-0.094-4.028-1.719-4.075-3.916c-0.047-2.21,1.71-4.033,3.92-4.08     l2.405-0.023c53.02,0,100.69,31.526,121.445,80.322c0.867,2.034-0.078,4.381-2.115,5.243     C405.86,125.904,405.329,126.006,404.806,126.006z M253.156,52.648c-1.757,0-3.373-1.167-3.857-2.943     c-0.578-2.128,0.672-4.326,2.804-4.912c5.255-1.437,10.682-2.562,16.132-3.342c2.116-0.312,4.201,1.206,4.521,3.393     c0.312,2.187-1.21,4.213-3.397,4.525c-5.114,0.729-10.213,1.788-15.147,3.139C253.859,52.602,253.5,52.648,253.156,52.648z"/></g></g><g><g><path d="M119.177,511.87c-2.21,0-3.998-1.789-3.998-3.998v-7.996c0-2.21,1.788-3.998,3.998-3.998s3.998,1.788,3.998,3.998v7.996     C123.175,510.081,121.387,511.87,119.177,511.87z"/></g></g><g><g><path d="M135.169,511.87c-2.21,0-3.998-1.789-3.998-3.998v-7.996c0-2.21,1.788-3.998,3.998-3.998s3.998,1.788,3.998,3.998v7.996     C139.167,510.081,137.379,511.87,135.169,511.87z"/></g></g><g><g><path d="M151.161,511.87c-2.21,0-3.998-1.789-3.998-3.998v-7.996c0-2.21,1.788-3.998,3.998-3.998s3.998,1.788,3.998,3.998v7.996     C155.159,510.081,153.371,511.87,151.161,511.87z"/></g></g><g><g><path d="M167.153,511.87c-2.21,0-3.998-1.789-3.998-3.998v-7.996c0-2.21,1.788-3.998,3.998-3.998     c2.209,0,3.997,1.788,3.997,3.998v7.996C171.15,510.081,169.362,511.87,167.153,511.87z"/></g></g><g><g><path d="M183.145,511.87c-2.21,0-3.998-1.789-3.998-3.998v-7.996c0-2.21,1.788-3.998,3.998-3.998s3.998,1.788,3.998,3.998v7.996     C187.143,510.081,185.354,511.87,183.145,511.87z"/></g></g><g><g><path d="M199.137,511.87c-2.21,0-3.998-1.789-3.998-3.998v-7.996c0-2.21,1.788-3.998,3.998-3.998s3.998,1.788,3.998,3.998v7.996     C203.135,510.081,201.347,511.87,199.137,511.87z"/></g></g><g><g><path d="M215.129,511.87c-2.21,0-3.998-1.789-3.998-3.998v-7.996c0-2.21,1.788-3.998,3.998-3.998s3.998,1.788,3.998,3.998v7.996     C219.127,510.081,217.339,511.87,215.129,511.87z"/></g></g><g><g><path d="M231.12,511.87c-2.209,0-3.997-1.789-3.997-3.998v-7.996c0-2.21,1.788-3.998,3.997-3.998c2.21,0,3.998,1.788,3.998,3.998     v7.996C235.118,510.081,233.33,511.87,231.12,511.87z"/></g></g><g><g><path d="M247.112,511.87c-2.21,0-3.998-1.789-3.998-3.998v-7.996c0-2.21,1.788-3.998,3.998-3.998s3.998,1.788,3.998,3.998v7.996     C251.11,510.081,249.322,511.87,247.112,511.87z"/></g></g><g><g><path d="M279.097,511.87c-2.21,0-3.998-1.789-3.998-3.998v-7.996c0-2.21,1.788-3.998,3.998-3.998     c2.209,0,3.998,1.788,3.998,3.998v7.996C283.095,510.081,281.306,511.87,279.097,511.87z"/></g></g><g><g><path d="M295.088,511.87c-2.21,0-3.998-1.789-3.998-3.998v-7.996c0-2.21,1.788-3.998,3.998-3.998s3.998,1.788,3.998,3.998v7.996     C299.086,510.081,297.298,511.87,295.088,511.87z"/></g></g><g><g><path d="M327.072,511.87c-2.21,0-3.998-1.789-3.998-3.998v-7.996c0-2.21,1.788-3.998,3.998-3.998s3.997,1.788,3.997,3.998v7.996     C331.069,510.081,329.282,511.87,327.072,511.87z"/></g></g><g><g><path d="M343.063,511.87c-2.209,0-3.998-1.789-3.998-3.998v-7.996c0-2.21,1.789-3.998,3.998-3.998     c2.21,0,3.998,1.788,3.998,3.998v7.996C347.062,510.081,345.273,511.87,343.063,511.87z"/></g></g><g><g><path d="M359.056,511.87c-2.21,0-3.998-1.789-3.998-3.998v-7.996c0-2.21,1.788-3.998,3.998-3.998s3.998,1.788,3.998,3.998v7.996     C363.054,510.081,361.266,511.87,359.056,511.87z"/></g></g><g><g><path d="M375.048,511.87c-2.21,0-3.998-1.789-3.998-3.998v-7.996c0-2.21,1.788-3.998,3.998-3.998s3.998,1.788,3.998,3.998v7.996     C379.046,510.081,377.258,511.87,375.048,511.87z"/></g></g><g><g><path d="M391.04,511.87c-2.21,0-3.998-1.789-3.998-3.998v-7.996c0-2.21,1.788-3.998,3.998-3.998c2.209,0,3.998,1.788,3.998,3.998     v7.996C395.038,510.081,393.249,511.87,391.04,511.87z"/></g></g><g><g><path d="M407.031,511.87c-2.21,0-3.997-1.789-3.997-3.998v-7.996c0-2.21,1.787-3.998,3.997-3.998s3.998,1.788,3.998,3.998v7.996     C411.029,510.081,409.241,511.87,407.031,511.87z"/></g></g><g><g><path d="M423.023,511.87c-2.21,0-3.998-1.789-3.998-3.998v-7.996c0-2.21,1.788-3.998,3.998-3.998s3.998,1.788,3.998,3.998v7.996     C427.021,510.081,425.233,511.87,423.023,511.87z"/></g></g><g><g><path d="M439.016,511.87c-2.21,0-3.998-1.789-3.998-3.998v-7.996c0-2.21,1.788-3.998,3.998-3.998s3.998,1.788,3.998,3.998v7.996     C443.014,510.081,441.226,511.87,439.016,511.87z"/></g></g><g><g><path d="M455.007,511.87c-2.209,0-3.998-1.789-3.998-3.998v-7.996c0-2.21,1.789-3.998,3.998-3.998     c2.211,0,3.998,1.788,3.998,3.998v7.996C459.005,510.081,457.218,511.87,455.007,511.87z"/></g></g></g><text x="0" y="527" fill="#000000" font-size="5px" font-weight="bold" font-family="'Helvetica Neue', Helvetica, Arial-Unicode, Arial, Sans-serif">Created by lastspark</text><text x="0" y="532" fill="#000000" font-size="5px" font-weight="bold" font-family="'Helvetica Neue', Helvetica, Arial-Unicode, Arial, Sans-serif">from the Noun Project</text></svg>