<svg xmlns="http://www.w3.org/2000/svg" xmlns:xlink="http://www.w3.org/1999/xlink" version="1.1" x="0px" y="0px" viewBox="0 0 64 80" style="enable-background:new 0 0 64 64;" xml:space="preserve"><g><path d="M1,17.5h1v32c0,1.336,0.521,2.592,1.465,3.535C4.409,53.98,5.665,54.5,7,54.5h1.18l0.678,3.394   C9.046,58.825,9.871,59.5,10.82,59.5h6.36c0.949,0,1.773-0.675,1.962-1.608L19.82,54.5h27.156c1.486,2.929,4.521,4.945,8.024,4.945   c4.962,0,9-4.038,9-9c0-3.525-2.042-6.574-5-8.05V17.5h1c0.552,0,1-0.448,1-1v-4c0-1.654-1.346-3-3-3h-3v-3c0-1.103-0.897-2-2-2h-8   c-1.103,0-2,0.897-2,2v3H17c-0.552,0-1,0.448-1,1s0.448,1,1,1h41c0.551,0,1,0.449,1,1v3H2v-3c0-0.551,0.449-1,1-1h6   c0.552,0,1-0.448,1-1s-0.448-1-1-1H3c-1.654,0-3,1.346-3,3v4C0,17.052,0.448,17.5,1,17.5z M45,6.5h8v3h-8V6.5z M17.18,57.5   l-6.36,0.001l-0.6-3.001h7.561L17.18,57.5z M62,50.445c0,3.86-3.14,7-7,7s-7-3.14-7-7s3.14-7,7-7S62,46.585,62,50.445z M57,32.5h-3   c-0.552,0-1,0.448-1,1s0.448,1,1,1h3v7.177c-0.644-0.147-1.312-0.232-2-0.232c-4.962,0-9,4.038-9,9   c0,0.708,0.091,1.393,0.246,2.055H7c-0.801,0-1.554-0.312-2.122-0.879C4.312,51.055,4,50.302,4,49.5v-15h4.649l-0.523,0.942   c-0.172,0.31-0.167,0.688,0.012,0.993c0.18,0.305,0.507,0.493,0.862,0.493h5.071V42c0,0.446,0.295,0.838,0.724,0.961   C14.886,42.987,14.979,43,15.071,43c0.338,0,0.662-0.172,0.848-0.47l5.02-8.03H46c0.552,0,1-0.448,1-1s-0.448-1-1-1H22.113   c0.051-0.234,0.025-0.482-0.095-0.699c-0.176-0.318-0.511-0.515-0.875-0.515h-5.072V25c0-0.456-0.308-0.854-0.749-0.968   c-0.442-0.115-0.904,0.084-1.125,0.482L9.76,32.5H4v-15h53V32.5z M15.071,33.286h4.268l-3.268,5.228v-2.585c0-0.552-0.448-1-1-1   h-4.372l3.372-6.069v3.427C14.071,32.838,14.519,33.286,15.071,33.286z"/><path d="M51.055,50.445c0,2.175,1.77,3.945,3.945,3.945s3.945-1.77,3.945-3.945S57.175,46.5,55,46.5S51.055,48.27,51.055,50.445z    M56.945,50.445c0,1.072-0.873,1.945-1.945,1.945s-1.945-0.873-1.945-1.945c0-1.073,0.873-1.945,1.945-1.945   S56.945,49.373,56.945,50.445z"/><path d="M19,27.5h16c0.552,0,1-0.448,1-1v-6c0-0.552-0.448-1-1-1H19c-0.552,0-1,0.448-1,1v6C18,27.052,18.448,27.5,19,27.5z    M20,21.5h14v4H20V21.5z"/><path d="M33,38.5H21c-0.552,0-1,0.448-1,1s0.448,1,1,1h12c0.552,0,1-0.448,1-1S33.552,38.5,33,38.5z"/><path d="M33,42.5H21c-0.552,0-1,0.448-1,1s0.448,1,1,1h12c0.552,0,1-0.448,1-1S33.552,42.5,33,42.5z"/><path d="M33,46.5H21c-0.552,0-1,0.448-1,1s0.448,1,1,1h12c0.552,0,1-0.448,1-1S33.552,46.5,33,46.5z"/><path d="M43,26.5c1.654,0,3-1.346,3-3s-1.346-3-3-3s-3,1.346-3,3S41.346,26.5,43,26.5z M43,22.5c0.551,0,1,0.449,1,1s-0.449,1-1,1   s-1-0.449-1-1S42.449,22.5,43,22.5z"/><path d="M51,26.5c1.654,0,3-1.346,3-3s-1.346-3-3-3s-3,1.346-3,3S49.346,26.5,51,26.5z M51,22.5c0.551,0,1,0.449,1,1s-0.449,1-1,1   s-1-0.449-1-1S50.449,22.5,51,22.5z"/><circle cx="50" cy="33.5" r="1"/><circle cx="13" cy="10.5" r="1"/></g><text x="0" y="79" fill="#000000" font-size="5px" font-weight="bold" font-family="'Helvetica Neue', Helvetica, Arial-Unicode, Arial, Sans-serif">Created by Berkah Icon</text><text x="0" y="84" fill="#000000" font-size="5px" font-weight="bold" font-family="'Helvetica Neue', Helvetica, Arial-Unicode, Arial, Sans-serif">from the Noun Project</text></svg>