<svg xmlns="http://www.w3.org/2000/svg" xmlns:xlink="http://www.w3.org/1999/xlink" version="1.1" x="0px" y="0px" viewBox="0 0 10 12.5" enable-background="new 0 0 10 10" xml:space="preserve"><g><path d="M1.502,4.368v0.03H1.339c-0.053,0-0.096,0.043-0.096,0.096v0.475c0,0.053,0.043,0.095,0.096,0.095h0.163v0.685H1.339   c-0.053,0-0.096,0.043-0.096,0.095v0.475c0,0.053,0.043,0.096,0.096,0.096h0.163v0.03c0,0.054,0.042,0.096,0.095,0.096h1.828   c0.053,0,0.095-0.042,0.095-0.096V4.368c0-0.053-0.042-0.096-0.095-0.096H1.597C1.544,4.272,1.502,4.315,1.502,4.368z M1.435,4.872   V4.589h0.067v0.283H1.435z M1.435,6.222V5.938h0.067v0.283H1.435z M1.693,4.464h1.636v1.884H1.693v-0.03V5.843V4.969V4.494V4.464z"/><path d="M1.93,5.502h1.161c0.053,0,0.096-0.044,0.096-0.096V4.724c0-0.051-0.043-0.094-0.096-0.094H1.93   c-0.052,0-0.096,0.043-0.096,0.094v0.683C1.834,5.458,1.878,5.502,1.93,5.502z M2.026,4.82h0.97V5.31h-0.97V4.82z"/><path d="M4.417,4.888h0.424c0.053,0,0.096-0.043,0.096-0.097V4.368c0-0.053-0.043-0.096-0.096-0.096H4.417   c-0.052,0-0.095,0.043-0.095,0.096v0.423C4.322,4.845,4.365,4.888,4.417,4.888z M4.745,4.464V4.61   C4.712,4.589,4.673,4.576,4.63,4.576c-0.044,0-0.084,0.013-0.116,0.034V4.464H4.745z"/><path d="M3.75,4.888h0.423c0.053,0,0.096-0.043,0.096-0.097V4.368c0-0.053-0.043-0.096-0.096-0.096H3.75   c-0.054,0-0.097,0.043-0.097,0.096v0.423C3.653,4.845,3.696,4.888,3.75,4.888z M4.077,4.464V4.61   C4.044,4.589,4.004,4.576,3.961,4.576c-0.042,0-0.083,0.013-0.116,0.034V4.464H4.077z"/><path d="M5.085,4.888h0.424c0.053,0,0.096-0.043,0.096-0.097V4.368c0-0.053-0.043-0.096-0.096-0.096H5.085   c-0.053,0-0.096,0.043-0.096,0.096v0.423C4.989,4.845,5.032,4.888,5.085,4.888z M5.413,4.464V4.61   C5.38,4.589,5.341,4.576,5.297,4.576c-0.043,0-0.083,0.013-0.115,0.034V4.464H5.413z"/><path d="M4.78,5.597H4.497L4.714,5.19c0.025-0.047,0.007-0.104-0.04-0.13c-0.046-0.024-0.104-0.007-0.129,0.04L4.253,5.647   c-0.016,0.03-0.016,0.066,0.002,0.095s0.049,0.046,0.082,0.046h0.308L4.468,6.286c-0.018,0.05,0.01,0.104,0.059,0.122   C4.537,6.412,4.548,6.413,4.56,6.413c0.038,0,0.075-0.023,0.089-0.063L4.87,5.725c0.01-0.029,0.006-0.062-0.012-0.087   C4.84,5.612,4.812,5.597,4.78,5.597z"/><path d="M9.3,3.836H7.446c-0.053,0-0.096,0.043-0.096,0.096v2.265c0,0.053,0.043,0.096,0.096,0.096h0.701   C7.733,6.673,7.351,6.835,7.007,6.771C6.511,6.679,6.242,6.139,6.203,6.056V3.768c0-0.052-0.042-0.095-0.096-0.095H2.733V3.088   c0-0.001-0.001-0.002-0.001-0.003c0-0.006-0.003-0.012-0.003-0.018c-0.002-0.007-0.003-0.014-0.006-0.02c0-0.001,0-0.002,0-0.003   L2.47,2.543C2.468,2.54,2.466,2.538,2.463,2.536C2.46,2.529,2.455,2.523,2.449,2.519C2.445,2.514,2.441,2.511,2.437,2.508   C2.433,2.506,2.431,2.503,2.428,2.501L1.82,2.192c-0.002,0-0.003-0.001-0.004-0.001C1.813,2.19,1.812,2.19,1.81,2.188   C1.8,2.186,1.79,2.184,1.78,2.184c-0.001,0-0.002-0.001-0.004-0.001H1.085H0.698c-0.035,0-0.067,0.02-0.084,0.051   S0.6,2.303,0.62,2.333l0.386,0.559C1.008,2.894,1.01,2.895,1.011,2.896c0.008,0.008,0.016,0.015,0.024,0.02   c0.003,0.003,0.006,0.006,0.009,0.007c0.014,0.006,0.027,0.011,0.041,0.011h0.66L1.819,2.99l0.096,0.129v0.554H0.74   c-0.052,0-0.096,0.043-0.096,0.095V7.05c0,0.054,0.044,0.096,0.096,0.096h0.262L0.888,7.312c-0.01,0.016-0.016,0.034-0.016,0.054   v0.356c0,0.053,0.043,0.096,0.096,0.096h2.369h0.217h2.368c0.053,0,0.096-0.043,0.096-0.096V7.365c0-0.02-0.006-0.038-0.017-0.054   L5.888,7.146h0.22c0.054,0,0.096-0.042,0.096-0.096V6.429c0.153,0.21,0.406,0.463,0.769,0.53c0.061,0.012,0.121,0.017,0.184,0.017   c0.396,0,0.822-0.229,1.268-0.684H9.3c0.054,0,0.097-0.043,0.097-0.096V3.932C9.396,3.879,9.354,3.836,9.3,3.836z M1.872,2.79   V2.435l0.324,0.164L1.892,2.806L1.872,2.79z M2.059,2.992L2.024,2.946l0.323-0.22l0.134,0.266H2.059z M0.989,2.374V2.53   L0.882,2.374H0.989z M1.181,2.374h0.5v0.367h-0.5V2.374z M2.106,3.185h0.436v0.488H2.106V3.185z M5.827,7.395v0.231H3.554H3.337   H1.063V7.395l0.172-0.249h4.42L5.827,7.395z M6.012,6.954H0.837V3.863h1.174h0.627h3.374V6.954z M9.204,6.102H7.542V4.027h1.662   V6.102z"/><path d="M7.768,5.958h1.211c0.054,0,0.097-0.044,0.097-0.096V4.267c0-0.053-0.043-0.096-0.097-0.096H7.768   c-0.052,0-0.096,0.043-0.096,0.096v1.596C7.672,5.914,7.716,5.958,7.768,5.958z M7.864,4.362h1.019v1.403H7.864V4.362z"/><path d="M8.637,4.41H8.11c-0.053,0-0.096,0.042-0.096,0.096v0.255c0,0.053,0.043,0.097,0.096,0.097h0.526   c0.053,0,0.096-0.044,0.096-0.097V4.506C8.732,4.452,8.689,4.41,8.637,4.41z M8.541,4.665H8.206V4.602h0.335V4.665z"/><path d="M8.47,5.176H8.417l0.066-0.173c0.02-0.049-0.006-0.104-0.055-0.124C8.379,4.86,8.323,4.885,8.306,4.935L8.188,5.237   C8.177,5.267,8.181,5.3,8.198,5.326c0.019,0.025,0.048,0.041,0.079,0.041h0.069L8.28,5.631C8.269,5.683,8.3,5.734,8.351,5.747   C8.358,5.749,8.366,5.75,8.373,5.75c0.043,0,0.082-0.028,0.093-0.071l0.096-0.384c0.008-0.028,0.001-0.059-0.017-0.082   C8.526,5.189,8.499,5.176,8.47,5.176z"/></g><text x="0" y="25" fill="#000000" font-size="5px" font-weight="bold" font-family="'Helvetica Neue', Helvetica, Arial-Unicode, Arial, Sans-serif">Created by verry obito</text><text x="0" y="30" fill="#000000" font-size="5px" font-weight="bold" font-family="'Helvetica Neue', Helvetica, Arial-Unicode, Arial, Sans-serif">from the Noun Project</text></svg>