<svg xmlns="http://www.w3.org/2000/svg" xmlns:xlink="http://www.w3.org/1999/xlink" version="1.1" x="0px" y="0px" viewBox="0 0 512 640" enable-background="new 0 0 512 512" xml:space="preserve"><g><g><g><path d="M156.284,88.083c-2.206,0-4.037-1.789-4.037-3.999c0-2.209,1.749-3.998,3.959-3.998h0.078     c2.21,0,3.998,1.789,3.998,3.998C160.282,86.294,158.494,88.083,156.284,88.083z"/></g></g><g><g><path d="M164.28,359.954c-2.206,0-4.037-1.78-4.037-3.998c0-2.202,1.749-3.998,3.959-3.998h0.078c2.21,0,3.998,1.796,3.998,3.998     C168.278,358.174,166.49,359.954,164.28,359.954z"/></g></g><g><g><path d="M184.271,359.954c-2.206,0-4.038-1.78-4.038-3.998c0-2.202,1.75-3.998,3.959-3.998h0.078     c2.209,0,3.998,1.796,3.998,3.998C188.27,358.174,186.481,359.954,184.271,359.954z"/></g></g><g><g><path d="M204.262,359.954c-2.206,0-4.037-1.78-4.037-3.998c0-2.202,1.749-3.998,3.959-3.998h0.078     c2.21,0,3.999,1.796,3.999,3.998C208.26,358.174,206.472,359.954,204.262,359.954z"/></g></g><g><g><path d="M164.28,335.965c-2.206,0-4.037-1.779-4.037-3.998c0-2.201,1.749-3.998,3.959-3.998h0.078     c2.21,0,3.998,1.797,3.998,3.998C168.278,334.186,166.49,335.965,164.28,335.965z"/></g></g><g><g><path d="M184.271,335.965c-2.206,0-4.038-1.779-4.038-3.998c0-2.201,1.75-3.998,3.959-3.998h0.078     c2.209,0,3.998,1.797,3.998,3.998C188.27,334.186,186.481,335.965,184.271,335.965z"/></g></g><g><g><path d="M204.262,335.965c-2.206,0-4.037-1.779-4.037-3.998c0-2.201,1.749-3.998,3.959-3.998h0.078     c2.21,0,3.999,1.797,3.999,3.998C208.26,334.186,206.472,335.965,204.262,335.965z"/></g></g><g><g><path d="M299.98,511.885H76.082c-11.022,0-19.99-8.965-19.99-19.99V307.979c0-11.019,8.968-19.991,19.99-19.991H299.98     c11.025,0,19.99,8.973,19.99,19.991v183.916C319.971,502.92,311.006,511.885,299.98,511.885z M76.082,295.983     c-6.614,0-11.994,5.389-11.994,11.995v183.916c0,6.621,5.38,11.994,11.994,11.994H299.98c6.613,0,11.994-5.373,11.994-11.994     V307.979c0-6.606-5.381-11.995-11.994-11.995H76.082z"/></g></g><g><g><path d="M335.261,483.195c-1.023,0-2.054-0.391-2.835-1.172c-1.554-1.562-1.554-4.092,0.008-5.653     c2.28-2.265,3.529-5.271,3.529-8.465V283.989c0-6.606-5.38-11.995-11.994-11.995c-2.21,0-3.998-1.78-3.998-3.998     c0-2.201,1.788-3.998,3.998-3.998c11.026,0,19.991,8.973,19.991,19.991v183.916c0,5.333-2.085,10.347-5.872,14.126     C337.307,482.805,336.283,483.195,335.261,483.195z"/></g></g><g><g><path d="M299.98,295.999H76.082c-11.022,0-19.99-8.972-19.99-19.99v-79.968c0-11.022,8.968-19.991,19.99-19.991H299.98     c11.025,0,19.99,8.968,19.99,19.991v79.968C319.971,287.027,311.006,295.999,299.98,295.999z M76.082,184.047     c-6.614,0-11.994,5.38-11.994,11.994v79.968c0,6.606,5.38,11.994,11.994,11.994H299.98c6.613,0,11.994-5.388,11.994-11.994     v-79.968c0-6.614-5.381-11.994-11.994-11.994H76.082z"/></g></g><g><g><path d="M323.969,271.994c-2.21,0-3.998-1.78-3.998-3.998c0-2.201,1.788-3.998,3.998-3.998c6.614,0,11.994-5.376,11.994-11.99     v-79.963c0-6.614-5.38-11.995-11.994-11.995h-31.985c-2.21,0-3.998-1.788-3.998-3.998s1.788-3.998,3.998-3.998h31.985     c11.026,0,19.991,8.968,19.991,19.991v79.963C343.96,263.03,334.995,271.994,323.969,271.994z"/></g></g><g><g><path d="M88.608,164.915c-1.003,0-2.007-0.375-2.784-1.129c-1.585-1.542-1.625-4.072-0.086-5.653     c3.807-3.92,8.898-6.079,14.333-6.079h15.993c2.21,0,3.999,1.788,3.999,3.998s-1.789,3.998-3.999,3.998h-15.993     c-3.256,0-6.306,1.296-8.594,3.65C90.693,164.509,89.65,164.915,88.608,164.915z"/></g></g><g><g><path d="M315.973,200.039c-1.023,0-2.046-0.39-2.827-1.171c-1.562-1.562-1.562-4.092,0-5.654l23.989-23.997     c1.562-1.562,4.092-1.562,5.653,0c1.562,1.562,1.562,4.092,0,5.653l-23.989,23.997     C318.019,199.649,316.996,200.039,315.973,200.039z"/></g></g><g><g><path d="M299.98,184.047c-1.023,0-2.047-0.391-2.827-1.172c-1.562-1.562-1.562-4.092,0-5.653l23.989-23.997     c1.562-1.562,4.092-1.562,5.653,0c1.562,1.562,1.562,4.092,0,5.654l-23.989,23.997     C302.025,183.656,301.003,184.047,299.98,184.047z"/></g></g><g><g><path d="M180.035,216.024h-79.964c-2.21,0-3.998-1.789-3.998-3.998c0-2.21,1.788-3.999,3.998-3.999h79.964     c2.209,0,3.998,1.789,3.998,3.999C184.033,214.236,182.245,216.024,180.035,216.024z"/></g></g><g><g><path d="M132.057,240.021h-31.985c-2.21,0-3.998-1.789-3.998-3.998c0-2.21,1.788-3.999,3.998-3.999h31.985     c2.21,0,3.998,1.789,3.998,3.999C136.055,238.232,134.267,240.021,132.057,240.021z"/></g></g><g><g><path d="M156.046,264.014h-31.985c-2.21,0-3.998-1.784-3.998-3.994s1.788-3.998,3.998-3.998h31.985     c2.21,0,3.998,1.788,3.998,3.998S158.256,264.014,156.046,264.014z"/></g></g><g><g><path d="M164.042,240.021H148.05c-2.21,0-3.999-1.789-3.999-3.998c0-2.21,1.789-3.999,3.999-3.999h15.992     c2.21,0,3.998,1.789,3.998,3.999C168.04,238.232,166.252,240.021,164.042,240.021z"/></g></g><g><g><path d="M212.021,216.024h-15.993c-2.21,0-3.998-1.789-3.998-3.998c0-2.21,1.788-3.999,3.998-3.999h15.993     c2.209,0,3.998,1.789,3.998,3.999C216.019,214.236,214.23,216.024,212.021,216.024z"/></g></g><g><g><path d="M267.994,240.021h-15.992c-2.21,0-3.998-1.789-3.998-3.998c0-2.21,1.788-3.999,3.998-3.999h15.992     c2.21,0,3.998,1.789,3.998,3.999C271.992,238.232,270.204,240.021,267.994,240.021z"/></g></g><g><g><path d="M108.067,264.014h-7.996c-2.21,0-3.998-1.784-3.998-3.994s1.788-3.998,3.998-3.998h7.996c2.21,0,3.999,1.788,3.999,3.998     S110.277,264.014,108.067,264.014z"/></g></g><g><g><path d="M267.994,216.024h-39.981c-2.21,0-3.998-1.789-3.998-3.998c0-2.21,1.788-3.999,3.998-3.999h39.981     c2.21,0,3.998,1.789,3.998,3.999C271.992,214.236,270.204,216.024,267.994,216.024z"/></g></g><g><g><path d="M236.009,240.021h-55.974c-2.21,0-3.999-1.789-3.999-3.998c0-2.21,1.789-3.999,3.999-3.999h55.974     c2.209,0,3.998,1.789,3.998,3.999C240.007,238.232,238.219,240.021,236.009,240.021z"/></g></g><g><g><path d="M267.994,264.014h-95.956c-2.21,0-3.999-1.784-3.999-3.994s1.789-3.998,3.999-3.998h95.956     c2.21,0,3.998,1.788,3.998,3.998S270.204,264.014,267.994,264.014z"/></g></g><g><g><path d="M112.066,375.947c-17.636,0-31.985-14.346-31.985-31.985c0-17.633,14.349-31.985,31.985-31.985     s31.985,14.353,31.985,31.985C144.051,361.602,129.702,375.947,112.066,375.947z M112.066,319.973     c-13.228,0-23.989,10.761-23.989,23.989c0,13.228,10.761,23.989,23.989,23.989s23.989-10.762,23.989-23.989     C136.055,330.733,125.294,319.973,112.066,319.973z"/></g></g><g><g><path d="M112.066,359.954c-8.82,0-15.993-7.168-15.993-15.992c0-8.816,7.173-15.993,15.993-15.993s15.993,7.177,15.993,15.993     C128.059,352.786,120.886,359.954,112.066,359.954z M112.066,335.965c-4.408,0-7.997,3.593-7.997,7.997     c0,4.412,3.588,7.996,7.997,7.996s7.997-3.584,7.997-7.996C120.062,339.558,116.474,335.965,112.066,335.965z"/></g></g><g><g><path d="M256,375.947c-17.637,0-31.985-14.346-31.985-31.985c0-17.633,14.349-31.985,31.985-31.985     c17.641,0,31.985,14.353,31.985,31.985C287.985,361.602,273.641,375.947,256,375.947z M256,319.973     c-13.229,0-23.989,10.761-23.989,23.989c0,13.228,10.761,23.989,23.989,23.989s23.989-10.762,23.989-23.989     C279.989,330.733,269.229,319.973,256,319.973z"/></g></g><g><g><path d="M256,359.954c-8.82,0-15.993-7.168-15.993-15.992c0-8.816,7.172-15.993,15.993-15.993     c8.816,0,15.992,7.177,15.992,15.993C271.992,352.786,264.816,359.954,256,359.954z M256,335.965     c-4.408,0-7.996,3.593-7.996,7.997c0,4.412,3.588,7.996,7.996,7.996s7.996-3.584,7.996-7.996     C263.996,339.558,260.408,335.965,256,335.965z"/></g></g><g><g><path d="M291.983,487.896H84.079c-2.209,0-3.998-1.78-3.998-3.998v-87.96c0-2.201,1.789-3.998,3.998-3.998h207.905     c2.21,0,3.998,1.797,3.998,3.998v87.96C295.981,486.115,294.193,487.896,291.983,487.896z M88.077,479.899h199.908v-79.964     H88.077V479.899z"/></g></g><g><g><path d="M108.067,471.903c-2.209,0-3.998-1.78-3.998-3.998v-15.993c0-2.202,1.789-3.998,3.998-3.998     c2.21,0,3.999,1.796,3.999,3.998v15.993C112.066,470.123,110.277,471.903,108.067,471.903z"/></g></g><g><g><path d="M156.046,471.903c-2.21,0-3.998-1.78-3.998-3.998v-7.997c0-2.201,1.788-3.998,3.998-3.998s3.998,1.797,3.998,3.998v7.997     C160.044,470.123,158.256,471.903,156.046,471.903z"/></g></g><g><g><path d="M124.061,471.903c-2.21,0-3.998-1.78-3.998-3.998v-55.975c0-2.202,1.788-3.998,3.998-3.998s3.998,1.796,3.998,3.998     v55.975C128.059,470.123,126.271,471.903,124.061,471.903z"/></g></g><g><g><path d="M267.994,471.903c-2.209,0-3.998-1.78-3.998-3.998V435.92c0-2.202,1.789-3.998,3.998-3.998     c2.21,0,3.998,1.796,3.998,3.998v31.985C271.992,470.123,270.204,471.903,267.994,471.903z"/></g></g><g><g><path d="M172.039,471.903c-2.21,0-3.999-1.78-3.999-3.998v-47.979c0-2.202,1.789-3.998,3.999-3.998     c2.209,0,3.998,1.796,3.998,3.998v47.979C176.037,470.123,174.248,471.903,172.039,471.903z"/></g></g><g><g><path d="M140.053,471.903c-2.21,0-3.999-1.78-3.999-3.998v-39.981c0-2.203,1.789-3.999,3.999-3.999     c2.209,0,3.998,1.796,3.998,3.999v39.981C144.051,470.123,142.263,471.903,140.053,471.903z"/></g></g><g><g><path d="M188.031,471.903c-2.21,0-3.998-1.78-3.998-3.998v-15.993c0-2.202,1.788-3.998,3.998-3.998s3.998,1.796,3.998,3.998     v15.993C192.029,470.123,190.241,471.903,188.031,471.903z"/></g></g><g><g><path d="M236.009,471.903c-2.21,0-3.999-1.78-3.999-3.998v-7.997c0-2.201,1.789-3.998,3.999-3.998     c2.209,0,3.998,1.797,3.998,3.998v7.997C240.007,470.123,238.219,471.903,236.009,471.903z"/></g></g><g><g><path d="M204.024,471.903c-2.21,0-3.999-1.78-3.999-3.998v-55.975c0-2.202,1.789-3.998,3.999-3.998     c2.209,0,3.998,1.796,3.998,3.998v55.975C208.022,470.123,206.233,471.903,204.024,471.903z"/></g></g><g><g><path d="M252.002,471.903c-2.21,0-3.998-1.78-3.998-3.998v-47.979c0-2.202,1.788-3.998,3.998-3.998s3.998,1.796,3.998,3.998     v47.979C256,470.123,254.212,471.903,252.002,471.903z"/></g></g><g><g><path d="M220.017,471.903c-2.21,0-3.998-1.78-3.998-3.998v-39.981c0-2.203,1.788-3.999,3.998-3.999s3.998,1.796,3.998,3.999     v39.981C224.015,470.123,222.227,471.903,220.017,471.903z"/></g></g><g><g><path d="M212.021,319.973h-55.975c-2.21,0-3.998-1.78-3.998-3.998c0-2.202,1.788-3.998,3.998-3.998h55.975     c2.209,0,3.998,1.796,3.998,3.998C216.019,318.192,214.23,319.973,212.021,319.973z"/></g></g><g><g><path d="M212.021,375.947h-55.975c-2.21,0-3.998-1.78-3.998-3.998c0-2.202,1.788-3.998,3.998-3.998h55.975     c2.209,0,3.998,1.796,3.998,3.998C216.019,374.167,214.23,375.947,212.021,375.947z"/></g></g><g><g><path d="M116.064,168.046c-2.209,0-3.998-1.788-3.998-3.998V44.095c0-2.209,1.789-3.998,3.998-3.998     c2.21,0,3.999,1.789,3.999,3.998v119.953C120.062,166.258,118.274,168.046,116.064,168.046z"/></g></g><g><g><path d="M116.064,48.093c-2.209,0-3.998-1.789-3.998-3.999c0-24.25,19.729-43.979,43.98-43.979c2.21,0,3.998,1.788,3.998,3.998     s-1.788,3.998-3.998,3.998c-19.843,0-35.983,16.142-35.983,35.983C120.062,46.305,118.274,48.093,116.064,48.093z"/></g></g><g><g><path d="M371.947,383.943c-2.21,0-3.998-1.78-3.998-3.998V44.095c0-2.209,1.788-3.998,3.998-3.998s3.998,1.789,3.998,3.998     v335.851C375.945,382.163,374.157,383.943,371.947,383.943z"/></g></g><g><g><path d="M451.91,383.943c-2.21,0-3.998-1.78-3.998-3.998V347.96c0-2.202,1.788-3.998,3.998-3.998s3.998,1.796,3.998,3.998v31.985     C455.908,382.163,454.12,383.943,451.91,383.943z"/></g></g><g><g><path d="M371.947,48.093c-2.21,0-3.998-1.789-3.998-3.999c0-19.842-16.142-35.983-35.984-35.983     c-2.209,0-3.998-1.788-3.998-3.998s1.789-3.998,3.998-3.998c24.247,0,43.98,19.729,43.98,43.979     C375.945,46.305,374.157,48.093,371.947,48.093z"/></g></g><g><g><path d="M291.983,168.046c-2.21,0-3.998-1.788-3.998-3.998V44.095c0-2.209,1.788-3.998,3.998-3.998s3.998,1.789,3.998,3.998     v119.953C295.981,166.258,294.193,168.046,291.983,168.046z"/></g></g><g><g><path d="M291.983,48.093c-2.21,0-3.998-1.789-3.998-3.999c0-24.25,19.733-43.979,43.979-43.979c2.211,0,3.998,1.788,3.998,3.998     s-1.787,3.998-3.998,3.998c-19.842,0-35.983,16.142-35.983,35.983C295.981,46.305,294.193,48.093,291.983,48.093z"/></g></g><g><g><path d="M411.929,423.925c-24.247,0-43.979-19.726-43.979-43.979c0-2.202,1.788-3.998,3.998-3.998s3.998,1.796,3.998,3.998     c0,19.851,16.141,35.983,35.983,35.983c2.21,0,3.998,1.796,3.998,3.998C415.927,422.145,414.139,423.925,411.929,423.925z"/></g></g><g><g><path d="M411.929,423.925c-2.21,0-3.998-1.78-3.998-3.998c0-2.202,1.788-3.998,3.998-3.998c19.843,0,35.983-16.133,35.983-35.983     c0-2.202,1.788-3.998,3.998-3.998s3.998,1.796,3.998,3.998C455.908,404.199,436.176,423.925,411.929,423.925z"/></g></g><g><g><path d="M331.965,8.119H156.046c-2.21,0-3.998-1.788-3.998-3.998s1.788-3.998,3.998-3.998h175.919     c2.211,0,3.998,1.788,3.998,3.998S334.176,8.119,331.965,8.119z"/></g></g><g><g><path d="M451.91,351.958c-0.602,0-1.21-0.133-1.788-0.422l-14.204-7.099l-14.205,7.099c-1.124,0.562-2.451,0.562-3.576,0     l-14.204-7.099l-14.205,7.099c-1.124,0.562-2.452,0.562-3.576,0l-15.993-7.996c-1.975-0.983-2.771-3.39-1.788-5.356     c0.992-1.977,3.397-2.765,5.365-1.797l14.204,7.106l14.205-7.106c1.124-0.562,2.451-0.562,3.576,0l14.204,7.106l14.204-7.106     c1.125-0.562,2.453-0.562,3.577,0l15.992,7.996c1.976,0.992,2.772,3.39,1.788,5.373     C454.784,351.154,453.371,351.958,451.91,351.958z"/></g></g><g><g><path d="M411.929,423.925h-71.967c-2.21,0-3.999-1.78-3.999-3.998c0-2.202,1.789-3.998,3.999-3.998h71.967     c2.21,0,3.998,1.796,3.998,3.998C415.927,422.145,414.139,423.925,411.929,423.925z"/></g></g><g><g><path d="M311.975,506.45c-1.023,0-2.046-0.391-2.827-1.172c-1.562-1.569-1.562-4.1,0-5.661l23.161-23.13     c1.562-1.554,4.092-1.554,5.654,0.008c1.562,1.562,1.562,4.092,0,5.653l-23.162,23.13     C314.021,506.06,312.997,506.45,311.975,506.45z"/></g></g><g><g><path d="M64.025,189.599c-1.019,0-2.042-0.387-2.823-1.167c-1.562-1.558-1.569-4.088-0.008-5.654l24.583-24.676     c1.562-1.562,4.092-1.569,5.653-0.008c1.562,1.558,1.57,4.088,0.008,5.653l-24.582,24.677     C66.075,189.208,65.052,189.599,64.025,189.599z"/></g></g><g><g><path d="M291.983,168.046H116.064c-2.209,0-3.998-1.788-3.998-3.998s1.789-3.998,3.998-3.998h175.919     c2.21,0,3.998,1.788,3.998,3.998S294.193,168.046,291.983,168.046z"/></g></g><g><g><path d="M167.271,116.07c-17.636,0-31.985-14.349-31.985-31.985s14.349-31.985,31.985-31.985s31.986,14.349,31.986,31.985     S184.907,116.07,167.271,116.07z M167.271,60.096c-13.228,0-23.989,10.761-23.989,23.989c0,13.229,10.761,23.989,23.989,23.989     c13.229,0,23.989-10.76,23.989-23.989C191.26,70.856,180.5,60.096,167.271,60.096z"/></g></g><g><g><path d="M267.994,80.086h-63.97c-2.21,0-3.999-1.789-3.999-3.999c0-2.209,1.789-3.998,3.999-3.998h63.97     c2.21,0,3.998,1.789,3.998,3.998C271.992,78.298,270.204,80.086,267.994,80.086z"/></g></g><g><g><path d="M267.994,96.079h-63.97c-2.21,0-3.999-1.788-3.999-3.998s1.789-3.998,3.999-3.998h63.97c2.21,0,3.998,1.788,3.998,3.998     S270.204,96.079,267.994,96.079z"/></g></g><g><g><path d="M267.994,96.079c-2.209,0-3.998-1.788-3.998-3.998V76.088c0-2.209,1.789-3.998,3.998-3.998     c2.21,0,3.998,1.789,3.998,3.998v15.993C271.992,94.291,270.204,96.079,267.994,96.079z"/></g></g><g><g><path d="M259.998,112.072h-23.989c-2.21,0-3.999-1.789-3.999-3.999c0-2.209,1.789-3.998,3.999-3.998h23.989     c2.21,0,3.998,1.789,3.998,3.998C263.996,110.283,262.208,112.072,259.998,112.072z"/></g></g><g><g><path d="M236.009,112.072c-2.21,0-3.999-1.789-3.999-3.999V92.081c0-2.21,1.789-3.998,3.999-3.998     c2.209,0,3.998,1.788,3.998,3.998v15.992C240.007,110.283,238.219,112.072,236.009,112.072z"/></g></g><g><g><path d="M259.998,112.072c-2.21,0-3.998-1.789-3.998-3.999V92.081c0-2.21,1.788-3.998,3.998-3.998s3.998,1.788,3.998,3.998     v15.992C263.996,110.283,262.208,112.072,259.998,112.072z"/></g></g></g><text x="0" y="527" fill="#000000" font-size="5px" font-weight="bold" font-family="'Helvetica Neue', Helvetica, Arial-Unicode, Arial, Sans-serif">Created by lastspark</text><text x="0" y="532" fill="#000000" font-size="5px" font-weight="bold" font-family="'Helvetica Neue', Helvetica, Arial-Unicode, Arial, Sans-serif">from the Noun Project</text></svg>