<?xml version="1.0" encoding="iso-8859-1"?>
<!-- Generator: Adobe Illustrator 19.0.0, SVG Export Plug-In . SVG Version: 6.00 Build 0)  -->
<svg version="1.1" id="Capa_1" xmlns="http://www.w3.org/2000/svg" xmlns:xlink="http://www.w3.org/1999/xlink" x="0px" y="0px"
	 viewBox="0 0 480 480" style="enable-background:new 0 0 480 480;" xml:space="preserve">
<g>
	<path style="fill:#ABD3F2;" d="M24,328h112v144H24V328z"/>
	<path style="fill:#ABD3F2;" d="M136,472h56v-96h144v96h56v-48h-16v-64h16v-32H136V472z"/>
	<path style="fill:#ABD3F2;" d="M24,8h112v288H24V8z"/>
</g>
<g>
	<path style="fill:#FBB040;" d="M136,8h256v288H136V8z"/>
	<path style="fill:#FBB040;" d="M392,360h-16v64h16h32h48v-64H392z"/>
</g>
<path style="fill:#60E6EB;" d="M392,328h24v-32h-24H136H24H8v32h16h112H392z"/>
<path style="fill:#FFE060;" d="M192,376h144v96H192V376z"/>
<g>
	<path style="fill:#353535;" d="M472,352h-72v-16h16c4.418,0,8-3.582,8-8v-32c0-4.418-3.582-8-8-8h-16V8c0-4.418-3.582-8-8-8H24
		c-4.418,0-8,3.582-8,8v280H8c-4.418,0-8,3.582-8,8v32c0,4.418,3.582,8,8,8h8v128H8v16h448v-16h-24v-32h40c4.418,0,8-3.582,8-8v-64
		C480,355.582,476.418,352,472,352z M384,288H144V16h240V288z M32,16h96v272H32V16z M16,304h392v16H16V304z M32,336h96v128H32V336z
		 M200,464v-80h128v80H200z M344,464v-88c0-4.418-3.582-8-8-8H192c-4.418,0-8,3.582-8,8v88h-40V336h240v16h-8c-4.418,0-8,3.582-8,8
		v64c0,4.418,3.582,8,8,8h8v32H344z M416,464h-16v-32h16V464z M464,416h-80v-48h80V416z"/>
	<path style="fill:#353535;" d="M48,48h64v16H48V48z"/>
	<path style="fill:#353535;" d="M48,112h64v16H48V112z"/>
	<path style="fill:#353535;" d="M48,176h64v16H48V176z"/>
	<path style="fill:#353535;" d="M48,240h64v16H48V240z"/>
	<path style="fill:#353535;" d="M48,368h64v16H48V368z"/>
	<path style="fill:#353535;" d="M48,400h64v16H48V400z"/>
	<path style="fill:#353535;" d="M48,432h64v16H48V432z"/>
	<path style="fill:#353535;" d="M48,208h64v16H48V208z"/>
	<path style="fill:#353535;" d="M48,144h64v16H48V144z"/>
	<path style="fill:#353535;" d="M48,80h64v16H48V80z"/>
	<path style="fill:#353535;" d="M160,48h16v16h-16V48z"/>
	<path style="fill:#353535;" d="M192,48h16v16h-16V48z"/>
	<path style="fill:#353535;" d="M224,48h16v16h-16V48z"/>
	<path style="fill:#353535;" d="M256,48h16v16h-16V48z"/>
	<path style="fill:#353535;" d="M288,48h16v16h-16V48z"/>
	<path style="fill:#353535;" d="M320,48h16v16h-16V48z"/>
	<path style="fill:#353535;" d="M352,48h16v16h-16V48z"/>
	<path style="fill:#353535;" d="M160,80h16v16h-16V80z"/>
	<path style="fill:#353535;" d="M192,80h16v16h-16V80z"/>
	<path style="fill:#353535;" d="M224,80h16v16h-16V80z"/>
	<path style="fill:#353535;" d="M256,80h16v16h-16V80z"/>
	<path style="fill:#353535;" d="M288,80h16v16h-16V80z"/>
	<path style="fill:#353535;" d="M320,80h16v16h-16V80z"/>
	<path style="fill:#353535;" d="M352,80h16v16h-16V80z"/>
	<path style="fill:#353535;" d="M160,112h16v16h-16V112z"/>
	<path style="fill:#353535;" d="M192,112h16v16h-16V112z"/>
	<path style="fill:#353535;" d="M224,112h16v16h-16V112z"/>
	<path style="fill:#353535;" d="M256,112h16v16h-16V112z"/>
	<path style="fill:#353535;" d="M288,112h16v16h-16V112z"/>
	<path style="fill:#353535;" d="M320,112h16v16h-16V112z"/>
	<path style="fill:#353535;" d="M352,112h16v16h-16V112z"/>
	<path style="fill:#353535;" d="M160,144h16v16h-16V144z"/>
	<path style="fill:#353535;" d="M192,144h16v16h-16V144z"/>
	<path style="fill:#353535;" d="M224,144h16v16h-16V144z"/>
	<path style="fill:#353535;" d="M256,144h16v16h-16V144z"/>
	<path style="fill:#353535;" d="M288,144h16v16h-16V144z"/>
	<path style="fill:#353535;" d="M320,144h16v16h-16V144z"/>
	<path style="fill:#353535;" d="M352,144h16v16h-16V144z"/>
	<path style="fill:#353535;" d="M160,176h16v16h-16V176z"/>
	<path style="fill:#353535;" d="M192,176h16v16h-16V176z"/>
	<path style="fill:#353535;" d="M224,176h16v16h-16V176z"/>
	<path style="fill:#353535;" d="M256,176h16v16h-16V176z"/>
	<path style="fill:#353535;" d="M288,176h16v16h-16V176z"/>
	<path style="fill:#353535;" d="M320,176h16v16h-16V176z"/>
	<path style="fill:#353535;" d="M352,176h16v16h-16V176z"/>
	<path style="fill:#353535;" d="M160,208h16v16h-16V208z"/>
	<path style="fill:#353535;" d="M192,208h16v16h-16V208z"/>
	<path style="fill:#353535;" d="M224,208h16v16h-16V208z"/>
	<path style="fill:#353535;" d="M256,208h16v16h-16V208z"/>
	<path style="fill:#353535;" d="M288,208h16v16h-16V208z"/>
	<path style="fill:#353535;" d="M320,208h16v16h-16V208z"/>
	<path style="fill:#353535;" d="M352,208h16v16h-16V208z"/>
	<path style="fill:#353535;" d="M160,240h16v16h-16V240z"/>
	<path style="fill:#353535;" d="M192,240h16v16h-16V240z"/>
	<path style="fill:#353535;" d="M224,240h16v16h-16V240z"/>
	<path style="fill:#353535;" d="M256,240h16v16h-16V240z"/>
	<path style="fill:#353535;" d="M288,240h16v16h-16V240z"/>
	<path style="fill:#353535;" d="M320,240h16v16h-16V240z"/>
	<path style="fill:#353535;" d="M352,240h16v16h-16V240z"/>
	<path style="fill:#353535;" d="M416,384h16v16h-16V384z"/>
	<path style="fill:#353535;" d="M440,384h16v16h-16V384z"/>
	<path style="fill:#353535;" d="M392,384h16v16h-16V384z"/>
</g>
<g>
</g>
<g>
</g>
<g>
</g>
<g>
</g>
<g>
</g>
<g>
</g>
<g>
</g>
<g>
</g>
<g>
</g>
<g>
</g>
<g>
</g>
<g>
</g>
<g>
</g>
<g>
</g>
<g>
</g>
</svg>
