<svg id="icons" enable-background="new 0 0 64 64" height="512" viewBox="0 0 64 64" width="512" xmlns="http://www.w3.org/2000/svg"><path d="m41.994 35.642 5.961 2.17c-.67 1.85-1.67 3.59-2.949 5.11l-2.271-1.91-6.92-5.8c.371-.44.67-.95.861-1.5z" fill="#da4453"/><path d="m21.994 23.012v12.62l-5.988 2.18c-1.861-5.1-1.111-10.52 1.539-14.8h.01z" fill="#ccd1d9"/><path d="m13.186 38.842c.27.75.59 1.479.939 2.18h-6.119-.012v-4-10-4-.01h.012 6.109c-2.39 4.75-2.89 10.439-.929 15.83z" fill="#ccd1d9"/><path d="m47.955 37.812c1.32-3.62 1.42-7.71 0-11.62-.41-1.13-.93-2.2-1.539-3.18h-.012c-2.58-4.16-6.799-6.92-11.469-7.75-1.92-.34-3.92-.36-5.9 0-.961.17-1.92.42-2.869.77-3.711 1.351-6.672 3.86-8.611 6.98h-.01c-2.65 4.28-3.4 9.7-1.539 14.8v.01c.699 1.91 1.699 3.63 2.939 5.101 4.459 5.33 11.939 7.569 18.85 5.05 2.91-1.061 5.359-2.83 7.211-5.05 1.279-1.522 2.279-3.262 2.949-5.111zm2.811-12.651c1.969 5.4 1.459 11.101-.941 15.86-2.219 4.38-6.029 7.96-11.01 9.771-9.619 3.5-20.189-.841-24.689-9.771-.35-.7-.67-1.43-.939-2.18-1.961-5.391-1.461-11.08.93-15.83 2.209-4.391 6.039-7.98 11.02-9.8 9.631-3.511 20.221.85 24.711 9.81.338.691.646 1.401.918 2.14z" fill="#ed5565"/><path d="m33.574 23.012-.719 4.069c-.281-.05-.57-.079-.871-.079-.299 0-.59.029-.869.079l-.721-4.069-1.359-7.75c1.98-.36 3.98-.34 5.9 0z" fill="#da4453"/><path d="m63.006 37.021v4c0 1.1-.9 2-2 2h-3.012c-1.1 0-2-.9-2-2v-4z" fill="#e6e9ed"/><path d="m47.955 26.191c1.42 3.91 1.32 8 0 11.62l-5.961-2.17v-.01-12.62h4.41.012c.609.98 1.129 2.051 1.539 3.18z" fill="#ccd1d9"/><path d="m32.855 27.081c2.34.41 4.129 2.461 4.129 4.921 0 .6-.109 1.18-.309 1.71-.191.55-.49 1.06-.861 1.5-.92 1.09-2.299 1.79-3.83 1.79-1.539 0-2.92-.7-3.83-1.801-.379-.439-.67-.939-.869-1.489-.189-.53-.301-1.11-.301-1.71 0-2.46 1.781-4.511 4.131-4.921.279-.05.57-.079.869-.079.301 0 .59.029.871.079z" fill="#ed5565"/><g fill="#e6e9ed"><path d="m28.154 35.201c.91 1.101 2.291 1.801 3.83 1.801 1.531 0 2.91-.7 3.83-1.79l6.92 5.8-.01.01h-21.5l6.92-5.81z"/><path d="m30.395 23.012.721 4.069c-2.35.41-4.131 2.461-4.131 4.921 0 .6.111 1.18.301 1.71l-5.291 1.92v-12.62z"/><path d="m41.994 35.632v.01l-5.318-1.93c.199-.53.309-1.11.309-1.71 0-2.46-1.789-4.511-4.129-4.921l.719-4.069h8.42v12.62z"/></g><path d="m55.994 37.021v4h-.01-6.16c2.4-4.76 2.91-10.46.941-15.86-.271-.739-.58-1.449-.92-2.14h6.139.01v4z" fill="#ccd1d9"/><path d="m63.006 23.021v4h-7.012v-4c0-1.1.9-2 2-2h3.012c1.099 0 2 .901 2 2z" fill="#e6e9ed"/><path d="m27.285 33.712c.199.55.49 1.05.869 1.489l-.01.011-6.92 5.81-2.27 1.9h-.01c-1.24-1.471-2.24-3.19-2.939-5.101v-.01l5.988-2.18z" fill="#da4453"/><path d="m55.994 27.021h7.012v10h-7.012z" fill="#f5f7fa"/><path d="m7.994 37.021v4c0 1.1-.898 2-2 2h-3c-1.1 0-2-.9-2-2v-4z" fill="#e6e9ed"/><path d="m.994 27.021h7v10h-7z" fill="#f5f7fa"/><path d="m7.994 23.021v4h-7v-4c0-1.1.9-2 2-2h3c1.102 0 1.99.89 2 1.99z" fill="#e6e9ed"/><path d="m31.984 38c-3.309 0-6-2.691-6-6s2.691-6 6-6 6 2.691 6 6-2.691 6-6 6zm0-10c-2.206 0-4 1.794-4 4s1.794 4 4 4 4-1.794 4-4-1.794-4-4-4z"/><path d="m31.114 28.076c-.477 0-.898-.341-.983-.826l-2.082-11.818c-.097-.544.267-1.063.811-1.158.542-.099 1.063.267 1.158.811l2.082 11.817c.097.544-.267 1.063-.811 1.158-.059.011-.117.016-.175.016z"/><path d="m16.008 38.811c-.408 0-.792-.252-.939-.658-.189-.519.078-1.093.598-1.281l11.277-4.104c.517-.188 1.093.078 1.281.598.189.519-.078 1.093-.598 1.281l-11.277 4.103c-.113.041-.229.061-.342.061z"/><path d="m18.96 43.924c-.286 0-.569-.121-.767-.357-.355-.423-.3-1.054.123-1.408l9.193-7.714c.425-.354 1.056-.301 1.408.123.355.423.3 1.054-.123 1.408l-9.193 7.714c-.187.157-.414.234-.641.234z"/><path d="m47.957 38.811c-.113 0-.229-.02-.342-.061l-11.277-4.104c-.52-.188-.787-.763-.598-1.281.188-.52.766-.785 1.281-.598l11.277 4.104c.52.188.787.763.598 1.281-.147.407-.531.659-.939.659z"/><path d="m45.005 43.924c-.227 0-.454-.077-.642-.234l-9.193-7.714c-.423-.354-.479-.985-.123-1.408.354-.424.984-.478 1.408-.123l9.193 7.714c.423.354.479.985.123 1.408-.197.236-.48.357-.766.357z"/><path d="m31.981 50.004c-7.539-.001-14.337-4.761-16.917-11.846-1.644-4.518-1.43-9.405.603-13.765 2.032-4.36 5.639-7.665 10.155-9.307 1.987-.725 4.06-1.091 6.157-1.091 7.539 0 14.338 4.762 16.917 11.85 1.644 4.517 1.43 9.403-.603 13.761-2.032 4.359-5.639 7.664-10.155 9.306-1.988.725-4.059 1.092-6.157 1.092zm-.002-34.008c-1.863 0-3.705.326-5.474.97-4.015 1.46-7.22 4.397-9.026 8.272s-1.997 8.221-.536 12.236c2.294 6.297 8.337 10.528 15.037 10.529h.001c1.863 0 3.704-.327 5.474-.971 4.015-1.46 7.22-4.397 9.026-8.271s1.997-8.218.536-12.232c-2.292-6.3-8.336-10.533-15.038-10.533z"/><path d="m31.981 52.998c-8.791 0-16.721-5.552-19.731-13.815-1.917-5.268-1.667-10.969.703-16.053 2.37-5.085 6.577-8.94 11.846-10.856 2.317-.845 4.733-1.272 7.18-1.272 8.792 0 16.722 5.554 19.73 13.821 1.918 5.269 1.668 10.969-.701 16.051-2.37 5.082-6.577 8.937-11.846 10.853-2.318.843-4.734 1.271-7.181 1.271zm-.002-39.997c-2.212 0-4.397.388-6.496 1.151-4.766 1.733-8.572 5.222-10.717 9.823-2.145 4.6-2.37 9.757-.637 14.522 2.725 7.477 9.899 12.5 17.853 12.5 2.212 0 4.398-.387 6.497-1.151 4.767-1.734 8.572-5.222 10.717-9.819 2.144-4.598 2.369-9.755.635-14.521-2.724-7.48-9.897-12.505-17.852-12.505z"/><path d="m32.854 28.076c-.058 0-.116-.005-.175-.016-.544-.096-.907-.614-.811-1.158l2.084-11.818c.096-.544.614-.909 1.158-.811.544.096.907.614.811 1.158l-2.083 11.819c-.085.485-.507.826-.984.826z"/><path d="m14.121 24.014h-6.115c-.553 0-1-.447-1-1s.447-1 1-1h6.115c.553 0 1 .447 1 1s-.447 1-1 1z"/><path d="m14.131 42.016h-6.125c-.553 0-1-.447-1-1s.447-1 1-1h6.125c.553 0 1 .447 1 1s-.447 1-1 1z"/><path d="m30.4 24.014h-12.851c-.553 0-1-.447-1-1s.447-1 1-1h12.851c.553 0 1 .447 1 1s-.447 1-1 1z"/><path d="m46.414 24.014h-12.844c-.553 0-1-.447-1-1s.447-1 1-1h12.844c.553 0 1 .447 1 1s-.447 1-1 1z"/><path d="m55.992 24.017h-6.148c-.553 0-1-.447-1-1s.447-1 1-1h6.148c.553 0 1 .447 1 1s-.447 1-1 1z"/><path d="m42.732 42.017h-21.5c-.553 0-1-.447-1-1s.447-1 1-1h21.5c.553 0 1 .447 1 1s-.447 1-1 1z"/><path d="m55.992 42.017h-6.168c-.553 0-1-.447-1-1s.447-1 1-1h6.168c.553 0 1 .447 1 1s-.447 1-1 1z"/><path d="m22 36.63c-.553 0-1-.447-1-1v-12.616c0-.553.447-1 1-1s1 .447 1 1v12.616c0 .553-.447 1-1 1z"/><path d="m42 36.63c-.553 0-1-.447-1-1v-12.616c0-.553.447-1 1-1s1 .447 1 1v12.616c0 .553-.447 1-1 1z"/><path d="m6 44.017h-3.006c-1.654 0-3-1.346-3-3v-18c0-1.654 1.346-3 3-3h3.006c1.654 0 3 1.346 3 3v18c0 1.654-1.346 3-3 3zm-3.006-22c-.552 0-1 .448-1 1v18c0 .552.448 1 1 1h3.006c.552 0 1-.448 1-1v-18c0-.552-.448-1-1-1z"/><path d="m8 28.017h-7.006c-.553 0-1-.447-1-1s.447-1 1-1h7.006c.553 0 1 .447 1 1s-.447 1-1 1z"/><path d="m8 38.017h-7.006c-.553 0-1-.447-1-1s.447-1 1-1h7.006c.553 0 1 .447 1 1s-.447 1-1 1z"/><path d="m61.006 44.017h-3.006c-1.654 0-3-1.346-3-3v-18c0-1.654 1.346-3 3-3h3.006c1.654 0 3 1.346 3 3v18c0 1.654-1.346 3-3 3zm-3.006-22c-.552 0-1 .448-1 1v18c0 .552.448 1 1 1h3.006c.552 0 1-.448 1-1v-18c0-.552-.448-1-1-1z"/><path d="m63.006 28.017h-7.006c-.553 0-1-.447-1-1s.447-1 1-1h7.006c.553 0 1 .447 1 1s-.447 1-1 1z"/><path d="m63.006 38.017h-7.006c-.553 0-1-.447-1-1s.447-1 1-1h7.006c.553 0 1 .447 1 1s-.447 1-1 1z"/></svg>