<svg id="Capa_1" enable-background="new 0 0 512 512" height="512" viewBox="0 0 512 512" width="512" xmlns="http://www.w3.org/2000/svg"><g><g><path d="m360.006 474.645h-297.589v-459.734c0-3.791 3.073-6.863 6.863-6.863h283.862c3.791 0 6.863 3.073 6.863 6.863v459.734z" fill="#b5adb6"/></g><g><path d="m360.01 14.89v459.759h-20.507v-459.759c0-3.778-3.061-6.839-6.849-6.839h20.507c3.779 0 6.849 3.061 6.849 6.839z" fill="#a79ba7"/></g><g><path d="m194.85 8.048h32.724v304.867h-32.724z" fill="#f3f0f3"/></g><g><path d="m62.513 474.645v21.77c.018 4.496 3.677 8.126 8.173 8.108l24.808-.099c3.313-.013 6.287-2.033 7.522-5.107l10.837-24.672z" fill="#433f43"/></g><g><path d="m360.006 474.645v21.564c.018 4.496-3.517 8.155-8.013 8.173l-24.807.099c-3.313.013-6.303-1.982-7.563-5.047l-11.053-24.79h51.436z" fill="#433f43"/></g><g><path d="m261.907 281.738h63.822c3.874-.016 7.002-3.169 6.986-7.043v-227.891c-.016-3.874-4.081-7.002-7.955-6.986h-63.822c-3.874.016-6.09 3.424-6.074 7.298v227.892c.016 3.874 3.169 6.746 7.043 6.73z" fill="#c4e2ff"/></g><g><path d="m332.714 46.802v227.891c.02 3.878-3.11 7.028-6.989 7.048h-19.999c3.878-.02 7.008-3.17 6.989-7.048v-227.891c-.02-3.858-4.068-6.989-7.936-6.989h19.979c3.878-.009 7.946 3.121 7.956 6.989z" fill="#95d2fc"/></g><g><path d="m194.85 34.747h32.724v251.611h-32.724z" fill="#7a6d79"/></g><g><path d="m212.108 34.747h15.465v251.611h-15.465z" fill="#685e68"/></g><g><g><path d="m158.581 219.395h-61.002c-3.191 0-5.778-2.587-5.778-5.778v-105.678c0-3.191 2.587-5.778 5.778-5.778h61.001c3.191 0 5.778 2.587 5.778 5.778v105.679c0 3.191-2.587 5.777-5.777 5.777z" fill="#f3f0f3"/></g></g><g><g><path d="m164.361 107.934v105.686c0 3.19-2.592 5.772-5.782 5.772h-19.939c3.19 0 5.782-2.582 5.782-5.772v-105.686c0-3.19-2.592-5.772-5.782-5.772h19.939c3.19 0 5.782 2.582 5.782 5.772z" fill="#e2dee2"/></g></g><g><path d="m158.584 102.161h-61.008c-3.189 0-5.774 2.585-5.774 5.774v35.672h20.514c1.349 0 2.562-.825 3.057-2.08l3.468-8.786c.495-1.255 1.708-2.08 3.057-2.08h12.363c1.349 0 2.562.825 3.057 2.08l3.468 8.786c.495 1.255 1.708 2.08 3.057 2.08h20.514v-35.672c.001-3.189-2.584-5.774-5.773-5.774z" fill="#7a6d79"/></g><g><path d="m164.361 107.934v35.671h-19.939v-35.671c0-3.19-2.592-5.772-5.782-5.772h19.949c3.18 0 5.772 2.582 5.772 5.772z" fill="#685e68"/></g><g><path d="m62.417 312.915h297.589v31.813h-297.589z" fill="#7a6d79"/></g><g><path d="m339.503 312.915h20.503v31.813h-20.503z" fill="#685e68"/></g><g><circle cx="418.85" cy="64.215" r="8.373"/><path d="m431.845 29.149c-3.918-1.99-8.324-3.042-12.743-3.042-4.687 0-9.332 1.177-13.43 3.404-3.629 1.971-4.973 6.51-3.002 10.139 1.355 2.495 3.924 3.91 6.577 3.91 1.205 0 2.428-.293 3.562-.908 1.943-1.055 4.06-1.59 6.293-1.59 2.106 0 4.114.478 5.97 1.42 3.682 1.872 8.183.402 10.052-3.28 1.872-3.682.403-8.183-3.279-10.053z"/><path d="m453.455 9.539c-10.305-6.241-22.15-9.539-34.256-9.539-12.103 0-23.948 3.298-34.253 9.538-3.532 2.139-4.662 6.736-2.523 10.269 2.138 3.532 6.735 4.661 10.269 2.523 7.969-4.826 17.135-7.376 26.508-7.376 9.374 0 18.541 2.551 26.509 7.377 1.211.733 2.547 1.082 3.866 1.082 2.529 0 4.997-1.284 6.403-3.605 2.138-3.532 1.009-8.129-2.523-10.269z"/><path d="m261.874 289.215h.048 63.836c3.87-.016 7.503-1.538 10.23-4.285 2.726-2.748 4.219-6.393 4.203-10.234v-227.922c-.032-7.837-7.077-14.433-15.371-14.433-.02 0-.04 0-.061 0h-63.852c-7.742.031-13.555 6.396-13.521 14.775v227.922c.016 3.928 1.587 7.564 4.424 10.237 2.702 2.542 6.273 3.94 10.064 3.94zm.467-241.92h62.437c.116.007.306.088.46.183v226.784h-62.897z"/><path d="m132.866 385.982 156.679-.627c4.129-.017 7.463-3.377 7.447-7.507-.017-4.119-3.361-7.447-7.477-7.447-.01 0-.02 0-.031 0l-156.678.627c-4.13.017-7.464 3.378-7.447 7.507.017 4.12 3.361 7.447 7.477 7.447z"/><path d="m353.164.57h-283.905c-7.896 0-14.319 6.424-14.319 14.32v387.66c0 4.129 3.348 7.477 7.477 7.477s7.477-3.348 7.477-7.477v-50.346h282.635v114.963h-282.635v-29.559c0-4.129-3.348-7.477-7.477-7.477s-7.477 3.348-7.477 7.477l.095 58.836c.035 8.592 7.035 15.556 15.618 15.556h.064l24.807-.099c6.339-.025 11.968-3.815 14.379-9.669l8.833-20.11h184.983l9.039 20.273c2.446 5.82 8.077 9.564 14.395 9.564h.063l24.808-.099c8.559-.035 15.494-7.069 15.459-15.651v-481.319c0-7.896-6.423-14.32-14.319-14.32zm-256.994 495.74c-.032.073-.063.146-.093.22-.101.252-.342.416-.614.417l-24.808.099c-.151-.014-.34-.064-.47-.193-.129-.128-.196-.286-.196-.438v-14.293h32.412zm256.359-.071c.001.32-.175.665-.565.666l-24.808.099h-.002c-.271 0-.511-.161-.614-.411-.028-.068-.057-.136-.087-.203l-6.362-14.268h32.438zm-150.201-480.714h17.768v11.745h-17.768zm0 26.699h17.768v236.657h-17.768zm0 251.612h17.768v11.602h-17.768zm-132.434-278.311h117.479v289.913h-117.479zm282.635 289.913h-30.4c-4.129 0-7.477 3.348-7.477 7.477s3.348 7.477 7.477 7.477h30.4v16.859h-282.635v-16.859h216.512c4.129 0 7.477-3.348 7.477-7.477s-3.348-7.477-7.477-7.477h-51.356v-19.06c0-.007.001-.013.001-.019v-251.612c0-.007-.001-.013-.001-.019v-19.203h117.479z"/><path d="m158.584 94.684h-.003-61.002-.003c-7.307 0-13.251 5.945-13.251 13.251v.003 105.679c0 7.309 5.946 13.255 13.255 13.255h61.001c7.309 0 13.255-5.946 13.255-13.255v-105.678-.003c-.001-7.307-5.945-13.252-13.252-13.252zm-1.703 117.234h-57.602v-60.834h13.037c4.448 0 8.378-2.673 10.012-6.811l2.422-6.135h6.661l2.421 6.133c1.633 4.139 5.563 6.813 10.012 6.813h13.037zm0-75.788h-10.187l-2.421-6.134c-1.633-4.138-5.563-6.812-10.012-6.812h-12.363c-4.45 0-8.381 2.675-10.012 6.812l-2.421 6.134h-10.186v-26.492h57.603v26.492z"/></g></g></svg>