<svg height="512" viewBox="0 0 512 512" width="512" xmlns="http://www.w3.org/2000/svg" xmlns:xlink="http://www.w3.org/1999/xlink"><linearGradient id="a" gradientUnits="userSpaceOnUse" x1="134.701" x2="626.065" y1="604.34" y2="112.977" data-name="New Gradient Swatch 1"><stop offset="0" stop-color="#003f8a"/><stop offset=".518" stop-color="#00d7df"/><stop offset="1" stop-color="#006df0"/></linearGradient><linearGradient id="b" x1="-22.818" x2="468.546" xlink:href="#a" y1="446.821" y2="-44.543"/><linearGradient id="c" x1="-152.819" x2="338.544" xlink:href="#a" y1="316.819" y2="-174.544"/><linearGradient id="d" x1="-156.819" x2="334.544" xlink:href="#a" y1="312.819" y2="-178.544"/><linearGradient id="e" x1="-26.819" x2="464.544" xlink:href="#a" y1="442.819" y2="-48.544"/><linearGradient id="f" x1="25.181" x2="516.544" xlink:href="#a" y1="494.819" y2="3.456"/><linearGradient id="g" x1="77.181" x2="568.544" xlink:href="#a" y1="546.819" y2="55.456"/><linearGradient id="h" x1="-54.819" x2="436.544" xlink:href="#a" y1="414.819" y2="-76.544"/><linearGradient id="i" x1="-136.819" x2="354.544" xlink:href="#a" y1="332.819" y2="-158.544"/><linearGradient id="j" x1="-14.819" x2="476.544" xlink:href="#a" y1="454.819" y2="-36.544"/><linearGradient id="k" x1="-22.819" x2="468.544" xlink:href="#a" y1="446.819" y2="-44.544"/><linearGradient id="l" x1="39.181" x2="530.544" xlink:href="#a" y1="508.819" y2="17.456"/><linearGradient id="m" x1="1.181" x2="492.544" xlink:href="#a" y1="470.819" y2="-20.544"/><linearGradient id="n" x1="13.181" x2="504.544" xlink:href="#a" y1="482.819" y2="-8.544"/><linearGradient id="p" x1="53.181" x2="544.544" xlink:href="#a" y1="522.819" y2="31.456"/><linearGradient id="q" x1="65.181" x2="556.544" xlink:href="#a" y1="534.819" y2="43.456"/><linearGradient id="s" x1="105.181" x2="596.544" xlink:href="#a" y1="574.819" y2="83.456"/><linearGradient id="t" x1="117.181" x2="608.544" xlink:href="#a" y1="586.819" y2="95.456"/><g><path d="m456 72a32.036 32.036 0 0 0 -32 32v64h-8v-16a8 8 0 0 0 -16 0v96a8 8 0 0 0 16 0v-64h8v264a8.081 8.081 0 0 0 .84 3.58l24 48a8.009 8.009 0 0 0 14.32 0l24-48a8.081 8.081 0 0 0 .84-3.58v-344a32.036 32.036 0 0 0 -32-32zm16 374.11-16 32-16-32v-6.11h32zm0-22.11h-32v-280h32zm0-296h-32v-24a16 16 0 0 1 32 0z" fill="url(#a)"/><path d="m384 8h-352a8 8 0 0 0 -8 8v480a8 8 0 0 0 8 8h272a8.008 8.008 0 0 0 5.66-2.34l80-80a8.008 8.008 0 0 0 2.34-5.66v-400a8 8 0 0 0 -8-8zm-72 468.69v-52.69h52.69zm64-68.69h-72a8 8 0 0 0 -8 8v72h-256v-464h336z" fill="url(#b)"/><path d="m72 56h88a8 8 0 0 0 0-16h-88a8 8 0 0 0 0 16z" fill="url(#c)"/><path d="m72 80h24a8 8 0 0 0 0-16h-24a8 8 0 0 0 0 16z" fill="url(#d)"/><path d="m136 272h-64a8 8 0 0 0 -8 8v64a8 8 0 0 0 8 8h64a8 8 0 0 0 8-8v-64a8 8 0 0 0 -8-8zm-8 64h-48v-48h48z" fill="url(#e)"/><path d="m240 272h-64a8 8 0 0 0 -8 8v64a8 8 0 0 0 8 8h64a8 8 0 0 0 8-8v-64a8 8 0 0 0 -8-8zm-8 64h-48v-48h48z" fill="url(#f)"/><path d="m344 272h-64a8 8 0 0 0 -8 8v64a8 8 0 0 0 8 8h64a8 8 0 0 0 8-8v-64a8 8 0 0 0 -8-8zm-8 64h-48v-48h48z" fill="url(#g)"/><path d="m72 216h272a8 8 0 0 0 8-8v-112a8 8 0 0 0 -8-8h-272a8 8 0 0 0 -8 8v112a8 8 0 0 0 8 8zm8-112h256v96h-256z" fill="url(#h)"/><path d="m120 64a8 8 0 0 0 0 16h8a8 8 0 0 0 0-16z" fill="url(#i)"/><path d="m72 240h272a8 8 0 0 0 0-16h-272a8 8 0 0 0 0 16z" fill="url(#j)"/><path d="m264 248h-192a8 8 0 0 0 0 16h192a8 8 0 0 0 0-16z" fill="url(#k)"/><path d="m296 264a8 8 0 0 0 0-16h-8a8 8 0 0 0 0 16z" fill="url(#l)"/><path d="m136 360h-64a8 8 0 0 0 0 16h64a8 8 0 0 0 0-16z" fill="url(#m)"/><path d="m136 384h-64a8 8 0 0 0 0 16h64a8 8 0 0 0 0-16z" fill="url(#n)"/><path d="m136 408h-64a8 8 0 0 0 0 16h64a8 8 0 0 0 0-16z" fill="url(#f)"/><path d="m240 360h-64a8 8 0 0 0 0 16h64a8 8 0 0 0 0-16z" fill="url(#p)"/><path d="m240 384h-64a8 8 0 0 0 0 16h64a8 8 0 0 0 0-16z" fill="url(#q)"/><path d="m240 408h-64a8 8 0 0 0 0 16h64a8 8 0 0 0 0-16z" fill="url(#g)"/><path d="m344 360h-64a8 8 0 0 0 0 16h64a8 8 0 0 0 0-16z" fill="url(#s)"/><path d="m344 400a8 8 0 0 0 0-16h-64a8 8 0 0 0 0 16z" fill="url(#t)"/></g></svg>