<svg id="Capa_1" enable-background="new 0 0 512 512" height="512" viewBox="0 0 512 512" width="512" xmlns="http://www.w3.org/2000/svg"><g><path d="m151 166h210v90h-210z" fill="#dfe7f4"/><path d="m256 166h105v90h-105z" fill="#c7cfe1"/><path d="m91 31h330v165h-330z" fill="#f0f7ff"/><path d="m256 31h165v165h-165z" fill="#dfe7f4"/><g fill="#61729b"><path d="m0 16h512v30h-512z"/><path d="m151 76h30v60h-30z"/><path d="m211 76h30v60h-30z"/></g><path d="m271 76h30v60h-30z" fill="#47568c"/><path d="m331 76h30v60h-30z" fill="#47568c"/><path d="m0 226h91v30h-91z" fill="#6aa9ff"/><path d="m421 226h91v30h-91z" fill="#2682ff"/><path d="m241 406h30v90h-30z" fill="#6aa9ff"/><path d="m389.493 344.496h29.997v89.99h-29.997z" fill="#2682ff" transform="matrix(.707 -.707 .707 .707 -156.939 400.098)"/><path d="m62.514 374.493h89.99v29.997h-89.99z" fill="#6aa9ff" transform="matrix(.707 -.707 .707 .707 -243.923 190.1)"/><path d="m256 406h15v90h-15z" fill="#2682ff"/><path d="m256 16h256v30h-256z" fill="#47568c"/></g></svg>