<svg width="1429" height="1070" viewBox="0 0 1429 1070" fill="none" xmlns="http://www.w3.org/2000/svg">
<ellipse cx="700" cy="321" rx="96" ry="103" fill="#E1AA57"/>
<ellipse cx="611" cy="189" rx="96" ry="103" fill="#E1AA57"/>
<ellipse cx="533" cy="239" rx="96" ry="103" fill="#E1AA57"/>
<ellipse cx="679" cy="230" rx="96" ry="103" fill="#E1AA57"/>
<ellipse cx="696" cy="235" rx="96" ry="103" fill="#E1AA57"/>
<ellipse cx="530" cy="321" rx="96" ry="103" fill="#E1AA57"/>
<ellipse cx="592" cy="354" rx="96" ry="103" fill="#E1AA57"/>
<ellipse cx="611" cy="368" rx="96" ry="103" fill="#E1AA57"/>
<ellipse cx="640" cy="362" rx="96" ry="103" fill="#E1AA57"/>
<rect x="666" y="123" width="34" height="19" fill="#FF5C00"/>
<rect x="654" y="132" width="34" height="19" fill="#FF5C00"/>
<rect x="632" y="141" width="34" height="19" fill="#FF5C00"/>
<rect x="623" y="150" width="34" height="19" fill="#FF5C00"/>
<rect x="640" y="141" width="34" height="19" fill="#FF5C00"/>
<rect x="604" y="159" width="34" height="19" fill="#FF5C00"/>
<rect x="587" y="169" width="34" height="19" fill="#FF5C00"/>
<rect x="577" y="178" width="34" height="19" fill="#FF5C00"/>
<rect x="558" y="187" width="34" height="19" fill="#FF5C00"/>
<rect x="544" y="196" width="34" height="19" fill="#FF5C00"/>
<rect x="527" y="205" width="34" height="19" fill="#FF5C00"/>
<rect x="516" y="211" width="34" height="19" fill="#FF5C00"/>
<rect x="510" y="230" width="34" height="24" fill="#FF5C00"/>
<rect x="506" y="251" width="34" height="24" fill="#FF5C00"/>
<path d="M793.766 173.294H793.255L792.816 172.852L618.508 71.1909C616.247 69.8741 613.46 69.8741 611.199 71.1909L437.183 172.557L436.671 172.999H436.16C434.852 174.112 433.974 175.651 433.675 177.349C433.639 177.568 433.639 177.793 433.675 178.012C433.639 178.208 433.639 178.407 433.675 178.602V381.335C433.665 383.978 435.059 386.426 437.329 387.748L611.199 489.483H611.711H612.368C613.954 490.171 615.752 490.171 617.338 489.483H617.996H618.508L792.597 388.117C794.867 386.794 796.261 384.347 796.251 381.703V178.971C796.251 178.971 796.251 178.602 796.251 178.381C796.251 178.16 796.251 177.939 796.251 177.718C795.969 175.992 795.088 174.425 793.766 173.294ZM698.171 134.665L538.698 227.479L521.889 217.674L681.361 124.86L698.171 134.665ZM531.39 240.233V269.721L514.434 259.916V230.428L531.39 240.233ZM614.853 86.1562L666.744 116.308L507.272 209.196L455.381 178.971L614.853 86.1562ZM607.545 470.316L448.146 377.427V356.712L607.545 449.526V470.316ZM607.545 432.497L448.146 339.682V191.724L499.817 221.876V264.413C499.822 267.073 501.246 269.524 503.544 270.827L535.044 289.036C536.15 289.699 537.411 290.054 538.698 290.068C542.735 290.068 546.007 286.767 546.007 282.696V248.784L607.545 284.613V432.497V432.497ZM614.853 271.859L553.315 236.031L712.788 143.142L774.326 178.897L614.853 271.859ZM781.634 377.427L622.162 470.316V449.526L781.634 356.712V377.427ZM781.634 339.609L622.162 432.497V284.613L781.634 191.724V339.609Z" fill="black"/>
<ellipse cx="506" cy="439" rx="96" ry="103" fill="#E1AA57"/>
<ellipse cx="417" cy="307" rx="96" ry="103" fill="#E1AA57"/>
<ellipse cx="339" cy="357" rx="96" ry="103" fill="#E1AA57"/>
<ellipse cx="485" cy="348" rx="96" ry="103" fill="#E1AA57"/>
<ellipse cx="502" cy="353" rx="96" ry="103" fill="#E1AA57"/>
<ellipse cx="336" cy="439" rx="96" ry="103" fill="#E1AA57"/>
<ellipse cx="398" cy="472" rx="96" ry="103" fill="#E1AA57"/>
<ellipse cx="417" cy="486" rx="96" ry="103" fill="#E1AA57"/>
<ellipse cx="446" cy="480" rx="96" ry="103" fill="#E1AA57"/>
<rect x="472" y="241" width="34" height="19" fill="#FF5C00"/>
<rect x="460" y="250" width="34" height="19" fill="#FF5C00"/>
<rect x="438" y="259" width="34" height="19" fill="#FF5C00"/>
<rect x="429" y="268" width="34" height="19" fill="#FF5C00"/>
<rect x="446" y="259" width="34" height="19" fill="#FF5C00"/>
<rect x="410" y="277" width="34" height="19" fill="#FF5C00"/>
<rect x="393" y="287" width="34" height="19" fill="#FF5C00"/>
<rect x="383" y="296" width="34" height="19" fill="#FF5C00"/>
<rect x="364" y="305" width="34" height="19" fill="#FF5C00"/>
<rect x="350" y="314" width="34" height="19" fill="#FF5C00"/>
<rect x="333" y="323" width="34" height="19" fill="#FF5C00"/>
<rect x="322" y="329" width="34" height="19" fill="#FF5C00"/>
<rect x="316" y="348" width="34" height="24" fill="#FF5C00"/>
<rect x="312" y="369" width="34" height="24" fill="#FF5C00"/>
<path d="M599.766 291.294H599.255L598.816 290.852L424.508 189.191C422.247 187.874 419.46 187.874 417.199 189.191L243.183 290.557L242.671 290.999H242.16C240.852 292.112 239.974 293.651 239.675 295.349C239.639 295.568 239.639 295.793 239.675 296.012C239.639 296.208 239.639 296.407 239.675 296.602V499.335C239.665 501.978 241.059 504.426 243.329 505.748L417.199 607.483H417.711H418.368C419.954 608.171 421.752 608.171 423.338 607.483H423.996H424.508L598.597 506.117C600.867 504.794 602.261 502.347 602.251 499.703V296.971C602.251 296.971 602.251 296.602 602.251 296.381C602.251 296.16 602.251 295.939 602.251 295.718C601.969 293.992 601.088 292.425 599.766 291.294ZM504.171 252.665L344.698 345.479L327.889 335.674L487.361 242.86L504.171 252.665ZM337.39 358.233V387.721L320.434 377.916V348.428L337.39 358.233ZM420.853 204.156L472.744 234.308L313.272 327.196L261.381 296.971L420.853 204.156ZM413.545 588.316L254.146 495.427V474.712L413.545 567.526V588.316ZM413.545 550.497L254.146 457.682V309.724L305.817 339.876V382.413C305.822 385.073 307.246 387.524 309.544 388.827L341.044 407.036C342.151 407.699 343.411 408.054 344.698 408.068C348.735 408.068 352.007 404.767 352.007 400.696V366.784L413.545 402.613V550.497V550.497ZM420.853 389.859L359.316 354.031L518.788 261.142L580.326 296.897L420.853 389.859ZM587.634 495.427L428.162 588.316V567.526L587.634 474.712V495.427ZM587.634 457.609L428.162 550.497V402.613L587.634 309.724V457.609Z" fill="black"/>
<ellipse cx="315" cy="553" rx="96" ry="103" fill="#E1AA57"/>
<ellipse cx="226" cy="421" rx="96" ry="103" fill="#E1AA57"/>
<ellipse cx="148" cy="471" rx="96" ry="103" fill="#E1AA57"/>
<ellipse cx="294" cy="462" rx="96" ry="103" fill="#E1AA57"/>
<ellipse cx="311" cy="467" rx="96" ry="103" fill="#E1AA57"/>
<ellipse cx="145" cy="553" rx="96" ry="103" fill="#E1AA57"/>
<ellipse cx="207" cy="586" rx="96" ry="103" fill="#E1AA57"/>
<ellipse cx="226" cy="600" rx="96" ry="103" fill="#E1AA57"/>
<ellipse cx="255" cy="594" rx="96" ry="103" fill="#E1AA57"/>
<rect x="281" y="355" width="34" height="19" fill="#FF5C00"/>
<rect x="269" y="364" width="34" height="19" fill="#FF5C00"/>
<rect x="247" y="373" width="34" height="19" fill="#FF5C00"/>
<rect x="238" y="382" width="34" height="19" fill="#FF5C00"/>
<rect x="255" y="373" width="34" height="19" fill="#FF5C00"/>
<rect x="219" y="391" width="34" height="19" fill="#FF5C00"/>
<rect x="202" y="401" width="34" height="19" fill="#FF5C00"/>
<rect x="192" y="410" width="34" height="19" fill="#FF5C00"/>
<rect x="173" y="419" width="34" height="19" fill="#FF5C00"/>
<rect x="159" y="428" width="34" height="19" fill="#FF5C00"/>
<rect x="142" y="437" width="34" height="19" fill="#FF5C00"/>
<rect x="131" y="443" width="34" height="19" fill="#FF5C00"/>
<rect x="125" y="462" width="34" height="24" fill="#FF5C00"/>
<rect x="121" y="483" width="34" height="24" fill="#FF5C00"/>
<path d="M408.766 405.294H408.255L407.816 404.852L233.508 303.191C231.247 301.874 228.46 301.874 226.199 303.191L52.1829 404.557L51.6713 404.999H51.1597C49.8524 406.112 48.9736 407.651 48.6748 409.349C48.6392 409.568 48.6392 409.793 48.6748 410.012C48.6392 410.208 48.6392 410.407 48.6748 410.602V613.335C48.6648 615.978 50.0589 618.426 52.3291 619.748L226.199 721.483H226.711H227.368C228.954 722.171 230.752 722.171 232.338 721.483H232.996H233.508L407.597 620.117C409.867 618.794 411.261 616.347 411.251 613.703V410.971C411.251 410.971 411.251 410.602 411.251 410.381C411.251 410.16 411.251 409.939 411.251 409.718C410.969 407.992 410.088 406.425 408.766 405.294ZM313.171 366.665L153.698 459.479L136.889 449.674L296.361 356.86L313.171 366.665ZM146.39 472.233V501.721L129.434 491.916V462.428L146.39 472.233ZM229.853 318.156L281.744 348.308L122.272 441.196L70.3812 410.971L229.853 318.156ZM222.545 702.316L63.1457 609.427V588.712L222.545 681.526V702.316ZM222.545 664.497L63.1457 571.682V423.724L114.817 453.876V496.413C114.822 499.073 116.246 501.524 118.544 502.827L150.044 521.036C151.151 521.699 152.411 522.054 153.698 522.068C157.735 522.068 161.007 518.767 161.007 514.696V480.784L222.545 516.613V664.497V664.497ZM229.853 503.859L168.316 468.031L327.788 375.142L389.326 410.897L229.853 503.859ZM396.634 609.427L237.162 702.316V681.526L396.634 588.712V609.427ZM396.634 571.609L237.162 664.497V516.613L396.634 423.724V571.609Z" fill="black"/>
<ellipse cx="899" cy="439" rx="96" ry="103" fill="#E1AA57"/>
<ellipse cx="810" cy="307" rx="96" ry="103" fill="#E1AA57"/>
<ellipse cx="732" cy="357" rx="96" ry="103" fill="#E1AA57"/>
<ellipse cx="878" cy="348" rx="96" ry="103" fill="#E1AA57"/>
<ellipse cx="895" cy="353" rx="96" ry="103" fill="#E1AA57"/>
<ellipse cx="729" cy="439" rx="96" ry="103" fill="#E1AA57"/>
<ellipse cx="791" cy="472" rx="96" ry="103" fill="#E1AA57"/>
<ellipse cx="810" cy="486" rx="96" ry="103" fill="#E1AA57"/>
<ellipse cx="839" cy="480" rx="96" ry="103" fill="#E1AA57"/>
<rect x="865" y="241" width="34" height="19" fill="#FF5C00"/>
<rect x="853" y="250" width="34" height="19" fill="#FF5C00"/>
<rect x="831" y="259" width="34" height="19" fill="#FF5C00"/>
<rect x="822" y="268" width="34" height="19" fill="#FF5C00"/>
<rect x="839" y="259" width="34" height="19" fill="#FF5C00"/>
<rect x="803" y="277" width="34" height="19" fill="#FF5C00"/>
<rect x="786" y="287" width="34" height="19" fill="#FF5C00"/>
<rect x="776" y="296" width="34" height="19" fill="#FF5C00"/>
<rect x="757" y="305" width="34" height="19" fill="#FF5C00"/>
<rect x="743" y="314" width="34" height="19" fill="#FF5C00"/>
<rect x="726" y="323" width="34" height="19" fill="#FF5C00"/>
<rect x="715" y="329" width="34" height="19" fill="#FF5C00"/>
<rect x="709" y="348" width="34" height="24" fill="#FF5C00"/>
<rect x="705" y="369" width="34" height="24" fill="#FF5C00"/>
<path d="M992.766 291.294H992.255L991.816 290.852L817.508 189.191C815.247 187.874 812.46 187.874 810.199 189.191L636.183 290.557L635.671 290.999H635.16C633.852 292.112 632.974 293.651 632.675 295.349C632.639 295.568 632.639 295.793 632.675 296.012C632.639 296.208 632.639 296.407 632.675 296.602V499.335C632.665 501.978 634.059 504.426 636.329 505.748L810.199 607.483H810.711H811.368C812.954 608.171 814.752 608.171 816.338 607.483H816.996H817.508L991.597 506.117C993.867 504.794 995.261 502.347 995.251 499.703V296.971C995.251 296.971 995.251 296.602 995.251 296.381C995.251 296.16 995.251 295.939 995.251 295.718C994.969 293.992 994.088 292.425 992.766 291.294ZM897.171 252.665L737.698 345.479L720.889 335.674L880.361 242.86L897.171 252.665ZM730.39 358.233V387.721L713.434 377.916V348.428L730.39 358.233ZM813.853 204.156L865.744 234.308L706.272 327.196L654.381 296.971L813.853 204.156ZM806.545 588.316L647.146 495.427V474.712L806.545 567.526V588.316ZM806.545 550.497L647.146 457.682V309.724L698.817 339.876V382.413C698.822 385.073 700.246 387.524 702.544 388.827L734.044 407.036C735.151 407.699 736.411 408.054 737.698 408.068C741.735 408.068 745.007 404.767 745.007 400.696V366.784L806.545 402.613V550.497V550.497ZM813.853 389.859L752.316 354.031L911.788 261.142L973.326 296.897L813.853 389.859ZM980.634 495.427L821.162 588.316V567.526L980.634 474.712V495.427ZM980.634 457.609L821.162 550.497V402.613L980.634 309.724V457.609Z" fill="black"/>
<ellipse cx="700" cy="553" rx="96" ry="103" fill="#E1AA57"/>
<ellipse cx="611" cy="421" rx="96" ry="103" fill="#E1AA57"/>
<ellipse cx="533" cy="471" rx="96" ry="103" fill="#E1AA57"/>
<ellipse cx="679" cy="462" rx="96" ry="103" fill="#E1AA57"/>
<ellipse cx="696" cy="467" rx="96" ry="103" fill="#E1AA57"/>
<ellipse cx="530" cy="553" rx="96" ry="103" fill="#E1AA57"/>
<ellipse cx="592" cy="586" rx="96" ry="103" fill="#E1AA57"/>
<ellipse cx="611" cy="600" rx="96" ry="103" fill="#E1AA57"/>
<ellipse cx="640" cy="594" rx="96" ry="103" fill="#E1AA57"/>
<rect x="666" y="355" width="34" height="19" fill="#FF5C00"/>
<rect x="654" y="364" width="34" height="19" fill="#FF5C00"/>
<rect x="632" y="373" width="34" height="19" fill="#FF5C00"/>
<rect x="623" y="382" width="34" height="19" fill="#FF5C00"/>
<rect x="640" y="373" width="34" height="19" fill="#FF5C00"/>
<rect x="604" y="391" width="34" height="19" fill="#FF5C00"/>
<rect x="587" y="401" width="34" height="19" fill="#FF5C00"/>
<rect x="577" y="410" width="34" height="19" fill="#FF5C00"/>
<rect x="558" y="419" width="34" height="19" fill="#FF5C00"/>
<rect x="544" y="428" width="34" height="19" fill="#FF5C00"/>
<rect x="527" y="437" width="34" height="19" fill="#FF5C00"/>
<rect x="516" y="443" width="34" height="19" fill="#FF5C00"/>
<rect x="510" y="462" width="34" height="24" fill="#FF5C00"/>
<rect x="506" y="483" width="34" height="24" fill="#FF5C00"/>
<path d="M793.766 405.294H793.255L792.816 404.852L618.508 303.191C616.247 301.874 613.46 301.874 611.199 303.191L437.183 404.557L436.671 404.999H436.16C434.852 406.112 433.974 407.651 433.675 409.349C433.639 409.568 433.639 409.793 433.675 410.012C433.639 410.208 433.639 410.407 433.675 410.602V613.335C433.665 615.978 435.059 618.426 437.329 619.748L611.199 721.483H611.711H612.368C613.954 722.171 615.752 722.171 617.338 721.483H617.996H618.508L792.597 620.117C794.867 618.794 796.261 616.347 796.251 613.703V410.971C796.251 410.971 796.251 410.602 796.251 410.381C796.251 410.16 796.251 409.939 796.251 409.718C795.969 407.992 795.088 406.425 793.766 405.294ZM698.171 366.665L538.698 459.479L521.889 449.674L681.361 356.86L698.171 366.665ZM531.39 472.233V501.721L514.434 491.916V462.428L531.39 472.233ZM614.853 318.156L666.744 348.308L507.272 441.196L455.381 410.971L614.853 318.156ZM607.545 702.316L448.146 609.427V588.712L607.545 681.526V702.316ZM607.545 664.497L448.146 571.682V423.724L499.817 453.876V496.413C499.822 499.073 501.246 501.524 503.544 502.827L535.044 521.036C536.151 521.699 537.411 522.054 538.698 522.068C542.735 522.068 546.007 518.767 546.007 514.696V480.784L607.545 516.613V664.497V664.497ZM614.853 503.859L553.316 468.031L712.788 375.142L774.326 410.897L614.853 503.859ZM781.634 609.427L622.162 702.316V681.526L781.634 588.712V609.427ZM781.634 571.609L622.162 664.497V516.613L781.634 423.724V571.609Z" fill="black"/>
<ellipse cx="506" cy="673" rx="96" ry="103" fill="#E1AA57"/>
<ellipse cx="417" cy="541" rx="96" ry="103" fill="#E1AA57"/>
<ellipse cx="339" cy="591" rx="96" ry="103" fill="#E1AA57"/>
<ellipse cx="485" cy="582" rx="96" ry="103" fill="#E1AA57"/>
<ellipse cx="502" cy="587" rx="96" ry="103" fill="#E1AA57"/>
<ellipse cx="336" cy="673" rx="96" ry="103" fill="#E1AA57"/>
<ellipse cx="398" cy="706" rx="96" ry="103" fill="#E1AA57"/>
<ellipse cx="417" cy="720" rx="96" ry="103" fill="#E1AA57"/>
<ellipse cx="446" cy="714" rx="96" ry="103" fill="#E1AA57"/>
<rect x="472" y="475" width="34" height="19" fill="#FF5C00"/>
<rect x="460" y="484" width="34" height="19" fill="#FF5C00"/>
<rect x="438" y="493" width="34" height="19" fill="#FF5C00"/>
<rect x="429" y="502" width="34" height="19" fill="#FF5C00"/>
<rect x="446" y="493" width="34" height="19" fill="#FF5C00"/>
<rect x="410" y="511" width="34" height="19" fill="#FF5C00"/>
<rect x="393" y="521" width="34" height="19" fill="#FF5C00"/>
<rect x="383" y="530" width="34" height="19" fill="#FF5C00"/>
<rect x="364" y="539" width="34" height="19" fill="#FF5C00"/>
<rect x="350" y="548" width="34" height="19" fill="#FF5C00"/>
<rect x="333" y="557" width="34" height="19" fill="#FF5C00"/>
<rect x="322" y="563" width="34" height="19" fill="#FF5C00"/>
<rect x="316" y="582" width="34" height="24" fill="#FF5C00"/>
<rect x="312" y="603" width="34" height="24" fill="#FF5C00"/>
<path d="M603.118 525.091H602.607L602.168 524.649L427.86 422.988C425.598 421.671 422.812 421.671 420.551 422.988L246.535 524.354L246.023 524.796H245.512C244.204 525.908 243.325 527.447 243.027 529.146C242.991 529.365 242.991 529.59 243.027 529.809C242.991 530.005 242.991 530.204 243.027 530.399V733.131C243.017 735.775 244.411 738.223 246.681 739.545L420.551 841.28H421.063H421.72C423.306 841.968 425.104 841.968 426.69 841.28H427.348H427.86L601.949 739.914C604.219 738.591 605.613 736.144 605.603 733.5V530.768C605.603 530.768 605.603 530.399 605.603 530.178C605.603 529.957 605.603 529.735 605.603 529.514C605.321 527.789 604.44 526.222 603.118 525.091ZM507.523 486.461L348.05 579.276L331.241 569.471L490.713 476.656L507.523 486.461ZM340.742 592.03V621.518L323.786 611.713V582.225L340.742 592.03ZM424.205 437.953L476.096 468.105L316.624 560.993L264.733 530.768L424.205 437.953ZM416.897 822.112L257.498 729.224V708.509L416.897 801.323V822.112ZM416.897 784.294L257.498 691.479V543.521L309.169 573.673V616.21C309.174 618.869 310.598 621.321 312.896 622.624L344.396 640.833C345.502 641.495 346.763 641.851 348.05 641.865C352.086 641.865 355.359 638.564 355.359 634.493V600.581L416.897 636.41V784.294V784.294ZM424.205 623.656L362.667 587.827L522.14 494.939L583.677 530.694L424.205 623.656ZM590.986 729.224L431.514 822.112V801.323L590.986 708.509V729.224ZM590.986 691.405L431.514 784.294V636.41L590.986 543.521V691.405Z" fill="black"/>
<ellipse cx="1085" cy="554.797" rx="96" ry="103" fill="#E1AA57"/>
<ellipse cx="996" cy="422.797" rx="96" ry="103" fill="#E1AA57"/>
<ellipse cx="918" cy="472.797" rx="96" ry="103" fill="#E1AA57"/>
<ellipse cx="1064" cy="463.797" rx="96" ry="103" fill="#E1AA57"/>
<ellipse cx="1081" cy="468.797" rx="96" ry="103" fill="#E1AA57"/>
<ellipse cx="915" cy="554.797" rx="96" ry="103" fill="#E1AA57"/>
<ellipse cx="977" cy="587.797" rx="96" ry="103" fill="#E1AA57"/>
<ellipse cx="996" cy="601.797" rx="96" ry="103" fill="#E1AA57"/>
<ellipse cx="1025" cy="595.797" rx="96" ry="103" fill="#E1AA57"/>
<rect x="1051" y="356.797" width="34" height="19" fill="#FF5C00"/>
<rect x="1039" y="365.797" width="34" height="19" fill="#FF5C00"/>
<rect x="1017" y="374.797" width="34" height="19" fill="#FF5C00"/>
<rect x="1008" y="383.797" width="34" height="19" fill="#FF5C00"/>
<rect x="1025" y="374.797" width="34" height="19" fill="#FF5C00"/>
<rect x="989" y="392.797" width="34" height="19" fill="#FF5C00"/>
<rect x="972" y="402.797" width="34" height="19" fill="#FF5C00"/>
<rect x="962" y="411.797" width="34" height="19" fill="#FF5C00"/>
<rect x="943" y="420.797" width="34" height="19" fill="#FF5C00"/>
<rect x="929" y="429.797" width="34" height="19" fill="#FF5C00"/>
<rect x="912" y="438.797" width="34" height="19" fill="#FF5C00"/>
<rect x="901" y="444.797" width="34" height="19" fill="#FF5C00"/>
<rect x="895" y="463.797" width="34" height="24" fill="#FF5C00"/>
<rect x="891" y="484.797" width="34" height="24" fill="#FF5C00"/>
<path d="M1178.77 407.091H1178.25L1177.82 406.649L1003.51 304.988C1001.25 303.671 998.46 303.671 996.199 304.988L822.183 406.354L821.671 406.796H821.16C819.852 407.908 818.974 409.447 818.675 411.146C818.639 411.365 818.639 411.59 818.675 411.809C818.639 412.005 818.639 412.204 818.675 412.399V615.131C818.665 617.775 820.059 620.223 822.329 621.545L996.199 723.28H996.711H997.368C998.954 723.968 1000.75 723.968 1002.34 723.28H1003H1003.51L1177.6 621.914C1179.87 620.591 1181.26 618.144 1181.25 615.5V412.768C1181.25 412.768 1181.25 412.399 1181.25 412.178C1181.25 411.957 1181.25 411.735 1181.25 411.514C1180.97 409.789 1180.09 408.222 1178.77 407.091ZM1083.17 368.461L923.698 461.276L906.889 451.471L1066.36 358.656L1083.17 368.461ZM916.39 474.03V503.518L899.434 493.713V464.225L916.39 474.03ZM999.853 319.953L1051.74 350.105L892.272 442.993L840.381 412.768L999.853 319.953ZM992.545 704.112L833.146 611.224V590.509L992.545 683.323V704.112ZM992.545 666.294L833.146 573.479V425.521L884.817 455.673V498.21C884.822 500.869 886.246 503.321 888.544 504.624L920.044 522.833C921.15 523.495 922.411 523.851 923.698 523.865C927.735 523.865 931.007 520.564 931.007 516.493V482.581L992.545 518.41V666.294V666.294ZM999.853 505.656L938.315 469.827L1097.79 376.939L1159.33 412.694L999.853 505.656ZM1166.63 611.224L1007.16 704.112V683.323L1166.63 590.509V611.224ZM1166.63 573.405L1007.16 666.294V518.41L1166.63 425.521V573.405Z" fill="black"/>
<g clip-path="url(#clip0)">
<ellipse cx="891" cy="672.797" rx="96" ry="103" fill="#E1AA57"/>
<ellipse cx="802" cy="540.797" rx="96" ry="103" fill="#E1AA57"/>
<ellipse cx="724" cy="590.797" rx="96" ry="103" fill="#E1AA57"/>
<ellipse cx="870" cy="581.797" rx="96" ry="103" fill="#E1AA57"/>
<ellipse cx="887" cy="586.797" rx="96" ry="103" fill="#E1AA57"/>
<ellipse cx="721" cy="672.797" rx="96" ry="103" fill="#E1AA57"/>
<ellipse cx="783" cy="705.797" rx="96" ry="103" fill="#E1AA57"/>
<ellipse cx="802" cy="719.797" rx="96" ry="103" fill="#E1AA57"/>
<ellipse cx="831" cy="713.797" rx="96" ry="103" fill="#E1AA57"/>
<rect x="857" y="474.797" width="34" height="19" fill="#FF5C00"/>
<rect x="845" y="483.797" width="34" height="19" fill="#FF5C00"/>
<rect x="823" y="492.797" width="34" height="19" fill="#FF5C00"/>
<rect x="814" y="501.797" width="34" height="19" fill="#FF5C00"/>
<rect x="831" y="492.797" width="34" height="19" fill="#FF5C00"/>
<rect x="795" y="510.797" width="34" height="19" fill="#FF5C00"/>
<rect x="778" y="520.797" width="34" height="19" fill="#FF5C00"/>
<rect x="768" y="529.797" width="34" height="19" fill="#FF5C00"/>
<rect x="749" y="538.797" width="34" height="19" fill="#FF5C00"/>
<rect x="735" y="547.797" width="34" height="19" fill="#FF5C00"/>
<rect x="718" y="556.797" width="34" height="19" fill="#FF5C00"/>
<rect x="707" y="562.797" width="34" height="19" fill="#FF5C00"/>
<rect x="701" y="581.797" width="34" height="24" fill="#FF5C00"/>
<rect x="697" y="602.797" width="34" height="24" fill="#FF5C00"/>
<path d="M984.766 525.091H984.255L983.816 524.649L809.508 422.988C807.247 421.671 804.46 421.671 802.199 422.988L628.183 524.354L627.671 524.796H627.16C625.852 525.908 624.974 527.447 624.675 529.146C624.639 529.365 624.639 529.59 624.675 529.809C624.639 530.005 624.639 530.204 624.675 530.399V733.131C624.665 735.775 626.059 738.223 628.329 739.545L802.199 841.28H802.711H803.368C804.954 841.968 806.752 841.968 808.338 841.28H808.996H809.508L983.597 739.914C985.867 738.591 987.261 736.144 987.251 733.5V530.768C987.251 530.768 987.251 530.399 987.251 530.178C987.251 529.957 987.251 529.735 987.251 529.514C986.969 527.789 986.088 526.222 984.766 525.091ZM889.171 486.461L729.698 579.276L712.889 569.471L872.361 476.656L889.171 486.461ZM722.39 592.03V621.518L705.434 611.713V582.225L722.39 592.03ZM805.853 437.953L857.744 468.105L698.272 560.993L646.381 530.768L805.853 437.953ZM798.545 822.112L639.146 729.224V708.509L798.545 801.323V822.112ZM798.545 784.294L639.146 691.479V543.521L690.817 573.673V616.21C690.822 618.87 692.246 621.321 694.544 622.624L726.044 640.833C727.151 641.495 728.411 641.851 729.698 641.865C733.735 641.865 737.007 638.564 737.007 634.493V600.581L798.545 636.41V784.294V784.294ZM805.853 623.656L744.316 587.827L903.788 494.939L965.326 530.694L805.853 623.656ZM972.634 729.224L813.162 822.112V801.323L972.634 708.509V729.224ZM972.634 691.405L813.162 784.294V636.41L972.634 543.521V691.405Z" fill="black"/>
</g>
<g clip-path="url(#clip1)">
<ellipse cx="700" cy="786.797" rx="96" ry="103" fill="#E1AA57"/>
<ellipse cx="611" cy="654.797" rx="96" ry="103" fill="#E1AA57"/>
<ellipse cx="533" cy="704.797" rx="96" ry="103" fill="#E1AA57"/>
<ellipse cx="679" cy="695.797" rx="96" ry="103" fill="#E1AA57"/>
<ellipse cx="696" cy="700.797" rx="96" ry="103" fill="#E1AA57"/>
<ellipse cx="530" cy="786.797" rx="96" ry="103" fill="#E1AA57"/>
<ellipse cx="592" cy="819.797" rx="96" ry="103" fill="#E1AA57"/>
<ellipse cx="611" cy="833.797" rx="96" ry="103" fill="#E1AA57"/>
<ellipse cx="640" cy="827.797" rx="96" ry="103" fill="#E1AA57"/>
<rect x="666" y="588.797" width="34" height="19" fill="#FF5C00"/>
<rect x="654" y="597.797" width="34" height="19" fill="#FF5C00"/>
<rect x="632" y="606.797" width="34" height="19" fill="#FF5C00"/>
<rect x="623" y="615.797" width="34" height="19" fill="#FF5C00"/>
<rect x="640" y="606.797" width="34" height="19" fill="#FF5C00"/>
<rect x="604" y="624.797" width="34" height="19" fill="#FF5C00"/>
<rect x="587" y="634.797" width="34" height="19" fill="#FF5C00"/>
<rect x="577" y="643.797" width="34" height="19" fill="#FF5C00"/>
<rect x="558" y="652.797" width="34" height="19" fill="#FF5C00"/>
<rect x="544" y="661.797" width="34" height="19" fill="#FF5C00"/>
<rect x="527" y="670.797" width="34" height="19" fill="#FF5C00"/>
<rect x="516" y="676.797" width="34" height="19" fill="#FF5C00"/>
<rect x="510" y="695.797" width="34" height="24" fill="#FF5C00"/>
<rect x="506" y="716.797" width="34" height="24" fill="#FF5C00"/>
<path d="M793.766 639.091H793.255L792.816 638.649L618.508 536.988C616.247 535.671 613.46 535.671 611.199 536.988L437.183 638.354L436.671 638.796H436.16C434.852 639.908 433.974 641.447 433.675 643.146C433.639 643.365 433.639 643.59 433.675 643.809C433.639 644.005 433.639 644.204 433.675 644.399V847.131C433.665 849.775 435.059 852.223 437.329 853.545L611.199 955.28H611.711H612.368C613.954 955.968 615.752 955.968 617.338 955.28H617.996H618.508L792.597 853.914C794.867 852.591 796.261 850.144 796.251 847.5V644.768C796.251 644.768 796.251 644.399 796.251 644.178C796.251 643.957 796.251 643.735 796.251 643.514C795.969 641.789 795.088 640.222 793.766 639.091ZM698.171 600.461L538.698 693.276L521.889 683.471L681.361 590.656L698.171 600.461ZM531.39 706.03V735.518L514.434 725.713V696.225L531.39 706.03ZM614.853 551.953L666.744 582.105L507.272 674.993L455.381 644.768L614.853 551.953ZM607.545 936.112L448.146 843.224V822.509L607.545 915.323V936.112ZM607.545 898.294L448.146 805.479V657.521L499.817 687.673V730.21C499.822 732.87 501.246 735.321 503.544 736.624L535.044 754.833C536.151 755.495 537.411 755.851 538.698 755.865C542.735 755.865 546.007 752.564 546.007 748.493V714.581L607.545 750.41V898.294V898.294ZM614.853 737.656L553.316 701.827L712.788 608.939L774.326 644.694L614.853 737.656ZM781.634 843.224L622.162 936.112V915.323L781.634 822.509V843.224ZM781.634 805.405L622.162 898.294V750.41L781.634 657.521V805.405Z" fill="black"/>
</g>
<g clip-path="url(#clip2)">
<ellipse cx="1284" cy="672.797" rx="96" ry="103" fill="#E1AA57"/>
<ellipse cx="1195" cy="540.797" rx="96" ry="103" fill="#E1AA57"/>
<ellipse cx="1117" cy="590.797" rx="96" ry="103" fill="#E1AA57"/>
<ellipse cx="1263" cy="581.797" rx="96" ry="103" fill="#E1AA57"/>
<ellipse cx="1280" cy="586.797" rx="96" ry="103" fill="#E1AA57"/>
<ellipse cx="1114" cy="672.797" rx="96" ry="103" fill="#E1AA57"/>
<ellipse cx="1176" cy="705.797" rx="96" ry="103" fill="#E1AA57"/>
<ellipse cx="1195" cy="719.797" rx="96" ry="103" fill="#E1AA57"/>
<ellipse cx="1224" cy="713.797" rx="96" ry="103" fill="#E1AA57"/>
<rect x="1250" y="474.797" width="34" height="19" fill="#FF5C00"/>
<rect x="1238" y="483.797" width="34" height="19" fill="#FF5C00"/>
<rect x="1216" y="492.797" width="34" height="19" fill="#FF5C00"/>
<rect x="1207" y="501.797" width="34" height="19" fill="#FF5C00"/>
<rect x="1224" y="492.797" width="34" height="19" fill="#FF5C00"/>
<rect x="1188" y="510.797" width="34" height="19" fill="#FF5C00"/>
<rect x="1171" y="520.797" width="34" height="19" fill="#FF5C00"/>
<rect x="1161" y="529.797" width="34" height="19" fill="#FF5C00"/>
<rect x="1142" y="538.797" width="34" height="19" fill="#FF5C00"/>
<rect x="1128" y="547.797" width="34" height="19" fill="#FF5C00"/>
<rect x="1111" y="556.797" width="34" height="19" fill="#FF5C00"/>
<rect x="1100" y="562.797" width="34" height="19" fill="#FF5C00"/>
<rect x="1094" y="581.797" width="34" height="24" fill="#FF5C00"/>
<rect x="1090" y="602.797" width="34" height="24" fill="#FF5C00"/>
<path d="M1377.77 525.091H1377.25L1376.82 524.649L1202.51 422.988C1200.25 421.671 1197.46 421.671 1195.2 422.988L1021.18 524.354L1020.67 524.796H1020.16C1018.85 525.908 1017.97 527.447 1017.67 529.146C1017.64 529.365 1017.64 529.59 1017.67 529.809C1017.64 530.005 1017.64 530.204 1017.67 530.399V733.131C1017.66 735.775 1019.06 738.223 1021.33 739.545L1195.2 841.28H1195.71H1196.37C1197.95 841.968 1199.75 841.968 1201.34 841.28H1202H1202.51L1376.6 739.914C1378.87 738.591 1380.26 736.144 1380.25 733.5V530.768C1380.25 530.768 1380.25 530.399 1380.25 530.178C1380.25 529.957 1380.25 529.735 1380.25 529.514C1379.97 527.789 1379.09 526.222 1377.77 525.091ZM1282.17 486.461L1122.7 579.276L1105.89 569.471L1265.36 476.656L1282.17 486.461ZM1115.39 592.03V621.518L1098.43 611.713V582.225L1115.39 592.03ZM1198.85 437.953L1250.74 468.105L1091.27 560.993L1039.38 530.768L1198.85 437.953ZM1191.54 822.112L1032.15 729.224V708.509L1191.54 801.323V822.112ZM1191.54 784.294L1032.15 691.479V543.521L1083.82 573.673V616.21C1083.82 618.87 1085.25 621.321 1087.54 622.624L1119.04 640.833C1120.15 641.495 1121.41 641.851 1122.7 641.865C1126.73 641.865 1130.01 638.564 1130.01 634.493V600.581L1191.54 636.41V784.294V784.294ZM1198.85 623.656L1137.32 587.827L1296.79 494.939L1358.33 530.694L1198.85 623.656ZM1365.63 729.224L1206.16 822.112V801.323L1365.63 708.509V729.224ZM1365.63 691.405L1206.16 784.294V636.41L1365.63 543.521V691.405Z" fill="black"/>
</g>
<g clip-path="url(#clip3)">
<ellipse cx="1085" cy="786.797" rx="96" ry="103" fill="#E1AA57"/>
<ellipse cx="996" cy="654.797" rx="96" ry="103" fill="#E1AA57"/>
<ellipse cx="918" cy="704.797" rx="96" ry="103" fill="#E1AA57"/>
<ellipse cx="1064" cy="695.797" rx="96" ry="103" fill="#E1AA57"/>
<ellipse cx="1081" cy="700.797" rx="96" ry="103" fill="#E1AA57"/>
<ellipse cx="915" cy="786.797" rx="96" ry="103" fill="#E1AA57"/>
<ellipse cx="977" cy="819.797" rx="96" ry="103" fill="#E1AA57"/>
<ellipse cx="996" cy="833.797" rx="96" ry="103" fill="#E1AA57"/>
<ellipse cx="1025" cy="827.797" rx="96" ry="103" fill="#E1AA57"/>
<rect x="1051" y="588.797" width="34" height="19" fill="#FF5C00"/>
<rect x="1039" y="597.797" width="34" height="19" fill="#FF5C00"/>
<rect x="1017" y="606.797" width="34" height="19" fill="#FF5C00"/>
<rect x="1008" y="615.797" width="34" height="19" fill="#FF5C00"/>
<rect x="1025" y="606.797" width="34" height="19" fill="#FF5C00"/>
<rect x="989" y="624.797" width="34" height="19" fill="#FF5C00"/>
<rect x="972" y="634.797" width="34" height="19" fill="#FF5C00"/>
<rect x="962" y="643.797" width="34" height="19" fill="#FF5C00"/>
<rect x="943" y="652.797" width="34" height="19" fill="#FF5C00"/>
<rect x="929" y="661.797" width="34" height="19" fill="#FF5C00"/>
<rect x="912" y="670.797" width="34" height="19" fill="#FF5C00"/>
<rect x="901" y="676.797" width="34" height="19" fill="#FF5C00"/>
<rect x="895" y="695.797" width="34" height="24" fill="#FF5C00"/>
<rect x="891" y="716.797" width="34" height="24" fill="#FF5C00"/>
<path d="M1178.77 639.091H1178.25L1177.82 638.649L1003.51 536.988C1001.25 535.671 998.46 535.671 996.199 536.988L822.183 638.354L821.671 638.796H821.16C819.852 639.908 818.974 641.447 818.675 643.146C818.639 643.365 818.639 643.59 818.675 643.809C818.639 644.005 818.639 644.204 818.675 644.399V847.131C818.665 849.775 820.059 852.223 822.329 853.545L996.199 955.28H996.711H997.368C998.954 955.968 1000.75 955.968 1002.34 955.28H1003H1003.51L1177.6 853.914C1179.87 852.591 1181.26 850.144 1181.25 847.5V644.768C1181.25 644.768 1181.25 644.399 1181.25 644.178C1181.25 643.957 1181.25 643.735 1181.25 643.514C1180.97 641.789 1180.09 640.222 1178.77 639.091ZM1083.17 600.461L923.698 693.276L906.889 683.471L1066.36 590.656L1083.17 600.461ZM916.39 706.03V735.518L899.434 725.713V696.225L916.39 706.03ZM999.853 551.953L1051.74 582.105L892.272 674.993L840.381 644.768L999.853 551.953ZM992.545 936.112L833.146 843.224V822.509L992.545 915.323V936.112ZM992.545 898.294L833.146 805.479V657.521L884.817 687.673V730.21C884.822 732.87 886.246 735.321 888.544 736.624L920.044 754.833C921.151 755.495 922.411 755.851 923.698 755.865C927.735 755.865 931.007 752.564 931.007 748.493V714.581L992.545 750.41V898.294V898.294ZM999.853 737.656L938.316 701.827L1097.79 608.939L1159.33 644.694L999.853 737.656ZM1166.63 843.224L1007.16 936.112V915.323L1166.63 822.509V843.224ZM1166.63 805.405L1007.16 898.294V750.41L1166.63 657.521V805.405Z" fill="black"/>
</g>
<ellipse cx="896" cy="901" rx="96" ry="103" fill="#E1AA57"/>
<ellipse cx="807" cy="769" rx="96" ry="103" fill="#E1AA57"/>
<ellipse cx="729" cy="819" rx="96" ry="103" fill="#E1AA57"/>
<ellipse cx="875" cy="810" rx="96" ry="103" fill="#E1AA57"/>
<ellipse cx="892" cy="815" rx="96" ry="103" fill="#E1AA57"/>
<ellipse cx="726" cy="901" rx="96" ry="103" fill="#E1AA57"/>
<ellipse cx="788" cy="934" rx="96" ry="103" fill="#E1AA57"/>
<ellipse cx="807" cy="948" rx="96" ry="103" fill="#E1AA57"/>
<ellipse cx="836" cy="942" rx="96" ry="103" fill="#E1AA57"/>
<rect x="862" y="703" width="34" height="19" fill="#FF5C00"/>
<rect x="850" y="712" width="34" height="19" fill="#FF5C00"/>
<rect x="828" y="721" width="34" height="19" fill="#FF5C00"/>
<rect x="819" y="730" width="34" height="19" fill="#FF5C00"/>
<rect x="836" y="721" width="34" height="19" fill="#FF5C00"/>
<rect x="800" y="739" width="34" height="19" fill="#FF5C00"/>
<rect x="783" y="749" width="34" height="19" fill="#FF5C00"/>
<rect x="773" y="758" width="34" height="19" fill="#FF5C00"/>
<rect x="754" y="767" width="34" height="19" fill="#FF5C00"/>
<rect x="740" y="776" width="34" height="19" fill="#FF5C00"/>
<rect x="723" y="785" width="34" height="19" fill="#FF5C00"/>
<rect x="712" y="791" width="34" height="19" fill="#FF5C00"/>
<rect x="706" y="810" width="34" height="24" fill="#FF5C00"/>
<rect x="702" y="831" width="34" height="24" fill="#FF5C00"/>
<path d="M989.118 753.294H988.607L988.168 752.852L813.86 651.191C811.598 649.874 808.812 649.874 806.551 651.191L632.535 752.557L632.023 752.999H631.512C630.204 754.112 629.325 755.651 629.027 757.349C628.991 757.568 628.991 757.793 629.027 758.012C628.991 758.208 628.991 758.407 629.027 758.602V961.335C629.017 963.978 630.411 966.426 632.681 967.748L806.551 1069.48H807.063H807.72C809.306 1070.17 811.104 1070.17 812.69 1069.48H813.348H813.86L987.949 968.117C990.219 966.794 991.613 964.347 991.603 961.703V758.971C991.603 758.971 991.603 758.602 991.603 758.381C991.603 758.16 991.603 757.939 991.603 757.718C991.321 755.992 990.44 754.425 989.118 753.294ZM893.523 714.665L734.05 807.479L717.241 797.674L876.713 704.86L893.523 714.665ZM726.742 820.233V849.721L709.786 839.916V810.428L726.742 820.233ZM810.205 666.156L862.096 696.308L702.624 789.196L650.733 758.971L810.205 666.156ZM802.897 1050.32L643.498 957.427V936.712L802.897 1029.53V1050.32ZM802.897 1012.5L643.498 919.682V771.724L695.169 801.876V844.413C695.174 847.073 696.598 849.524 698.896 850.827L730.396 869.036C731.502 869.699 732.763 870.054 734.05 870.068C738.086 870.068 741.359 866.767 741.359 862.696V828.784L802.897 864.613V1012.5V1012.5ZM810.205 851.859L748.667 816.031L908.14 723.142L969.677 758.897L810.205 851.859ZM976.986 957.427L817.514 1050.32V1029.53L976.986 936.712V957.427ZM976.986 919.609L817.514 1012.5V864.613L976.986 771.724V919.609Z" fill="black"/>
<defs>
<clipPath id="clip0">
<rect x="576" y="377.797" width="460" height="464" fill="white"/>
</clipPath>
<clipPath id="clip1">
<rect x="385" y="491.797" width="460" height="464" fill="white"/>
</clipPath>
<clipPath id="clip2">
<rect x="969" y="421.797" width="460" height="420" fill="white"/>
</clipPath>
<clipPath id="clip3">
<rect x="770" y="491.797" width="460" height="464" fill="white"/>
</clipPath>
</defs>
</svg>
