<?xml version="1.0" encoding="UTF-8"?>
<!DOCTYPE svg PUBLIC "-//W3C//DTD SVG 1.1//EN" "http://www.w3.org/Graphics/SVG/1.1/DTD/svg11.dtd">
<!-- Creator: CorelDRAW X7 -->
<svg xmlns="http://www.w3.org/2000/svg" xml:space="preserve" width="100%" height="100%" version="1.1" style="shape-rendering:geometricPrecision; text-rendering:geometricPrecision; image-rendering:optimizeQuality; fill-rule:evenodd; clip-rule:evenodd"
viewBox="0 0 1729 1729"
 xmlns:xlink="http://www.w3.org/1999/xlink">
 <defs>
  <style type="text/css">
   <![CDATA[
    .fil0 {fill:white}
    .fil1 {fill:#2A4357;fill-rule:nonzero}
    .fil2 {fill:#526777;fill-rule:nonzero}
    .fil3 {fill:#FFE348;fill-rule:nonzero}
   ]]>
  </style>
 </defs>
 <g id="Layer_x0020_1">
  <metadata id="CorelCorpID_0Corel-Layer"/>
  <rect class="fil0" width="1729" height="1729"/>
  <path class="fil1" d="M665 268c34,11 67,22 99,34 4,-4 7,-8 8,-12l78 27 0 1184 -82 0 0 30 194 0 0 -30 -83 0 0 -1184 77 -27c2,4 4,8 8,12 32,-12 65,-23 100,-34 35,-10 68,-20 101,-29 2,-5 2,-10 0,-14 -8,-28 -62,-35 -120,-17 -39,12 -71,33 -84,54l-82 40 0 -81 -29 0 0 81 -83 -40c-13,-21 -44,-42 -84,-54 -58,-18 -111,-11 -120,17 -1,4 -1,9 0,14 33,9 67,19 102,29z"/>
  <path class="fil2" d="M1000 289c20,-7 42,-14 64,-21 35,-10 68,-20 101,-29 2,-5 2,-10 0,-14 -8,-26 -57,-34 -112,-20l-53 84z"/>
  <path class="fil2" d="M665 268c21,7 42,14 62,21l-54 -84c-53,-14 -102,-6 -110,20 -1,4 -1,9 0,14 33,9 67,19 102,29z"/>
  <path class="fil3" d="M671 278c-3,-1 -6,-2 -9,-3 -11,-3 -23,-7 -35,-10 4,6 11,12 20,14 9,3 17,2 24,-1z"/>
  <polygon class="fil3" points="614,289 426,418 444,445 "/>
  <polygon class="fil3" points="534,555 635,297 499,542 "/>
  <polygon class="fil3" points="657,304 657,515 695,515 "/>
  <path class="fil3" d="M1101 265c-11,3 -23,7 -35,10 -3,1 -5,2 -8,3 6,3 15,4 24,1 9,-2 16,-8 19,-14z"/>
  <polygon class="fil3" points="1302,418 1114,289 1284,445 "/>
  <polygon class="fil3" points="1229,542 1094,297 1195,555 "/>
  <polygon class="fil3" points="1072,515 1072,304 1034,515 "/>
 </g>
</svg>
