<svg height="512pt" viewBox="0 0 512 512" width="512pt" xmlns="http://www.w3.org/2000/svg"><path d="m301 482v30h-90v-30l45-15zm0 0" fill="#66333e"/><path d="m301 482v30h-45v-45zm0 0" fill="#3c1b13"/><path d="m301 422v30l-45 15-45-15v-30l45-15zm0 0" fill="#66333e"/><path d="m301 422v30l-45 15v-60zm0 0" fill="#3c1b13"/><path d="m151 452h210v30h-210zm0 0" fill="#8c4a50"/><path d="m256 452h105v30h-105zm0 0" fill="#66333e"/><path d="m389.199219 180-30 242h-73.199219v-75c0-16.5-13.5-30-30-30 16.5 0 30-13.5 30-30 0-5.101562-1.5-10.5-3.898438-15l-26.101562-45-25.800781 45c-2.699219 4.5-4.199219 9.898438-4.199219 15 0 16.5 13.5 30 30 30-16.5 0-30 13.5-30 30v75h-73.199219l-30-242 28.199219-13h210zm0 0" fill="#fdbf4c"/><path d="m389.199219 180-30 242h-73.199219v-75c0-16.5-13.5-30-30-30v-150h105zm0 0" fill="#ff914c"/><path d="m256 302c-24.902344 0-45 20.097656-45 45v75h90v-75c0-24.902344-20.097656-45-45-45zm0 0" fill="#f72635"/><path d="m301 347v75h-45v-120c24.902344 0 45 20.097656 45 45zm0 0" fill="#ba000e"/><g fill="#dadff2"><path d="m0 32h30v30h-30zm0 0"/><path d="m60 92h30v30h-30zm0 0"/><path d="m0 152h30v30h-30zm0 0"/><path d="m60 212h30v30h-30zm0 0"/><path d="m0 272h30v30h-30zm0 0"/><path d="m120 32h30v30h-30zm0 0"/></g><path d="m482 32h30v30h-30zm0 0" fill="#b9cee3"/><path d="m420 92h30v30h-30zm0 0" fill="#b9cee3"/><path d="m482 152h30v30h-30zm0 0" fill="#b9cee3"/><path d="m482 272h30v30h-30zm0 0" fill="#b9cee3"/><path d="m420 212h30v30h-30zm0 0" fill="#b9cee3"/><path d="m360 32h30v30h-30zm0 0" fill="#b9cee3"/><path d="m295 264.5-39-67.5-39 67.5c-3.898438 6.898438-6 14.699219-6 22.5 0 24.898438 20.097656 45 45 45s45-20.101562 45-45c0-7.800781-2.101562-15.601562-6-22.5zm0 0" fill="#ffda79"/><path d="m256 332v-135l39 67.5c3.898438 6.898438 6 14.699219 6 22.5 0 24.898438-20.097656 45-45 45zm0 0" fill="#fdbf4c"/><path d="m381.097656 150c-2.699218-2.101562-66.296875-49.800781-95.398437-71.398438 9.300781-8.402343 15.300781-20.101562 15.300781-33.601562 0-24.902344-20.097656-45-45-45s-45 20.097656-45 45c0 13.5 6 25.199219 15.300781 33.601562-30.300781 22.5-95.402343 71.398438-95.402343 71.398438h-39.898438v30h330c0-17.402344 0-12.601562 0-30zm-125.097656-90c-8.402344 0-15-6.601562-15-15 0-8.402344 6.597656-15 15-15s15 6.597656 15 15c0 8.398438-6.597656 15-15 15zm0 0" fill="#8c4a50"/><path d="m421 150v30h-165v-120c8.402344 0 15-6.601562 15-15 0-8.402344-6.597656-15-15-15v-30c24.902344 0 45 20.097656 45 45 0 13.5-6 25.199219-15.300781 33.601562 29.101562 21.597657 92.703125 69.296876 95.402343 71.398438zm0 0" fill="#66333e"/></svg>