<svg id="Capa_1" enable-background="new 0 0 512 512" height="512" viewBox="0 0 512 512" width="512" xmlns="http://www.w3.org/2000/svg"><g><g><path d="m376 196v-126h-240v66h-126v366h492v-306z" fill="#eefaff"/><g fill="#b3f1ff"><path d="m442 256v180h60c0-36.04 0-144.089 0-180z"/><path d="m196 136v240h120c0-47.869 0-185.21 0-240-14.518 0-105.386 0-120 0z"/><path d="m196 436h120v66h-120z"/><path d="m10 196v240h60c0-56.605 0-186.458 0-240z"/><path d="m196 10h120v60h-120z"/></g></g><g><path d="m502 186h-116v-116c0-5.522-4.478-10-10-10h-50v-40h20c5.522 0 10-4.478 10-10s-4.478-10-10-10h-180c-5.523 0-10 4.478-10 10s4.477 10 10 10h20v40h-50c-5.523 0-10 4.478-10 10v56h-116c-5.523 0-10 4.478-10 10v366c0 5.522 4.477 10 10 10h492c5.522 0 10-4.478 10-10v-306c0-5.522-4.478-10-10-10zm-50 140h40v40h-40zm0-20v-40h40v40zm0 80h40v40h-40zm-246-366h100v40h-100zm-146 346h-40v-40h40zm0-60h-40v-40h40zm-40 80h40v40h-40zm40-140h-40v-40h40zm-40 200h50c5.523 0 10-4.478 10-10v-240c0-5.522-4.477-10-10-10h-50v-40h106v346h-106zm286 46h-100v-46h100zm80 0v-101c0-5.522-4.478-10-10-10s-10 4.478-10 10v101h-40v-56c0-5.522-4.478-10-10-10h-120c-5.523 0-10 4.478-10 10v56h-40v-412h220v221c0 5.522 4.478 10 10 10s10-4.478 10-10v-95h106v40h-50c-5.522 0-10 4.478-10 10v180c0 5.522 4.478 10 10 10h50v46z"/><path d="m316 126h-120c-5.523 0-10 4.478-10 10v240c0 5.522 4.477 10 10 10h120c5.522 0 10-4.478 10-10v-240c0-5.522-4.478-10-10-10zm-70 120h-40v-40h40zm20-40h40v40h-40zm-60 60h40v40h-40zm60 0h40v40h-40zm40-80h-40v-40h40zm-60-40v40h-40v-40zm-40 180h40v40h-40zm60 40v-40h40v40z"/><circle cx="376" cy="346" r="10"/></g></g></svg>