<svg id="Capa_1" enable-background="new 0 0 512 512" height="512" viewBox="0 0 512 512" width="512" xmlns="http://www.w3.org/2000/svg"><g><path d="m202.938 144.72c-3.111 0-5.934-1.872-7.135-4.766l-15.544-37.471h-31.923c-4.267 0-7.726-3.459-7.726-7.726s3.459-7.726 7.726-7.726h37.082c3.124 0 5.94 1.881 7.137 4.766l9.379 22.61 20.161-64.202c1.011-3.22 3.996-5.411 7.371-5.411s6.36 2.191 7.371 5.411l19.157 61.002 19.156-61.002c1.011-3.22 3.996-5.411 7.371-5.411s6.36 2.191 7.371 5.411l20.165 64.204 9.379-22.611c1.197-2.885 4.013-4.766 7.137-4.766h40.005c4.268 0 7.726 3.459 7.726 7.726s-3.459 7.726-7.726 7.726h-34.845l-15.544 37.471c-1.245 3.002-4.224 4.905-7.48 4.759-3.246-.144-6.054-2.304-7.028-5.403l-19.16-61.004-19.156 61.003c-1.012 3.22-3.996 5.411-7.372 5.411-3.375 0-6.36-2.191-7.371-5.411l-19.157-61.002-19.156 61.002c-.973 3.1-3.782 5.26-7.028 5.404-.113.004-.229.006-.343.006z" fill="#c5e2ff"/><g><g><g><g><g><path d="m108.992 105.226v333.773h-34.575v-333.773c0-9.553 7.735-17.288 17.288-17.288 9.542 0 17.287 7.735 17.287 17.288z" fill="#fcb44d"/><g fill="#fca62f"><path d="m108.992 105.226v68.2c-5.566 1.239-11.36 1.879-17.288 1.879s-11.721-.64-17.288-1.879v-68.2c0-9.553 7.735-17.288 17.288-17.288 9.543 0 17.288 7.735 17.288 17.288z"/><path d="m74.417 220.858h34.575v37.715h-34.575z"/><path d="m74.417 300.036h34.575v30.31h-34.575z"/><path d="m74.417 361.999h34.575v40.121h-34.575z"/></g><path d="m174.537 477.146h-165.672c-4.896 0-8.865-3.969-8.865-8.865v-17.914c0-9.792 7.938-17.73 17.73-17.73h147.942c9.792 0 17.73 7.938 17.73 17.73v17.914c0 4.896-3.969 8.865-8.865 8.865z" fill="#fddaa9"/><path d="m183.402 450.365v17.916c0 4.893-3.972 8.865-8.865 8.865h-30.141c4.894 0 8.865-3.972 8.865-8.865v-17.916c0-9.787-7.934-17.73-17.73-17.73h30.141c9.796 0 17.73 7.943 17.73 17.73z" fill="#ffc988"/></g><g><circle cx="91.701" cy="94.757" fill="#64b9fc" r="59.899"/><path d="m151.594 94.76c0 33.084-26.81 59.893-59.893 59.893-6.606 0-12.949-1.064-18.891-3.054 23.824-7.905 41.002-30.361 41.002-56.839s-17.177-48.948-41.002-56.852c5.942-1.99 12.285-3.054 18.891-3.054 33.083-.001 59.893 26.822 59.893 59.906z" fill="#31a7fb"/></g></g><g><path d="m128.337 237.916h-73.96c-9.609 0-17.398-7.79-17.398-17.398 0-9.609 7.79-17.398 17.398-17.398h73.961c9.609 0 17.398 7.79 17.398 17.398 0 9.609-7.79 17.398-17.399 17.398z" fill="#c5e2ff"/><path d="m145.74 220.522c0 4.802-1.952 9.15-5.102 12.3-3.15 3.139-7.497 5.091-12.3 5.091h-25.694c4.802 0 9.15-1.952 12.3-5.091 3.15-3.15 5.102-7.498 5.102-12.3 0-9.615-7.797-17.401-17.401-17.401h25.694c9.604 0 17.401 7.786 17.401 17.401z" fill="#8dcafc"/></g><g><path d="m137.119 309.69h-91.525c-9.609 0-17.398-7.79-17.398-17.398 0-9.609 7.79-17.398 17.398-17.398h91.525c9.609 0 17.398 7.79 17.398 17.398.001 9.608-7.789 17.398-17.398 17.398z" fill="#c5e2ff"/><path d="m154.522 292.295c0 4.802-1.952 9.15-5.102 12.3-3.15 3.139-7.497 5.091-12.3 5.091h-25.694c4.802 0 9.15-1.952 12.3-5.091 3.15-3.15 5.102-7.497 5.102-12.3 0-9.615-7.797-17.401-17.401-17.401h25.694c9.604 0 17.401 7.787 17.401 17.401z" fill="#8dcafc"/></g><g><path d="m148.829 381.463h-114.944c-9.609 0-17.398-7.789-17.398-17.398 0-9.609 7.79-17.398 17.398-17.398h114.944c9.609 0 17.398 7.789 17.398 17.398 0 9.609-7.789 17.398-17.398 17.398z" fill="#c5e2ff"/><path d="m166.231 364.069c0 4.802-1.952 9.15-5.102 12.3-3.15 3.139-7.498 5.091-12.3 5.091h-25.694c4.802 0 9.15-1.952 12.3-5.091 3.15-3.15 5.102-7.497 5.102-12.3 0-9.615-7.797-17.401-17.401-17.401h25.694c9.604 0 17.401 7.786 17.401 17.401z" fill="#8dcafc"/></g></g></g><g><g><g><g><path d="m437.59 105.226v333.773h-34.575v-333.773c0-9.553 7.735-17.288 17.288-17.288 9.541 0 17.287 7.735 17.287 17.288z" fill="#fcb44d"/><g fill="#fca62f"><path d="m437.59 105.226v68.2c-5.566 1.239-11.36 1.879-17.288 1.879s-11.721-.64-17.288-1.879v-68.2c0-9.553 7.735-17.288 17.288-17.288 9.542 0 17.288 7.735 17.288 17.288z"/><path d="m403.014 220.858h34.575v37.715h-34.575z"/><path d="m403.014 300.036h34.575v30.31h-34.575z"/><path d="m403.014 361.999h34.575v40.121h-34.575z"/></g><path d="m503.135 477.146h-165.672c-4.896 0-8.865-3.969-8.865-8.865v-17.914c0-9.792 7.938-17.73 17.73-17.73h147.942c9.792 0 17.73 7.938 17.73 17.73v17.914c0 4.896-3.969 8.865-8.865 8.865z" fill="#fddaa9"/><path d="m512 450.365v17.916c0 4.893-3.972 8.865-8.865 8.865h-30.141c4.894 0 8.865-3.972 8.865-8.865v-17.916c0-9.787-7.934-17.73-17.73-17.73h30.141c9.796 0 17.73 7.943 17.73 17.73z" fill="#ffc988"/></g><g><circle cx="420.299" cy="94.757" fill="#64b9fc" r="59.899"/><path d="m480.192 94.76c0 33.084-26.81 59.893-59.893 59.893-6.606 0-12.949-1.064-18.891-3.054 23.824-7.905 41.002-30.361 41.002-56.839s-17.177-48.948-41.002-56.852c5.942-1.99 12.285-3.054 18.891-3.054 33.083-.001 59.893 26.822 59.893 59.906z" fill="#31a7fb"/></g></g><g><path d="m456.935 237.916h-73.961c-9.609 0-17.398-7.79-17.398-17.398 0-9.609 7.79-17.398 17.398-17.398h73.961c9.609 0 17.398 7.79 17.398 17.398 0 9.609-7.789 17.398-17.398 17.398z" fill="#c5e2ff"/><path d="m474.337 220.522c0 4.802-1.952 9.15-5.102 12.3-3.15 3.139-7.497 5.091-12.3 5.091h-25.694c4.802 0 9.15-1.952 12.3-5.091 3.15-3.15 5.102-7.498 5.102-12.3 0-9.615-7.797-17.401-17.401-17.401h25.694c9.604 0 17.401 7.786 17.401 17.401z" fill="#8dcafc"/></g><g><path d="m465.717 309.69h-91.525c-9.609 0-17.398-7.79-17.398-17.398 0-9.609 7.79-17.398 17.398-17.398h91.525c9.609 0 17.398 7.79 17.398 17.398 0 9.608-7.789 17.398-17.398 17.398z" fill="#c5e2ff"/><path d="m483.119 292.295c0 4.802-1.952 9.15-5.102 12.3-3.15 3.139-7.497 5.091-12.3 5.091h-25.694c4.802 0 9.15-1.952 12.3-5.091 3.15-3.15 5.102-7.497 5.102-12.3 0-9.615-7.797-17.401-17.401-17.401h25.694c9.605 0 17.401 7.787 17.401 17.401z" fill="#8dcafc"/></g><g><path d="m477.427 381.463h-114.944c-9.609 0-17.398-7.789-17.398-17.398 0-9.609 7.789-17.398 17.398-17.398h114.944c9.609 0 17.398 7.789 17.398 17.398 0 9.609-7.79 17.398-17.398 17.398z" fill="#c5e2ff"/><path d="m494.829 364.069c0 4.802-1.952 9.15-5.102 12.3-3.15 3.139-7.497 5.091-12.3 5.091h-25.694c4.802 0 9.15-1.952 12.3-5.091 3.15-3.15 5.102-7.497 5.102-12.3 0-9.615-7.797-17.401-17.401-17.401h25.694c9.604 0 17.401 7.786 17.401 17.401z" fill="#8dcafc"/></g></g></g></g></g></svg>