<svg id="Capa_1" enable-background="new 0 0 496.11 496.11" height="512" viewBox="0 0 496.11 496.11" width="512" xmlns="http://www.w3.org/2000/svg"><path d="m288.06 263.16h-55.113l-79.747 14.49-127.49 63.47v144.54c0 5.77 4.69 10.45 10.46 10.45h251.89l24.66-15.747v-173.054z" fill="#fccd7f"/><path d="m442.33 277.65h-100.593l-16.899-14.49h-36.778v14.49 216.16 2.3h50.16v-4.597h84.04v4.597h34.5c5.78 0 10.46-4.68 10.46-10.45v-142.38-24.63z" fill="#fdd79b"/><g id="XMLID_923_"><path d="m288.06 263.16h-55.113l-79.747 14.49-95.736 47.662-31.754 15.808v144.54c0 5.771 4.678 10.45 10.45 10.45h43.348c-5.77 0-10.46-4.68-10.46-10.45v-87.215c0-17.853 14.472-32.325 32.325-32.325h126.677c9.128 0 17.827-4.375 23.257-11.686l50.115-67.353z" fill="#fbc56d"/></g><g id="XMLID_935_"><g><path d="m341.737 277.65-16.899-14.49h-36.778v14.49 27.394l36.73 49.373c5.443 7.328 14.142 11.703 23.27 11.703h119.16v-22.84-24.63l-24.89-41z" fill="#fccd7f"/><path d="m491.95 334.74c1.96 2.64.08 6.38-3.2 6.38h-140.69c-1.26 0-2.45-.6-3.2-1.61l-56.8-76.35h149.125c.953 0 1.851.451 2.42 1.216z" fill="#fddeb0"/><path d="m487.857 329.239 4.093 5.502c1.96 2.64.08 6.38-3.2 6.38h-140.69c-1.26 0-2.45-.6-3.2-1.61l-56.8-76.35h24.314l42.686 57.146c4.186 5.604 10.77 8.905 17.765 8.907z" fill="#fdd79b"/><path d="m288.06 263.16-56.81 76.35c-.75 1.01-1.94 1.61-3.2 1.61h-220.69c-3.28 0-5.16-3.74-3.2-6.38l52.34-70.357c.573-.77 1.476-1.223 2.435-1.223z" fill="#fddeb0"/><path d="m49.274 324.126c-3.28 0-5.16-3.74-3.2-6.38l40.608-54.586h-27.747c-.959 0-1.862.454-2.435 1.223l-52.34 70.357c-1.96 2.64-.08 6.38 3.2 6.38h220.69c1.26 0 2.45-.6 3.2-1.61l11.447-15.384z" fill="#fdd79b"/></g></g><g id="XMLID_932_"><g><path d="m422.26 495.11v1h-84.04v-1-87.22c0-2.73 2.68-4.67 5.27-3.8l36.75 12.24 38.09-12.69c1.93-.64 3.93.8 3.93 2.83z" fill="#fef1da"/></g></g><path d="m288.057 170.234v-8.483c0-5.444 2.637-10.538 7.056-13.717 20.616-14.827 34.05-39.008 34.05-66.341 0-46.577-38.98-84.051-86.097-81.578-42.114 2.21-75.906 36.763-77.247 78.914-.882 27.715 12.049 52.453 32.428 67.861 4.194 3.171 6.631 8.145 6.631 13.402v9.941l-.399 23.342h85.531z" fill="#fedf30"/><path d="m204.479 193.575h31.616l.342-19.994v-9.941c0-5.257-2.437-10.232-6.631-13.402-20.379-15.408-33.31-40.146-32.428-67.861 1.31-41.193 33.619-75.111 74.395-78.695-9.001-2.801-18.668-4.093-28.706-3.566-42.114 2.21-75.906 36.763-77.247 78.914-.882 27.715 12.049 52.453 32.428 67.861 4.194 3.171 6.631 8.145 6.631 13.403v9.94z" fill="#fed402"/><path d="m269.811 191.951-42.9 1.624-2.679 10.121v8.146c0 12.834 10.404 23.237 23.237 23.237s23.237-10.404 23.237-23.237v-8.146z" fill="#e5e1e5"/><g><path d="m264.961 193.734c-4.142 0-7.5-3.357-7.5-7.5v-81.467h-19.981v81.467c0 4.143-3.358 7.5-7.5 7.5s-7.5-3.357-7.5-7.5v-81.467h-9.927c-13.745 0-24.927-11.182-24.927-24.927s11.182-24.927 24.927-24.927 24.927 11.182 24.927 24.927v9.927h19.981v-9.927c0-13.745 11.182-24.927 24.927-24.927s24.927 11.182 24.927 24.927-11.182 24.927-24.927 24.927h-9.927v81.467c0 4.143-3.358 7.5-7.5 7.5zm7.5-103.967h9.927c5.474 0 9.927-4.453 9.927-9.927s-4.453-9.927-9.927-9.927-9.927 4.453-9.927 9.927zm-59.908-19.853c-5.474 0-9.927 4.453-9.927 9.927s4.453 9.927 9.927 9.927h9.927v-9.927c-.001-5.474-4.454-9.927-9.927-9.927z" fill="#fee97d"/></g><g><path d="m114.701 75.831c-.901 0-1.818-.164-2.709-.509l-24.417-9.468c-3.862-1.498-5.779-5.843-4.281-9.705s5.842-5.774 9.704-4.281l24.417 9.468c3.862 1.498 5.779 5.843 4.281 9.705-1.153 2.97-3.99 4.79-6.995 4.79z" fill="#fee97d"/></g><g><path d="m90.288 169.012c-3.006 0-5.843-1.819-6.995-4.791-1.498-3.861.419-8.206 4.281-9.704l24.417-9.467c3.862-1.495 8.207.42 9.704 4.282 1.498 3.861-.419 8.206-4.281 9.704l-24.417 9.467c-.891.345-1.808.509-2.709.509z" fill="#fee97d"/></g><g><path d="m381.24 75.831c-3.006 0-5.843-1.819-6.995-4.79-1.498-3.862.419-8.207 4.281-9.705l24.417-9.468c3.863-1.494 8.207.42 9.704 4.281 1.498 3.862-.419 8.207-4.281 9.705l-24.417 9.468c-.891.345-1.808.509-2.709.509z" fill="#fee97d"/></g><g><path d="m405.653 169.012c-.901 0-1.818-.164-2.709-.509l-24.417-9.467c-3.862-1.498-5.779-5.843-4.281-9.704 1.497-3.861 5.84-5.775 9.704-4.282l24.417 9.467c3.862 1.498 5.779 5.843 4.281 9.704-1.152 2.971-3.989 4.791-6.995 4.791z" fill="#fee97d"/></g><path d="m243.143 211.843v-8.146l2.679-10.121 24.044-.91-.055-.714-42.9 1.624-2.679 10.121v8.146c0 12.834 10.404 23.237 23.237 23.237 3.368 0 6.566-.722 9.455-2.011-8.119-3.623-13.781-11.761-13.781-21.226z" fill="#d7d0d6"/><path d="m278.898 170.234h-64.86c-9.24 0-16.731 7.491-16.731 16.731 0 9.24 7.491 16.731 16.731 16.731h64.86c9.24 0 16.731-7.491 16.731-16.731 0-9.241-7.491-16.731-16.731-16.731z" fill="#c9bfc8"/><path d="m216.216 186.965c0-9.241 7.491-16.731 16.731-16.731h-18.91c-9.24 0-16.731 7.491-16.731 16.731 0 9.24 7.491 16.731 16.731 16.731h18.91c-9.24 0-16.731-7.491-16.731-16.731z" fill="#baafb9"/></svg>