<?xml version="1.0" encoding="iso-8859-1"?>
<!-- Generator: Adobe Illustrator 19.0.0, SVG Export Plug-In . SVG Version: 6.00 Build 0)  -->
<svg version="1.1" id="Capa_1" xmlns="http://www.w3.org/2000/svg" xmlns:xlink="http://www.w3.org/1999/xlink" x="0px" y="0px"
	 viewBox="0 0 512 512" style="enable-background:new 0 0 512 512;" xml:space="preserve">
<g>
	<rect x="8.533" y="294.398" style="fill:#78B9EB;" width="68.267" height="102.4"/>
	<rect x="230.4" y="149.331" style="fill:#78B9EB;" width="51.2" height="34.133"/>
</g>
<polygon style="fill:#0A87EB;" points="307.2,149.331 307.2,115.198 204.8,115.198 204.8,149.331 230.4,149.331 281.6,149.331 "/>
<path style="fill:#ED1C24;" d="M384,115.198V98.131c0-9.429-7.637-17.067-17.067-17.067H145.067
	c-9.429,0-17.067,7.637-17.067,17.067v17.067H384z"/>
<path style="fill:#78B9EB;" d="M187.819,396.798c28.186,37.658,81.553,45.338,119.211,17.152
	c6.502-4.873,12.279-10.65,17.152-17.152h42.752v-102.4h-42.752c-4.779-6.485-10.496-12.203-16.981-16.981
	c-2.722-2.057-5.572-3.934-8.533-5.632v-54.187h-85.333v54.187c-2.961,1.698-5.811,3.575-8.533,5.632
	c-6.485,4.779-12.203,10.496-16.981,16.981h-42.752v102.4L187.819,396.798L187.819,396.798z"/>
<g>
	<polygon style="fill:#0A87EB;" points="324.267,217.598 324.267,183.464 281.6,183.464 230.4,183.464 187.733,183.464 
		187.733,217.598 213.333,217.598 298.667,217.598 	"/>
	<polygon style="fill:#0A87EB;" points="110.933,430.931 145.067,430.931 145.067,396.798 145.067,294.398 145.067,251.731 
		110.933,251.731 110.933,277.331 110.933,413.864 	"/>
	<polygon style="fill:#0A87EB;" points="76.8,413.864 110.933,413.864 110.933,277.331 76.8,277.331 76.8,294.398 76.8,396.798 	"/>
</g>
<rect x="435.2" y="294.398" style="fill:#78B9EB;" width="68.267" height="102.4"/>
<g>
	<polygon style="fill:#0A87EB;" points="366.933,430.931 401.067,430.931 401.067,413.864 401.067,277.331 401.067,251.731 
		366.933,251.731 366.933,294.398 366.933,396.798 	"/>
	<polygon style="fill:#0A87EB;" points="435.2,413.864 435.2,396.798 435.2,294.398 435.2,277.331 401.067,277.331 401.067,413.864 
			"/>
</g>
<path style="fill:#231F20;" d="M512,285.864h-68.267v-17.067H409.6v-25.6h-51.2v42.667h-30.046
	c-4.685-5.743-10.069-10.88-16.034-15.283c-1.707-1.28-3.413-2.475-5.12-3.575v-40.875h25.6v-51.2h-42.667v-17.067h25.6v-34.133H384
	c4.71,0,8.533-3.823,8.533-8.533V98.131c0-14.14-11.46-25.6-25.6-25.6H145.067c-14.14,0-25.6,11.46-25.6,25.6v17.067
	c0,4.71,3.823,8.533,8.533,8.533h68.267v34.133h25.6v17.067H179.2v51.2h25.6v40.875c-1.707,1.101-3.413,2.278-5.06,3.541
	c-5.99,4.412-11.392,9.557-16.094,15.317H153.6v-42.667h-51.2v25.6H68.267v17.067H0v119.467h68.267v17.067H102.4v17.067h51.2
	v-34.133h30.063c32.905,39.953,91.964,45.662,131.917,12.757c4.651-3.831,8.926-8.107,12.757-12.757H358.4v34.133h51.2v-17.067
	h34.133v-17.067H512V285.864z M136.533,106.664v-8.533c0-4.71,3.823-8.533,8.533-8.533h221.867c4.71,0,8.533,3.823,8.533,8.533
	v8.533H136.533z M213.333,123.731h85.333v17.067h-85.333V123.731z M238.933,157.864h34.133v17.067h-34.133V157.864z
	 M196.267,191.998h119.467v17.067H196.267V191.998z M17.067,388.264v-85.333h51.2v85.333H17.067z M85.333,405.331V285.864H102.4
	v119.467H85.333z M136.533,422.398h-17.067V260.264h17.067V422.398z M324.181,388.264c-2.688,0-5.214,1.263-6.827,3.413
	c-25.353,33.886-73.378,40.798-107.264,15.445c-5.862-4.386-11.059-9.583-15.445-15.445c-1.613-2.15-4.139-3.413-6.827-3.413H153.6
	v-85.333h34.219c2.697-0.017,5.231-1.306,6.827-3.473c6.204-8.235,14.012-15.13,22.955-20.258c2.645-1.527,4.275-4.361,4.267-7.415
	v-45.653h68.267v45.653c-0.009,3.055,1.621,5.888,4.267,7.415c2.662,1.545,5.231,3.251,7.68,5.12
	c5.794,4.267,10.906,9.378,15.172,15.172c1.596,2.167,4.13,3.456,6.827,3.473H358.4v85.299H324.181z M375.467,422.398V260.264
	h17.067v162.133H375.467z M409.6,405.331V285.864h17.067v119.467H409.6z M494.933,388.264h-51.2v-85.333h51.2V388.264z"/>
<g>
</g>
<g>
</g>
<g>
</g>
<g>
</g>
<g>
</g>
<g>
</g>
<g>
</g>
<g>
</g>
<g>
</g>
<g>
</g>
<g>
</g>
<g>
</g>
<g>
</g>
<g>
</g>
<g>
</g>
</svg>
